<svg xmlns="http://www.w3.org/2000/svg" width="448.54" height="462.904" viewBox="0 0 448.54 462.904"><g transform="translate(-31.73 -21.548)"><path d="M457.61,480.451H444.83a8,8,0,0,1-8-8V427.874h28.78v44.577A8,8,0,0,1,457.61,480.451Z" fill="#a56021"/><path d="M448.83,459.874h16.78v-32H436.83v44.577a8,8,0,0,0,8,8h4Z" fill="#8c4c17"/><path d="M460.27,451.265H428.32a20,20,0,0,1-20-20V131.054a20,20,0,0,1,20-20h31.95a20,20,0,0,1,20,20V431.265A20,20,0,0,1,460.27,451.265Z" fill="#bf6c0d"/><path d="M410.252,175.232H408.32V431.265a20,20,0,0,0,20,20h24.331V217.631A42.4,42.4,0,0,0,410.252,175.232Z" fill="#a56021"/><path d="M328.124,201.839a10,10,0,0,1-10-10V50.736c0-5.066-4.664-9.188-10.4-9.188H179.688c-5.732,0-10.4,4.122-10.4,9.188V97.18a10,10,0,0,1-20,0V50.736c0-16.094,13.635-29.188,30.4-29.188h128.04c16.76,0,30.4,13.094,30.4,29.188v141.1A10,10,0,0,1,328.124,201.839Z" fill="#8c4c17"/><path d="M388.759,213.159H267.489V169.371a15,15,0,0,1,15-15h91.27a15,15,0,0,1,15,15Z" fill="#e58d23"/><path d="M277.489,183.371a15,15,0,0,1,15-15h91.27a14.938,14.938,0,0,1,4.993.869,15,15,0,0,0-14.993-14.869h-91.27a15,15,0,0,0-15,15v43.788h10Z" fill="#bf6c0d"/><path d="M311.855,200.98V182.033a51.484,51.484,0,0,0-8.024-27.662H282.49a15,15,0,0,0-15,15V200.98h44.365Z" fill="#bf6c0d"/><path d="M432.651,243.157H223.6V227.631a42.4,42.4,0,0,1,42.4-42.4H390.252a42.4,42.4,0,0,1,42.4,42.4Z" fill="#ffb74b"/><path d="M422.651,479.921H233.6a10,10,0,0,1-10-10V243.157H432.651V469.921A10,10,0,0,1,422.651,479.921Z" fill="#ffa730"/><path d="M310.855,200.98V185.232H266a42.4,42.4,0,0,0-42.4,42.4v15.526h87.258Z" fill="#ffa730"/><path d="M310.855,469.921V243.157H223.6V469.921a10.058,10.058,0,0,0,10.116,10h67.026A10.058,10.058,0,0,0,310.855,469.921Z" fill="#e58d23"/><path d="M233.29,160.371H85.295V103.628a15,15,0,0,1,15-15H218.29a15,15,0,0,1,15,15Z" fill="#ffb74b"/><path d="M150.295,88.628h-50a15,15,0,0,0-15,15v56.743h50V103.628A15,15,0,0,1,150.295,88.628Z" fill="#ffa730"/><path d="M286.855,200.98H31.73V182.033A51.743,51.743,0,0,1,83.473,130.29H235.112a51.743,51.743,0,0,1,51.743,51.743Z" fill="#ffd551"/><path d="M133.473,130.29h-50A51.743,51.743,0,0,0,31.73,182.033V200.98h50V182.033A51.743,51.743,0,0,1,133.473,130.29Z" fill="#ffc34c"/><path d="M276.855,479.921H41.73a10,10,0,0,1-10-10V190.98H286.855V469.921A10,10,0,0,1,276.855,479.921Z" fill="#ffc34c"/><path d="M81.73,469.921V190.98h-50V469.921a10,10,0,0,0,10,10h50A10,10,0,0,1,81.73,469.921Z" fill="#ffb74b"/><path d="M264.256,292.6a6,6,0,0,1-6-6V271.011a6,6,0,0,1,12,0V286.6A6,6,0,0,1,264.256,292.6Z" fill="#ffd551"/><path d="M264.256,463.116a6,6,0,0,1-6-6V308a6,6,0,0,1,12,0V457.116A6,6,0,0,1,264.256,463.116Z" fill="#ffd551"/><path d="M408.256,292.6a6,6,0,0,1-6-6V271.011a6,6,0,0,1,12,0V286.6A6,6,0,0,1,408.256,292.6Z" fill="#f9bb32"/><path d="M408.256,463.116a6,6,0,0,1-6-6V308a6,6,0,0,1,12,0V457.116A6,6,0,0,1,408.256,463.116Z" fill="#f9bb32"/><path d="M465.61,244a6,6,0,0,1-6-6V144.747a6,6,0,1,1,12,0V238A6,6,0,0,1,465.61,244Z" fill="#e58d23"/><circle cx="15" cy="15" r="15" transform="translate(93.102 401.265)" fill="#ffb74b"/><circle cx="15" cy="15" r="15" transform="translate(135.295 431.94)" fill="#ffb74b"/><circle cx="15" cy="15" r="15" transform="translate(332.555 431.94)" fill="#e58d23"/><path d="M111.931,300.956a4,4,0,0,1-4-4V113.54a4,4,0,0,1,8,0v3.284h36.448a4,4,0,0,1,0,8H115.931V143.31h36.448a4,4,0,0,1,4,4V173.8a4,4,0,0,1-4,4H115.931v18.486h36.448a4,4,0,0,1,4,4v26.486a4,4,0,0,1-4,4H115.931v18.486h36.448a4,4,0,0,1,4,4V279.74a4,4,0,0,1-4,4H115.931v13.216A4,4,0,0,1,111.931,300.956Zm4-25.216h32.448V257.254H115.931Zm0-52.972h32.448V204.282H115.931Zm0-52.972h32.448V151.31H115.931Z" fill="#bf6c0d"/><path d="M152.378,308.319a4,4,0,0,1-4-4V111.054a4,4,0,1,1,8,0V304.319A4,4,0,0,1,152.378,308.319Z" fill="#bf6c0d"/><path d="M152.378,484.452a4,4,0,0,1-4-4V467.236H115.93v13.216a4,4,0,0,1-8,0V297.036a4,4,0,0,1,8,0v3.284h36.448a4,4,0,0,1,4,4V480.452A4,4,0,0,1,152.378,484.452Zm-36.447-25.216h32.448V440.75H115.931Zm0-26.486h32.448V414.264H115.931Zm0-26.486h32.448V387.778H115.931Zm0-26.487h32.448V361.291H115.931Zm0-26.486h32.448V334.8H115.931Zm0-26.486h32.448V308.319H115.931Z" fill="#bf6c0d"/></g></svg>