<?xml version="1.0" encoding="iso-8859-1"?>
<!-- Generator: Adobe Illustrator 18.1.1, SVG Export Plug-In . SVG Version: 6.00 Build 0)  -->
<svg version="1.1" id="Capa_1" xmlns="http://www.w3.org/2000/svg" xmlns:xlink="http://www.w3.org/1999/xlink" x="0px" y="0px"
	 viewBox="0 0 285.812 285.812" style="enable-background:new 0 0 285.812 285.812;" xml:space="preserve">
<g>
	<path style="fill:#010002;" d="M260.45,157.734c-8.817,5.939-22.817,4.873-31.28-2.355l-34.5-29.529
		c-8.458-7.234-8.991-19.537-1.191-27.473l66.057-67.249c7.81-7.941,7.674-16.845-0.294-19.885
		c-7.974-3.046-22.626-1.746-32.732,2.91L124.794,60.99c-10.106,4.65-25.863,3.514-35.202-2.545L44.165,28.932
		c-9.339-6.054-22.85-7.718-30.524-4.455C0.979,29.857,0,40.142,0,46.163c0,8.344,7.702,19.809,17.193,25.623l46.221,28.234
		c9.491,5.809,17.323,19.537,17.492,30.66l1.648,111.969c0.158,11.123,5.309,24.911,11.487,30.78
		c6.19,5.874,14.278,2.154,18.074-8.305l32.15-88.619c3.796-10.465,15.126-15.289,25.297-10.786l41.522,18.389
		c10.171,4.498,17.171,16.676,15.621,27.19c-1.545,10.514,0.462,21.038,4.482,23.513c4.014,2.469,12.232-3.057,18.357-12.352
		l30.801-48.941c5.749-9.529,7.196-19.336,3.225-21.881C279.628,149.07,269.255,151.795,260.45,157.734z"/>
</g>
<g>
</g>
<g>
</g>
<g>
</g>
<g>
</g>
<g>
</g>
<g>
</g>
<g>
</g>
<g>
</g>
<g>
</g>
<g>
</g>
<g>
</g>
<g>
</g>
<g>
</g>
<g>
</g>
<g>
</g>
</svg>
