<?xml version="1.0" encoding="iso-8859-1"?>
<!-- Generator: Adobe Illustrator 18.1.1, SVG Export Plug-In . SVG Version: 6.00 Build 0)  -->
<svg version="1.1" id="Capa_1" xmlns="http://www.w3.org/2000/svg" xmlns:xlink="http://www.w3.org/1999/xlink" x="0px" y="0px"
	 viewBox="0 0 273.302 273.302" style="enable-background:new 0 0 273.302 273.302;" xml:space="preserve">
<g>
	<path style="fill:#010002;" d="M273.302,74.507c0-5.831-1.218-10.557-2.714-10.557s-2.714-5.755-2.714-12.853
		s1.218-12.858,2.714-12.858s2.714-4.727,2.714-10.552c0-5.831-6.478-10.557-14.473-10.557c0,0-3.068,0-6.859,0
		c-3.791,0-7.131-5.374-11.466-9.377c-2.556-2.361-5.972-3.802-9.73-3.802H63.088c-7.995,0-14.473,6.483-14.473,14.479v236.447
		c0,7.995,6.478,14.479,14.473,14.479h167.686c7.995,0,14.473-6.483,14.473-14.479v-79.53c0-9.013,2.094-16.317,4.678-16.317
		c1.458,0,3.035,0,4.678,0c7.326,0,13.271-6.075,13.271-13.576c0-7.495,1.218-13.57,2.714-13.57s2.714-4.727,2.714-10.552
		c0-5.825-1.218-10.557-2.714-10.557s-2.714-5.755-2.714-12.853s1.218-12.858,2.714-12.858
		C272.084,85.064,273.302,80.338,273.302,74.507z"/>
	<path style="fill:#010002;" d="M26.515,269.345c5.629,0,10.198-7.305,10.198-16.317V20.263c0-9.013-4.569-16.317-10.198-16.317
		H16.317C7.305,3.946,0,11.468,0,20.742v231.802c0,9.274,7.305,16.796,16.317,16.796C16.317,269.345,20.886,269.345,26.515,269.345z
		"/>
</g>
<g>
</g>
<g>
</g>
<g>
</g>
<g>
</g>
<g>
</g>
<g>
</g>
<g>
</g>
<g>
</g>
<g>
</g>
<g>
</g>
<g>
</g>
<g>
</g>
<g>
</g>
<g>
</g>
<g>
</g>
</svg>
