<?xml version="1.0" encoding="iso-8859-1"?>
<!-- Generator: Adobe Illustrator 18.1.1, SVG Export Plug-In . SVG Version: 6.00 Build 0)  -->
<svg version="1.1" id="Capa_1" xmlns="http://www.w3.org/2000/svg" xmlns:xlink="http://www.w3.org/1999/xlink" x="0px" y="0px"
	 viewBox="0 0 237.002 237.002" style="enable-background:new 0 0 237.002 237.002;" xml:space="preserve">
<g>
	<path style="fill:#010002;" d="M221.234,82.307c-8.066-4.014-15.61-9.654-20.462-14.49c-2.861-2.845-6.815-4.607-11.172-4.607H15.8
		C7.076,63.21,0,70.237,0,78.972v79.019c0,8.719,7.082,15.8,15.8,15.8h173.8c4.357,0,8.305-1.773,11.172-4.629
		c4.846-4.846,12.271-11.166,20.326-15.202c7.936-3.971,15.904-11.852,15.904-27.484v-17.351
		C237.002,109.121,237.002,90.155,221.234,82.307z M55.593,128.669c-5.053,7.462-12.466,13.511-16.562,13.511
		s-7.413-7.305-7.413-16.317V111.09c0-9.013,7.305-16.317,16.317-16.317h14.288c9.013,0,12.222,6.048,7.169,13.511L55.593,128.669z
		 M118.463,128.637c-5.026,7.479-16.404,13.543-25.417,13.543H79.285c-9.013,0-12.287-6.092-7.316-13.609l13.364-20.19
		c4.971-7.517,16.306-13.609,25.319-13.609h14.239c9.013,0,12.243,6.065,7.218,13.543L118.463,128.637z M173.555,125.868
		c0,9.013-7.305,16.317-16.317,16.317h-14.734c-9.013,0-12.222-6.048-7.169-13.511l13.799-20.386
		c5.053-7.462,12.57-13.57,16.785-13.636c4.215-0.071,7.636,7.18,7.636,16.192C173.555,110.845,173.555,125.868,173.555,125.868z
		 M221.201,125.868c0,9.013-3.535,16.317-7.898,16.317c-4.362,0-7.898-7.305-7.898-16.317v-15.262
		c0-9.013,3.535-16.339,7.898-16.366c4.362-0.027,7.898,7.256,7.898,16.268V125.868z"/>
</g>
<g>
</g>
<g>
</g>
<g>
</g>
<g>
</g>
<g>
</g>
<g>
</g>
<g>
</g>
<g>
</g>
<g>
</g>
<g>
</g>
<g>
</g>
<g>
</g>
<g>
</g>
<g>
</g>
<g>
</g>
</svg>
