<?xml version="1.0" encoding="iso-8859-1"?>
<!-- Generator: Adobe Illustrator 18.1.1, SVG Export Plug-In . SVG Version: 6.00 Build 0)  -->
<svg version="1.1" id="Capa_1" xmlns="http://www.w3.org/2000/svg" xmlns:xlink="http://www.w3.org/1999/xlink" x="0px" y="0px"
	 viewBox="0 0 296.37 296.37" style="enable-background:new 0 0 296.37 296.37;" xml:space="preserve">
<g>
	<path style="fill:#010002;" d="M121.069,247.456c-28.267-17.661-90.827-58.345-103.146-79.932
		C1.871,139.436-3.649,123.13,2.377,95.336c2.856-13.244,8.496-23.676,13.63-30.975c5.183-7.375,15.958-17.525,23.954-21.68
		c8.072-4.194,19.885-8.289,35.615-8.648c33.815,0,52.884,12.771,62.821,23.198c6.217,6.521,12.423,6.472,18.602-0.087
		c9.981-10.595,29.36-23.513,64.208-22.719c15.719,0.348,27.533,4.433,35.61,8.632c7.995,4.161,18.77,14.31,23.905,21.718
		c4.988,7.196,10.454,17.465,13.282,30.562c6.005,27.794,0.495,44.1-15.529,72.187c-12.352,21.593-74.907,62.272-103.174,79.932
		c-7.642,4.77-18.759,14.957-27.081,14.881C139.904,262.272,128.71,252.226,121.069,247.456z"/>
</g>
<g>
</g>
<g>
</g>
<g>
</g>
<g>
</g>
<g>
</g>
<g>
</g>
<g>
</g>
<g>
</g>
<g>
</g>
<g>
</g>
<g>
</g>
<g>
</g>
<g>
</g>
<g>
</g>
<g>
</g>
</svg>
