<?xml version="1.0" encoding="iso-8859-1"?>
<!-- Generator: Adobe Illustrator 18.1.1, SVG Export Plug-In . SVG Version: 6.00 Build 0)  -->
<svg version="1.1" id="Capa_1" xmlns="http://www.w3.org/2000/svg" xmlns:xlink="http://www.w3.org/1999/xlink" x="0px" y="0px"
	 viewBox="0 0 304.463 304.463" style="enable-background:new 0 0 304.463 304.463;" xml:space="preserve">
<g>
	<path style="fill:#010002;" d="M252.014,299.299c-2.817,2.937-7.288,5.145-14.348,5.145H66.781c0,0-19.075,1.403-19.075-19.64
		V91.521c0-9.013-1.115-24.378,5.091-29.822c6.206-5.45,13.717,0.016,13.396,5.374l-0.587,9.703c0,21.294,8.871,30.66,17.459,34.734
		c8.142,3.862,23.176,2.986,32.188,2.986h84.931c20.119,0,29.714-13.576,34.228-25.08c3.291-8.387,3.753-19.581,3.573-24.247
		c-0.179-4.667,7.838-9.562,13.908-3.568c6.065,5.994,4.824,21.495,4.824,30.502v176.378
		C256.719,277.499,258.008,293.055,252.014,299.299z"/>
	<path style="fill:#010002;" d="M203.089,57.255c0,0-20.696-0.642-20.696-18.482V18.262c0-19.586-29.349-18.243-29.349-18.243
		h-0.223c0,0-29.349-1.343-29.349,18.243v20.516c0,17.835-20.696,18.482-20.696,18.482s-18.292,1.229-17.661,18.411
		c0,0,1.284,19.994,15.969,19.994H204.77c14.685,0,15.969-19.994,15.969-19.994C221.386,58.484,203.089,57.255,203.089,57.255z
		 M152.941,39.012c-5.548,0-10.106-4.558-10.106-10.117c0-5.608,4.558-10.111,10.106-10.111c5.548,0,10.106,4.504,10.106,10.111
		C163.047,34.449,158.484,39.012,152.941,39.012z"/>
</g>
<g>
</g>
<g>
</g>
<g>
</g>
<g>
</g>
<g>
</g>
<g>
</g>
<g>
</g>
<g>
</g>
<g>
</g>
<g>
</g>
<g>
</g>
<g>
</g>
<g>
</g>
<g>
</g>
<g>
</g>
</svg>
