<?xml version="1.0" encoding="iso-8859-1"?>
<!-- Generator: Adobe Illustrator 18.1.1, SVG Export Plug-In . SVG Version: 6.00 Build 0)  -->
<svg version="1.1" id="Capa_1" xmlns="http://www.w3.org/2000/svg" xmlns:xlink="http://www.w3.org/1999/xlink" x="0px" y="0px"
	 viewBox="0 0 289.748 289.748" style="enable-background:new 0 0 289.748 289.748;" xml:space="preserve">
<g>
	<path style="fill:#010002;" d="M248.896,285.108c-2.687,2.654-6.908,4.64-13.522,4.64H54.378c-6.614,0-10.835-1.98-13.522-4.64
		c-5.765-5.695-4.591-20.783-4.591-29.801V124.999c0-9.013-1.169-24.095,4.601-29.763c2.687-2.633,6.902-4.607,13.505-4.607
		c0,0,4.068,0,9.083,0c5.015,0,8.964-7.326,9.872-16.29c7.718-76.131,69.457-74.336,69.457-74.336
		c51.056,0,66.966,48.386,71.839,74.45c1.653,8.855,6.266,16.176,11.417,16.176h9.328c6.608,0,10.824,1.969,13.511,4.607
		c5.776,5.668,4.601,20.745,4.601,29.763v130.315C253.481,264.326,254.661,279.419,248.896,285.108z M127.398,18.899
		c-25.569,8.48-33.809,37.056-36.453,55.478c-1.284,8.92,6.059,16.252,15.072,16.252h77.996c9.013,0,16.442-7.332,15.556-16.295
		c-4.199-42.305-24.851-54.385-39.885-57.469C150.856,15.054,135.948,16.065,127.398,18.899z M219.057,235.423H70.696
		c-9.013,0-16.317,4.052-16.317,9.051v9.056c0,10.002,8.104,18.101,18.107,18.101h144.788c9.997,0,18.101-8.099,18.101-18.101
		c0,0,0-4.052,0-9.056C235.374,239.475,228.064,235.423,219.057,235.423z"/>
</g>
<g>
</g>
<g>
</g>
<g>
</g>
<g>
</g>
<g>
</g>
<g>
</g>
<g>
</g>
<g>
</g>
<g>
</g>
<g>
</g>
<g>
</g>
<g>
</g>
<g>
</g>
<g>
</g>
<g>
</g>
</svg>
