<?xml version="1.0" encoding="iso-8859-1"?>
<!-- Generator: Adobe Illustrator 18.1.1, SVG Export Plug-In . SVG Version: 6.00 Build 0)  -->
<svg version="1.1" id="Capa_1" xmlns="http://www.w3.org/2000/svg" xmlns:xlink="http://www.w3.org/1999/xlink" x="0px" y="0px"
	 viewBox="0 0 292.573 292.573" style="enable-background:new 0 0 292.573 292.573;" xml:space="preserve">
<g>
	<path style="fill:#010002;" d="M292.546,152.884c0-9.013-7.305-16.241-16.317-16.219h-45.77
		c-9.013,0.022-16.415-4.406-16.529-9.959c-0.114-5.553,7.093-10.073,16.105-10.089l46.189-0.114
		c9.013-0.022,16.317-4.27,16.317-9.486v-9.448c0-40.826-40.222-39.036-40.222-39.036h-22.05c-9.013,0-16.078-7.511-19.14-15.991
		c-3.894-10.775-13.13-23.04-34.995-23.04h-60.319c0,0-26.423,0-34.957,23.007c-3.133,8.452-9.932,16.018-18.944,16.018H38.966
		c-39.624,0-38.965,39.036-38.965,39.036s0,4.368,0,9.752c0,5.385,7.305,9.774,16.317,9.801l45.955,0.131
		c9.013,0.027,16.181,4.362,16.013,9.682c-0.169,5.325-7.609,9.643-16.622,9.643h-45.34c-9.013,0-16.317,7.305-16.317,16.317v81.232
		c0,39.624,38.362,38.949,38.362,38.949h214.555c42.077,0,39.624-38.949,39.624-38.949V152.884z M195.046,117.062
		c0,10.786-8.735,19.504-19.504,19.504H117c-10.764,0-19.51-8.724-19.51-19.504V97.557c0-10.78,8.741-19.51,19.51-19.51h58.541
		c10.769,0,19.504,8.724,19.504,19.51C195.046,97.557,195.046,117.062,195.046,117.062z M102.581,43.439
		c3.002-2.997,7.593-5.26,14.604-5.26l56.501,0.25c0,0,8.915-0.256,15.229,4.988c6.929,5.755-1.169,14.517-10.182,14.517h-65.519
		C104.202,57.934,96.343,49.656,102.581,43.439z"/>
	<path style="fill:#010002;" d="M165.783,117.062h-39.02c-5.385,0-9.763-4.389-9.763-9.752c0-5.39,4.378-9.752,9.763-9.752h39.02
		c5.385,0,9.758,4.362,9.758,9.752C175.541,112.673,171.168,117.062,165.783,117.062z"/>
</g>
<g>
</g>
<g>
</g>
<g>
</g>
<g>
</g>
<g>
</g>
<g>
</g>
<g>
</g>
<g>
</g>
<g>
</g>
<g>
</g>
<g>
</g>
<g>
</g>
<g>
</g>
<g>
</g>
<g>
</g>
</svg>
