<?xml version="1.0" encoding="iso-8859-1"?>
<!-- Generator: Adobe Illustrator 18.1.1, SVG Export Plug-In . SVG Version: 6.00 Build 0)  -->
<svg version="1.1" id="Capa_1" xmlns="http://www.w3.org/2000/svg" xmlns:xlink="http://www.w3.org/1999/xlink" x="0px" y="0px"
	 viewBox="0 0 285.986 285.986" style="enable-background:new 0 0 285.986 285.986;" xml:space="preserve">
<g>
	<path style="fill:#010002;" d="M250.899,27.01c-5.961,0-10.791,4.373-10.791,9.769v9.769c0,0-1.724,23.241-32.384,23.959
		c0,0-33.037,0.337-32.373-23.622c0,0-0.076-4.449-0.169-9.937c-0.098-5.488-7.479-9.937-16.486-9.937h-31.47
		c-9.013,0-16.317,4.52-16.317,10.095V47.2c0,0,0.337,23.301-32.047,23.301c0,0-33.374-1.044-33.374-22.975c0,0,0-4.596,0-10.264
		S40.733,27,34.859,27H24.231C12.314,27,2.709,36.67,2.709,48.582v215.795c0,11.928,9.6,21.609,21.522,21.609h237.453
		c11.928,0,21.593-9.676,21.593-21.609V48.593c0-11.906-9.665-21.582-21.593-21.582C261.69,27.01,256.86,27.01,250.899,27.01z
		 M51.095,264.387H40.559c-9.013,0-16.317-7.305-16.317-16.317v-10.53c0-9.013,7.305-16.317,16.317-16.317h10.535
		c9.013,0,16.317,7.305,16.317,16.317v10.53C67.412,257.083,60.102,264.387,51.095,264.387z M51.095,199.641H40.559
		c-9.013,0-16.317-7.305-16.317-16.317v-10.546c0-9.013,7.305-16.317,16.317-16.317h10.535c9.013,0,16.317,7.305,16.317,16.317
		v10.546C67.412,192.336,60.102,199.641,51.095,199.641z M51.095,134.872H40.559c-9.013,0-16.317-7.305-16.317-16.317v-10.546
		c0-9.013,7.305-16.317,16.317-16.317h10.535c9.013,0,16.317,7.305,16.317,16.317v10.546
		C67.412,127.568,60.102,134.872,51.095,134.872z M115.857,264.387h-10.535c-9.013,0-16.317-7.305-16.317-16.317v-10.53
		c0-9.013,7.305-16.317,16.317-16.317h10.535c9.013,0,16.317,7.305,16.317,16.317v10.53
		C132.175,257.083,124.87,264.387,115.857,264.387z M115.857,199.641h-10.535c-9.013,0-16.317-7.305-16.317-16.317v-10.546
		c0-9.013,7.305-16.317,16.317-16.317h10.535c9.013,0,16.317,7.305,16.317,16.317v10.546
		C132.175,192.336,124.87,199.641,115.857,199.641z M115.857,134.872h-10.535c-9.013,0-16.317-7.305-16.317-16.317v-10.546
		c0-9.013,7.305-16.317,16.317-16.317h10.535c9.013,0,16.317,7.305,16.317,16.317v10.546
		C132.175,127.568,124.87,134.872,115.857,134.872z M180.615,264.387h-10.535c-9.013,0-16.317-7.305-16.317-16.317v-10.53
		c0-9.013,7.305-16.317,16.317-16.317h10.535c9.013,0,16.317,7.305,16.317,16.317v10.53
		C196.932,257.083,189.622,264.387,180.615,264.387z M180.615,199.641h-10.535c-9.013,0-16.317-7.305-16.317-16.317v-10.546
		c0-9.013,7.305-16.317,16.317-16.317h10.535c9.013,0,16.317,7.305,16.317,16.317v10.546
		C196.932,192.336,189.622,199.641,180.615,199.641z M180.615,134.872h-10.535c-9.013,0-16.317-7.305-16.317-16.317v-10.546
		c0-9.013,7.305-16.317,16.317-16.317h10.535c9.013,0,16.317,7.305,16.317,16.317v10.546
		C196.932,127.568,189.622,134.872,180.615,134.872z M245.372,264.387h-10.53c-9.013,0-16.317-7.305-16.317-16.317v-10.53
		c0-9.013,7.305-16.317,16.317-16.317h10.53c9.013,0,16.317,7.305,16.317,16.317v10.53
		C261.69,257.083,254.385,264.387,245.372,264.387z M245.372,199.641h-10.53c-9.013,0-16.317-7.305-16.317-16.317v-10.546
		c0-9.013,7.305-16.317,16.317-16.317h10.53c9.013,0,16.317,7.305,16.317,16.317v10.546
		C261.69,192.336,254.385,199.641,245.372,199.641z M245.372,134.872h-10.53c-9.013,0-16.317-7.305-16.317-16.317v-10.546
		c0-9.013,7.305-16.317,16.317-16.317h10.53c9.013,0,16.317,7.305,16.317,16.317v10.546
		C261.69,127.568,254.385,134.872,245.372,134.872z"/>
	<path style="fill:#010002;" d="M88.57,10.008C88.57,4.134,83.811,0,77.904,0H77.24c-5.901,0-10.002,4.134-10.002,10.008v32.689
		c0,5.901,4.101,10.666,10.002,10.666h0.664c5.901,0,10.666-4.765,10.666-10.666V10.008z"/>
	<path style="fill:#010002;" d="M216.828,10.666C216.828,4.792,212.069,0,206.162,0h-0.664c-5.901,0-10.002,4.792-10.002,10.666
		V43.36c0,5.901,4.759,10.666,10.666,10.666s10.666-4.765,10.666-10.666C216.828,43.36,216.828,10.666,216.828,10.666z"/>
</g>
<g>
</g>
<g>
</g>
<g>
</g>
<g>
</g>
<g>
</g>
<g>
</g>
<g>
</g>
<g>
</g>
<g>
</g>
<g>
</g>
<g>
</g>
<g>
</g>
<g>
</g>
<g>
</g>
<g>
</g>
</svg>
