<?xml version="1.0" encoding="iso-8859-1"?>
<!-- Generator: Adobe Illustrator 18.1.1, SVG Export Plug-In . SVG Version: 6.00 Build 0)  -->
<svg version="1.1" id="Capa_1" xmlns="http://www.w3.org/2000/svg" xmlns:xlink="http://www.w3.org/1999/xlink" x="0px" y="0px"
	 viewBox="0 0 304.415 304.415" style="enable-background:new 0 0 304.415 304.415;" xml:space="preserve">
<g>
	<path style="fill:#010002;" d="M256.694,268.443V92.059c0-9.013,1.24-24.508-4.824-30.502c-6.065-5.994-14.082-1.093-13.908,3.573
		c0.179,4.661-0.277,15.855-3.573,24.242c-4.52,11.504-14.114,25.08-34.228,25.08H115.23c-9.013,0-24.046,0.87-32.188-2.991
		c-8.588-4.074-17.459-13.44-17.459-34.734l0.587-9.703c0.326-5.357-7.19-10.824-13.396-5.374s-5.091,20.81-5.091,29.822v193.283
		c0,21.049,19.075,19.64,19.075,19.64h170.885c7.06,0,11.531-2.208,14.348-5.145C257.983,293.006,256.694,277.455,256.694,268.443z
		 M96.9,165.177h110.625c2.763,0,4.993,1.936,4.993,4.699c0,2.785-2.23,5.026-4.993,5.026H96.9c-2.763,0-5.004-2.241-5.004-5.026
		C91.896,167.118,94.137,165.177,96.9,165.177z M97.058,190.691h110.299c2.861,0,5.173,1.67,5.173,4.525s-2.312,5.173-5.173,5.173
		H97.058c-2.861,0-5.173-2.317-5.173-5.173C91.885,192.356,94.197,190.691,97.058,190.691z M207.656,251.386H96.737
		c-2.763,0-5.004-2.241-5.004-5.026c0-2.763,2.241-4.699,5.004-4.699h110.919c2.79,0,5.026,1.936,5.026,4.699
		C212.681,249.145,210.446,251.386,207.656,251.386z M207.677,225.898H96.748c-2.779,0-5.015-2.274-5.015-5.037
		c0-2.752,2.235-4.699,5.015-4.699h110.93c2.763,0,5.004,1.947,5.004,4.699C212.681,223.625,210.44,225.898,207.677,225.898z"/>
	<path style="fill:#010002;" d="M202.358,57.255c0,0-20.696-0.642-20.696-18.477V18.268c0-19.592-29.349-18.248-29.349-18.248
		h-0.223c0,0-29.349-1.338-29.349,18.248v20.511c0,17.835-20.696,18.477-20.696,18.477s-18.292,1.229-17.661,18.417
		c0,0,1.284,19.994,15.969,19.994h103.685c14.685,0,15.969-19.994,15.969-19.994C220.655,58.484,202.358,57.255,202.358,57.255z
		 M152.21,39.012c-5.548,0-10.106-4.558-10.106-10.111c0-5.608,4.558-10.111,10.106-10.111s10.106,4.504,10.106,10.111
		C162.316,34.454,157.752,39.012,152.21,39.012z"/>
</g>
<g>
</g>
<g>
</g>
<g>
</g>
<g>
</g>
<g>
</g>
<g>
</g>
<g>
</g>
<g>
</g>
<g>
</g>
<g>
</g>
<g>
</g>
<g>
</g>
<g>
</g>
<g>
</g>
<g>
</g>
</svg>
