<?xml version="1.0" encoding="iso-8859-1"?>
<!-- Generator: Adobe Illustrator 18.1.1, SVG Export Plug-In . SVG Version: 6.00 Build 0)  -->
<svg version="1.1" id="Capa_1" xmlns="http://www.w3.org/2000/svg" xmlns:xlink="http://www.w3.org/1999/xlink" x="0px" y="0px"
	 viewBox="0 0 279.231 279.231" style="enable-background:new 0 0 279.231 279.231;" xml:space="preserve">
<g>
	<path style="fill:#010002;" d="M279.231,88.122c0-7.74-7.544-17.987-16.845-22.882L156.466,9.468
		c-9.306-4.895-24.427-4.966-33.771-0.147L16.926,63.798C7.577,68.617,0,79.153,0,87.328s4.737,14.811,10.574,14.811
		s10.574,8.523,10.574,19.037v97.305c0,10.514-4.737,19.037-10.574,19.037S0,245.566,0,255.498s8.523,17.982,19.037,17.982h241.157
		c10.514,0,19.037-8.05,19.037-17.982s-4.737-17.982-10.574-17.982s-10.574-8.523-10.574-19.037v-97.305
		c0-10.514,4.737-19.037,10.574-19.037S279.231,95.862,279.231,88.122z M74.042,218.485v-97.305
		c0-10.514,8.523-19.037,19.037-19.037h1.055c10.514,0,19.042,8.523,19.042,19.037v97.305c0,10.514-8.523,19.037-19.042,19.037
		h-1.055C82.565,237.522,74.042,228.994,74.042,218.485z M186.152,237.522h-1.055c-10.514,0-19.037-8.523-19.037-19.037v-97.305
		c0-10.514,8.523-19.037,19.037-19.037h1.055c10.514,0,19.037,8.523,19.037,19.037v97.305
		C205.189,228.994,196.666,237.522,186.152,237.522z"/>
</g>
<g>
</g>
<g>
</g>
<g>
</g>
<g>
</g>
<g>
</g>
<g>
</g>
<g>
</g>
<g>
</g>
<g>
</g>
<g>
</g>
<g>
</g>
<g>
</g>
<g>
</g>
<g>
</g>
<g>
</g>
</svg>
