<?xml version="1.0" encoding="iso-8859-1"?>
<!-- Generator: Adobe Illustrator 18.1.1, SVG Export Plug-In . SVG Version: 6.00 Build 0)  -->
<svg version="1.1" id="Capa_1" xmlns="http://www.w3.org/2000/svg" xmlns:xlink="http://www.w3.org/1999/xlink" x="0px" y="0px"
	 viewBox="0 0 288.439 288.439" style="enable-background:new 0 0 288.439 288.439;" xml:space="preserve">
<g>
	<path style="fill:#010002;" d="M144.236,288.439c-79.568,0-144.048-64.845-144.048-144.407C0.188,64.502,64.668,0,144.236,0
		c79.535,0,144.016,64.502,144.016,144.032C288.251,223.595,223.771,288.439,144.236,288.439z M149.969,45.416v41.185
		c0,3.285-2.654,5.939-5.939,5.939c-3.258,0-5.575-2.654-5.575-5.939V45.416c0-9.013-7.343-16.072-16.192-14.365
		c-46.096,8.909-82.32,45.231-91.077,91.393c-1.681,8.855,5.401,16.187,14.414,16.187h41.174c3.285,0,5.95,2.654,5.95,5.961
		c0,3.285-2.66,5.95-5.95,5.95H45.647c-9.013,0-16.023,7.337-14.261,16.176c9.11,45.639,45.122,81.488,90.876,90.321
		c8.849,1.708,16.192-5.347,16.192-14.365v-40.303c0-3.378,2.382-6.103,5.776-6.103c3.378,0,6.108,2.725,6.108,6.103v40.303
		c0,9.013,7.343,16.051,16.187,14.316c45.558-8.947,81.417-44.753,90.511-90.278c1.762-8.833-5.249-16.176-14.261-16.176h-40.581
		c-3.573,0-6.494-2.208-6.494-5.782c0-3.579,2.921-6.124,6.494-6.124h40.652c9.013,0,16.094-7.348,14.408-16.198
		c-8.768-46.156-45.003-82.483-91.099-91.387C157.306,29.344,149.969,36.404,149.969,45.416z"/>
</g>
<g>
</g>
<g>
</g>
<g>
</g>
<g>
</g>
<g>
</g>
<g>
</g>
<g>
</g>
<g>
</g>
<g>
</g>
<g>
</g>
<g>
</g>
<g>
</g>
<g>
</g>
<g>
</g>
<g>
</g>
</svg>
