<?xml version="1.0" encoding="iso-8859-1"?>
<!-- Generator: Adobe Illustrator 16.0.0, SVG Export Plug-In . SVG Version: 6.00 Build 0)  -->
<!DOCTYPE svg PUBLIC "-//W3C//DTD SVG 1.1//EN" "http://www.w3.org/Graphics/SVG/1.1/DTD/svg11.dtd">
<svg version="1.1" id="Capa_1" xmlns="http://www.w3.org/2000/svg" xmlns:xlink="http://www.w3.org/1999/xlink" x="0px" y="0px"
	 width="354.124px" height="354.124px" viewBox="0 0 354.124 354.124" style="enable-background:new 0 0 354.124 354.124;"
	 xml:space="preserve">
<g>
	<path d="M336.047,233.906l-128.467-75.825c-7.476-4.414-12.094-9.782-12.531-11.124v-7.229c0-20.354-20.885-28.907-21.365-29.079
		c-7.386-3.591-7.152-11-7.086-12.286c0-10.473,9.902-12.736,12.364-12.736c3.021,0,12.946,0.855,13.847,11.82
		c1.021,12.499,9.205,18.09,16.861,18.09c8.93,0,18.567-7.527,18.567-19.678c0-19.288-17.187-46-49.45-46
		c-36.647,0-48.032,35.203-48.032,48.029c0,9.968,2.012,17.66,6.72,25.71c4.6,7.845,11.175,12.279,16.459,15.84
		c2.93,1.979,6.581,4.444,6.581,5.768v3.3c-1.357,1.684-5.716,5.537-12.538,9.539L18.051,234.23
		c-16.267,9.608-20.71,30.061-16.627,44.43c2.702,9.445,9.722,17.984,18.789,22.849c3.008,1.609,6.167,2.426,9.367,2.426
		c9.248,0,17.06-7.158,17.06-15.625c0-5.668-3.092-10.195-5.818-14.195c-1.567-2.306-3.05-4.479-3.603-6.353
		c-0.45-1.525,0.072-2.763,1.399-3.603l126.269-73.722c6.365-3.729,18.591-3.729,24.968,0.007l125.062,73.065
		c1.663,1.177,2.24,2.54,1.705,4.036c-0.678,1.921-2.233,4.047-3.885,6.305c-2.948,4.029-6.293,8.61-6.293,14.459
		c0,8.647,8.064,15.955,17.6,15.955c0,0,0,0,0.007,0c2.954,0,5.891-0.666,8.713-2c13.019-6.125,17.846-17.203,19.575-23.25
		C354.326,271.995,359.034,248.065,336.047,233.906z"/>
</g>
<g>
</g>
<g>
</g>
<g>
</g>
<g>
</g>
<g>
</g>
<g>
</g>
<g>
</g>
<g>
</g>
<g>
</g>
<g>
</g>
<g>
</g>
<g>
</g>
<g>
</g>
<g>
</g>
<g>
</g>
</svg>
