<?xml version="1.0" encoding="iso-8859-1"?>
<!-- Generator: Adobe Illustrator 18.1.1, SVG Export Plug-In . SVG Version: 6.00 Build 0)  -->
<svg version="1.1" id="Capa_1" xmlns="http://www.w3.org/2000/svg" xmlns:xlink="http://www.w3.org/1999/xlink" x="0px" y="0px"
	 viewBox="0 0 235.631 235.631" style="enable-background:new 0 0 235.631 235.631;" xml:space="preserve">
<g>
	<g>
		<path style="fill:#010002;" d="M157.333,31.668c-2.633-0.642-7.49-0.674-12.532-0.604c-6.94,0.098-12.57,7.397-12.57,16.41v53.248
			c0,9.013,2.48,17.073,5.608,16.905c1.741-0.092,3.622-0.419,5.564-1.012c35.408-10.829,65.465-41.386,80.427-58.911
			c5.852-6.853,3.024-10.584-5.983-11.009C196.973,45.706,171.692,35.165,157.333,31.668z"/>
		<path style="fill:#010002;" d="M113.119,7.447c-0.941-0.245-1.898-0.446-2.861-0.587C88.54,3.716,51.26-1.19,39.561,0.262
			c-0.642,0.044-12.602,0.092-15.964,0.092c-5.238,0-8.643,1.294-10.851,3.084c-4.944,3.992-3.922,17.623-3.922,26.63V208.16
			c0,9.013,3.089,19.847,6.902,24.204c3.813,4.357,10.438,4.357,14.794,0c4.357-4.357,7.887-15.191,7.887-24.204v-56.381
			c0-9.013,0.544-17.057,1.409-17.78c0.457-0.386,1.028-0.789,1.697-1.131c8.235-4.313,45.253-21.082,69.723-26.695
			c0.794-0.185,1.566-0.305,2.328-0.381c1.294-0.131,2.355-7.424,2.355-16.431V24.635C115.92,15.622,114.685,7.855,113.119,7.447z
			 M40.687,118.736c-0.228,0.587-0.566,0.887-0.903,1.023c-0.723,0.294-1.371-7.375-1.371-16.388V14.714
			c0-0.343,0.364-2.252,1.246-1.153c0.832,1.033,5.211,8.235,8.556,16.6C59.582,58.58,52.947,89.338,40.687,118.736z"/>
	</g>
</g>
<g>
</g>
<g>
</g>
<g>
</g>
<g>
</g>
<g>
</g>
<g>
</g>
<g>
</g>
<g>
</g>
<g>
</g>
<g>
</g>
<g>
</g>
<g>
</g>
<g>
</g>
<g>
</g>
<g>
</g>
</svg>
