<?xml version="1.0" encoding="iso-8859-1"?>
<!-- Generator: Adobe Illustrator 16.0.0, SVG Export Plug-In . SVG Version: 6.00 Build 0)  -->
<!DOCTYPE svg PUBLIC "-//W3C//DTD SVG 1.1//EN" "http://www.w3.org/Graphics/SVG/1.1/DTD/svg11.dtd">
<svg version="1.1" id="Capa_1" xmlns="http://www.w3.org/2000/svg" xmlns:xlink="http://www.w3.org/1999/xlink" x="0px" y="0px"
	 width="298.618px" height="298.618px" viewBox="0 0 298.618 298.618" style="enable-background:new 0 0 298.618 298.618;"
	 xml:space="preserve">
<g>
	<path d="M24.894,92.417L8.87,75.496c-7.01-7.397-6.041-18.293,2.165-24.331L73.98,4.795c8.202-6.044,21.335-5.828,29.336,0.48
		l32.558,25.665c8.001,6.308,7.292,15.471-1.592,20.464l-80.626,45.36C44.779,101.764,31.901,99.821,24.894,92.417z M87.311,211.429
		l-74.697-45.708c-8.695-5.314-10.502-16.015-4.053-23.902l17.336-21.173c6.449-7.881,18.882-10.217,27.76-5.224l80.632,45.412
		c8.878,4.989,10.463,15.113,3.552,22.596l-22.269,24.079C108.655,214.99,96.005,216.744,87.311,211.429z M187.716,207.406
		l-23.406-24.247c-7.074-7.325-5.608-17.323,3.267-22.319l80.692-45.412c8.881-4.993,21.947-3.237,29.184,3.927l11.061,10.953
		c7.242,7.164,6.551,17.997-1.537,24.19l-71.8,54.969C207.088,215.651,194.791,214.726,187.716,207.406z M250.317,248.425
		l-82.308,46.495c-8.863,5.008-23.2,4.918-32.006-0.204L55.11,247.615c-8.806-5.116-15.946-17.438-15.946-27.508
		c0-10.07,6.999-13.842,15.625-8.419l33.285,20.896c8.625,5.422,21.509,4.011,28.769-3.129l20.938-20.608
		c7.263-7.146,19.303-7.428,26.89-0.63l24.271,21.743c7.59,6.791,20.572,7.662,28.997,1.934l33.692-22.896
		c8.419-5.734,15.145-2.119,15.024,8.076l-0.048,3.813C266.488,231.089,259.192,243.405,250.317,248.425z M248.263,96.771
		l-80.675-45.366c-8.887-4.993-10.192-14.832-2.924-21.966l23.082-22.665c7.272-7.131,20.387-8.92,29.298-3.984l68.502,37.936
		c8.911,4.936,11.565,15.808,5.921,24.292l-16.909,25.433C268.919,98.936,257.15,101.764,248.263,96.771z"/>
</g>
<g>
</g>
<g>
</g>
<g>
</g>
<g>
</g>
<g>
</g>
<g>
</g>
<g>
</g>
<g>
</g>
<g>
</g>
<g>
</g>
<g>
</g>
<g>
</g>
<g>
</g>
<g>
</g>
<g>
</g>
</svg>
