<?xml version="1.0" encoding="iso-8859-1"?>
<!-- Generator: Adobe Illustrator 16.0.0, SVG Export Plug-In . SVG Version: 6.00 Build 0)  -->
<!DOCTYPE svg PUBLIC "-//W3C//DTD SVG 1.1//EN" "http://www.w3.org/Graphics/SVG/1.1/DTD/svg11.dtd">
<svg version="1.1" id="Capa_1" xmlns="http://www.w3.org/2000/svg" xmlns:xlink="http://www.w3.org/1999/xlink" x="0px" y="0px"
	 width="325.977px" height="325.977px" viewBox="0 0 325.977 325.977" style="enable-background:new 0 0 325.977 325.977;"
	 xml:space="preserve">
<g>
	<g>
		<path d="M177.371,65.966l5.861,9.085c7.458,11.562,7.926,25.944,1.062,32.123c-6.857,6.182-15.738,12.421-17.135,15.858
			c-1.393,3.438,14.655,6.038,28.304,7.737l31.783,3.945c13.649,1.699,28.763,6.695,32.925,4.206
			c4.149-2.489,8.25-17.813,13.145-30.657l7.56-19.867c4.894-12.847,9.098-27.541,7.807-32.561
			c-1.285-5.017-12.778-0.658-20.873,3.612c-8.095,4.26-21.395-1.156-29.718-12.109l-15.444-20.326
			C214.331,16.06,208.753,3.023,205.275,1.24C203.828,0.496,201.631,0,198.358,0l-45.129,0.078c0,0-0.709-0.03-1.79-0.006
			c-0.985,0.024-5.909-0.564-10.232,1.549c-2.363,1.156-4.654,2.951-6.752,5.414L116.84,27.683
			c-8.923,10.463-18.846,23.266-17.988,28.862c0.868,5.602,9.68,14.555,15.472,21.75c5.779,7.193,15.267,17.762,22.494,17.504
			c3.579-0.126,7.422-1.774,10.715-6.597l18.687-22.857c1.132-1.381,2.144-2.9,3.032-4.519
			C170.706,59.195,174.135,60.94,177.371,65.966z"/>
		<path d="M303.316,180.906c0,0-2.042-5.098-6.773-7.926c-5.015-2.996-16.165,1.711-23.467,5.555
			c-7.32,3.843-19.876,8.202-23.815,14.255c-1.964,2.997-2.828,7.086-0.811,12.55l12.075,26.781c0.559,1.25,1.243,2.463,2.019,3.64
			c1.261,1.921-3.741,3.374-11.392,3.41l-13.847,0.072c-13.751,0.06-24.884-8.395-24.86-18.897
			c0.024-10.502,0.036-19.017,0.036-19.017s0.307-4.323-1.141-6.539c-2.023-3.116-12.958,8.911-21.708,19.521l-19.947,24.217
			c-8.734,10.61-21.143,20.387-21.5,25.196c-0.141,1.964,0.739,4.498,3.603,7.681l46.054,46.405c0,0,15.24,14.123,15.162,5.224
			l0.258-14.399c0.145-7.95,11.403-14.43,25.16-14.466l16.081-0.042c13.757-0.036,28.289,1.453,31.417-0.9
			c1.381-1.045,2.984-2.69,4.774-5.23l28.187-33.513c0,0,1.566-2.023,2.864-4.611c1.351-2.69,2.822-8.095,2.582-11.848
			c-0.139-2.096-0.625-4.312-1.514-6.605L303.316,180.906z"/>
		<path d="M105.236,109.468c-2.135-4.63-5.632-8.245-11.358-6.671l-57.024,13.982c-13.355,3.279-28.04,7.773-31.813,11.277
			c-3.777,3.513,5.65,12.114,13.441,17.936c7.792,5.831,9.812,20.846,4.513,33.54L13.2,202.992
			c-5.29,12.688-12.262,25.599-11.523,29.574c0.33,1.789,1.111,4.022,2.618,6.814L21.974,281c0,0,1.537,3.171,3.819,5.801
			c2.522,2.895,7.311,4,9.265,4.318c1.108,0.18,2.294,0.275,3.573,0.27l59.27-0.168c0,0,26.932,0.492,27.091-26.421
			c0,0-1.087-27.935-25.899-27.935l-27.054-0.372c-1.742-0.024-3.531,0.108-5.344,0.384c-2.928,0.433-2.528-4.143,0.813-10.652
			l6.044-11.775c6.278-12.237,18.699-19.137,27.76-15.414c9.064,3.734,19.068,9.092,22.747,8.646
			c1.741-0.204,2.987-1.537,2.312-5.404l-12.367-54.427C110.961,134.45,108.599,116.767,105.236,109.468z"/>
	</g>
</g>
<g>
</g>
<g>
</g>
<g>
</g>
<g>
</g>
<g>
</g>
<g>
</g>
<g>
</g>
<g>
</g>
<g>
</g>
<g>
</g>
<g>
</g>
<g>
</g>
<g>
</g>
<g>
</g>
<g>
</g>
</svg>
