<?xml version="1.0" encoding="iso-8859-1"?>
<!-- Generator: Adobe Illustrator 18.1.1, SVG Export Plug-In . SVG Version: 6.00 Build 0)  -->
<svg version="1.1" id="Capa_1" xmlns="http://www.w3.org/2000/svg" xmlns:xlink="http://www.w3.org/1999/xlink" x="0px" y="0px"
	 viewBox="0 0 237.002 237.002" style="enable-background:new 0 0 237.002 237.002;" xml:space="preserve">
<g>
	<path style="fill:#010002;" d="M221.234,82.307c-8.066-4.014-15.61-9.654-20.462-14.49c-2.861-2.85-6.815-4.607-11.172-4.607H15.8
		C7.076,63.21,0,70.243,0,78.972v79.019c0,8.719,7.082,15.8,15.8,15.8h173.8c4.357,0,8.305-1.773,11.172-4.634
		c4.846-4.846,12.271-11.166,20.326-15.197c7.936-3.971,15.904-11.852,15.904-27.484v-17.351
		C237.002,109.121,237.002,90.155,221.234,82.307z M177.183,133.32l-39.972-14.696c-8.458-3.111-15.393,1.675-15.496,10.682
		l-0.098,8.229c-0.103,9.013-6.87,13.38-15.121,9.758l-71.73-31.476c-8.251-3.622-7.821-4.901,0.952-2.861l55.593,12.929
		c8.773,2.04,15.893-3.612,15.893-12.619V98.02c0-9.013,6.065-12.243,13.549-7.223l58.187,39.063
		C186.429,134.881,185.641,136.431,177.183,133.32z M221.201,125.868c0,9.013-3.535,16.317-7.898,16.317
		c-4.362,0-7.898-7.305-7.898-16.317v-15.262c0-9.013,3.535-16.339,7.898-16.366c4.362-0.027,7.898,7.256,7.898,16.268V125.868z"/>
</g>
<g>
</g>
<g>
</g>
<g>
</g>
<g>
</g>
<g>
</g>
<g>
</g>
<g>
</g>
<g>
</g>
<g>
</g>
<g>
</g>
<g>
</g>
<g>
</g>
<g>
</g>
<g>
</g>
<g>
</g>
</svg>
