<?xml version="1.0" encoding="iso-8859-1"?>
<!-- Generator: Adobe Illustrator 18.1.1, SVG Export Plug-In . SVG Version: 6.00 Build 0)  -->
<svg version="1.1" id="Capa_1" xmlns="http://www.w3.org/2000/svg" xmlns:xlink="http://www.w3.org/1999/xlink" x="0px" y="0px"
	 viewBox="0 0 276.232 276.232" style="enable-background:new 0 0 276.232 276.232;" xml:space="preserve">
<g>
	<g>
		<path style="fill:#010002;" d="M56.505,195.714c1.719,1.001,3.601,1.474,5.455,1.474c3.748,0,7.397-1.936,9.415-5.412
			l18.792-32.319c4.525-7.794,13.44-9.013,19.896-2.725l28.631,27.859c2.643,2.573,6.402,3.633,10.019,2.807
			c3.601-0.827,6.532-3.421,7.794-6.897l32.014-66.563c3.073-8.474,11.531-17.149,18.895-19.374
			c7.37-2.23,15.273,2.355,17.655,10.231l4.319,14.272c0.87,2.872,2.725,3.057,4.139,0.408l25.727-48.076
			c1.414-2.649,0.419-5.945-2.23-7.364l-48.076-25.743c-2.649-1.42-4.085-0.234-3.22,2.638c0,0,1.947,6.44,4.357,14.386
			c2.404,7.946-2.638,16.502-11.259,19.113l-16.274,4.928c-3.285,0.995-5.907,3.481-7.076,6.706l-28.131,55.848
			c-3.073,8.474-10.797,10.247-17.258,3.965l-26.543-25.825c-2.399-2.339-5.76-3.432-9.061-2.981
			c-3.318,0.451-6.244,2.415-7.925,5.309l-33.994,58.47C49.548,186.038,51.31,192.695,56.505,195.714z"/>
		<path style="fill:#010002;" d="M262.139,217.073c0,0-5.575-0.125-11.819-0.125H37.256c-9.013,0-16.344-7.299-16.393-16.317
			c-0.163-33.059-0.533-104.843-0.533-104.843c0-2.91-0.408-5.472-1.202-7.609c-1.305-3.503-4.803-5.765-8.915-5.765
			c-4.204,0-7.734,2.322-8.991,5.912c-0.74,2.105-1.115,4.618-1.115,7.468v111.805c0,1.588-0.027,3.242-0.054,4.917
			c-0.185,11.34-0.092,18.482,3.916,22.278c2.616,2.491,6.233,3.747,10.742,3.747h246.966c7.272-0.158,14.555-3.617,14.555-10.992
			C276.232,226.581,276.341,217.073,262.139,217.073z"/>
	</g>
</g>
<g>
</g>
<g>
</g>
<g>
</g>
<g>
</g>
<g>
</g>
<g>
</g>
<g>
</g>
<g>
</g>
<g>
</g>
<g>
</g>
<g>
</g>
<g>
</g>
<g>
</g>
<g>
</g>
<g>
</g>
</svg>
