<?xml version="1.0" encoding="iso-8859-1"?>
<!-- Generator: Adobe Illustrator 18.1.1, SVG Export Plug-In . SVG Version: 6.00 Build 0)  -->
<svg version="1.1" id="Capa_1" xmlns="http://www.w3.org/2000/svg" xmlns:xlink="http://www.w3.org/1999/xlink" x="0px" y="0px"
	 viewBox="0 0 279.523 279.523" style="enable-background:new 0 0 279.523 279.523;" xml:space="preserve">
<g>
	<path style="fill:#010002;" d="M30.138,53.465V31.426c0-21.686,20.152-21.038,20.152-21.038c21.789,0,21.142,20.25,21.142,20.25
		s0,2.524,0,5.635c0,3.111-6.054,9.72-13.522,14.767l-14.25,9.616C36.192,65.698,30.138,62.478,30.138,53.465z"/>
	<path style="fill:#010002;" d="M264.344,93.899L159.403,21.5c-7.419-5.113-15.817-12.793-20.114-12.76
		c-4.297,0.033-12.804,7.495-20.212,12.624L15.235,93.301C7.827,98.43-4.052,108.808,1.377,112.022
		c3.971,2.355,11.025,2.638,11.025,2.638h8.077c0,0,19.95,0,19.95,19.967c0,19.918-0.256,113.834-0.256,113.834
		s1.11,22.322,21.071,22.322h26.945c9.013,0,16.317-7.305,16.317-16.317v-61.837c0-9.013,7.305-16.317,16.317-16.317h37.622
		c9.013,0,16.317,7.305,16.317,16.317v61.837c0,9.013,7.305,16.317,16.317,16.317h26.282c0,0,20.815-0.876,20.815-19.091
		s0-116.537,0-116.537s-0.653-20.696,20.826-20.696l8.262,0.201c5.58,0,8.969-0.789,10.916-1.947
		C283.506,109.553,271.758,99.012,264.344,93.899z"/>
</g>
<g>
</g>
<g>
</g>
<g>
</g>
<g>
</g>
<g>
</g>
<g>
</g>
<g>
</g>
<g>
</g>
<g>
</g>
<g>
</g>
<g>
</g>
<g>
</g>
<g>
</g>
<g>
</g>
<g>
</g>
</svg>
