<?xml version="1.0" encoding="iso-8859-1"?>
<!-- Generator: Adobe Illustrator 18.1.1, SVG Export Plug-In . SVG Version: 6.00 Build 0)  -->
<svg version="1.1" id="Capa_1" xmlns="http://www.w3.org/2000/svg" xmlns:xlink="http://www.w3.org/1999/xlink" x="0px" y="0px"
	 viewBox="0 0 276.232 276.232" style="enable-background:new 0 0 276.232 276.232;" xml:space="preserve">
<g>
	<path style="fill:#010002;" d="M250.309,195.77c-6.239,0-12.94-2.11-13.902-5.173c-0.56-1.779-0.87-3.704-0.876-5.727
		l-0.261-93.187c0.305-10.302-9.165-9.747-9.165-9.747l-36.404,0.038c-9.165,0-9.741,9.73-9.741,9.73l0.228,93.226
		c0.005,1.958-0.19,3.835-0.549,5.564c-0.626,3.03-4.824,5.287-8.572,5.287c-3.742,0-7.941-2.257-8.561-5.287
		c-0.354-1.73-0.549-3.606-0.544-5.564l0.223-56.909c-0.566-8.866-9.665-8.942-9.665-8.942l-36.453-0.141
		c-9.187,0-9.208,8.925-9.208,8.925l-0.234,57.105c-0.005,1.953-0.212,3.818-0.571,5.548c-0.631,3.019-4.797,5.27-8.512,5.27
		s-7.876-2.263-8.49-5.281c-0.354-1.724-0.549-3.584-0.549-5.537v-29.224c0-9.48-9.442-9.176-9.442-9.176l-36.404,0.016
		c-9.192-0.587-9.192,8.333-9.192,8.333v30.122c0,1.904-0.245,3.709-0.239,5.401c0.011,7.234-12.396,5.874-12.292,2.964
		c0.016-0.435-0.604-7.723-0.604-16.731V73.424c0-2.91-0.408-5.472-1.202-7.609c-1.305-3.503-4.803-5.765-8.915-5.765
		c-4.204,0-7.734,2.322-8.991,5.912c-0.74,2.105-1.115,4.618-1.115,7.468v111.805c0,1.588-0.027,3.242-0.054,4.917
		c-0.185,11.335-0.092,18.482,3.916,22.278c2.616,2.491,6.233,3.753,10.742,3.753h246.966c7.272-0.158,14.555-3.617,14.555-10.992
		c0-0.963-0.408-9.41-14.615-9.41C261.612,195.77,256.553,195.77,250.309,195.77z"/>
</g>
<g>
</g>
<g>
</g>
<g>
</g>
<g>
</g>
<g>
</g>
<g>
</g>
<g>
</g>
<g>
</g>
<g>
</g>
<g>
</g>
<g>
</g>
<g>
</g>
<g>
</g>
<g>
</g>
<g>
</g>
</svg>
