<?xml version="1.0" encoding="iso-8859-1"?>
<!-- Generator: Adobe Illustrator 18.1.1, SVG Export Plug-In . SVG Version: 6.00 Build 0)  -->
<svg version="1.1" id="Capa_1" xmlns="http://www.w3.org/2000/svg" xmlns:xlink="http://www.w3.org/1999/xlink" x="0px" y="0px"
	 viewBox="0 0 305.017 305.017" style="enable-background:new 0 0 305.017 305.017;" xml:space="preserve">
<g>
	<path style="fill:#010002;" d="M285.752,36.001H19.265C8.626,36.001,0,44.628,0,55.266v194.485
		c0,10.639,8.626,19.265,19.265,19.265h266.492c10.639,0,19.265-8.621,19.26-19.265V55.266
		C305.017,44.628,296.391,36.001,285.752,36.001z M59.58,243.094c-9.85,0-17.835-7.908-17.835-17.661
		c0-9.752,7.985-17.661,17.835-17.661s17.835,7.908,17.835,17.661C77.414,235.185,69.43,243.094,59.58,243.094z M59.58,190.117
		c-9.85,0-17.835-7.908-17.835-17.661s7.985-17.661,17.835-17.661s17.835,7.908,17.835,17.661S69.43,190.117,59.58,190.117z
		 M119.572,243.094c-9.85,0-17.835-7.908-17.835-17.661c0-9.752,7.985-17.661,17.835-17.661s17.835,7.908,17.835,17.661
		C137.407,235.185,129.423,243.094,119.572,243.094z M119.572,190.117c-9.85,0-17.835-7.908-17.835-17.661
		s7.985-17.661,17.835-17.661s17.835,7.908,17.835,17.661S129.423,190.117,119.572,190.117z M179.565,243.094
		c-9.85,0-17.84-7.908-17.84-17.661c0-9.752,7.99-17.661,17.84-17.661c9.856,0,17.84,7.908,17.84,17.661
		C197.405,235.185,189.421,243.094,179.565,243.094z M179.565,190.117c-9.85,0-17.84-7.908-17.84-17.661s7.99-17.661,17.84-17.661
		c9.856,0,17.84,7.908,17.84,17.661S189.421,190.117,179.565,190.117z M257.393,223.828c0,10.639-7.985,19.265-17.835,19.265
		s-17.835-8.626-17.835-19.265v-49.767c0-10.639,7.985-19.265,17.835-19.265s17.835,8.626,17.835,19.265V223.828z M280.406,105.578
		c0,10.639-8.626,19.265-19.265,19.265H43.882c-10.639,0-19.265-8.626-19.265-19.265V85.769c0-10.639,8.626-19.265,19.265-19.265
		H261.14c10.639,0,19.265,8.626,19.265,19.265V105.578z"/>
</g>
<g>
</g>
<g>
</g>
<g>
</g>
<g>
</g>
<g>
</g>
<g>
</g>
<g>
</g>
<g>
</g>
<g>
</g>
<g>
</g>
<g>
</g>
<g>
</g>
<g>
</g>
<g>
</g>
<g>
</g>
</svg>
