<?xml version="1.0" encoding="iso-8859-1"?>
<!-- Generator: Adobe Illustrator 18.1.1, SVG Export Plug-In . SVG Version: 6.00 Build 0)  -->
<svg version="1.1" id="Capa_1" xmlns="http://www.w3.org/2000/svg" xmlns:xlink="http://www.w3.org/1999/xlink" x="0px" y="0px"
	 viewBox="0 0 235.638 235.638" style="enable-background:new 0 0 235.638 235.638;" xml:space="preserve">
<g>
	<path style="fill:#010002;" d="M157.339,31.658c-2.638-0.636-7.484-0.674-12.532-0.598c-6.94,0.103-19.488-0.908-24.269-6.929
		c-3.525-4.433-4.422-9.709-4.618-12.907c0,0,0-0.653,0-1.452c0-0.805-1.235-1.92-2.801-2.328c-0.941-0.245-1.898-0.446-2.861-0.582
		C88.54,3.723,51.261-1.194,39.562,0.264C38.92,0.307,26.965,0.362,23.598,0.362c-5.238,0-8.643,1.294-10.851,3.079
		C7.803,7.432,8.825,21.063,8.825,30.075v178.097c0,9.007,3.089,19.842,6.902,24.198c3.813,4.357,10.438,4.357,14.794,0
		c4.357-4.357,7.887-15.191,7.887-24.198v-56.398c0-9.013,0.544-17.062,1.409-17.786c0.457-0.381,1.028-0.789,1.697-1.137
		c8.235-4.313,45.253-21.082,69.723-26.695c0.794-0.179,1.566-0.305,2.328-0.375c1.294-0.131,7.354,0.136,12.434,3.089
		c5.08,2.948,8.719,8.92,11.841,8.746c1.746-0.092,3.628-0.413,5.57-1.006c35.408-10.829,65.465-41.386,80.427-58.911
		c5.852-6.859,3.024-10.584-5.983-11.009C196.979,45.696,171.698,35.155,157.339,31.658z M40.693,118.727
		c-0.228,0.582-0.566,0.881-0.903,1.023c-0.723,0.294-1.371-7.375-1.371-16.388V14.704c0-0.343,0.364-2.252,1.246-1.153
		c0.832,1.028,5.211,8.235,8.556,16.6C59.588,58.571,52.953,89.334,40.693,118.727z"/>
</g>
<g>
</g>
<g>
</g>
<g>
</g>
<g>
</g>
<g>
</g>
<g>
</g>
<g>
</g>
<g>
</g>
<g>
</g>
<g>
</g>
<g>
</g>
<g>
</g>
<g>
</g>
<g>
</g>
<g>
</g>
</svg>
