<?xml version="1.0" encoding="iso-8859-1"?>
<!-- Generator: Adobe Illustrator 18.1.1, SVG Export Plug-In . SVG Version: 6.00 Build 0)  -->
<svg version="1.1" id="Capa_1" xmlns="http://www.w3.org/2000/svg" xmlns:xlink="http://www.w3.org/1999/xlink" x="0px" y="0px"
	 viewBox="0 0 272.519 272.519" style="enable-background:new 0 0 272.519 272.519;" xml:space="preserve">
<g>
	<path style="fill:#010002;" d="M252.087,24.378c-3.976-4.585-9.187-7.011-14.74-7.011c-0.011,0-0.022,0-0.033,0l-8.066-0.49
		c-1.001-0.321-3.258-3.111-4.754-4.96c-1.409-1.741-3.008-3.72-4.824-5.537C215.558,2.268,210.081,0,204.256,0H57.113
		c-5.825,0-11.297,2.263-15.42,6.375c-3.764,3.758-4.944,8.909-3.073,13.424c1.746,4.215,5.678,6.946,10.024,6.946l8.469-0.506
		c26.26,0,27.195,24.432,27.217,27.201c0,12.401-4.634,20.913-13.777,25.292l-2.225,1.044c-3.693,1.719-6.88,3.204-6.924,7.218
		c-0.044,4.014,3.214,5.619,6.668,7.321l2.366,1.186c13.609,6.924,13.891,25.259,13.891,25.428c0,10.372-4.504,17.508-13.766,21.8
		l-1.354,0.625c-4.596,2.116-7.914,3.644-7.865,7.87c0.054,4.215,3.519,5.711,7.908,7.604l1.615,0.696
		c14.914,6.511,13.549,24.568,13.467,25.797c0,25.069-26.456,27.201-27.217,27.271h-8.191c-7.511,0-13.619,6.108-13.619,13.614
		l0.005,8.338c0.402,13.135,8.251,37.976,35.049,37.976h151.315c22.953,0,28.522-4.819,30.35-6.396
		c4.422-3.818,6.755-8.795,6.755-14.392V55.473C258.772,32.09,253.74,26.282,252.087,24.378z M204.261,234.38
		c9.04,0,16.355-7.316,16.355-16.35V52.911c0-9.013,3.775-15.061,8.431-13.505c4.656,1.556,8.431,10.117,8.431,19.135v176.857
		c0,0,0.517,15.344-16.861,15.344H89.72c-9.013,0-21.963-1.643-27.31-6.135c-5.347-4.493,1.447-10.71,10.459-10.677L204.261,234.38z
		 M106.124,87.292v-16.48c0-9.013,7.305-16.317,16.317-16.317h65.497c9.013,0,16.317,7.305,16.317,16.317v16.48
		c0,9.013-7.305,16.317-16.317,16.317h-65.497C113.429,103.609,106.124,96.31,106.124,87.292z"/>
	<path style="fill:#010002;" d="M57.091,61.81c5.88,0,10.666-4.765,10.666-10.666V50.48c0-5.901-4.786-10.002-10.666-10.002H24.402
		c-5.901,0-10.666,4.765-10.666,10.666S18.501,61.81,24.402,61.81H57.091z"/>
	<path style="fill:#010002;" d="M57.091,127.078c5.88,0,10.666-4.765,10.666-10.666v-0.664c0-5.901-4.786-10.002-10.666-10.002
		H24.402c-5.901,0-10.666,4.765-10.666,10.666c0,5.901,4.765,10.666,10.666,10.666H57.091z"/>
	<path style="fill:#010002;" d="M57.091,192.347c5.88,0,10.666-4.765,10.666-10.666v-0.664c0-5.901-4.786-10.002-10.666-10.002
		H24.402c-5.901,0-10.666,4.765-10.666,10.666s4.765,10.666,10.666,10.666C24.402,192.347,57.091,192.347,57.091,192.347z"/>
</g>
<g>
</g>
<g>
</g>
<g>
</g>
<g>
</g>
<g>
</g>
<g>
</g>
<g>
</g>
<g>
</g>
<g>
</g>
<g>
</g>
<g>
</g>
<g>
</g>
<g>
</g>
<g>
</g>
<g>
</g>
</svg>
