<?xml version="1.0" encoding="iso-8859-1"?>
<!-- Generator: Adobe Illustrator 18.1.1, SVG Export Plug-In . SVG Version: 6.00 Build 0)  -->
<svg version="1.1" id="Capa_1" xmlns="http://www.w3.org/2000/svg" xmlns:xlink="http://www.w3.org/1999/xlink" x="0px" y="0px"
	 viewBox="0 0 291.142 291.142" style="enable-background:new 0 0 291.142 291.142;" xml:space="preserve">
<g>
	<path style="fill:#010002;" d="M232.806,59.748c-6.233-7.326-19.428-7.141-29.61-6.935c-1.387,0.022-2.709,0.049-3.927,0.049
		l-89.625-0.789c-6.059-0.054-11.052-5.031-11.134-11.09l-0.337-26.439C97.846,8.697,93.805,0,83.715,0c-0.005,0-0.011,0-0.011,0
		c-0.664,0.038-6.587,0.468-10.541,4.884c-1.659,1.855-3.568,5.107-3.28,9.828c0,0,0.114,14.947,0.109,27.989
		c-0.005,5.695-4.455,10.459-8.757,15.066c-0.734,0.789-1.452,1.545-2.121,2.295c-5.646,6.266-6.26,14.675-6.32,15.915v192.195
		c0,6.342,2.654,11.917,7.675,16.105c5.526,4.618,16.04,6.864,32.15,6.864h123.358c7.74,0,22.371-4.803,22.371-22.969V77.621
		C238.348,70.061,236.482,64.05,232.806,59.748z M94.496,268.423h-2.431c-9.013,0-16.317-3.911-16.317-8.735
		c0-4.824,7.305-8.735,16.317-8.735h2.431c9.013,0,16.317,3.911,16.317,8.735C110.813,264.513,103.514,268.423,94.496,268.423z
		 M94.496,233.428h-2.431c-9.013,0-16.317-3.927-16.317-8.762c0-4.841,7.305-8.762,16.317-8.762h2.431
		c9.013,0,16.317,3.927,16.317,8.762C110.813,229.507,103.514,233.428,94.496,233.428z M94.496,198.374h-2.431
		c-9.013,0-16.317-3.927-16.317-8.762c0-4.846,7.305-8.768,16.317-8.768h2.431c9.013,0,16.317,3.927,16.317,8.768
		C110.813,194.447,103.514,198.374,94.496,198.374z M147.075,268.423h-2.42c-9.013,0-16.317-3.911-16.317-8.735
		c0-4.824,7.305-8.735,16.317-8.735h2.42c9.013,0,16.317,3.911,16.317,8.735C163.392,264.513,156.093,268.423,147.075,268.423z
		 M147.075,233.428h-2.42c-9.013,0-16.317-3.927-16.317-8.762c0-4.841,7.305-8.762,16.317-8.762h2.42
		c9.013,0,16.317,3.927,16.317,8.762C163.392,229.507,156.093,233.428,147.075,233.428z M147.075,198.374h-2.42
		c-9.013,0-16.317-3.927-16.317-8.762c0-4.846,7.305-8.768,16.317-8.768h2.42c9.013,0,16.317,3.927,16.317,8.768
		C163.392,194.447,156.093,198.374,147.075,198.374z M199.6,268.423h-2.426c-9.013,0-16.317-3.911-16.317-8.735
		c0-4.824,7.305-8.735,16.317-8.735h2.426c9.013,0,16.317,3.911,16.317,8.735C215.917,264.513,208.613,268.423,199.6,268.423z
		 M199.6,233.428h-2.426c-9.013,0-16.317-3.927-16.317-8.762c0-4.841,7.305-8.762,16.317-8.762h2.426
		c9.013,0,16.317,3.927,16.317,8.762C215.917,229.507,208.613,233.428,199.6,233.428z M199.6,198.374h-2.426
		c-9.013,0-16.317-3.927-16.317-8.762c0-4.846,7.305-8.768,16.317-8.768h2.426c9.013,0,16.317,3.927,16.317,8.768
		C215.917,194.447,208.613,198.374,199.6,198.374z M215.917,154.279c0,4.852-3.922,8.784-8.757,8.784H84.509
		c-4.824,0-8.757-3.938-8.757-8.784V84.186c0-4.835,3.938-8.757,8.757-8.757H207.16c4.841,0,8.757,3.927,8.757,8.757V154.279z"/>
</g>
<g>
</g>
<g>
</g>
<g>
</g>
<g>
</g>
<g>
</g>
<g>
</g>
<g>
</g>
<g>
</g>
<g>
</g>
<g>
</g>
<g>
</g>
<g>
</g>
<g>
</g>
<g>
</g>
<g>
</g>
</svg>
