<?xml version="1.0" encoding="iso-8859-1"?>
<!-- Generator: Adobe Illustrator 16.0.0, SVG Export Plug-In . SVG Version: 6.00 Build 0)  -->
<!DOCTYPE svg PUBLIC "-//W3C//DTD SVG 1.1//EN" "http://www.w3.org/Graphics/SVG/1.1/DTD/svg11.dtd">
<svg version="1.1" id="Capa_1" xmlns="http://www.w3.org/2000/svg" xmlns:xlink="http://www.w3.org/1999/xlink" x="0px" y="0px"
	 width="312.622px" height="312.622px" viewBox="0 0 312.622 312.622" style="enable-background:new 0 0 312.622 312.622;"
	 xml:space="preserve">
<g>
	<path d="M273.948,293.767v-149.66c0-13.024-13.402-13.862-13.402-13.862H52.113c-13.03,0-13.03,13.441-13.03,13.441v150.495
		c0,10.19-9.439,19.354-17.05,12.58c-8.629-7.68-9.017-20.164-9.017-20.164V26.046c0,0,0-12.742,8.923-20.401
		c7.728-6.635,17.102,2.618,17.044,12.809l-0.318,60.093c0,0,0.688,12.673,13.7,12.673l207.778,0.282
		c0,0,12.544,0.195,13.354-13.243l0.048-59.805c0.006-10.19,9.434-19.444,17.155-12.796c8.905,7.662,8.905,20.389,8.905,20.389
		V287.39c0,9.416-3.807,15.246-8.484,18.879C283.075,312.514,273.948,303.944,273.948,293.767z"/>
	<path d="M248.319,78.54h-14.663c-7.194,0-12.214-5.812-12.214-13.019V12.211C221.442,5.005,226.45,0,233.656,0h14.663
		c7.182,0,12.214,5.005,12.214,12.211v53.311C260.546,72.728,255.501,78.54,248.319,78.54z"/>
	<path d="M156.729,78.54H64.324c-7.212,0-12.211-5.426-12.211-12.602V12.211C52.113,5.005,57.112,0,64.324,0h91.987
		c7.2,0,13.022,5.005,13.022,12.211v53.311C169.333,72.728,163.893,78.54,156.729,78.54z"/>
	<path d="M247.894,143.68H65.504c-13.829,0-13.412,13.021-13.412,13.021l0.396,142.481c0,4.384,1.387,7.338,3.222,9.338
		c3.786,4.107,17.246,4.102,27.436,4.102h164.321c13.451,0,13.049-13.439,13.049-13.439V157.122
		C260.521,143.68,247.894,143.68,247.894,143.68z M104.016,182.774h104.612c3.459,0,6.305,2.822,6.305,6.305
		s-2.84,6.293-6.305,6.293H104.016c-3.486,0-6.323-2.811-6.323-6.293C97.692,185.585,100.53,182.774,104.016,182.774z
		 M208.628,247.494H104.016c-3.486,0-6.323-2.816-6.323-6.306c0-3.482,2.837-6.329,6.323-6.329h104.612
		c3.459,0,6.305,2.847,6.305,6.329C214.933,244.684,212.093,247.494,208.628,247.494z M208.616,221.451H103.997
		c-3.584,0-6.5-2.517-6.5-6.106c0-3.615,2.916-6.527,6.5-6.527h104.619c3.614,0,6.509,2.912,6.509,6.527
		C215.125,218.935,212.23,221.451,208.616,221.451z"/>
</g>
<g>
</g>
<g>
</g>
<g>
</g>
<g>
</g>
<g>
</g>
<g>
</g>
<g>
</g>
<g>
</g>
<g>
</g>
<g>
</g>
<g>
</g>
<g>
</g>
<g>
</g>
<g>
</g>
<g>
</g>
</svg>
