<?xml version="1.0" encoding="iso-8859-1"?>
<!-- Generator: Adobe Illustrator 18.1.1, SVG Export Plug-In . SVG Version: 6.00 Build 0)  -->
<svg version="1.1" id="Capa_1" xmlns="http://www.w3.org/2000/svg" xmlns:xlink="http://www.w3.org/1999/xlink" x="0px" y="0px"
	 viewBox="0 0 287.183 287.183" style="enable-background:new 0 0 287.183 287.183;" xml:space="preserve">
<g>
	<path style="fill:#010002;" d="M285.628,113.168c-2.529,29.893-7.887,91.801-10.062,105.621c-1.055,4.634-2.219,8.208-3.367,10.96
		c-2.448,5.847-13.978,9.056-22.991,9.056H48.865c-10.019,0-11.161-20.853-11.161-20.853L37.432,98.597V68.018
		c0-19.211,18.362-19.64,18.362-19.64h42.039c19.2,0,19.815,20.146,19.815,20.146s-0.022,2.241-0.049,5.009
		c-0.027,2.768,7.261,5.009,16.268,5.009h133.937c7.473,0,12.194,1.637,15.142,3.932
		C289.886,87.871,286.389,104.188,285.628,113.168z M23.633,222.917L0.501,124.416c-2.061-8.773,2.426-19.815,10.03-24.655
		l3.106-1.98c7.604-4.846,13.755-1.469,13.755,7.544L27.37,222.488C27.364,231.495,25.689,231.685,23.633,222.917z"/>
</g>
<g>
</g>
<g>
</g>
<g>
</g>
<g>
</g>
<g>
</g>
<g>
</g>
<g>
</g>
<g>
</g>
<g>
</g>
<g>
</g>
<g>
</g>
<g>
</g>
<g>
</g>
<g>
</g>
<g>
</g>
</svg>
