<?xml version="1.0" encoding="iso-8859-1"?>
<!-- Generator: Adobe Illustrator 18.1.1, SVG Export Plug-In . SVG Version: 6.00 Build 0)  -->
<svg version="1.1" id="Capa_1" xmlns="http://www.w3.org/2000/svg" xmlns:xlink="http://www.w3.org/1999/xlink" x="0px" y="0px"
	 viewBox="0 0 293.718 293.718" style="enable-background:new 0 0 293.718 293.718;" xml:space="preserve">
<g>
	<path style="fill:#010002;" d="M12.633,243.601h267.499c9.013,0,14.968,3.508,13.309,7.838c-1.664,4.324-10.312,7.832-19.325,7.832
		H21.08c-9.013,0-18.21-3.508-20.538-7.832C-1.791,247.109,3.626,243.601,12.633,243.601z"/>
	<path style="fill:#010002;" d="M285.685,221.796l-13.086-13.092c-6.369-6.375-11.536-18.846-11.536-27.859V50.764
		c0-9.013-7.305-16.317-16.317-16.317H42.341c-9.013,0-16.317,7.305-16.317,16.317v130.086c0,9.013-4.563,22.023-10.193,29.061
		l-8.545,10.682c-5.629,7.038-2.888,12.744,6.124,12.744h267.499C289.917,233.338,292.06,228.17,285.685,221.796z M146.858,53.005
		c1.458,0,2.638,1.18,2.638,2.638s-1.18,2.638-2.638,2.638s-2.638-1.18-2.638-2.638S145.401,53.005,146.858,53.005z M236.113,156.38
		c0,9.013-7.305,16.317-16.317,16.317H69.319c-9.013,0-16.317-7.305-16.317-16.317v-69.8c0-9.013,7.305-16.317,16.317-16.317
		h150.477c9.013,0,16.317,7.305,16.317,16.317V156.38z"/>
</g>
<g>
</g>
<g>
</g>
<g>
</g>
<g>
</g>
<g>
</g>
<g>
</g>
<g>
</g>
<g>
</g>
<g>
</g>
<g>
</g>
<g>
</g>
<g>
</g>
<g>
</g>
<g>
</g>
<g>
</g>
</svg>
