<?xml version="1.0" encoding="iso-8859-1"?>
<!-- Generator: Adobe Illustrator 18.1.1, SVG Export Plug-In . SVG Version: 6.00 Build 0)  -->
<svg version="1.1" id="Capa_1" xmlns="http://www.w3.org/2000/svg" xmlns:xlink="http://www.w3.org/1999/xlink" x="0px" y="0px"
	 viewBox="0 0 286.412 286.412" style="enable-background:new 0 0 286.412 286.412;" xml:space="preserve">
<g>
	<path style="fill:#010002;" d="M258.057,278.93c-2.763-3.187-11.085-3.579-14.414-0.272c-3.318,3.312-11.379,7.669-21.484,7.669
		c-36.126,0-116.652,0-158.027,0c-10.106,0-17.769-4.101-20.794-7.158c-2.839-2.877-7.093-2.736-7.093-2.736
		c-10.661,0-8.316,11.243-11.188,9.861c-9.801-4.743-9.769-20.358-9.769-20.358V20.449c0-6.57,2.11-11.003,4.966-13.995
		C26.07,0.373,30.383,0.787,27.8,3.74c-1.517,1.73-2.442,3.981-2.442,6.489c0,5.64,4.596,10.22,10.247,10.22h0.315
		c5.651,0,10.215-4.58,10.215-10.22c0-2.643-1.012-5.02-2.66-6.81c-2.817-3.03,1.632-3.242,11.738-3.253l176.829-0.163
		c10.106-0.011,14.207-0.147,11.079,3.002c-1.849,1.855-2.991,4.406-2.991,7.223c0,5.64,4.596,10.22,10.215,10.22h0.326
		c5.668,0,10.231-4.58,10.231-10.22c0-2.823-1.142-5.385-2.991-7.239c-3.133-3.144,1.501-3.824,7.593,2.937
		c5.619,6.239,5.619,15.159,5.619,15.159v244.801c0,3.742-1.545,7.582-3.454,10.889C264.497,282.296,260.82,282.117,258.057,278.93z
		 M25.363,255.661c0,5.629,4.264,10.225,9.915,10.225h0.332c5.635,0,10.231-4.596,10.231-10.225v-0.332
		c0-5.619-4.596-9.888-10.231-9.888h-0.332c-5.651,0-9.915,4.27-9.915,9.888V255.661z M35.61,122.399
		c-5.651,0-10.247,4.563-10.247,10.225c0,5.651,4.596,10.22,10.247,10.22c5.635,0,10.231-4.569,10.231-10.22
		C45.841,126.962,41.245,122.399,35.61,122.399z M45.841,102.1v-0.332c0-5.553-4.514-9.736-10.079-9.736
		c-5.553,0-10.068,4.183-10.068,9.736v0.332c0,5.553,4.509,10.372,10.068,10.372C41.327,112.478,45.841,107.654,45.841,102.1z
		 M45.841,40.416c0-5.553-4.514-10.073-10.079-10.073c-5.553,0-10.068,4.52-10.068,10.073v0.636c0,5.58,4.509,10.068,10.068,10.068
		c5.564,0,10.079-4.482,10.079-10.068V40.416z M46.135,71.114c0-5.564-4.482-9.769-10.068-9.769c-5.548,0-10.051,4.204-10.051,9.769
		v0.631c0,5.553,4.498,10.062,10.051,10.062c5.58,0,10.068-4.509,10.068-10.062C46.135,71.745,46.135,71.114,46.135,71.114z
		 M46.135,163.312c0-5.662-4.563-9.915-10.215-9.915h-0.315c-5.651,0-10.247,4.253-10.247,9.915c0,5.961,4.596,10.525,10.247,10.525
		h0.315C41.572,173.836,46.135,169.273,46.135,163.312z M36.073,184.083h-0.636c-5.553,0-10.073,4.493-10.073,10.051
		c0,5.575,4.514,10.394,10.073,10.394h0.636c5.58,0,10.068-4.819,10.068-10.394C46.135,188.576,41.653,184.083,36.073,184.083z
		 M46.135,224.969c0-5.629-4.563-10.215-10.215-10.215c-5.662,0-10.225,4.585-10.225,10.215v0.332c0,5.651,4.563,9.894,10.225,9.894
		c5.651,0,10.215-4.242,10.215-9.894V224.969z M229.899,32.654c0-5.657-4.58-10.22-10.215-10.22H66.613
		c-5.662,0-10.253,4.563-10.253,10.22v100.291c0,5.64,4.591,10.22,10.253,10.22H219.69c5.635,0,10.215-4.58,10.215-10.22V32.654
		H229.899z M230.215,175.511c0-5.657-4.569-9.91-10.225-9.91H66.276c-5.662,0-9.915,4.253-9.915,9.91v77.844
		c0,5.651,4.253,10.546,9.915,10.546h153.713c5.657,0,10.225-4.895,10.225-10.546V175.511z M240.13,255.661
		c0,5.629,4.253,10.225,9.915,10.225c5.961,0,10.53-4.596,10.53-10.225v-0.332c0-5.619-4.569-9.888-10.231-9.888
		c-5.961,0-10.215,4.27-10.215,9.888V255.661z M250.345,122.399c-5.619,0-10.215,4.563-10.215,10.225
		c0,5.651,4.596,10.22,10.215,10.22c5.662,0,10.231-4.569,10.231-10.22C260.576,126.962,256.007,122.399,250.345,122.399z
		 M260.576,102.1v-0.332c0-5.553-4.493-9.736-10.051-9.736c-5.58,0-10.068,4.183-10.068,9.736v0.332
		c0,5.553,4.482,10.372,10.068,10.372C256.083,112.478,260.576,107.654,260.576,102.1z M260.576,40.416
		c0-5.553-4.493-10.073-10.051-10.073c-5.58,0-10.068,4.52-10.068,10.073v0.636c0,5.58,4.482,10.068,10.068,10.068
		c5.559,0,10.051-4.482,10.051-10.068V40.416z M260.907,71.114c0-5.564-4.514-9.769-10.068-9.769
		c-5.553,0-10.084,4.204-10.084,9.769v0.631c0,5.553,4.525,10.062,10.084,10.062c5.553,0,10.068-4.509,10.068-10.062V71.114z
		 M260.907,163.312c0-5.662-4.563-9.915-10.231-9.915h-0.326c-5.619,0-10.215,4.253-10.215,9.915
		c0,5.961,4.596,10.525,10.215,10.525h0.326C256.344,173.836,260.907,169.273,260.907,163.312z M250.84,184.083h-0.642
		c-5.553,0-10.068,4.493-10.068,10.051c0,5.575,4.514,10.394,10.068,10.394h0.642c5.553,0,10.068-4.819,10.068-10.394
		C260.907,188.576,256.393,184.083,250.84,184.083z M260.907,224.969c0-5.629-4.563-10.215-10.231-10.215
		c-5.651,0-10.215,4.585-10.215,10.215v0.332c0,5.651,4.563,9.894,10.215,9.894c5.667,0,10.231-4.242,10.231-9.894V224.969z"/>
</g>
<g>
</g>
<g>
</g>
<g>
</g>
<g>
</g>
<g>
</g>
<g>
</g>
<g>
</g>
<g>
</g>
<g>
</g>
<g>
</g>
<g>
</g>
<g>
</g>
<g>
</g>
<g>
</g>
<g>
</g>
</svg>
