<?xml version="1.0" encoding="iso-8859-1"?>
<!-- Generator: Adobe Illustrator 18.1.1, SVG Export Plug-In . SVG Version: 6.00 Build 0)  -->
<svg version="1.1" id="Capa_1" xmlns="http://www.w3.org/2000/svg" xmlns:xlink="http://www.w3.org/1999/xlink" x="0px" y="0px"
	 viewBox="0 0 287.014 287.014" style="enable-background:new 0 0 287.014 287.014;" xml:space="preserve">
<g>
	<path style="fill:#010002;" d="M143.529,287.014c-79.269,0-143.526-64.257-143.526-143.466C0.003,64.257,64.26,0,143.529,0
		c79.225,0,143.483,64.257,143.483,143.548C287.011,222.762,222.754,287.014,143.529,287.014z M143.213,46.259
		c-0.038,21.751,0.038,59.993,0.092,81.733c0.022,9.013,4.27,22.268,9.502,29.61c12.33,17.313,33.826,47.412,46.624,64.893
		c5.325,7.272,15.855,8.855,22.355,2.616c21.512-20.636,34.924-49.708,34.924-81.885c0-57.039-42.191-104.245-97.104-112.126
		C150.692,29.817,143.23,37.252,143.213,46.259z"/>
</g>
<g>
</g>
<g>
</g>
<g>
</g>
<g>
</g>
<g>
</g>
<g>
</g>
<g>
</g>
<g>
</g>
<g>
</g>
<g>
</g>
<g>
</g>
<g>
</g>
<g>
</g>
<g>
</g>
<g>
</g>
</svg>
