<?xml version="1.0" encoding="iso-8859-1"?>
<!-- Generator: Adobe Illustrator 18.1.1, SVG Export Plug-In . SVG Version: 6.00 Build 0)  -->
<svg version="1.1" id="Capa_1" xmlns="http://www.w3.org/2000/svg" xmlns:xlink="http://www.w3.org/1999/xlink" x="0px" y="0px"
	 viewBox="0 0 297.337 297.337" style="enable-background:new 0 0 297.337 297.337;" xml:space="preserve">
<g>
	<path style="fill:#010002;" d="M30.366,46.246V22.678c0-9.013,7.305-16.317,16.317-16.317h203.965
		c9.013,0,16.317,7.305,16.317,16.317v23.567H30.366z"/>
	<path style="fill:#010002;" d="M281.02,57.124H16.317C7.305,57.124,0,64.428,0,73.441v76.147c0,9.013,7.305,16.317,16.317,16.317
		H281.02c9.013,0,16.317-7.305,16.317-16.317V73.441C297.337,64.428,290.038,57.124,281.02,57.124z M27.195,94.294
		c-5.51,0-9.975-4.465-9.975-9.97c0-5.51,4.465-9.97,9.975-9.97s9.975,4.465,9.975,9.97C37.171,89.829,32.705,94.294,27.195,94.294z
		 M62.555,94.294c-5.51,0-9.975-4.465-9.975-9.97c0-5.51,4.465-9.97,9.975-9.97c5.51,0,9.975,4.465,9.975,9.97
		C72.53,89.829,68.064,94.294,62.555,94.294z"/>
	<g>
		<path style="fill:#010002;" d="M223.91,175.771v43.469c0,6.337-1.458,16.676-6.56,19.82c-2.464,1.523-5.809,2.681-10.34,2.817
			c-10.1,0.31-18.466-2.333-24.372-5.124c-5.738-2.709-9.79-0.859-11.085,5.347c-1.267,6.092-3.742,13.777-8.534,20.821
			c-8.485,12.439-21.305,19.978-30.383,24.057c-5.776,2.605-15.882,3.998-22.224,3.998H84.909c-6.342,0-11.482-5.14-11.482-11.476
			V175.771H223.91z"/>
		<path style="fill:#010002;" d="M147.812,290.046c10.965-1.159,24.1-3.65,37.47-8.746c5.923-2.257,14.756-7.658,19.45-11.917
			c6.353-5.76,10.943-12.107,14.038-17.253c3.269-5.428,1.012-6.973-5.053-5.107c-6.021,1.855-14.522,2.768-24.9-0.555
			c-6.032-1.931-11.515,0.495-13.929,6.353c-4.242,10.312-13.26,25.444-31.427,34.146
			C137.744,289.709,141.514,290.715,147.812,290.046z"/>
	</g>
</g>
<g>
</g>
<g>
</g>
<g>
</g>
<g>
</g>
<g>
</g>
<g>
</g>
<g>
</g>
<g>
</g>
<g>
</g>
<g>
</g>
<g>
</g>
<g>
</g>
<g>
</g>
<g>
</g>
<g>
</g>
</svg>
