<?xml version="1.0" encoding="iso-8859-1"?>
<!-- Generator: Adobe Illustrator 18.1.1, SVG Export Plug-In . SVG Version: 6.00 Build 0)  -->
<svg version="1.1" id="Capa_1" xmlns="http://www.w3.org/2000/svg" xmlns:xlink="http://www.w3.org/1999/xlink" x="0px" y="0px"
	 viewBox="0 0 303.244 303.244" style="enable-background:new 0 0 303.244 303.244;" xml:space="preserve">
<g>
	<path style="fill:#010002;" d="M290.887,41.215l0.348-23.649c0,0,12.009,0,12.009,11.634
		C303.244,29.2,302.515,41.215,290.887,41.215L290.887,41.215z"/>
	<polygon style="fill:#010002;" points="17.731,41.215 17.731,17.908 285.518,17.908 285.138,41.215 	"/>
	<path style="fill:#010002;" d="M0,29.2c0-10.916,12.009-11.286,12.009-11.286v23.649C0.381,41.557,0,29.2,0,29.2L0,29.2z"/>
	<path style="fill:#010002;" d="M41.005,239.137c0,0-11.629,0-11.629,10.655c0,0,0.364,12.619,11.025,12.619h64.11
		c9.807,0,17.508,6.581,20.059,14.038c1.681,4.911,4.58,9.23,9.589,9.23h39.683c9.807,0,12.695-2.29,16.062-9.404
		c3.367-7.109,10.655-13.87,20.462-13.87h51.878c0,0,12.586-0.952,12.586-12.619c0,0-0.957-10.655-12.586-10.655H41.005V239.137z
		 M175.138,274.055h-35.169c-3.204,0-5.809-2.6-5.809-5.803c0-3.236,2.605-5.831,5.809-5.831h35.169
		c3.242,0,5.847,2.594,5.847,5.831C180.979,271.456,178.374,274.055,175.138,274.055z"/>
	<path style="fill:#010002;" d="M263.185,52.968l-223.622-0.12c0,0-10.302,0.984-10.302,10.688v134.916
		c0,9.807-0.761,22.675,2.856,26.309c1.692,1.697,4.351,2.97,8.539,2.97h221.587c0,0,11.629,0,11.629-11.64V63.536
		C273.873,63.536,273.873,52.968,263.185,52.968z M188.583,163.691c-6.897,17.334-23.823,29.583-43.616,29.583
		c-25.917,0-46.923-21.011-46.923-46.923c0-19.793,12.254-36.719,29.583-43.61c9.11-3.628,17.34,4.64,17.34,14.446v11.411
		c0,9.807,7.946,17.759,17.759,17.759h11.411C183.938,146.352,192.206,154.581,188.583,163.691z M230.149,149.131
		c-4.879,0-8.838-3.96-8.838-8.838c0-4.879,3.96-8.838,8.838-8.838c4.884,0,8.838,3.96,8.838,8.838
		C238.987,145.171,235.033,149.131,230.149,149.131z M230.149,113.935c-4.879,0-8.838-3.96-8.838-8.838s3.96-8.838,8.838-8.838
		c4.884,0,8.838,3.96,8.838,8.838C238.987,109.981,235.033,113.935,230.149,113.935z"/>
</g>
<g>
</g>
<g>
</g>
<g>
</g>
<g>
</g>
<g>
</g>
<g>
</g>
<g>
</g>
<g>
</g>
<g>
</g>
<g>
</g>
<g>
</g>
<g>
</g>
<g>
</g>
<g>
</g>
<g>
</g>
</svg>
