<?xml version="1.0" encoding="iso-8859-1"?>
<!-- Generator: Adobe Illustrator 18.1.1, SVG Export Plug-In . SVG Version: 6.00 Build 0)  -->
<svg version="1.1" id="Capa_1" xmlns="http://www.w3.org/2000/svg" xmlns:xlink="http://www.w3.org/1999/xlink" x="0px" y="0px"
	 viewBox="0 0 289.873 289.873" style="enable-background:new 0 0 289.873 289.873;" xml:space="preserve">
<g>
	<path style="fill:#010002;" d="M20.141,10.755c0,0-20.141,0-20.141,21.468v150.27c0,0,1.354,21.49,21.49,21.49h93.911
		c0,0,13.418,0,13.418,12.064v19.461c0,0,0,11.743,9.404,11.743h12.08c0,0,10.737-0.348,10.737-11.079c0,0,0-4.504,0-10.062
		c0-5.559-0.859-14.457,1.828-18.487c1.354-2.034,3.66-3.633,7.566-3.633h97.294c0,0,22.132,0,22.132-22.153V32.223
		c0,0,1.333-21.811-21.468-21.811L20.141,10.755z M268.385,150.305c0,11.852-9.605,21.457-21.479,21.457H42.283
		c-11.868,0-20.467-9.611-20.467-21.457V53.68c0-11.852,8.599-21.457,20.467-21.457h204.623c11.879,0,21.479,9.605,21.479,21.457
		C268.385,53.68,268.385,150.305,268.385,150.305z"/>
	<path style="fill:#010002;" d="M117.865,246.5c0.033,5.972,7.364,10.769,16.377,10.726l21.125-0.103
		c9.013-0.043,16.274-4.77,16.225-10.546c-0.054-5.776,7.044-8.697,15.278-5.037c8.403,3.731,17.111,9.214,17.111,15.931
		c0,12.14-26.521,21.99-59.221,21.99c-32.683,0-59.21-9.85-59.21-21.99c0-5.831,6.472-12.281,16.703-16.915
		C110.473,236.84,117.832,240.528,117.865,246.5z"/>
</g>
<g>
</g>
<g>
</g>
<g>
</g>
<g>
</g>
<g>
</g>
<g>
</g>
<g>
</g>
<g>
</g>
<g>
</g>
<g>
</g>
<g>
</g>
<g>
</g>
<g>
</g>
<g>
</g>
<g>
</g>
</svg>
