<?xml version="1.0" encoding="iso-8859-1"?>
<!-- Generator: Adobe Illustrator 18.1.1, SVG Export Plug-In . SVG Version: 6.00 Build 0)  -->
<svg version="1.1" id="Capa_1" xmlns="http://www.w3.org/2000/svg" xmlns:xlink="http://www.w3.org/1999/xlink" x="0px" y="0px"
	 viewBox="0 0 281.739 281.739" style="enable-background:new 0 0 281.739 281.739;" xml:space="preserve">
<g>
	<path style="fill:#010002;" d="M231.736,276.179c-0.538-6.059-4.351-17.65-7.816-25.966l-24.998-60.069
		c-8.311-16.263-0.658-20.609-0.658-20.609l51.421-33.064c7.582-4.873,18.83-10.894,24.846-14.022
		c6.016-3.127,6.592-11.379,0.283-14.065c-6.266-2.671-12.064-2.671-12.064-2.671h-74.455c-3.465,0-5.825-1.566-7.419-3.53
		c-2.959-3.65-5.276-14.778-7.821-23.421l-12.727-43.164c-2.551-8.648-6.663-20.94-10.28-26.853C144.695,0,141.437,0,141.437,0
		h-0.685c0,0-3.421,0-8.844,8.675c-3.709,5.934-7.838,18.275-10.389,26.923l-12.722,43.159c-2.545,8.648-4.863,19.776-7.827,23.426
		c-1.594,1.964-3.954,3.53-7.424,3.53H19.091c0,0-5.793,0-12.058,2.671c-6.309,2.687-5.967,11.281,0.092,14.392
		c6.059,3.1,17.492,8.768,25.118,13.576l38.873,24.487c7.626,4.808,18.835,12.173,17.579,18.292
		c-1.262,6.119-7.294,17.079-10.818,25.368l-19.162,45.101c-3.525,8.289-7.234,20.032-7.577,26.282
		c-0.343,6.244,8.637,8.012,15.969,2.774c16.121-11.514,41.386-32.934,56.354-45.857c6.821-5.891,14.234-13.935,17.96-14.033
		c3.726-0.098,10.862,8.376,17.769,14.163c14.87,12.45,39.89,32.999,57.132,45.063C223.714,283.152,232.275,282.233,231.736,276.179
		z"/>
</g>
<g>
</g>
<g>
</g>
<g>
</g>
<g>
</g>
<g>
</g>
<g>
</g>
<g>
</g>
<g>
</g>
<g>
</g>
<g>
</g>
<g>
</g>
<g>
</g>
<g>
</g>
<g>
</g>
<g>
</g>
</svg>
