<?xml version="1.0" encoding="iso-8859-1"?>
<!-- Generator: Adobe Illustrator 18.1.1, SVG Export Plug-In . SVG Version: 6.00 Build 0)  -->
<svg version="1.1" id="Capa_1" xmlns="http://www.w3.org/2000/svg" xmlns:xlink="http://www.w3.org/1999/xlink" x="0px" y="0px"
	 viewBox="0 0 315.532 315.532" style="enable-background:new 0 0 315.532 315.532;" xml:space="preserve">
<g>
	<path style="fill:#010002;" d="M27.066,5.796c-1.501-2.932-2.355-2.665-1.898,0.598l44.78,307.198
		c2.241,2.41,6.054,2.6,8.518,0.424l70.523-62.288c2.464-2.181,3.242-6.32,1.735-9.252L27.066,5.796z"/>
	<path style="fill:#010002;" d="M290.104,179.28L35.904,1.075c-2.709-1.871-3.334-1.24-1.398,1.43l155.748,216.921
		c1.936,2.66,5.994,3.824,9.04,2.605l87.362-34.957C289.702,185.851,291.263,182.359,290.104,179.28z"/>
	<path style="fill:#010002;" d="M49.921,34.536c-1.599-2.274-1.828-2.132-0.517,0.315l104.718,194.463
		c1.316,2.442,2.208,2.176,1.985-0.587l-1.447-18.188c-0.218-2.763,1.643-4.052,4.155-2.861l15.197,7.163
		c2.513,1.18,3.263,0.299,1.664-1.969L49.921,34.536z"/>
</g>
<g>
</g>
<g>
</g>
<g>
</g>
<g>
</g>
<g>
</g>
<g>
</g>
<g>
</g>
<g>
</g>
<g>
</g>
<g>
</g>
<g>
</g>
<g>
</g>
<g>
</g>
<g>
</g>
<g>
</g>
</svg>
