<?xml version="1.0" encoding="iso-8859-1"?>
<!-- Generator: Adobe Illustrator 18.1.1, SVG Export Plug-In . SVG Version: 6.00 Build 0)  -->
<svg version="1.1" id="Capa_1" xmlns="http://www.w3.org/2000/svg" xmlns:xlink="http://www.w3.org/1999/xlink" x="0px" y="0px"
	 viewBox="0 0 294.351 294.351" style="enable-background:new 0 0 294.351 294.351;" xml:space="preserve">
<g>
	<path style="fill:#010002;" d="M205.123,123.07c-4.906-7.408-13.478-11.493-24.128-11.493l-14.762,0.033
		c-5.058,0-8.991-1.632-11.085-4.591c-2.094-2.959-2.317-7.212-0.631-11.982l25.319-71.801c3.791-10.726,4.155-15.648,1.42-19.504
		C179.582,1.36,176.96,0,174.055,0c-4.863,0-8.637,3.274-14.979,12.988L90.631,117.935c-5.945,9.127-7.044,18.166-3.095,25.455
		c3.916,7.234,12.162,11.221,23.268,11.221l27.549-0.37c5.156,0,9.469,1.828,12.145,5.145c2.687,3.334,3.552,7.979,2.437,13.07
		l-21.805,99.693c-2.48,11.335-2.399,15.594,0.424,19.097l2.758,3.106h3.829c6.021,0,8.947-4.618,13.614-15.654l54.559-128.977
		C210.465,139.953,210.035,130.483,205.123,123.07z"/>
</g>
<g>
</g>
<g>
</g>
<g>
</g>
<g>
</g>
<g>
</g>
<g>
</g>
<g>
</g>
<g>
</g>
<g>
</g>
<g>
</g>
<g>
</g>
<g>
</g>
<g>
</g>
<g>
</g>
<g>
</g>
</svg>
