<?xml version="1.0" encoding="iso-8859-1"?>
<!-- Generator: Adobe Illustrator 18.1.1, SVG Export Plug-In . SVG Version: 6.00 Build 0)  -->
<svg version="1.1" id="Capa_1" xmlns="http://www.w3.org/2000/svg" xmlns:xlink="http://www.w3.org/1999/xlink" x="0px" y="0px"
	 viewBox="0 0 275.869 275.869" style="enable-background:new 0 0 275.869 275.869;" xml:space="preserve">
<g>
	<path style="fill:#010002;" d="M232.893,0H42.977C33.964,0,26.66,7.305,26.66,16.317v243.235c0,9.013,7.305,16.317,16.317,16.317
		h189.916c9.013,0,16.317-7.305,16.317-16.312V16.317C249.21,7.305,241.905,0,232.893,0z M137.937,259.335
		c-9.138,0-16.54-7.408-16.54-16.54c0-9.132,7.408-16.54,16.54-16.54c9.132,0,16.54,7.408,16.54,16.54
		C154.478,251.927,147.07,259.335,137.937,259.335z M220.655,193.397c0,9.013-7.305,16.317-16.317,16.317H71.532
		c-9.013,0-16.317-7.305-16.317-16.317V51.252c0-9.013,7.305-16.317,16.317-16.317h132.806c9.013,0,16.317,7.305,16.317,16.317
		V193.397z M146.406,239.765v6.059c0,3.002-2.437,5.439-5.439,5.439h-6.059c-3.002,0-5.439-2.437-5.439-5.439v-6.059
		c0-3.008,2.437-5.439,5.439-5.439h6.059C143.969,234.326,146.406,236.762,146.406,239.765z"/>
</g>
<g>
</g>
<g>
</g>
<g>
</g>
<g>
</g>
<g>
</g>
<g>
</g>
<g>
</g>
<g>
</g>
<g>
</g>
<g>
</g>
<g>
</g>
<g>
</g>
<g>
</g>
<g>
</g>
<g>
</g>
</svg>
