<?xml version="1.0" encoding="iso-8859-1"?>
<!-- Generator: Adobe Illustrator 18.1.1, SVG Export Plug-In . SVG Version: 6.00 Build 0)  -->
<svg version="1.1" id="Capa_1" xmlns="http://www.w3.org/2000/svg" xmlns:xlink="http://www.w3.org/1999/xlink" x="0px" y="0px"
	 viewBox="0 0 302.874 302.874" style="enable-background:new 0 0 302.874 302.874;" xml:space="preserve">
<g>
	<path style="fill:#010002;" d="M188.586,125.082l-37.698,19.983c-9.845,5.221-21.979,17.481-27.097,27.391l-19.738,38.171
		c-5.113,9.905-1.191,13.88,8.773,8.887l37.666-18.868c9.959-4.998,22.077-17.133,27.048-27.103l19.869-39.852
		C202.379,123.712,198.431,119.855,188.586,125.082z M155.348,183.857l-12.151,5.657c-10.079,4.688-14.218,0.979-9.236-8.295
		c2.219-4.145,4.253-7.936,5.825-10.862c1.751-3.274,5.417-3.916,8.186-1.43l8.469,7.598
		C159.204,179.005,158.709,182.29,155.348,183.857z"/>
	<path style="fill:#010002;" d="M151.432,42.675c-8.425,0-16.638,0.87-24.617,2.399c4.166-4.922,6.772-11.215,6.772-18.188
		C133.586,11.259,120.897,0,105.27,0C89.573,0,76.938,11.259,76.938,26.885c0,13.195,8.991,24.133,21.191,27.299
		c-45.253,20.369-76.805,65.753-76.805,118.593c0,71.85,58.258,130.097,130.113,130.097S281.55,244.627,281.55,172.777
		C281.545,100.922,223.287,42.675,151.432,42.675z M94.164,27.288c0-5.896,4.748-10.644,10.595-10.644
		c5.885,0,10.628,4.748,10.628,10.644c0,5.825-4.743,10.579-10.628,10.579C98.912,37.867,94.164,33.113,94.164,27.288z
		 M151.894,266.498c-51.677,0-93.53-41.886-93.53-93.595c0-51.66,41.854-93.546,93.53-93.546c51.709,0,93.595,41.886,93.595,93.546
		C245.489,224.612,203.603,266.498,151.894,266.498z"/>
</g>
<g>
</g>
<g>
</g>
<g>
</g>
<g>
</g>
<g>
</g>
<g>
</g>
<g>
</g>
<g>
</g>
<g>
</g>
<g>
</g>
<g>
</g>
<g>
</g>
<g>
</g>
<g>
</g>
<g>
</g>
</svg>
