<?xml version="1.0" encoding="iso-8859-1"?>
<!-- Generator: Adobe Illustrator 18.1.1, SVG Export Plug-In . SVG Version: 6.00 Build 0)  -->
<svg version="1.1" id="Capa_1" xmlns="http://www.w3.org/2000/svg" xmlns:xlink="http://www.w3.org/1999/xlink" x="0px" y="0px"
	 viewBox="0 0 309.321 309.321" style="enable-background:new 0 0 309.321 309.321;" xml:space="preserve">
<g>
	<path style="fill:#010002;" d="M309.168,100.613c-6.124-49.631-29.23-91.072-80.074-91.501V9.068c-0.131,0-0.261,0.022-0.392,0.022
		s-0.261-0.022-0.392-0.022v0.044c-50.844,0.43-70.441,41.87-76.566,91.501c-1.104,8.942,3.911,16.274,9.964,16.274
		c6.054,0,10.829-7.343,12.102-16.263c5.385-37.899,15.306-69.756,54.896-69.968c39.591,0.212,53.02,32.074,58.405,69.968
		c1.267,8.926,6.048,16.263,12.102,16.263C305.268,116.886,310.272,109.554,309.168,100.613z"/>
	<path style="fill:#010002;" d="M178.407,126.889c-1.643,1.648-4.226,2.877-8.289,2.877h-22.322c0,0-5.091,0.31-8.654-2.687
		c-3.911-3.291-10.704-8.284-19.717-8.284H84.028c-9.013,0-16.111,4.563-19.564,8.023c-1.681,1.681-4.226,2.953-8.088,2.953H34.043
		c-3.851,0-6.44-1.392-8.18-3.198c-3.459-3.595-11.683-8.474-18.596-2.687C3.247,127.248,0,132.681,0,141.465v134.671
		c0,0-0.337,24.117,23.742,24.117h157.374c0,0,23.013-0.37,23.013-22.349V157.783c0-9.013-0.865-24.062-6.456-31.133
		c-0.56-0.707-1.159-1.398-1.811-2.051C189.514,118.208,181.915,123.359,178.407,126.889z M114.645,238.221
		c0,7.707-5.629,13.957-12.581,13.957c-6.946,0-12.575-6.249-12.575-13.957c0-7.713-3.563-16.502-5.852-21.109
		c-1.343-2.709-2.105-5.755-2.105-8.985c0-11.34,9.197-20.532,20.538-20.532c11.346,0,20.538,9.192,20.538,20.532
		c0,3.236-0.761,6.277-2.105,8.985C118.207,221.713,114.645,230.508,114.645,238.221z"/>
</g>
<g>
</g>
<g>
</g>
<g>
</g>
<g>
</g>
<g>
</g>
<g>
</g>
<g>
</g>
<g>
</g>
<g>
</g>
<g>
</g>
<g>
</g>
<g>
</g>
<g>
</g>
<g>
</g>
<g>
</g>
</svg>
