<?xml version="1.0" encoding="iso-8859-1"?>
<!-- Generator: Adobe Illustrator 18.1.1, SVG Export Plug-In . SVG Version: 6.00 Build 0)  -->
<svg version="1.1" id="Capa_1" xmlns="http://www.w3.org/2000/svg" xmlns:xlink="http://www.w3.org/1999/xlink" x="0px" y="0px"
	 viewBox="0 0 294.498 294.498" style="enable-background:new 0 0 294.498 294.498;" xml:space="preserve">
<g>
	<path style="fill:#010002;" d="M147.948,0C66.634,0,0.669,65.905,0.669,147.284c0,81.33,65.965,147.214,147.279,147.214
		c81.325,0,145.881-65.883,145.881-147.214C293.829,65.905,229.273,0,147.948,0z M147.252,217.568
		c-10.269,0-18.585-8.316-18.585-18.58c0-10.258,8.316-18.58,18.585-18.58c10.264,0,18.574,8.322,18.574,18.58
		C165.826,209.252,157.515,217.568,147.252,217.568z M208.996,181.028c-4.199,2.426-9.595,0.979-12.015-3.236
		c-10.089-17.541-28.903-28.435-49.104-28.435c-21.147,0-40.38,11.65-50.186,30.415c-1.572,3.002-4.64,4.721-7.805,4.721
		c-1.376,0-2.768-0.326-4.074-1.006c-4.302-2.252-5.972-7.571-3.72-11.879c12.853-24.579,38.063-39.857,65.78-39.857
		c26.477,0,51.138,14.278,64.355,37.258C214.658,173.229,213.206,178.608,208.996,181.028z M259.28,171.793
		c-4.514,1.751-9.627-0.468-11.4-4.998c-16.263-41.69-55.696-68.63-100.46-68.63c-44.47,0-84.964,27.908-100.775,69.457
		c-1.338,3.514-4.678,5.673-8.229,5.673c-1.039,0-2.099-0.185-3.127-0.571c-4.542-1.73-6.821-6.821-5.091-11.357
		C48.593,113.04,95.7,80.569,147.426,80.569c52.063,0,97.936,31.34,116.853,79.84C266.041,164.923,263.811,170.031,259.28,171.793z"
		/>
</g>
<g>
</g>
<g>
</g>
<g>
</g>
<g>
</g>
<g>
</g>
<g>
</g>
<g>
</g>
<g>
</g>
<g>
</g>
<g>
</g>
<g>
</g>
<g>
</g>
<g>
</g>
<g>
</g>
<g>
</g>
</svg>
