<?xml version="1.0" encoding="iso-8859-1"?>
<!-- Generator: Adobe Illustrator 16.0.0, SVG Export Plug-In . SVG Version: 6.00 Build 0)  -->
<!DOCTYPE svg PUBLIC "-//W3C//DTD SVG 1.1//EN" "http://www.w3.org/Graphics/SVG/1.1/DTD/svg11.dtd">
<svg version="1.1" id="Capa_1" xmlns="http://www.w3.org/2000/svg" xmlns:xlink="http://www.w3.org/1999/xlink" x="0px" y="0px"
	 width="303.369px" height="303.368px" viewBox="0 0 303.369 303.368" style="enable-background:new 0 0 303.369 303.368;"
	 xml:space="preserve">
<g>
	<path d="M206.986,47.316L99.238,47.452c0,0-22.554,0.57-39.139,18.36c0,0-60.099,77.618-60.099,98.538v75.883
		c0,16.159,15.829,15.751,15.829,15.751h251.77c10.184,0,26.396,1.057,31.639-5.129c2.384-2.822,4.132-7.146,4.132-13.774v-75.853
		c0-20.939-58.451-94.819-58.451-94.819S229.498,47.316,206.986,47.316z M190.22,178.972c0,0,0,20.194-18.951,20.194h-39.665
		c-6.596,0-10.932-1.586-13.772-3.766c-6.353-4.905-4.212-21.118-10.01-27.748c-5.621-6.425-14.156-6.425-14.156-6.425H54.067
		c-10.187,0-14.438-7.218-9.488-16.12l33.849-60.903c0,0,10.22-17.981,20.182-17.795h91.141c10.196,0,23.623,2.642,28.505,7.698
		c2.468,2.558,5.146,5.873,7.704,10.097l32.102,60.72c4.762,9.007,0.36,16.303-9.83,16.303h-39.049
		C191.385,161.228,190.22,178.972,190.22,178.972z"/>
</g>
<g>
</g>
<g>
</g>
<g>
</g>
<g>
</g>
<g>
</g>
<g>
</g>
<g>
</g>
<g>
</g>
<g>
</g>
<g>
</g>
<g>
</g>
<g>
</g>
<g>
</g>
<g>
</g>
<g>
</g>
</svg>
