<?xml version="1.0" encoding="iso-8859-1"?>
<!-- Generator: Adobe Illustrator 18.1.1, SVG Export Plug-In . SVG Version: 6.00 Build 0)  -->
<svg version="1.1" id="Capa_1" xmlns="http://www.w3.org/2000/svg" xmlns:xlink="http://www.w3.org/1999/xlink" x="0px" y="0px"
	 viewBox="0 0 296.237 296.237" style="enable-background:new 0 0 296.237 296.237;" xml:space="preserve">
<g>
	<g>
		<path style="fill:#010002;" d="M66.685,92.735h52.694c11.906,0,21.56,9.649,21.56,21.56v52.694c0,11.912-9.649,21.56-21.56,21.56
			H66.685c-11.912,0-21.56-9.643-21.56-21.56v-52.694C45.125,102.384,54.773,92.735,66.685,92.735z"/>
		<path style="fill:#010002;" d="M176.875,92.735h52.694c11.901,0,21.56,9.649,21.56,21.56v52.694c0,11.912-9.654,21.56-21.56,21.56
			h-52.694c-11.901,0-21.56-9.643-21.56-21.56v-52.694C155.315,102.384,164.969,92.735,176.875,92.735z"/>
		<path style="fill:#010002;" d="M66.685,200.423h52.694c11.906,0,21.56,9.649,21.56,21.56v52.694c0,11.906-9.649,21.56-21.56,21.56
			H66.685c-11.912,0-21.56-9.649-21.56-21.56v-52.694C45.125,210.072,54.773,200.423,66.685,200.423z"/>
		<path style="fill:#010002;" d="M176.875,200.423h52.694c11.901,0,21.56,9.649,21.56,21.56v52.694
			c0,11.906-9.654,21.56-21.56,21.56h-52.694c-11.901,0-21.56-9.649-21.56-21.56v-52.694
			C155.315,210.072,164.969,200.423,176.875,200.423z"/>
	</g>
	<path style="fill:#010002;" d="M251.124,65.985h-30.366c1.235-1.012,2.382-2.067,3.361-3.198
		c8.675-10.013,10.802-19.771,10.062-28.055c-1.289-14.49-19.912-32.335-34.32-34.38c-17.313-2.453-30.094,8.316-38.536,19.657
		c-8.681,11.672-16.687,11.835-25.651,0.375C126.662,8.864,113.102-2.21,95.186,0.385C80.794,2.463,62.143,20.248,60.86,34.743
		c-0.74,8.284,1.398,18.036,10.057,28.038c0.979,1.131,2.127,2.187,3.361,3.198H45.119c-4.509,0-8.159,3.655-8.159,8.159
		c0,4.504,3.65,8.159,8.159,8.159h205.999c4.509,0,8.159-3.655,8.159-8.159S255.633,65.985,251.124,65.985z M169.505,39.013
		c5.597-11.101,14.267-22.24,26.994-24.617c18.341-3.427,29.175,15.985,24.291,31.933c-4.264,13.913-27.614,17.476-39.14,17.476
		C170.131,63.804,162.946,51.991,169.505,39.013z M100.782,14.396c12.733,2.377,21.397,13.516,27,24.617
		c6.56,12.978-0.625,24.791-12.151,24.791s-34.881-3.563-39.14-17.476C71.618,30.381,82.453,10.969,100.782,14.396z"/>
</g>
<g>
</g>
<g>
</g>
<g>
</g>
<g>
</g>
<g>
</g>
<g>
</g>
<g>
</g>
<g>
</g>
<g>
</g>
<g>
</g>
<g>
</g>
<g>
</g>
<g>
</g>
<g>
</g>
<g>
</g>
</svg>
