<?xml version="1.0" encoding="iso-8859-1"?>
<!-- Generator: Adobe Illustrator 16.0.0, SVG Export Plug-In . SVG Version: 6.00 Build 0)  -->
<!DOCTYPE svg PUBLIC "-//W3C//DTD SVG 1.1//EN" "http://www.w3.org/Graphics/SVG/1.1/DTD/svg11.dtd">
<svg version="1.1" id="Capa_1" xmlns="http://www.w3.org/2000/svg" xmlns:xlink="http://www.w3.org/1999/xlink" x="0px" y="0px"
	 width="338.725px" height="338.725px" viewBox="0 0 338.725 338.725" style="enable-background:new 0 0 338.725 338.725;"
	 xml:space="preserve">
<g>
	<path d="M267.271,338.725H72.82c-25.998,0-27.103-26.289-27.103-26.289V24.106c0-24.953,26.04-24.103,26.04-24.103h195.08
		c23.857,0,26.163,25.322,26.163,25.322v287.536C293.001,312.862,294.07,338.725,267.271,338.725z M156.089,65.705H91.048
		c-3.489,0-6.284,2.811-6.284,6.32c0,3.474,2.795,6.271,6.284,6.271h65.041c3.495,0,6.284-2.798,6.284-6.271
		C162.373,68.515,159.584,65.705,156.089,65.705z M156.476,91.739H91.048c-3.489,0-6.284,2.792-6.284,6.278s2.795,6.296,6.284,6.296
		h65.428c3.489,0,6.335-2.816,6.335-6.296S159.965,91.739,156.476,91.739z M156.476,117.73H91.048c-3.489,0-6.284,2.841-6.284,6.296
		c0,3.48,2.795,6.329,6.284,6.329h65.428c3.489,0,6.335-2.849,6.335-6.329C162.812,120.571,159.965,117.73,156.476,117.73z
		 M241.228,156.776H97.338c-6.936,0-12.574,5.632-12.574,12.574c0,6.969,5.638,12.998,12.574,12.998h143.89
		c6.96,0,12.61-6.029,12.61-12.998C253.844,162.409,248.188,156.776,241.228,156.776z M241.228,208.775H97.338
		c-6.936,0-12.574,6.071-12.574,13.03c0,6.936,5.638,12.586,12.574,12.586h143.89c6.96,0,12.61-5.65,12.61-12.586
		C253.844,214.846,248.188,208.775,241.228,208.775z M241.228,260.806H97.338c-6.936,0-12.574,5.645-12.574,12.635
		c0,6.929,5.638,12.976,12.574,12.976h143.89c6.96,0,12.61-6.047,12.61-12.976C253.844,266.451,248.188,260.806,241.228,260.806z"/>
</g>
<g>
</g>
<g>
</g>
<g>
</g>
<g>
</g>
<g>
</g>
<g>
</g>
<g>
</g>
<g>
</g>
<g>
</g>
<g>
</g>
<g>
</g>
<g>
</g>
<g>
</g>
<g>
</g>
<g>
</g>
</svg>
