<svg id="Capa_1" enable-background="new 0 0 512 512" height="512" viewBox="0 0 512 512" width="512" xmlns="http://www.w3.org/2000/svg"><g><path d="m429.419 173.419h-249.485l-56.063 157.329h305.548l49.55-8.684c20.056-15.066 33.031-39.048 33.031-66.064 0-45.608-36.973-82.581-82.581-82.581z" fill="#ff5f7a"/><path d="m233.214 322.065c-16.796 0-28.456-16.27-23.536-32.329 3.268-10.668 5.032-21.992 5.032-33.735 0-32.369-13.339-61.594-34.776-82.581h-56.063v165.161h305.548c18.55 0 35.764-6.191 49.55-16.516z" fill="#fb4455"/><path d="m198.194 256c0 24.212-8.683 46.396-23.105 63.608-18.178 21.694-45.474 30.254-75.991 30.254-54.73 0-91.593-39.132-91.593-93.862 0-30.526 6.298-57.827 28.002-76.006 17.209-14.414 39.387-23.091 63.591-23.091 54.728 0 99.096 44.367 99.096 99.097z" fill="#ffdbde"/><g fill="#fff"><path d="m279.637 281.435c-.016 0-.032 0-.048 0-5.274.028-10.927.048-15.331.056v-59.241c0-4.56-3.694-8.258-8.258-8.258s-8.258 3.698-8.258 8.258v67.444c0 4.032 2.911 7.472 6.887 8.145.589.097 1.04.173 8.46.173 3.613 0 8.871-.02 16.597-.06 4.556-.024 8.234-3.742 8.21-8.302-.025-4.545-3.719-8.215-8.259-8.215z"/><path d="m310.073 213.992c-4.565 0-8.258 3.698-8.258 8.258v67.5c0 4.56 3.694 8.258 8.258 8.258s8.258-3.698 8.258-8.258v-67.5c0-4.56-3.694-8.258-8.258-8.258z"/><path d="m444.492 281.181h-19.919v-16.923h17.847c4.565 0 8.258-3.698 8.258-8.258s-3.694-8.258-8.258-8.258h-17.847v-16.923h19.919c4.565 0 8.258-3.698 8.258-8.258s-3.694-8.258-8.258-8.258h-28.177c-4.565 0-8.258 3.698-8.258 8.258v66.879c0 4.56 3.694 8.258 8.258 8.258h28.177c4.565 0 8.258-3.698 8.258-8.258s-3.694-8.259-8.258-8.259z"/><path d="m390.919 214.536c-4.331-1.444-9 .903-10.444 5.238l-15.774 47.512-16.581-47.746c-1.5-4.306-6.194-6.589-10.508-5.093-4.306 1.496-6.589 6.202-5.089 10.512l23.097 66.536c1.387 3.903 5.081 6.512 9.218 6.512h.056c4.161-.024 7.855-2.681 9.226-6.69l22.032-66.343c1.437-4.325-.91-8.998-5.233-10.438z"/></g><path d="m140.137 248.468-57.556-28.778-10.571 5.426v65.666l69.937-32.359z" fill="#ff7e92"/><path d="m111.484 342.71c-54.73 0-99.097-44.367-99.097-99.097 0-24.211 8.699-46.407 23.119-63.618-21.696 18.178-35.506 45.486-35.506 76.005 0 54.729 44.367 99.097 99.097 99.097 30.519 0 57.813-13.793 75.991-35.489-17.211 14.42-39.393 23.102-63.604 23.102z" fill="#ffb9c0"/><path d="m143.97 250.385-3.833-1.916-45.317 22.658c-5.623 2.811-12.24-1.278-12.24-7.565v-43.872l-4.276-2.138c-5.623-2.812-12.24 1.277-12.24 7.565v65.665c0 6.287 6.616 10.376 12.24 7.565l65.665-32.833c6.235-3.117 6.235-12.012.001-15.129z" fill="#ff5f7a"/></g></svg>