<svg id="Capa_1" enable-background="new 0 0 512 512" height="512" viewBox="0 0 512 512" width="512" xmlns="http://www.w3.org/2000/svg"><g><path d="m57.054 140.387h273.268c27.365 0 49.548 22.184 49.548 49.548v58.223l-121.505 123.455h-201.311c-27.365 0-49.548-22.184-49.548-49.548v-132.13c0-27.364 22.184-49.548 49.548-49.548z" fill="#ff5f7a"/><path d="m237.082 363.355h-187.534c-18.243 0-33.032-14.789-33.032-33.032v-140.388l-8.359-5.14-8.157 5.14v140.387c0 27.365 22.184 49.548 49.548 49.548h280.774c27.365 0 49.548-22.184 49.548-49.548v-82.164c-61.001 3.559-111.347 46.004-126.886 102.933-1.968 7.213-8.427 12.264-15.902 12.264z" fill="#fb4455"/><path d="m330.323 0h-280.775c-12.692 0-24.265 4.776-33.032 12.624l-7.707 84.859 7.707 92.452h363.355v-140.387c0-27.364-22.183-49.548-49.548-49.548z" fill="#ff98a2"/><path d="m16.516 12.624c-10.115 9.072-16.516 22.268-16.516 36.924v140.387h16.516z" fill="#ff7e92"/><path d="m512 388.129c0 31.04-11.417 59.413-30.28 81.15-22.712 26.171-56.218 38.05-93.591 38.05-68.412 0-119.99-50.788-119.99-119.2 0-37.366 12.664-70.868 38.828-93.58 21.738-18.87 50.116-30.291 81.162-30.291 68.412 0 123.871 55.459 123.871 123.871z" fill="#f2d1ff"/><path d="m297.29 189.935c0 26.481-9.588 50.723-25.482 69.444-19.692 23.193-49.064 34.665-81.873 34.665-59.29 0-103.371-44.818-103.371-104.109 0-32.788 10.715-62.142 33.882-81.834 18.726-15.917 42.986-25.521 69.489-25.521 59.291.001 107.355 48.065 107.355 107.355z" fill="#fb4455"/><circle cx="189.935" cy="189.935" fill="#ffdbde" r="74.323"/><g fill="#fff"><circle cx="66.065" cy="66.065" r="16.516"/><path d="m443.516 398.806c-3.226-3.226-8.452-3.226-11.677 0l-35.452 35.452v-112.193c0-4.56-3.694-8.258-8.258-8.258s-8.258 3.698-8.258 8.258v112.194l-35.452-35.452c-3.226-3.226-8.452-3.226-11.677 0s-3.226 8.452 0 11.677l49.548 49.548c1.613 1.613 3.726 2.419 5.839 2.419s4.226-.806 5.839-2.419l49.548-49.548c3.226-3.226 3.226-8.452 0-11.678z"/><circle cx="189.935" cy="189.935" r="57.806"/></g><path d="m400.516 499.613c-68.412 0-123.871-55.459-123.871-123.871 0-31.053 11.444-59.452 30.322-81.193-26.158 22.711-42.709 56.218-42.709 93.58 0 68.412 55.459 123.871 123.871 123.871 37.361 0 70.88-16.564 93.591-42.721-21.741 18.877-50.151 30.334-81.204 30.334z" fill="#dfbdf0"/><path d="m202.323 284.903c-59.29 0-107.355-48.065-107.355-107.355 0-26.491 9.574-50.724 25.479-69.447-23.182 19.692-37.866 49.035-37.866 81.834 0 59.29 48.065 107.355 107.355 107.355 32.799 0 62.181-14.729 81.873-37.911-18.724 15.904-42.995 25.524-69.486 25.524z" fill="#d93f50"/></g></svg>