<svg id="Capa_1" enable-background="new 0 0 512 512" height="512" viewBox="0 0 512 512" width="512" xmlns="http://www.w3.org/2000/svg"><g><path d="m328 176.002h-144c-5.828 0-11.293 1.556-16 4.279l-8.313 27.721v89.008c0 17.673 14.327 32 32 32h136.313l27.717-9.008c2.723-4.707 4.283-10.171 4.283-16v-96c0-17.673-14.327-32-32-32z" fill="#ff7e92"/><path d="m290.756 247.785-52.385-26.192-8.024 4.49 4.073 60.683 58.805-34.045z" fill="#fff"/><path d="m34.031 374.584c-2.938 0-5.766-1.621-7.164-4.43-17.828-35.723-26.867-74.129-26.867-114.152s9.039-78.43 26.867-114.152c1.969-3.953 6.766-5.555 10.727-3.59 3.953 1.977 5.562 6.777 3.586 10.73-16.711 33.488-25.18 69.492-25.18 107.012s8.469 73.523 25.18 107.012c1.977 3.953.367 8.754-3.586 10.73-1.149.57-2.367.84-3.563.84z" fill="#ffdbde"/><path d="m73.906 346.674c-3.047 0-5.953-1.738-7.289-4.688-12.351-27.164-18.617-56.094-18.617-85.984s6.266-58.82 18.617-85.984c1.82-4.008 6.531-5.812 10.594-3.969 4.023 1.828 5.797 6.57 3.969 10.594-11.399 25.07-17.18 51.769-17.18 79.359s5.781 54.289 17.18 79.359c1.828 4.023.055 8.766-3.969 10.594-1.078.488-2.203.719-3.305.719z" fill="#ffb9c0"/><path d="m114.219 318.451c-3.211 0-6.242-1.953-7.469-5.133-7.133-18.551-10.75-37.836-10.75-57.316s3.617-38.766 10.75-57.316c1.586-4.121 6.211-6.172 10.344-4.598 4.117 1.586 6.18 6.215 4.594 10.34-6.43 16.711-9.688 34.062-9.688 51.574s3.258 34.863 9.688 51.574c1.586 4.125-.477 8.754-4.594 10.34-.946.359-1.922.535-2.875.535z" fill="#ff7e92"/><path d="m477.969 374.584c-1.195 0-2.414-.27-3.562-.84-3.953-1.977-5.562-6.777-3.586-10.73 16.71-33.489 25.179-69.493 25.179-107.012 0-37.535-8.469-73.539-25.18-107.008-1.977-3.953-.367-8.758 3.586-10.73 3.945-1.984 8.766-.359 10.727 3.582 17.828 35.71 26.867 74.117 26.867 114.156 0 40.023-9.039 78.43-26.867 114.152-1.399 2.809-4.227 4.43-7.164 4.43z" fill="#ffdbde"/><path d="m438.094 346.674c-1.102 0-2.227-.23-3.305-.719-4.023-1.828-5.797-6.57-3.969-10.594 11.398-25.07 17.18-51.77 17.18-79.359s-5.781-54.289-17.18-79.359c-1.828-4.023-.055-8.766 3.969-10.594 4.055-1.844 8.773-.047 10.594 3.969 12.351 27.163 18.617 56.093 18.617 85.984s-6.266 58.82-18.617 85.984c-1.336 2.945-4.242 4.688-7.289 4.688z" fill="#ffb9c0"/><path d="m397.781 318.451c-.953 0-1.93-.176-2.875-.535-4.117-1.586-6.18-6.215-4.594-10.34 6.43-16.711 9.688-34.062 9.688-51.574s-3.258-34.863-9.688-51.574c-1.586-4.125.477-8.754 4.594-10.34 4.125-1.574 8.75.477 10.344 4.598 7.133 18.551 10.75 37.836 10.75 57.316s-3.617 38.766-10.75 57.316c-1.227 3.18-4.258 5.133-7.469 5.133z" fill="#ff7e92"/><path d="m168 304.002v-123.721c-9.525 5.543-16 15.907-16 27.721v96c0 17.673 14.327 32 32 32h144c11.814 0 22.174-6.476 27.717-16h-171.717c-8.837 0-16-7.164-16-16z" fill="#ff5f7a"/><path d="m296.308 250.562-5.552-2.777-29.229 14.615c-10.638 5.319-23.155-2.417-23.155-14.311v-26.496l-5.676-2.838c-5.448-2.724-11.857 1.238-11.857 7.329v63.613c0 6.091 6.41 10.052 11.858 7.328l63.613-31.806c6.037-3.02 6.037-11.637-.002-14.657z" fill="#ffdbde"/></g></svg>