<svg id="Capa_1" enable-background="new 0 0 512 512" height="512" viewBox="0 0 512 512" width="512" xmlns="http://www.w3.org/2000/svg"><g><path d="m454.194 119.742h-72.996c-5.927 0-11.399-3.176-14.34-8.322l-14.011-24.519c-8.822-15.438-25.239-24.965-43.02-24.965h-107.654c-17.781 0-34.198 9.527-43.02 24.965l-14.011 24.519c-2.941 5.146-8.413 8.322-14.34 8.322h-72.996c-16.176 0-30.798 6.647-41.29 17.355l-9.012 40.451v207.899c0 31.926 25.881 57.806 57.806 57.806h388.884l40.456-9.706c10.707-10.492 17.35-25.115 17.35-41.29v-214.71c0-31.924-25.881-57.805-57.806-57.805z" fill="#ffdbde"/><path d="m379.871 284.903c-4.565 0-8.258-3.698-8.258-8.258 0-63.75-51.863-115.613-115.613-115.613-4.565 0-8.258-3.698-8.258-8.258s3.694-8.258 8.258-8.258c72.855 0 132.129 59.274 132.129 132.129 0 4.561-3.694 8.258-8.258 8.258z" fill="#d93f50"/><path d="m169.298 196.435c-2.137 0-4.274-.827-5.895-2.476-3.194-3.254-3.145-8.484.113-11.677 7.524-7.379 15.935-13.859 25-19.254 3.944-2.327 8.984-1.048 11.323 2.875 2.331 3.919 1.048 8.988-2.871 11.319-7.944 4.722-15.306 10.391-21.887 16.851-1.605 1.576-3.694 2.362-5.783 2.362z" fill="#ffb9c0"/><path d="m133.581 265.956c-.411 0-.831-.032-1.258-.097-4.508-.69-7.605-4.903-6.911-9.411 2.387-15.585 7.5-30.468 15.21-44.242 2.234-3.98 7.258-5.411 11.242-3.173 3.984 2.226 5.403 7.258 3.177 11.238-6.742 12.044-11.218 25.056-13.306 38.677-.622 4.084-4.146 7.008-8.154 7.008z" fill="#ff98a2"/><path d="m156.903 359.226c-2.508 0-4.984-1.137-6.613-3.298-13.927-18.54-22.742-40.484-25.484-63.452-.54-4.528 2.694-8.637 7.226-9.181 4.573-.508 8.637 2.698 9.177 7.222 2.395 20.085 10.105 39.274 22.29 55.492 2.734 3.645 2 8.823-1.645 11.56-1.483 1.116-3.225 1.657-4.951 1.657z" fill="#ff7e92"/><path d="m256 408.774c-28.863 0-56.282-9.141-79.29-26.431-3.645-2.738-4.379-7.915-1.645-11.56 2.75-3.645 7.927-4.383 11.565-1.641 20.129 15.121 44.113 23.117 69.371 23.117 4.565 0 8.258 3.698 8.258 8.258-.001 4.56-3.694 8.257-8.259 8.257z" fill="#ff5f7a"/><path d="m289.024 404.327c-3.621 0-6.944-2.403-7.952-6.065-1.218-4.395 1.363-8.944 5.766-10.157 38.968-10.758 69.863-41.653 80.621-80.625 1.218-4.403 5.758-6.98 10.161-5.762 4.395 1.214 6.976 5.762 5.758 10.157-12.298 44.544-47.605 79.855-92.153 92.149-.733.202-1.467.303-2.201.303z" fill="#fb4455"/><path d="m57.806 433.548c-22.804 0-41.29-18.486-41.29-41.29v-255.161c-10.206 10.425-16.516 24.71-16.516 40.451v214.71c0 31.925 25.881 57.806 57.806 57.806h396.387c15.74 0 30.032-6.31 40.456-16.516z" fill="#ffb9c0"/><circle cx="256" cy="276.645" fill="#fff" r="90.839"/></g></svg>