<svg id="Capa_1" enable-background="new 0 0 512 512" height="512" viewBox="0 0 512 512" width="512" xmlns="http://www.w3.org/2000/svg"><g><g><path d="m445.753 247.742c-1.276-29.824-9.432-57.865-22.917-82.581l-10.146-16.516c-13.211-19.247-29.875-35.939-49.099-49.181-30.583-21.066-67.37-32.812-107.317-32.812-39.928 0-77.253 11.733-107.832 32.779-1.513 1.041-3.009 2.103-4.49 3.187-47.219 34.554-70.636 90.386-70.636 153.382 0 104.898 77.786 183.235 182.684 183.235 63.001 0 118.837-23.973 153.39-71.2 1.129-1.542 2.234-3.102 3.317-4.68l10.137-16.517c13.485-24.715 21.635-52.757 22.911-82.581z" fill="#7ad7ee"/><path d="m297.29 404.645c-104.899 0-189.935-85.037-189.935-189.935 0-41.913 13.605-80.678 36.599-112.092-17.35 12.699-32.466 28.275-44.648 46.022l-10.142 16.521c-13.488 24.717-21.646 52.76-22.923 82.58v16.513c1.275 29.826 9.429 57.871 22.916 82.588l10.136 16.512c13.224 19.266 29.909 35.971 49.157 49.218 30.577 21.044 67.625 32.648 107.55 32.648s76.983-11.618 107.567-32.672c17.666-12.16 33.171-27.231 45.823-44.514-31.414 22.995-70.187 36.611-112.1 36.611z" fill="#4bc3ef"/><path d="m445.755 264.258c.117-2.741.18-5.489.18-8.258s-.065-5.517-.183-8.258h-24.759c-.935-29.53-6.842-57.482-16.723-82.581h18.565c-3.106-5.693-6.492-11.196-10.146-16.516h-15.67c-9.046-18.498-20.342-35.105-33.428-49.181-30.586-21.063-67.646-33.4-107.592-33.4s-76.97 12.304-107.557 33.367c-4.3 4.625-8.411 9.528-12.314 14.682-7.973 10.531-19.592 35.927-19.592 35.927l-14.335 47.565 6.148 36.608c2.22-24.768 8.175-48.103 17.142-69.053h41.178c-5.74 24.97-9.135 52.883-9.671 82.581h-46.789l-1.818 9.158 5.49 7.358h43.119c.536 29.698 3.931 57.61 9.671 82.581h-5.829l12.165 17.138 18.272 8.36c-1.006-2.929-1.975-5.924-2.907-8.982h59.369v34.757l7.691 10.281 8.825-6.601v-38.437h59.369c-4.706 15.441-10.371 29.286-16.778 41.027l7.593 5.817 12.029-7.785c5.595-11.675 10.504-24.776 14.603-39.059h37.462c-6.207 11.53-13.381 22.144-21.374 31.649l7.248 6.765 22.072-19.35c3.787-6.092 7.307-12.456 10.538-19.063h15.686c3.653-5.321 7.032-10.824 10.138-16.516h-18.573c9.881-25.099 15.788-53.05 16.723-82.581zm-274.828-115.613h-37.462c17.51-32.529 42.728-57.771 72.269-71.378-14.345 17.266-26.316 41.786-34.807 71.378zm76.815 198.194h-63.891c-6.059-24.867-9.754-52.966-10.338-82.581h74.228v82.581zm0-99.097h-74.228c.583-29.615 4.279-57.714 10.338-82.581h63.891v82.581zm0-99.097h-59.369c13.562-44.501 35.095-75.745 59.369-81.587zm16.516-81.587c24.274 5.842 45.807 37.086 59.369 81.587h-59.369zm63.891 279.781h-63.891v-82.581h74.228c-.583 29.615-4.278 57.714-10.337 82.581zm-63.891-99.097v-82.581h63.891c6.059 24.867 9.754 52.966 10.338 82.581zm42.009-170.475c29.541 13.607 54.758 38.849 72.269 71.378h-37.462c-8.492-29.592-20.463-54.112-34.807-71.378zm80.24 269.572h-41.178c5.74-24.97 9.136-52.883 9.671-82.581h49.481c-1.004 29.804-7.39 57.854-17.974 82.581zm-31.507-99.097c-.536-29.698-3.931-57.61-9.671-82.581h41.178c10.584 24.727 16.971 52.776 17.975 82.581z" fill="#e3f5ff"/><path d="m363.567 412.55c8.389-9.024 16.114-19.202 22.915-30.131-9.333 4.971-19.142 9.208-29.32 12.586-14.543 17.277-31.852 30.957-50.895 39.729 7.425-8.938 14.204-19.796 20.204-32.319-6.424.993-13.002 1.638-19.622 1.969-12.065 22.139-26.722 36.741-42.591 40.56v-43.15c-5.592-.981-11.104-2.22-16.516-3.68v46.83c-22.603-5.44-42.823-32.922-56.45-72.609-11.012-7.42-21.241-15.992-30.449-25.494h-35.349c-10.584-24.727-16.971-52.776-17.975-82.581h6.364c-1.459-5.412-2.691-10.924-3.672-16.516h-2.692c.151-4.486.441-9.127.832-13.527-.668-6.481-.996-12.847-.996-19.505 0-36.617 10.818-71.596 28.775-100.596-7.765 10.337-15.204 22.372-21.15 34.532l-15.674-.005c-3.653 5.321-7.036 10.828-10.142 16.521h18.566c-9.882 25.099-15.788 53.05-16.723 82.581h-24.762c-.117 2.741-.181 5.488-.181 8.258s.059 5.517.176 8.258h24.765c.935 29.53 6.842 57.482 16.723 82.581h-18.573c3.106 5.693 6.484 11.196 10.137 16.516h15.688c9.046 18.499 20.384 35.143 33.47 49.218 30.586 21.063 67.605 33.362 107.55 33.362s76.981-12.325 107.567-33.388zm-230.103-49.195h37.462c8.491 29.592 20.462 54.112 34.806 71.378-29.54-13.607-54.757-38.849-72.268-71.378z" fill="#d1edff"/></g><g><path d="m165.161 82.581c0 19.641-6.857 37.68-18.307 51.855-15.139 18.74-38.306 26.899-64.273 26.899-45.608 0-77.681-33.146-77.681-78.754 0-25.991 7.107-49.177 25.877-64.315 14.167-11.426 32.186-18.266 51.804-18.266 45.608 0 82.58 36.973 82.58 82.581z" fill="#98db7c"/><circle cx="82.581" cy="66.065" fill="#fff" r="16.516"/><path d="m94.968 152.774c-45.608 0-82.581-36.973-82.581-82.581 0-19.647 6.932-37.751 18.39-51.928-18.732 15.139-30.777 38.355-30.777 64.316 0 30.565 16.606 57.252 41.287 71.531l82.585-.004c8.822-5.104 16.613-11.792 22.982-19.672-14.177 11.457-32.239 18.338-51.886 18.338z" fill="#77cc7d"/><path d="m90.839 99.097h-16.516c-18.243 0-33.032 14.789-33.032 33.032v.82l11.826 21.056 53.104 4.561 17.65-10.998v-15.438c0-18.244-14.789-33.033-33.032-33.033z" fill="#fff"/><path d="m94.968 152.774c-20.512 0-39.237-7.446-53.677-19.825v21.157c12.156 7.042 26.231 11.055 41.29 11.055s29.134-4.013 41.29-11.055v-6.539c-8.998 3.376-18.724 5.207-28.903 5.207z" fill="#e9f8d8"/></g><g><path d="m512 82.581c0 19.641-6.857 37.68-18.307 51.855-15.139 18.74-38.306 26.899-64.273 26.899-45.608 0-77.681-33.146-77.681-78.754 0-25.991 7.107-49.177 25.877-64.315 14.166-11.426 32.186-18.266 51.803-18.266 45.608 0 82.581 36.973 82.581 82.581z" fill="#f2d1ff"/><circle cx="429.419" cy="66.065" fill="#fff" r="16.516"/><path d="m441.806 152.774c-45.608 0-82.581-36.973-82.581-82.581 0-19.647 6.932-37.751 18.39-51.928-18.732 15.139-30.777 38.355-30.777 64.315 0 30.565 16.606 57.252 41.287 71.531l82.585-.004c8.822-5.104 16.613-11.792 22.982-19.672-14.176 11.458-32.238 18.339-51.886 18.339z" fill="#dfbdf0"/><path d="m437.677 99.097h-16.516c-18.243 0-33.032 14.789-33.032 33.032v.82l11.826 21.056 53.104 4.561 17.65-10.998v-15.438c.001-18.244-14.788-33.033-33.032-33.033z" fill="#fff"/><path d="m441.806 152.774c-20.512 0-39.237-7.446-53.677-19.825v21.157c12.156 7.042 26.231 11.055 41.29 11.055s29.134-4.013 41.29-11.055v-6.539c-8.997 3.376-18.724 5.207-28.903 5.207z" fill="#fcf2ff"/></g><g><path d="m165.161 429.419c0 19.641-6.857 37.68-18.307 51.855-15.139 18.74-38.306 26.899-64.273 26.899-45.608 0-77.681-33.146-77.681-78.754 0-25.991 7.107-49.177 25.877-64.315 14.167-11.426 32.187-18.266 51.804-18.266 45.608.001 82.58 36.973 82.58 82.581z" fill="#ffe077"/><circle cx="82.581" cy="412.903" fill="#fff" r="16.516"/><path d="m94.968 499.613c-45.608 0-82.581-36.973-82.581-82.581 0-19.647 6.932-37.751 18.39-51.928-18.732 15.139-30.777 38.355-30.777 64.315 0 30.565 16.606 57.252 41.287 71.531l82.585-.004c8.822-5.104 16.613-11.792 22.982-19.672-14.177 11.458-32.239 18.339-51.886 18.339z" fill="#ffd05b"/><path d="m90.839 445.935h-16.516c-18.243 0-33.032 14.789-33.032 33.032v.82l11.826 21.056 53.104 4.561 17.65-10.998v-15.438c0-18.244-14.789-33.033-33.032-33.033z" fill="#fff"/><path d="m94.968 499.613c-20.512 0-39.237-7.446-53.677-19.825v21.157c12.156 7.042 26.23 11.055 41.29 11.055s29.134-4.013 41.29-11.055v-6.539c-8.998 3.376-18.724 5.207-28.903 5.207z" fill="#fff4d6"/></g><g><path d="m512 429.419c0 19.641-6.857 37.68-18.307 51.855-15.139 18.74-38.306 26.899-64.273 26.899-45.608 0-77.681-33.146-77.681-78.754 0-25.991 7.107-49.177 25.877-64.315 14.167-11.426 32.187-18.266 51.804-18.266 45.607.001 82.58 36.973 82.58 82.581z" fill="#ff98a2"/><circle cx="429.419" cy="412.903" fill="#fff" r="16.516"/><path d="m441.806 499.613c-45.608 0-82.581-36.973-82.581-82.581 0-19.647 6.932-37.751 18.39-51.928-18.732 15.139-30.777 38.355-30.777 64.315 0 30.565 16.606 57.252 41.287 71.531l82.585-.004c8.822-5.104 16.613-11.792 22.982-19.672-14.176 11.458-32.238 18.339-51.886 18.339z" fill="#ff7e92"/><path d="m437.677 445.935h-16.516c-18.243 0-33.032 14.789-33.032 33.032v.82l11.826 21.056 53.104 4.561 17.65-10.998v-15.438c.001-18.244-14.788-33.033-33.032-33.033z" fill="#fff"/><path d="m441.806 499.613c-20.512 0-39.237-7.446-53.677-19.825v21.157c12.156 7.042 26.231 11.055 41.29 11.055s29.134-4.013 41.29-11.055v-6.539c-8.997 3.376-18.724 5.207-28.903 5.207z" fill="#ffdbde"/></g></g></svg>