<svg id="Capa_1" enable-background="new 0 0 512 512" height="512" viewBox="0 0 512 512" width="512" xmlns="http://www.w3.org/2000/svg"><g><path d="m181.677 256c0-50.169-40.67-90.839-90.839-90.839-21.925 0-42.036 7.768-57.731 20.701-20.217 16.661-27.775 41.894-27.775 70.138 0 50.169 35.338 86.696 85.507 86.696 28.239 0 53.468-8.742 70.129-28.954 12.938-15.697 20.709-35.812 20.709-57.742z" fill="#4bc3ef"/><path d="m487.226 165.161h-247.742c-2.895 0-5.676.493-8.258 1.405l-8.7 23.369v125.162c0 13.683 11.092 24.774 24.774 24.774h239.926l23.368-9.549c.913-2.583 1.406-5.363 1.406-8.258v-132.128c0-13.683-11.092-24.775-24.774-24.775z" fill="#ff7e92"/><g fill="#fff"><path d="m292.806 283.73c-.016 0-.032 0-.048 0-5.863.032-12.153.056-16.935.06v-63.839c0-4.56-3.694-8.258-8.258-8.258s-8.258 3.698-8.258 8.258v72.036c0 4.02 2.895 7.46 6.863 8.137.589.105 1.073.185 9.016.185 3.855 0 9.452-.02 17.669-.065 4.556-.024 8.234-3.742 8.21-8.302-.025-4.547-3.718-8.212-8.259-8.212z"/><path d="m325.315 211.694c-4.565 0-8.258 3.698-8.258 8.258v72.097c0 4.56 3.694 8.258 8.258 8.258s8.258-3.698 8.258-8.258v-72.097c0-4.561-3.694-8.258-8.258-8.258z"/><path d="m468.895 283.46h-21.847v-19.202h19.629c4.565 0 8.258-3.698 8.258-8.258 0-4.561-3.694-8.258-8.258-8.258h-19.629v-19.202h21.847c4.565 0 8.258-3.698 8.258-8.258s-3.694-8.258-8.258-8.258h-30.105c-4.565 0-8.258 3.698-8.258 8.258v71.436c0 4.56 3.694 8.258 8.258 8.258h30.105c4.565 0 8.258-3.698 8.258-8.258 0-4.561-3.693-8.258-8.258-8.258z"/><path d="m411.5 212.246c-4.331-1.431-9 .907-10.444 5.234l-17.379 52.323-18.25-52.56c-1.492-4.306-6.202-6.593-10.508-5.093-4.306 1.496-6.589 6.202-5.089 10.512l24.669 71.061c1.395 3.944 5.137 6.585 9.315 6.585h.048c4.202-.024 7.944-2.71 9.331-6.758l23.54-70.859c1.436-4.332-.902-9.005-5.233-10.445z"/></g><path d="m103.226 334.452c-50.169 0-90.839-40.67-90.839-90.839 0-21.93 7.782-42.054 20.721-57.75-20.212 16.661-33.108 41.898-33.108 70.137 0 47.385 36.282 86.29 82.581 90.462l16.516.005c24.872-2.242 46.852-14.506 61.871-32.726-15.697 12.939-35.812 20.711-57.742 20.711z" fill="#1badde"/><path d="m115.613 256h-16.516v-24.774c0-9.108 7.411-16.516 16.516-16.516 4.565 0 8.258-3.697 8.258-8.258s-3.693-8.258-8.258-8.258c-18.218 0-33.032 14.819-33.032 33.032v24.774h-16.517c-4.564 0-8.258 3.698-8.258 8.258 0 4.561 3.694 8.258 8.258 8.258h16.516v59.585l8.488 5.164 8.028-2.917v-61.833h16.516c4.565 0 8.258-3.698 8.258-8.258.001-4.559-3.693-8.257-8.257-8.257z" fill="#fff"/><path d="m90.839 346.839c2.793 0 5.53-.125 8.258-.372v-12.118c-5.656-.255-11.175-1.004-16.516-2.247v14.36c2.723.246 5.47.377 8.258.377z" fill="#e3f5ff"/><path d="m231.226 322.065v-155.498c-9.6 3.413-16.516 12.598-16.516 23.369v132.129c0 13.682 11.092 24.774 24.774 24.774h247.742c10.771 0 19.956-6.916 23.368-16.516h-271.11c-4.561 0-8.258-3.698-8.258-8.258z" fill="#ff5f7a"/></g></svg>