<svg id="Capa_1" enable-background="new 0 0 512 512" height="512" viewBox="0 0 512 512" width="512" xmlns="http://www.w3.org/2000/svg"><g><path d="m404.645 148.645h-297.29c-25.43 0-48.795 8.842-67.189 23.62-24.49 19.676-32.008 83.735-32.008 83.735 0 59.29 39.907 101.464 99.197 101.464h297.29l57.236-10.625c30.115-19.015 50.119-52.59 50.119-90.839 0-59.291-48.065-107.355-107.355-107.355z" fill="#eceaec"/><path d="m313.806 256c0 12.735-4.118 24.508-11.095 34.06-10.514 14.395-46.711 20.49-46.711 20.49-31.926 0-54.673-22.624-54.673-54.55 0 0 6.2-36.166 20.573-46.682 9.559-6.995 21.347-11.124 34.1-11.124 31.926 0 57.806 25.88 57.806 57.806z" fill="#ffaa5a"/><path d="m268.611 301.195c-31.926 0-57.806-25.881-57.806-57.806 0-12.742 4.111-24.516 11.095-34.071-14.385 10.515-23.707 27.499-23.707 46.682 0 31.925 25.881 57.806 57.806 57.806 19.183 0 36.196-9.361 46.712-23.746-9.555 6.984-21.357 11.135-34.1 11.135z" fill="#ff8b57"/><path d="m462.452 256c0 12.735-4.118 24.508-11.095 34.06-10.514 14.395-46.711 20.49-46.711 20.49-31.926 0-54.673-22.624-54.673-54.55 0 0 6.2-36.166 20.573-46.682 9.559-6.995 21.347-11.124 34.1-11.124 31.925 0 57.806 25.88 57.806 57.806z" fill="#ffd05b"/><path d="m417.257 301.195c-31.926 0-57.806-25.881-57.806-57.806 0-12.742 4.111-24.516 11.095-34.071-14.385 10.515-23.707 27.499-23.707 46.682 0 31.925 25.881 57.806 57.806 57.806 19.183 0 36.196-9.361 46.711-23.746-9.555 6.984-21.357 11.135-34.099 11.135z" fill="#ffc244"/><path d="m165.161 256c0 12.735-4.118 24.508-11.095 34.06-10.514 14.395-46.712 20.49-46.712 20.49-31.926 0-54.672-22.624-54.672-54.55 0 0 6.2-36.166 20.573-46.682 9.559-6.995 21.347-11.124 34.1-11.124 31.925 0 57.806 25.88 57.806 57.806z" fill="#ffd05b"/><g fill="#615260"><path d="m93.831 243.54h-6.766c-4.565 0-8.258-3.698-8.258-8.258s3.694-8.258 8.258-8.258h6.766c4.565 0 8.258 3.698 8.258 8.258s-3.694 8.258-8.258 8.258z"/><path d="m127.645 243.54h-6.766c-4.565 0-8.258-3.698-8.258-8.258s3.694-8.258 8.258-8.258h6.766c4.565 0 8.258 3.698 8.258 8.258s-3.693 8.258-8.258 8.258z"/><path d="m269.024 283.56c-.968 0-1.96-.173-2.919-.536-6.645-2.516-13.564-2.516-20.21 0-4.282 1.605-9.032-.54-10.645-4.806s.54-9.032 4.806-10.645c10.403-3.927 21.484-3.927 31.887 0 4.266 1.613 6.419 6.379 4.806 10.645-1.249 3.306-4.394 5.342-7.725 5.342z"/><path d="m404.645 283.556c-5.379 0-10.742-.996-15.944-2.96-4.266-1.613-6.419-6.379-4.806-10.645s6.387-6.407 10.645-4.806c6.645 2.516 13.565 2.516 20.21 0 4.242-1.617 9.032.536 10.645 4.806 1.613 4.266-.54 9.032-4.806 10.645-5.202 1.964-10.565 2.96-15.944 2.96z"/></g><path d="m87.795 258.934c-4.473 0-7.62 4.421-6.195 8.66 3.615 10.756 13.78 18.504 25.755 18.504s22.139-7.748 25.755-18.504c1.425-4.24-1.722-8.66-6.195-8.66z" fill="#fb4455"/><path d="m123.871 346.839c-59.29 0-107.355-48.065-107.355-107.355 0-25.436 8.867-48.825 23.65-67.219-24.483 19.676-40.166 49.88-40.166 83.735 0 59.29 48.065 107.355 107.355 107.355h297.29c20.981 0 40.699-6.111 57.236-16.516z" fill="#dbd8db"/><path d="m119.966 301.195c-31.926 0-57.806-25.881-57.806-57.806 0-12.742 4.111-24.516 11.095-34.071-14.385 10.515-23.707 27.499-23.707 46.682 0 31.925 25.881 57.806 57.806 57.806 19.183 0 36.196-9.361 46.712-23.746-9.555 6.984-21.357 11.135-34.1 11.135z" fill="#ffc244"/><circle cx="231.226" cy="247.742" fill="#615260" r="8.258"/><circle cx="280.774" cy="247.742" fill="#615260" r="8.258"/><circle cx="379.871" cy="247.742" fill="#615260" r="8.258"/><circle cx="429.419" cy="247.742" fill="#615260" r="8.258"/></g></svg>