<svg id="Capa_1" enable-background="new 0 0 512 512" height="512" viewBox="0 0 512 512" width="512" xmlns="http://www.w3.org/2000/svg"><g><path d="m256 16.516c-127.703 0-231.226 103.523-231.226 231.226 0 127.702 103.523 231.226 231.226 231.226s231.226-103.524 231.226-231.226c0-127.703-103.523-231.226-231.226-231.226zm0 429.419c-109.459 0-198.194-88.734-198.194-198.194s88.735-198.193 198.194-198.193 198.194 88.734 198.194 198.194-88.735 198.193-198.194 198.193z" fill="#ffdbde"/><path d="m256 .172c-136.824 0-239.047 110.745-239.047 247.569s102.223 247.743 239.047 247.743 247.742-110.918 247.742-247.742c0-134.052-106.469-243.237-239.459-247.606-2.75-.09-5.511.036-8.283.036zm0 462.28c-118.581 0-214.71-96.129-214.71-214.71s96.129-214.71 214.71-214.71c2.757 0 5.504.052 8.241.155 115 4.327 211.752 98.73 211.752 214.555 0 118.581-101.412 214.71-219.993 214.71z" fill="#ffaa5a"/><path d="m264.258 462.243c2.744.104 5.488.209 8.258.209 118.581 0 214.71-96.129 214.71-214.71s-96.129-214.71-214.71-214.71c-2.77 0-5.531.051-8.275.155 114.747 4.347 206.469 98.743 206.469 214.555 0 115.811-91.704 210.154-206.452 214.501z" fill="#ff7e92"/><path d="m24.774 247.742c0-134.054 106.516-243.241 239.509-247.606-2.748-.09-5.513-.136-8.283-.136-136.824 0-247.742 110.918-247.742 247.742s110.918 247.742 247.742 247.742c2.77 0 5.511-.119 8.258-.209-132.992-4.366-239.484-113.479-239.484-247.533z" fill="#ff7e92"/><path d="m363.355 388.129h-214.71c-2.896 0-5.675.497-8.258 1.41l-8.105 23.365v71.166c0 11.046 8.954 20 20 20h211.072l23.371-8.586c.912-2.583 1.403-5.363 1.403-8.258v-74.323c.001-13.682-11.091-24.774-24.773-24.774z" fill="#ff7e92"/><g fill="#fff"><path d="m186.508 470.661c-.016 0-.032 0-.048 0 0 0-6.403.036-11.935.048v-49.548c0-4.56-3.694-8.258-8.258-8.258s-8.258 3.698-8.258 8.258v57.758c0 4.024 2.903 7.464 6.871 8.141.581.101.992.169 7.476.169 3.105 0 7.613-.016 14.202-.052 4.556-.024 8.234-3.742 8.21-8.302-.026-4.548-3.72-8.214-8.26-8.214z"/><path d="m217.548 412.903c-4.565 0-8.258 3.698-8.258 8.258v57.806c0 4.56 3.694 8.258 8.258 8.258s8.258-3.698 8.258-8.258v-57.806c0-4.56-3.693-8.258-8.258-8.258z"/><path d="m346.105 470.448h-15.879v-12.125h14.097c4.565 0 8.258-3.698 8.258-8.258s-3.694-8.258-8.258-8.258h-14.097v-12.125h15.879c4.565 0 8.258-3.698 8.258-8.258s-3.694-8.258-8.258-8.258h-24.137c-4.565 0-8.258 3.698-8.258 8.258v57.282c0 4.56 3.694 8.258 8.258 8.258h24.137c4.565 0 8.258-3.698 8.258-8.258s-3.694-8.258-8.258-8.258z"/><path d="m292.637 413.427c-4.331-1.435-9 .907-10.444 5.234l-12.411 37.383-13.048-37.589c-1.484-4.31-6.202-6.589-10.508-5.097-4.306 1.496-6.589 6.202-5.089 10.508l19.782 57.028c1.371 3.798 4.984 6.331 9.008 6.331h.097c4.056-.04 7.661-2.649 8.976-6.536l18.871-56.819c1.435-4.33-.911-9.003-5.234-10.443z"/></g><path d="m148.645 495.484c-4.561 0-8.258-3.698-8.258-8.258l.001-97.687c-9.6 3.413-16.517 12.593-16.517 23.365v74.323c0 13.682 11.092 24.774 24.774 24.774h214.71c10.771 0 19.958-6.916 23.371-16.516h-238.081z" fill="#ff5f7a"/></g></svg>