<svg id="Capa_1" enable-background="new 0 0 512 512" height="512" viewBox="0 0 512 512" width="512" xmlns="http://www.w3.org/2000/svg"><g><path d="m231.952 368.742h-176.355c-22.386 0-40.597-18.212-40.597-40.596v-128.775h65.419c3.872 58.112 52.376 104.209 111.452 104.209s107.58-46.097 111.452-104.209h65.419v32.581c0 4.142 3.358 7.5 7.5 7.5s7.5-3.358 7.5-7.5v-176.355c0-30.657-24.941-55.597-55.597-55.597h-272.548c-30.657 0-55.597 24.94-55.597 55.597v272.549c0 30.656 24.94 55.597 55.597 55.597h176.355c4.142 0 7.5-3.358 7.5-7.5 0-4.143-3.358-7.501-7.5-7.501zm-40.081-80.161c-53.326 0-96.71-43.384-96.71-96.709 0-53.326 43.384-96.71 96.71-96.71s96.709 43.384 96.709 96.71c.001 53.325-43.383 96.709-96.709 96.709zm-136.274-273.581h272.548c22.385 0 40.597 18.212 40.597 40.597v128.774h-65.419c-3.872-58.112-52.376-104.21-111.452-104.21s-107.581 46.098-111.452 104.21h-65.419v-128.774c0-22.385 18.211-40.597 40.597-40.597z"/><path d="m384.258 256.516c-70.438 0-127.742 57.305-127.742 127.742 0 70.438 57.305 127.742 127.742 127.742s127.742-57.305 127.742-127.742-57.305-127.742-127.742-127.742zm0 240.484c-62.166 0-112.742-50.576-112.742-112.742s50.576-112.742 112.742-112.742 112.742 50.576 112.742 112.742-50.576 112.742-112.742 112.742z"/><path d="m71.629 95.161c12.976 0 23.532-10.556 23.532-23.532s-10.557-23.532-23.532-23.532-23.532 10.556-23.532 23.532 10.556 23.532 23.532 23.532zm0-32.064c4.705 0 8.532 3.828 8.532 8.532 0 4.705-3.828 8.532-8.532 8.532s-8.532-3.827-8.532-8.532 3.827-8.532 8.532-8.532z"/><path d="m127.618 184.984c1.562-14.831 7.974-28.256 18.542-38.824 10.569-10.569 23.995-16.98 38.825-18.542 14.411-1.517 29.062 1.876 41.26 9.557 3.506 2.207 8.136 1.154 10.343-2.351s1.155-8.136-2.351-10.343c-15.033-9.466-33.082-13.65-50.823-11.781-18.024 1.898-35.022 10.014-47.861 22.854-12.839 12.839-20.955 29.836-22.853 47.86-1.868 17.741 2.315 35.791 11.781 50.823 1.426 2.264 3.862 3.505 6.354 3.505 1.366 0 2.748-.373 3.989-1.154 3.505-2.207 4.558-6.838 2.351-10.343-7.681-12.198-11.075-26.85-9.557-41.261z"/><path d="m248.918 147.154c-3.505 2.207-4.558 6.838-2.351 10.343 7.68 12.197 11.075 26.851 9.557 41.26-1.562 14.831-7.974 28.256-18.542 38.825-10.569 10.568-23.994 16.98-38.825 18.542-14.41 1.518-29.062-1.877-41.26-9.557-3.506-2.207-8.136-1.154-10.343 2.351s-1.155 8.136 2.351 10.343c12.689 7.99 27.527 12.216 42.516 12.216 2.768 0 5.542-.144 8.307-.436 18.024-1.898 35.021-10.014 47.86-22.853s20.956-29.836 22.854-47.86c1.868-17.742-2.316-35.791-11.781-50.823-2.207-3.505-6.838-4.559-10.343-2.351z"/><path d="m427.052 394.987-35.293 35.293v-110.151c0-4.142-3.358-7.5-7.5-7.5s-7.5 3.358-7.5 7.5v110.152l-35.294-35.293c-2.929-2.93-7.678-2.93-10.606 0-2.929 2.929-2.929 7.678 0 10.606l48.097 48.097c1.406 1.407 3.314 2.197 5.303 2.197s3.897-.791 5.303-2.197l48.097-48.097c2.929-2.929 2.929-7.678 0-10.606-2.93-2.93-7.679-2.93-10.607-.001z"/></g></svg>