<svg id="Capa_1" enable-background="new 0 0 512.004 512.004" height="512" viewBox="0 0 512.004 512.004" width="512" xmlns="http://www.w3.org/2000/svg"><g><path d="m493.642 158.845c-12.817-31.752-31.65-60.186-55.975-84.51-24.324-24.325-52.757-43.157-84.51-55.974-32.96-13.305-67.88-19.431-103.803-18.208-62.415 2.125-121.85 27.523-167.354 71.517-45.526 44.014-72.875 102.555-77.007 164.839-3.4 51.245 8.353 101.379 34.004 145.229l-37.379 97.763c-3.417 8.937-1.337 18.691 5.428 25.456 4.612 4.613 10.613 7.047 16.797 7.047 2.887 0 5.815-.531 8.659-1.618l97.762-37.38c43.85 25.652 93.981 37.405 145.229 34.005 62.284-4.133 120.826-31.481 164.84-77.007 43.993-45.504 69.392-104.939 71.518-167.354 1.223-35.918-4.903-70.843-18.209-103.805zm3.218 103.294c-1.999 58.696-25.904 114.609-67.311 157.438-41.422 42.845-96.486 68.58-155.049 72.466-49.404 3.278-97.69-8.396-139.643-33.758-1.979-1.196-4.398-1.413-6.559-.587l-101.152 38.677c-3.384 1.293-6.932.537-9.493-2.024s-3.317-6.109-2.024-9.492l38.676-101.153c.826-2.16.609-4.58-.587-6.559-25.363-41.953-37.036-90.241-33.758-139.644 3.885-58.562 29.621-113.627 72.466-155.048 42.829-41.407 98.742-65.312 157.439-67.31 2.819-.096 5.628-.144 8.434-.144 30.84 0 60.824 5.798 89.245 17.271 29.873 12.059 56.626 29.78 79.518 52.671s40.613 49.645 52.672 79.518c12.515 31.004 18.277 63.869 17.126 97.678z"/><path d="m327.275 193.438c0-33.146-26.967-60.113-60.114-60.113h-66.419c-4.142 0-7.5 3.357-7.5 7.5v228.655c0 1.995.795 3.908 2.208 5.315 1.406 1.399 3.309 2.185 5.292 2.185h.033c.611-.003 61.337-.271 77.985-.271 38.073 0 69.047-30.975 69.047-69.047 0-30.016-19.258-55.606-46.063-65.099 15.427-10.894 25.531-28.846 25.531-49.125zm-60.114-45.113c24.876 0 45.114 20.238 45.114 45.113 0 24.876-20.238 45.114-45.114 45.114-4.857 0-58.919.062-58.919.062v-90.29h58.919zm65.647 159.336c0 29.802-24.246 54.047-54.047 54.047-13.138 0-53.616.167-70.518.239v-108.195c8.314-.036 70.518-.138 70.518-.138 29.801 0 54.047 24.246 54.047 54.047z"/><path d="m258.211 41.05c-52.641 0-103.205 19.466-142.376 54.813-3.075 2.774-3.319 7.517-.544 10.592s7.518 3.319 10.593.543c36.41-32.854 83.405-50.948 132.327-50.948 109.036 0 197.743 88.707 197.743 197.743 0 48.922-18.094 95.916-50.949 132.327-2.775 3.075-2.531 7.817.544 10.592 1.435 1.294 3.231 1.932 5.022 1.932 2.049 0 4.09-.835 5.571-2.476 35.346-39.172 54.812-89.735 54.812-142.376-.001-117.306-95.437-212.742-212.743-212.742z"/><path d="m381.975 407.849c-35.502 28.58-78.299 43.687-123.765 43.687-36.096 0-71.409-9.813-102.118-28.376-7.573-4.582-16.258-7.004-25.117-7.004-5.951 0-11.785 1.077-17.338 3.201l-33.984 12.994 12.995-33.986c5.381-14.08 3.995-29.553-3.802-42.451-18.565-30.712-28.378-66.026-28.378-102.121 0-45.466 15.106-88.263 43.687-123.765 2.597-3.227 2.087-7.948-1.139-10.545-3.226-2.598-7.948-2.087-10.545 1.139-30.31 37.65-47.002 84.944-47.002 133.171 0 38.83 10.561 76.826 30.541 109.881 5.389 8.913 6.346 19.605 2.628 29.335l-18.989 49.663c-1.057 2.764-.39 5.89 1.702 7.982s5.217 2.76 7.982 1.702l49.663-18.989c3.837-1.467 7.868-2.211 11.981-2.211 6.121 0 12.121 1.673 17.354 4.839 33.053 19.98 71.05 30.541 109.881 30.541 48.226 0 95.52-16.693 133.171-47.002 3.227-2.598 3.736-7.319 1.139-10.545-2.599-3.227-7.321-3.737-10.547-1.14z"/></g></svg>