<svg id="Capa_1" enable-background="new 0 0 512 512" height="512" viewBox="0 0 512 512" width="512" xmlns="http://www.w3.org/2000/svg"><g><path d="m431.351 72.633c-46.838-46.838-109.112-72.633-175.351-72.633s-128.513 25.795-175.351 72.633-72.633 109.112-72.633 175.351c0 42.616 10.993 84.651 31.789 121.561 19.477 34.566 47.243 64.195 80.437 85.959v24.948c0 17.396 14.153 31.548 31.549 31.548h208.419c17.396 0 31.549-14.153 31.549-31.548v-24.948c33.194-21.764 60.96-51.392 80.437-85.959 20.796-36.91 31.789-78.945 31.789-121.561-.001-66.239-25.796-128.513-72.634-175.351zm-54.593 407.819c0 9.125-7.424 16.548-16.549 16.548h-208.418c-9.125 0-16.549-7.424-16.549-16.548v-72.145c0-9.125 7.424-16.549 16.549-16.549h208.419c9.125 0 16.549 7.424 16.549 16.549v72.145zm82.368-118.271c-16.673 29.59-39.802 55.341-67.368 75.156v-29.03c0-17.396-14.153-31.549-31.549-31.549h-208.418c-17.396 0-31.549 14.153-31.549 31.549v29.03c-27.567-19.814-50.696-45.566-67.368-75.156-19.533-34.667-29.857-74.156-29.857-114.197 0-62.232 24.234-120.74 68.239-164.745s102.512-68.239 164.744-68.239 120.74 24.234 164.745 68.239 68.239 102.513 68.239 164.745c0 40.041-10.325 79.531-29.858 114.197z"/><path d="m188.547 464.888c-.014 0-.029 0-.043 0-3.694.021-8.318.039-12.107.045v-48.611c0-4.142-3.358-7.5-7.5-7.5s-7.5 3.358-7.5 7.5v56.066c0 3.653 2.631 6.774 6.231 7.392.536.092.926.159 7.2.159 3.01 0 7.376-.015 13.76-.051 4.142-.023 7.481-3.4 7.458-7.542-.024-4.128-3.377-7.458-7.499-7.458z"/><path d="m218.676 408.822c-4.142 0-7.5 3.358-7.5 7.5v56.113c0 4.142 3.358 7.5 7.5 7.5s7.5-3.358 7.5-7.5v-56.113c0-4.141-3.358-7.5-7.5-7.5z"/><path d="m343.465 424.079c4.142 0 7.5-3.358 7.5-7.5s-3.358-7.5-7.5-7.5h-23.428c-4.142 0-7.5 3.358-7.5 7.5v55.601c0 4.142 3.358 7.5 7.5 7.5h23.428c4.142 0 7.5-3.358 7.5-7.5s-3.358-7.5-7.5-7.5h-15.928v-12.8h14.2c4.142 0 7.5-3.358 7.5-7.5s-3.358-7.5-7.5-7.5h-14.2v-12.8h15.928z"/><path d="m291.403 409.308c-3.934-1.307-8.176.823-9.482 4.753l-12.533 37.726-13.164-37.924c-1.358-3.914-5.632-5.984-9.545-4.626s-5.984 5.632-4.626 9.545l19.204 55.324c1.242 3.494 4.556 5.83 8.26 5.83h.062c3.729-.027 7.039-2.416 8.254-5.994l18.322-55.151c1.306-3.932-.822-8.177-4.752-9.483z"/><path d="m408.678 95.306c-40.782-40.782-95.004-63.242-152.678-63.242s-111.896 22.46-152.678 63.242-63.241 95.004-63.241 152.678c0 53.085 19.444 104.115 54.75 143.69 2.758 3.091 7.5 3.36 10.589.604 3.091-2.758 3.361-7.499.604-10.59-32.852-36.823-50.944-84.307-50.944-133.704 0-110.788 90.132-200.919 200.919-200.919s200.919 90.132 200.919 200.919c0 49.397-18.092 96.881-50.944 133.704-2.757 3.091-2.487 7.832.604 10.59 1.43 1.276 3.213 1.903 4.99 1.903 2.063 0 4.117-.847 5.599-2.507 35.306-39.575 54.75-90.605 54.75-143.69.002-57.674-22.457-111.896-63.239-152.678z"/></g></svg>