<svg id="Capa_1" enable-background="new 0 0 512 512" height="512" viewBox="0 0 512 512" width="512" xmlns="http://www.w3.org/2000/svg"><g><path d="m437.02 74.981c-48.353-48.352-112.64-74.981-181.02-74.981s-132.667 26.629-181.02 74.981c-48.351 48.352-74.98 112.639-74.98 181.019s26.629 132.667 74.98 181.02c48.353 48.351 112.64 74.98 181.02 74.98s132.667-26.629 181.02-74.98c48.351-48.353 74.98-112.64 74.98-181.02s-26.629-132.667-74.98-181.019zm-10.607 351.432c-45.519 45.519-106.039 70.587-170.413 70.587s-124.894-25.068-170.413-70.587-70.587-106.039-70.587-170.413 25.068-124.894 70.587-170.413 106.039-70.587 170.413-70.587 124.894 25.068 170.413 70.587 70.587 106.039 70.587 170.413-25.068 124.894-70.587 170.413z"/><path d="m47.22 248.735c1.813-53.038 23.491-102.926 61.04-140.475s87.437-59.226 140.475-61.04c52.768-1.805 103.771 16.144 143.608 50.539 3.136 2.708 7.872 2.36 10.578-.775 2.707-3.135 2.36-7.871-.775-10.578-42.704-36.87-97.371-56.11-153.923-54.177-56.85 1.944-110.323 25.179-150.568 65.425-40.247 40.246-63.482 93.719-65.426 150.568-1.934 56.555 17.307 111.219 54.177 153.923 1.483 1.718 3.576 2.599 5.68 2.599 1.736 0 3.481-.6 4.898-1.823 3.135-2.707 3.482-7.443.775-10.578-34.394-39.837-52.343-90.838-50.539-143.608z"/><path d="m425.594 109.855c-2.708-3.135-7.443-3.483-10.578-.775-3.135 2.707-3.482 7.443-.775 10.578 34.395 39.837 52.344 90.838 50.54 143.608-1.813 53.038-23.491 102.926-61.04 140.475s-87.437 59.227-140.475 61.04c-52.767 1.797-103.771-16.145-143.608-50.54-3.136-2.707-7.872-2.36-10.578.775-2.707 3.135-2.36 7.871.775 10.578 40.747 35.18 92.382 54.31 146.159 54.31 2.583 0 5.172-.044 7.765-.133 56.85-1.944 110.323-25.179 150.568-65.425 40.246-40.246 63.481-93.719 65.425-150.569 1.933-56.554-17.308-111.218-54.178-153.922z"/><path d="m359.918 141.825-136.039 79.355c-1.117.652-2.047 1.582-2.699 2.699l-79.355 136.038c-1.716 2.943-1.234 6.673 1.175 9.082 1.445 1.445 3.365 2.197 5.306 2.197 1.295 0 2.599-.335 3.776-1.022l136.039-79.356c1.117-.652 2.047-1.582 2.699-2.699l79.355-136.038c1.716-2.943 1.234-6.673-1.175-9.082-2.409-2.408-6.139-2.891-9.082-1.174zm-130.683 98.017 42.924 42.924-103.017 60.093zm53.53 32.316-42.924-42.924 103.017-60.093z"/></g></svg>