<svg id="Capa_1" enable-background="new 0 0 512 512" height="512" viewBox="0 0 512 512" width="512" xmlns="http://www.w3.org/2000/svg"><g><path d="m497.038 147.833c-9.369-5.79-20.843-6.307-30.695-1.381l-50.536 25.269v-27.945c0-35.076-28.537-63.613-63.613-63.613h-288.581c-35.076-.002-63.613 28.535-63.613 63.611v224.451c0 35.076 28.537 63.613 63.613 63.613h288.581c35.077 0 63.613-28.537 63.613-63.613v-27.945l50.536 25.269c4.49 2.245 9.316 3.359 14.128 3.359 5.745 0 11.468-1.59 16.567-4.741 9.369-5.791 14.962-15.823 14.962-26.836v-162.662c0-11.014-5.593-21.046-14.962-26.836zm-.038 189.498c0 5.777-2.934 11.039-7.848 14.077-4.915 3.038-10.934 3.308-16.101.724l-57.244-28.622v-91.558c0-4.142-3.358-7.5-7.5-7.5s-7.5 3.358-7.5 7.5v136.274c0 26.806-21.808 48.613-48.613 48.613h-288.581c-26.805 0-48.613-21.808-48.613-48.613v-224.452c0-26.806 21.808-48.613 48.613-48.613h288.581c26.806 0 48.613 21.808 48.613 48.613v56.113c0 4.142 3.358 7.5 7.5 7.5s7.5-3.358 7.5-7.5v-11.397l57.244-28.622c5.168-2.584 11.186-2.313 16.101.724 4.914 3.038 7.848 8.299 7.848 14.077z"/><path d="m207.903 184.371c-47.298 0-93.573 19.415-130.3 54.668-4.576 4.392-7.2 10.574-7.2 16.961s2.624 12.569 7.199 16.961c36.727 35.253 83.002 54.668 130.3 54.668 47.297 0 93.572-19.415 130.3-54.668 4.575-4.392 7.199-10.574 7.199-16.961s-2.624-12.569-7.2-16.961c-36.725-35.253-83-54.668-130.298-54.668zm119.912 77.769c-34.412 33.03-75.877 50.489-119.912 50.489-44.036 0-85.501-17.459-119.913-50.489-1.668-1.602-2.586-3.782-2.586-6.14s.918-4.538 2.586-6.14c34.411-33.03 75.876-50.489 119.912-50.489 44.035 0 85.5 17.459 119.912 50.489 1.668 1.602 2.587 3.782 2.587 6.14s-.918 4.538-2.586 6.14z"/><path d="m237.087 240.721c-4.011 1.033-6.426 5.122-5.393 9.133.513 1.993.773 4.061.773 6.146 0 13.545-11.02 24.564-24.564 24.564s-24.564-11.02-24.564-24.564 11.02-24.564 24.565-24.564c2.084 0 4.152.26 6.146.773 4.009 1.031 8.1-1.382 9.133-5.394s-1.382-8.101-5.394-9.133c-3.215-.828-6.541-1.247-9.886-1.247-21.816 0-39.564 17.749-39.564 39.564s17.749 39.564 39.564 39.564 39.564-17.749 39.564-39.564c0-3.346-.419-6.672-1.247-9.886-1.032-4.011-5.124-6.425-9.133-5.392z"/></g></svg>