<svg id="Capa_1" enable-background="new 0 0 512 512" height="512" viewBox="0 0 512 512" width="512" xmlns="http://www.w3.org/2000/svg"><g><g><path d="m55.597 7.5h272.548c26.563 0 48.097 21.534 48.097 48.097v184.758l-144.592 135.887h-176.053c-26.563 0-48.097-21.534-48.097-48.097v-272.548c0-26.563 21.534-48.097 48.097-48.097z" fill="#ff5f7a"/><path d="m376.242 240.355-.47.027c-61.726 3.605-114.144 46.128-130.434 105.814-.963 3.531-4.133 5.996-7.703 5.996h-182.038c-13.261 0-24.048-10.787-24.048-24.048v-144.29h-24.049v144.29c0 26.563 21.534 48.097 48.097 48.097h272.548c26.563 0 48.097-21.534 48.097-48.097z" fill="#fb4455"/><path d="m376.242 191.871v-136.274c0-26.563-21.534-48.097-48.097-48.097h-272.548c-26.563 0-48.097 21.534-48.097 48.097v136.274z" fill="#ff98a2"/><circle cx="384.258" cy="384.258" fill="#f2d1ff" r="120.242"/><circle cx="191.871" cy="191.871" fill="#fb4455" r="104.21"/><circle cx="191.871" cy="191.871" fill="#ffdbde" r="72.145"/><circle cx="71.629" cy="71.629" fill="#fff" r="16.032"/><circle cx="191.871" cy="191.871" fill="#fff" r="48.097"/><path d="m400.29 488.468c-66.407 0-120.242-53.834-120.242-120.242 0-29.123 10.361-55.821 27.587-76.628-26.641 22.055-43.619 55.372-43.619 92.66 0 66.408 53.835 120.242 120.242 120.242 37.288 0 70.605-16.978 92.66-43.62-20.806 17.227-47.505 27.588-76.628 27.588z" fill="#f2d1ff"/><path d="m400.29 488.468c-66.407 0-120.242-53.834-120.242-120.242 0-29.123 10.361-55.821 27.587-76.628-26.641 22.055-43.619 55.372-43.619 92.66 0 66.408 53.835 120.242 120.242 120.242 37.288 0 70.605-16.978 92.66-43.62-20.806 17.227-47.505 27.588-76.628 27.588z" fill="#dfbdf0"/><path d="m7.5 55.597v136.274h24.048v-177.884c-14.362 8.32-24.048 23.818-24.048 41.61z" fill="#ff7e92"/><path d="m211.911 276.04c-57.553 0-104.21-46.656-104.21-104.21 0-23.662 7.978-45.41 21.265-62.903-25.054 19.032-41.306 49.053-41.306 82.944 0 57.553 46.656 104.21 104.21 104.21 33.89 0 63.912-16.251 82.944-41.306-17.493 13.287-39.24 21.265-62.903 21.265z" fill="#d93f50"/></g><g><path d="m231.952 368.742h-176.355c-22.386 0-40.597-18.212-40.597-40.596v-128.775h65.419c3.872 58.112 52.376 104.209 111.452 104.209s107.58-46.097 111.452-104.209h65.419v32.581c0 4.142 3.358 7.5 7.5 7.5s7.5-3.358 7.5-7.5v-176.355c0-30.657-24.941-55.597-55.597-55.597h-272.548c-30.657 0-55.597 24.94-55.597 55.597v272.549c0 30.656 24.94 55.597 55.597 55.597h176.355c4.142 0 7.5-3.358 7.5-7.5 0-4.143-3.358-7.501-7.5-7.501zm-40.081-80.161c-53.326 0-96.71-43.384-96.71-96.709 0-53.326 43.384-96.71 96.71-96.71s96.709 43.384 96.709 96.71c.001 53.325-43.383 96.709-96.709 96.709zm-136.274-273.581h272.548c22.385 0 40.597 18.212 40.597 40.597v128.774h-65.419c-3.872-58.112-52.376-104.21-111.452-104.21s-107.581 46.098-111.452 104.21h-65.419v-128.774c0-22.385 18.211-40.597 40.597-40.597z"/><path d="m384.258 256.516c-70.438 0-127.742 57.305-127.742 127.742 0 70.438 57.305 127.742 127.742 127.742s127.742-57.305 127.742-127.742-57.305-127.742-127.742-127.742zm0 240.484c-62.166 0-112.742-50.576-112.742-112.742s50.576-112.742 112.742-112.742 112.742 50.576 112.742 112.742-50.576 112.742-112.742 112.742z"/><path d="m71.629 95.161c12.976 0 23.532-10.556 23.532-23.532s-10.557-23.532-23.532-23.532-23.532 10.556-23.532 23.532 10.556 23.532 23.532 23.532zm0-32.064c4.705 0 8.532 3.828 8.532 8.532 0 4.705-3.828 8.532-8.532 8.532s-8.532-3.827-8.532-8.532 3.827-8.532 8.532-8.532z"/><path d="m127.618 184.984c1.562-14.831 7.974-28.256 18.542-38.824 10.569-10.569 23.995-16.98 38.825-18.542 14.411-1.517 29.062 1.876 41.26 9.557 3.506 2.207 8.136 1.154 10.343-2.351s1.155-8.136-2.351-10.343c-15.033-9.466-33.082-13.65-50.823-11.781-18.024 1.898-35.022 10.014-47.861 22.854-12.839 12.839-20.955 29.836-22.853 47.86-1.868 17.741 2.315 35.791 11.781 50.823 1.426 2.264 3.862 3.505 6.354 3.505 1.366 0 2.748-.373 3.989-1.154 3.505-2.207 4.558-6.838 2.351-10.343-7.681-12.198-11.075-26.85-9.557-41.261z"/><path d="m248.918 147.154c-3.505 2.207-4.558 6.838-2.351 10.343 7.68 12.197 11.075 26.851 9.557 41.26-1.562 14.831-7.974 28.256-18.542 38.825-10.569 10.568-23.994 16.98-38.825 18.542-14.41 1.518-29.062-1.877-41.26-9.557-3.506-2.207-8.136-1.154-10.343 2.351s-1.155 8.136 2.351 10.343c12.689 7.99 27.527 12.216 42.516 12.216 2.768 0 5.542-.144 8.307-.436 18.024-1.898 35.021-10.014 47.86-22.853s20.956-29.836 22.854-47.86c1.868-17.742-2.316-35.791-11.781-50.823-2.207-3.505-6.838-4.559-10.343-2.351z"/><path d="m427.052 394.987-35.293 35.293v-110.151c0-4.142-3.358-7.5-7.5-7.5s-7.5 3.358-7.5 7.5v110.152l-35.294-35.293c-2.929-2.93-7.678-2.93-10.606 0-2.929 2.929-2.929 7.678 0 10.606l48.097 48.097c1.406 1.407 3.314 2.197 5.303 2.197s3.897-.791 5.303-2.197l48.097-48.097c2.929-2.929 2.929-7.678 0-10.606-2.93-2.93-7.679-2.93-10.607-.001z"/></g></g></svg>