<svg id="Capa_1" enable-background="new 0 0 512 512" height="512" viewBox="0 0 512 512" width="512" xmlns="http://www.w3.org/2000/svg"><g><g><path d="m440.371 256c0-101.825-82.546-184.371-184.371-184.371s-175.191 82.546-175.191 184.371 73.366 176.393 175.191 176.393 184.371-74.568 184.371-176.393z" fill="#7ad7ee"/><path d="m296.081 400.29c-101.826 0-184.371-82.546-184.371-184.371 0-40.685 13.206-78.27 35.527-108.764-45.826 33.543-75.608 87.704-75.608 148.845 0 101.825 82.545 184.371 184.371 184.371 61.14 0 115.301-29.782 148.843-75.607-30.493 22.321-68.078 35.526-108.762 35.526z" fill="#4bc3ef"/><circle cx="87.661" cy="87.661" fill="#98db7c" r="80.161"/><circle cx="87.661" cy="63.613" fill="#fff" r="16.032"/><path d="m106.795 148.689c-44.273 0-80.161-35.89-80.161-80.161 0-17.248 5.499-33.182 14.768-46.26-20.488 14.521-33.902 38.369-33.902 65.393 0 44.272 35.89 80.161 80.161 80.161 27.023 0 50.872-13.413 65.393-33.902-13.077 9.269-29.011 14.769-46.259 14.769z" fill="#77cc7d"/><path d="m95.677 103.694h-16.032c-17.709 0-32.065 14.356-32.065 32.065v21.253c11.8 6.836 25.462 10.812 40.081 10.812s28.281-3.976 40.081-10.812v-21.253c0-17.71-14.356-32.065-32.065-32.065z" fill="#fff"/><path d="m87.661 167.823c14.641 0 28.282-4.04 40.081-10.907v-11.073c-6.679 1.82-13.686 2.847-20.946 2.847-22.381 0-42.597-9.191-57.139-23.981-1.275 3.458-2.075 7.149-2.075 11.05v21.253c11.799 6.834 25.461 10.811 40.079 10.811z" fill="#e9f8d8"/><circle cx="424.339" cy="87.661" fill="#f2d1ff" r="80.161"/><circle cx="424.339" cy="63.613" fill="#fff" r="16.032"/><path d="m443.473 148.689c-44.273 0-80.161-35.89-80.161-80.161 0-17.248 5.499-33.182 14.768-46.26-20.488 14.521-33.902 38.369-33.902 65.393 0 44.272 35.89 80.161 80.161 80.161 27.023 0 50.872-13.413 65.393-33.902-13.077 9.269-29.012 14.769-46.259 14.769z" fill="#dfbdf0"/><path d="m432.355 103.694h-16.032c-17.709 0-32.065 14.356-32.065 32.065v21.253c11.8 6.836 25.462 10.812 40.081 10.812s28.281-3.976 40.081-10.812v-21.253c-.001-17.71-14.356-32.065-32.065-32.065z" fill="#fff"/><path d="m424.339 167.823c14.641 0 28.281-4.04 40.081-10.907v-11.073c-6.679 1.82-13.686 2.847-20.946 2.847-22.381 0-42.597-9.191-57.139-23.981-1.275 3.458-2.075 7.149-2.075 11.05v21.253c11.798 6.834 25.46 10.811 40.079 10.811z" fill="#fcf2ff"/><circle cx="87.661" cy="424.339" fill="#ffe077" r="80.161"/><circle cx="87.661" cy="400.29" fill="#fff" r="16.032"/><path d="m106.795 485.366c-44.273 0-80.161-35.89-80.161-80.161 0-17.248 5.499-33.182 14.768-46.26-20.488 14.522-33.902 38.37-33.902 65.394 0 44.272 35.89 80.161 80.161 80.161 27.023 0 50.872-13.413 65.393-33.902-13.077 9.268-29.011 14.768-46.259 14.768z" fill="#ffd05b"/><path d="m95.677 440.371h-16.032c-17.709 0-32.065 14.356-32.065 32.065v21.253c11.8 6.836 25.462 10.812 40.081 10.812s28.281-3.976 40.081-10.812v-21.253c0-17.709-14.356-32.065-32.065-32.065z" fill="#fff"/><path d="m87.661 504.5c14.641 0 28.282-4.04 40.081-10.907v-11.073c-6.679 1.82-13.686 2.847-20.946 2.847-22.381 0-42.597-9.191-57.139-23.981-1.275 3.458-2.075 7.149-2.075 11.05v21.253c11.799 6.835 25.461 10.811 40.079 10.811z" fill="#fff4d6"/><circle cx="424.339" cy="424.339" fill="#ff98a2" r="80.161"/><circle cx="424.339" cy="400.29" fill="#fff" r="16.032"/><path d="m443.473 485.366c-44.273 0-80.161-35.89-80.161-80.161 0-17.248 5.499-33.182 14.768-46.26-20.488 14.521-33.902 38.369-33.902 65.393 0 44.272 35.89 80.161 80.161 80.161 27.023 0 50.872-13.413 65.393-33.902-13.077 9.269-29.012 14.769-46.259 14.769z" fill="#ff7e92"/><path d="m432.355 440.371h-16.032c-17.709 0-32.065 14.356-32.065 32.065v21.253c11.8 6.836 25.462 10.812 40.081 10.812s28.281-3.976 40.081-10.812v-21.253c-.001-17.709-14.356-32.065-32.065-32.065z" fill="#fff"/><path d="m424.339 504.5c14.641 0 28.281-4.04 40.081-10.907v-11.073c-6.679 1.82-13.686 2.847-20.946 2.847-22.381 0-42.597-9.191-57.139-23.981-1.275 3.458-2.075 7.149-2.075 11.05v21.253c11.798 6.835 25.46 10.811 40.079 10.811z" fill="#ffdbde"/></g><g><path d="m87.661 175.323c48.337 0 87.662-39.325 87.662-87.662 0-48.336-39.325-87.661-87.662-87.661-48.336 0-87.661 39.325-87.661 87.661 0 48.337 39.325 87.662 87.661 87.662zm-32.58-22.744v-16.821c0-13.545 11.02-24.565 24.564-24.565h16.032c13.545 0 24.564 11.02 24.564 24.565v16.821c-9.807 4.942-20.87 7.744-32.581 7.744s-22.772-2.802-32.579-7.744zm32.58-137.579c40.066 0 72.662 32.596 72.662 72.661 0 21.878-9.733 41.514-25.081 54.846v-6.749c0-21.816-17.749-39.565-39.564-39.565h-16.033c-21.816 0-39.564 17.749-39.564 39.565v6.749c-15.348-13.332-25.081-32.968-25.081-54.846 0-40.065 32.596-72.661 72.661-72.661z"/><path d="m87.661 87.145c12.976 0 23.532-10.557 23.532-23.532s-10.557-23.532-23.532-23.532-23.532 10.556-23.532 23.532 10.557 23.532 23.532 23.532zm0-32.064c4.705 0 8.532 3.828 8.532 8.532s-3.828 8.532-8.532 8.532-8.532-3.828-8.532-8.532 3.828-8.532 8.532-8.532z"/><path d="m424.339 175.323c48.336 0 87.661-39.325 87.661-87.662 0-48.336-39.325-87.661-87.661-87.661-48.337 0-87.662 39.325-87.662 87.661 0 48.337 39.325 87.662 87.662 87.662zm-32.581-22.744v-16.821c0-13.545 11.02-24.565 24.564-24.565h16.032c13.545 0 24.564 11.02 24.564 24.565v16.821c-9.807 4.942-20.87 7.744-32.581 7.744-11.709 0-22.772-2.802-32.579-7.744zm32.581-137.579c40.065 0 72.661 32.596 72.661 72.661 0 21.878-9.733 41.514-25.081 54.846v-6.749c0-21.816-17.749-39.565-39.564-39.565h-16.032c-21.816 0-39.564 17.749-39.564 39.565v6.749c-15.348-13.332-25.081-32.968-25.081-54.846-.001-40.065 32.595-72.661 72.661-72.661z"/><path d="m424.339 87.145c12.976 0 23.532-10.557 23.532-23.532s-10.557-23.532-23.532-23.532-23.532 10.557-23.532 23.532 10.556 23.532 23.532 23.532zm0-32.064c4.705 0 8.532 3.828 8.532 8.532s-3.828 8.532-8.532 8.532-8.532-3.828-8.532-8.532 3.827-8.532 8.532-8.532z"/><path d="m87.661 336.677c-48.336 0-87.661 39.325-87.661 87.662 0 48.336 39.325 87.661 87.661 87.661 48.337 0 87.662-39.325 87.662-87.661 0-48.337-39.325-87.662-87.662-87.662zm-32.58 152.579v-16.821c0-13.545 11.02-24.564 24.564-24.564h16.032c13.545 0 24.564 11.02 24.564 24.564v16.821c-9.807 4.942-20.87 7.744-32.581 7.744s-22.772-2.802-32.579-7.744zm80.161-10.071v-6.749c0-21.816-17.749-39.564-39.564-39.564h-16.033c-21.816 0-39.564 17.749-39.564 39.564v6.749c-15.348-13.333-25.081-32.968-25.081-54.846 0-40.066 32.596-72.662 72.661-72.662 40.066 0 72.662 32.596 72.662 72.662 0 21.878-9.733 41.513-25.081 54.846z"/><path d="m87.661 376.758c-12.976 0-23.532 10.557-23.532 23.532s10.557 23.532 23.532 23.532 23.532-10.557 23.532-23.532-10.556-23.532-23.532-23.532zm0 32.065c-4.705 0-8.532-3.828-8.532-8.532s3.828-8.532 8.532-8.532 8.532 3.828 8.532 8.532-3.827 8.532-8.532 8.532z"/><path d="m424.339 336.677c-48.337 0-87.662 39.325-87.662 87.662 0 48.336 39.325 87.661 87.662 87.661 48.336 0 87.661-39.325 87.661-87.661 0-48.337-39.325-87.662-87.661-87.662zm-32.581 152.579v-16.821c0-13.545 11.02-24.564 24.564-24.564h16.032c13.545 0 24.564 11.02 24.564 24.564v16.821c-9.807 4.942-20.87 7.744-32.581 7.744-11.709 0-22.772-2.802-32.579-7.744zm80.161-10.072v-6.749c0-21.816-17.749-39.564-39.564-39.564h-16.032c-21.816 0-39.564 17.749-39.564 39.564v6.749c-15.348-13.332-25.081-32.968-25.081-54.846 0-40.066 32.596-72.662 72.662-72.662 40.065 0 72.661 32.596 72.661 72.662-.001 21.879-9.734 41.514-25.082 54.846z"/><path d="m424.339 376.758c-12.976 0-23.532 10.557-23.532 23.532s10.557 23.532 23.532 23.532 23.532-10.557 23.532-23.532-10.557-23.532-23.532-23.532zm0 32.065c-4.705 0-8.532-3.828-8.532-8.532s3.828-8.532 8.532-8.532 8.532 3.828 8.532 8.532-3.828 8.532-8.532 8.532z"/><path d="m325.117 389.606c16.275-34.029 25.595-78.565 26.484-126.106h49.014c-.868 17.066-4.706 33.65-11.444 49.397-1.629 3.808.137 8.216 3.945 9.846.962.412 1.962.606 2.947.606 2.911 0 5.681-1.706 6.899-4.552 7.54-17.622 11.785-36.191 12.666-55.297h17.081c-.669 15.874-3.458 31.543-8.325 46.68-1.268 3.943.901 8.168 4.844 9.436.763.245 1.537.362 2.297.362 3.17 0 6.116-2.026 7.139-5.206 6.11-19.002 9.208-38.776 9.208-58.771s-3.098-39.769-9.208-58.771c-1.268-3.942-5.491-6.111-9.436-4.844-3.943 1.268-6.112 5.493-4.844 9.436 4.867 15.136 7.656 30.806 8.325 46.68h-17.081c-.881-19.106-5.126-37.675-12.666-55.297-1.629-3.809-6.039-5.575-9.846-3.945-3.808 1.629-5.575 6.038-3.945 9.846 6.738 15.747 10.575 32.331 11.444 49.397h-49.014c-.889-47.541-10.209-92.077-26.484-126.106-7.466-15.611-16.07-28.297-25.483-37.806 3.541.901 7.058 1.907 10.546 3.029.763.245 1.537.362 2.298.362 3.17 0 6.116-2.026 7.138-5.206 1.268-3.943-.901-8.168-4.844-9.436-19.002-6.11-38.776-9.208-58.771-9.208s-39.769 3.098-58.771 9.208c-3.943 1.268-6.112 5.493-4.844 9.436 1.269 3.943 5.492 6.111 9.436 4.844 3.488-1.122 7.005-2.128 10.546-3.029-9.412 9.51-18.017 22.195-25.483 37.806-16.274 34.029-25.595 78.565-26.484 126.106h-49.014c.868-17.066 4.706-33.65 11.444-49.397 1.629-3.808-.137-8.216-3.945-9.846-3.807-1.629-8.216.137-9.846 3.945-7.54 17.622-11.785 36.191-12.666 55.297h-17.082c.669-15.874 3.458-31.543 8.325-46.68 1.268-3.943-.901-8.168-4.844-9.436-3.944-1.267-8.168.901-9.436 4.844-6.11 19.002-9.208 38.776-9.208 58.771s3.098 39.769 9.208 58.771c1.023 3.18 3.968 5.206 7.139 5.206.76 0 1.534-.117 2.297-.362 3.943-1.268 6.112-5.493 4.844-9.436-4.867-15.136-7.656-30.806-8.325-46.68h17.081c.881 19.106 5.126 37.675 12.666 55.297 1.218 2.846 3.987 4.552 6.899 4.552.984 0 1.985-.195 2.947-.606 3.808-1.629 5.575-6.038 3.945-9.846-6.738-15.747-10.575-32.331-11.444-49.397h49.014c.889 47.541 10.209 92.077 26.484 126.106 7.466 15.611 16.07 28.297 25.483 37.806-3.541-.901-7.058-1.907-10.546-3.029-3.941-1.266-8.168.9-9.436 4.844-1.268 3.943.901 8.168 4.844 9.436 19.002 6.11 38.776 9.208 58.771 9.208s39.769-3.098 58.771-9.208c3.943-1.268 6.112-5.493 4.844-9.436-1.269-3.943-5.492-6.11-9.436-4.844-3.488 1.122-7.005 2.128-10.546 3.029 9.414-9.509 18.018-22.195 25.484-37.806zm-61.617 42.438v-72.351h57.539c-2.801 8.286-5.957 16.129-9.454 23.441-13.245 27.694-30.438 45.038-48.085 48.91zm62.094-87.351h-62.094v-81.193h73.099c-.559 28.936-4.346 56.616-11.005 81.193zm-62.094-96.193v-81.194h62.093c6.66 24.578 10.447 52.258 11.006 81.194zm48.085-119.634c3.497 7.312 6.653 15.155 9.454 23.44h-57.539v-72.35c17.647 3.872 34.84 21.216 48.085 48.91zm-63.085-48.91v72.35h-57.539c2.802-8.285 5.957-16.128 9.454-23.44 13.245-27.694 30.438-45.038 48.085-48.91zm-62.093 87.35h62.093v81.194h-73.099c.559-28.936 4.346-56.616 11.006-81.194zm62.093 96.194v81.193h-62.094c-6.66-24.578-10.446-52.258-11.006-81.193zm-48.085 119.634c-3.497-7.312-6.653-15.155-9.455-23.441h57.54v72.351c-17.647-3.872-34.84-21.216-48.085-48.91z"/></g></g></svg>