<svg id="Capa_1" enable-background="new 0 0 512 512" height="512" viewBox="0 0 512 512" width="512" xmlns="http://www.w3.org/2000/svg"><g><g><circle cx="95.677" cy="256" fill="#4bc3ef" r="88.177"/><path d="m480.452 167.823h-240.484c-13.282 0-24.048 10.767-24.048 24.048v128.258c0 13.282 10.767 24.048 24.048 24.048h240.484c13.282 0 24.048-10.767 24.048-24.048v-128.258c0-13.282-10.767-24.048-24.048-24.048z" fill="#ff7e92"/><path d="m111.71 328.145c-48.7 0-88.177-39.478-88.177-88.177 0-20.26 6.905-38.866 18.391-53.755-20.903 16.124-34.424 41.347-34.424 69.787 0 48.699 39.478 88.177 88.177 88.177 28.44 0 53.663-13.521 69.787-34.422-14.889 11.486-33.495 18.39-53.754 18.39z" fill="#1badde"/><path d="m239.968 304.108v-136.285c-13.282 0-24.048 10.767-24.048 24.048v128.258c0 13.282 10.767 24.048 24.048 24.048h240.484c13.282 0 24.048-10.766 24.048-24.048l-248.499.011c-8.855 0-16.033-7.178-16.033-16.032z" fill="#ff5f7a"/></g><g><path d="m480.452 160.322h-48.097c-4.142 0-7.5 3.358-7.5 7.5 0 4.143 3.358 7.5 7.5 7.5h48.097c9.125 0 16.548 7.424 16.548 16.549v128.258c0 9.125-7.423 16.549-16.548 16.549h-240.484c-9.125 0-16.548-7.424-16.548-16.549v-128.258c0-9.125 7.423-16.549 16.548-16.549h160.322c4.142 0 7.5-3.357 7.5-7.5 0-4.142-3.358-7.5-7.5-7.5h-160.322c-17.396 0-31.548 14.153-31.548 31.549v128.258c0 17.396 14.152 31.549 31.548 31.549h240.484c17.396 0 31.548-14.153 31.548-31.549v-128.258c0-17.396-14.152-31.549-31.548-31.549z"/><path d="m267.224 213.509c-4.142 0-7.5 3.358-7.5 7.5v69.924c0 3.653 2.632 6.774 6.233 7.392.536.092.995.171 8.697.171 3.73 0 9.159-.019 17.118-.062 4.142-.023 7.481-3.4 7.458-7.542s-3.355-7.495-7.542-7.458c-5.91.033-12.267.056-16.964.059v-62.482c0-4.144-3.358-7.502-7.5-7.502z"/><path d="m315.785 221.009v69.982c0 4.142 3.358 7.5 7.5 7.5s7.5-3.358 7.5-7.5v-69.982c0-4.142-3.358-7.5-7.5-7.5s-7.5 3.358-7.5 7.5z"/><path d="m462.657 228.828c4.142 0 7.5-3.358 7.5-7.5s-3.358-7.5-7.5-7.5h-29.218c-4.142 0-7.5 3.358-7.5 7.5v69.344c0 4.142 3.358 7.5 7.5 7.5h29.218c4.142 0 7.5-3.358 7.5-7.5s-3.358-7.5-7.5-7.5h-21.718v-19.672h19.564c4.142 0 7.5-3.358 7.5-7.5s-3.358-7.5-7.5-7.5h-19.564v-19.672z"/><path d="m397.295 218.772-17.351 52.23-18.207-52.454c-1.359-3.914-5.634-5.984-9.545-4.625-3.913 1.358-5.984 5.631-4.626 9.544l23.945 68.981c1.285 3.62 4.718 6.042 8.556 6.042h.061c3.862-.025 7.292-2.499 8.553-6.207l22.85-68.783c1.306-3.931-.822-8.177-4.753-9.482-3.933-1.304-8.177.824-9.483 4.754z"/><path d="m95.677 160.322c-52.757 0-95.677 42.921-95.677 95.678 0 21.654 7.121 42.122 20.591 59.188 2.567 3.252 7.283 3.807 10.534 1.241s3.807-7.283 1.241-10.534c-11.361-14.393-17.366-31.647-17.366-49.895 0-44.485 36.192-80.678 80.677-80.678 44.486 0 80.678 36.192 80.678 80.678 0 41.956-32.197 76.519-73.178 80.316v-64.8h16.548c4.142 0 7.5-3.358 7.5-7.5s-3.358-7.5-7.5-7.5h-16.548v-24.564c0-9.125 7.423-16.548 16.548-16.548 4.142 0 7.5-3.358 7.5-7.5s-3.358-7.5-7.5-7.5c-17.396 0-31.548 14.152-31.548 31.548v24.564h-16.548c-4.142 0-7.5 3.358-7.5 7.5s3.358 7.5 7.5 7.5h16.548v64.798c-11.827-1.123-23.345-4.878-33.686-11.042-3.56-2.121-8.162-.956-10.283 2.602-2.121 3.559-.956 8.162 2.602 10.283 14.838 8.845 31.736 13.52 48.866 13.52 52.757 0 95.678-42.921 95.678-95.678s-42.92-95.677-95.677-95.677z"/></g></g></svg>