<svg id="Capa_1" enable-background="new 0 0 512 512" height="512" viewBox="0 0 512 512" width="512" xmlns="http://www.w3.org/2000/svg"><g><g><path d="m400.29 151.79h-288.58c-57.554 0-104.21 46.656-104.21 104.21 0 57.553 46.656 104.21 104.21 104.21l288.581-7.5c57.553 0 104.21-39.157 104.21-96.71-.001-57.554-46.657-104.21-104.211-104.21z" fill="#eceaec"/><circle cx="111.71" cy="256" fill="#ffd05b" r="56.113"/><path d="m85.342 258.848c0 14.563 11.805 26.368 26.368 26.368s26.368-11.806 26.368-26.368z" fill="#fb4455"/><path d="m67.129 161.915c-35.219 16.721-59.629 52.506-59.629 94.085 0 57.553 46.656 104.21 104.21 104.21h288.58c25.315 0 48.51-9.039 66.565-24.048h-339.113c-53.044 0-96.194-43.153-96.194-96.194 0-22.095 7.335-42.903 21.215-60.176z" fill="#dbd8db"/><path d="m127.742 296.081c-30.99 0-56.113-25.123-56.113-56.113 0-11.394 3.417-21.978 9.252-30.829-15.223 10.035-25.284 27.264-25.284 46.861 0 30.99 25.123 56.113 56.113 56.113 19.597 0 36.826-10.061 46.861-25.284-8.851 5.834-19.436 9.252-30.829 9.252z" fill="#ffc244"/><circle cx="256" cy="256" fill="#ffaa5a" r="56.113"/><path d="m272.032 296.081c-30.99 0-56.113-25.123-56.113-56.113 0-11.394 3.417-21.978 9.252-30.829-15.223 10.035-25.284 27.264-25.284 46.861 0 30.99 25.123 56.113 56.113 56.113 19.597 0 36.826-10.061 46.861-25.284-8.851 5.834-19.436 9.252-30.829 9.252z" fill="#ff8b57"/><circle cx="400.29" cy="256" fill="#ffd05b" r="56.113"/><path d="m416.323 296.081c-30.99 0-56.113-25.123-56.113-56.113 0-11.394 3.417-21.978 9.252-30.829-15.223 10.035-25.284 27.264-25.284 46.861 0 30.99 25.123 56.113 56.113 56.113 19.597 0 36.826-10.061 46.861-25.284-8.852 5.834-19.436 9.252-30.829 9.252z" fill="#ffc244"/></g><g><path d="m400.291 144.29h-288.582c-61.596 0-111.709 50.113-111.709 111.71s50.113 111.71 111.709 111.71h256.516c4.142 0 7.5-3.358 7.5-7.5 0-4.143-3.358-7.5-7.5-7.5h-256.516c-53.325 0-96.709-43.384-96.709-96.71s43.384-96.71 96.709-96.71h288.581c53.326 0 96.71 43.384 96.71 96.71s-43.384 96.71-96.709 96.71c-4.142 0-7.5 3.357-7.5 7.5 0 4.142 3.358 7.5 7.5 7.5 61.596 0 111.709-50.113 111.709-111.71s-50.113-111.71-111.709-111.71z"/><path d="m463.903 256c0-35.076-28.537-63.613-63.613-63.613-35.077 0-63.613 28.537-63.613 63.613s28.537 63.613 63.613 63.613c35.077 0 63.613-28.537 63.613-63.613zm-112.226 0c0-26.805 21.808-48.613 48.613-48.613s48.613 21.808 48.613 48.613-21.808 48.613-48.613 48.613-48.613-21.808-48.613-48.613z"/><path d="m48.097 256c0 35.076 28.537 63.613 63.613 63.613 35.077 0 63.613-28.537 63.613-63.613s-28.537-63.613-63.613-63.613c-35.077 0-63.613 28.537-63.613 63.613zm112.226 0c0 26.805-21.808 48.613-48.613 48.613s-48.613-21.808-48.613-48.613 21.808-48.613 48.613-48.613 48.613 21.808 48.613 48.613z"/><path d="m92.014 239.452h6.565c4.142 0 7.5-3.358 7.5-7.5s-3.358-7.5-7.5-7.5h-6.565c-4.142 0-7.5 3.358-7.5 7.5s3.358 7.5 7.5 7.5z"/><path d="m124.84 239.452h6.565c4.142 0 7.5-3.358 7.5-7.5s-3.358-7.5-7.5-7.5h-6.565c-4.142 0-7.5 3.358-7.5 7.5s3.358 7.5 7.5 7.5z"/><path d="m240.709 267.715c-3.875 1.463-5.83 5.791-4.367 9.666s5.79 5.83 9.666 4.367c6.574-2.482 13.41-2.482 19.984 0 .872.33 1.768.486 2.648.486 3.03 0 5.884-1.85 7.018-4.853 1.463-3.875-.492-8.203-4.367-9.666-9.973-3.766-20.609-3.766-30.582 0z"/><path d="m415.582 279.394c3.875-1.464 5.83-5.792 4.366-9.667-1.463-3.875-5.789-5.83-9.666-4.367-6.573 2.483-13.411 2.483-19.983 0-3.876-1.464-8.203.492-9.666 4.367-1.464 3.875.491 8.203 4.366 9.667 4.986 1.883 10.131 2.838 15.292 2.838 5.16-.001 10.304-.956 15.291-2.838z"/><path d="m85.341 251.348c-4.142 0-7.5 3.358-7.5 7.5 0 18.676 15.193 33.869 33.868 33.869s33.869-15.193 33.869-33.869c0-4.142-3.358-7.5-7.5-7.5zm26.368 26.369c-7.74 0-14.407-4.686-17.313-11.369h34.627c-2.906 6.683-9.573 11.369-17.314 11.369z"/><path d="m210.207 222.713c-3.642-1.974-8.193-.621-10.167 3.021-5.006 9.238-7.652 19.704-7.652 30.267 0 35.076 28.537 63.613 63.613 63.613s63.613-28.537 63.613-63.613-28.538-63.614-63.614-63.614c-10.562 0-21.028 2.646-30.267 7.652-3.642 1.974-4.994 6.525-3.021 10.167s6.523 4.995 10.167 3.021c7.051-3.821 15.046-5.84 23.12-5.84 26.805 0 48.613 21.808 48.613 48.613s-21.807 48.613-48.612 48.613-48.613-21.808-48.613-48.613c0-8.074 2.02-16.069 5.841-23.12 1.973-3.642.621-8.194-3.021-10.167z"/><circle cx="231.976" cy="247.978" r="7.5"/><circle cx="280.05" cy="247.978" r="7.5"/><circle cx="376.213" cy="247.978" r="7.5"/><circle cx="424.287" cy="247.978" r="7.5"/></g></g></svg>