<svg height="512pt" viewBox="-1 0 512 512.00079" width="512pt" xmlns="http://www.w3.org/2000/svg"><path d="m261.886719 159.261719c-2.1875.691406-4.4375 1.363281-6.757813 1.996093 0 0-88.828125-85.953124 33.667969-151.917968 8.28125-4.457032 18.808594-1.222656 23.078125 7.550781 16.074219 33.339844 42.804688 112.9375-49.988281 142.371094zm0 0" fill="#9bcf1b"/><path d="m261.886719 159.261719c-.871094-43.660157 8.597656-95.578125 44.917969-142.429688.933593-1.207031 1.976562-2.230469 3.113281-3.074219.75.957032 1.402343 2 1.957031 3.132813 16.074219 33.339844 42.804688 112.9375-49.988281 142.371094zm0 0" fill="#b9e746"/><path d="m270.914062 302.160156c-.882812.230469-1.808593.472656-2.75.703125-37.785156 9.429688-119.433593 17.835938-128.109374-82.027343-.050782-.582032-.089844-1.164063-.140626-1.75 0 0 101.226563-70.929688 142.800782 61.847656 2.851562 9.128906-2.542969 18.777344-11.800782 21.226562zm0 0" fill="#9bcf1b"/><path d="m268.164062 302.863281c-37.785156 9.429688-119.433593 17.835938-128.109374-82.027343 37.152343 10.273437 84.890624 32.84375 128.109374 82.027343zm0 0" fill="#b9e746"/><path d="m510.691406 9.867188c1.289063-3.957032-.871094-8.207032-4.828125-9.496094-3.953125-1.289063-8.203125.875-9.492187 4.828125-29.929688 91.859375-94.902344 116.902343-230.144532 145.996093l12.320313-38.796874 24.617187-7.453126c3.976563-1.203124 6.230469-5.410156 5.023438-9.390624-1.203125-3.980469-5.410156-6.230469-9.390625-5.023438l-14.71875 4.457031 17.570313-55.332031c1.257812-3.964844-.933594-8.199219-4.898438-9.457031-3.960938-1.261719-8.199219.933593-9.457031 4.898437l-8.570313 26.988282-10.097656-12.046876c-2.671875-3.183593-7.421875-3.601562-10.613281-.933593-3.183594 2.675781-3.601563 7.425781-.929688 10.613281l16.238281 19.371094-24.039062 75.703125c-121.183594 25.367187-173.996094 112.277343-157.074219 207.109375-12.582031-14.421875-31.078125-23.5625-51.675781-23.5625-4.15625 0-7.53125 3.371094-7.53125 7.53125s3.375 7.53125 7.53125 7.53125c29.515625 0 53.53125 24.015625 53.53125 53.53125 0 22.78125-18.535156 41.316406-41.316406 41.316406-17.398438 0-31.546875-14.152344-31.546875-31.546875 0-13.085937 10.644531-23.734375 23.730469-23.734375 13.652343 0 21.359374 15.023438 15.515624 24.171875-4.851562-6.53125-14.15625-6.988281-19.679687-1.460937-8.386719 8.382812-2.039063 22.308593 9.167969 22.308593 15.183594 0 27.539062-12.355469 27.539062-27.539062 0-17.945313-14.597656-32.542969-32.542968-32.542969-21.390626 0-38.792969 17.40625-38.792969 38.796875 0 25.699219 20.910156 46.609375 46.609375 46.609375 27.410156 0 50.304687-19.664062 55.339844-45.628906 3.617187 20.585937-1.652344 42.570312-16.304688 59.621094-20.214844 23.53125-55.808594 26.230468-79.339844 6.011718-3.15625-2.710937-7.910156-2.351562-10.621094.800782-2.710937 3.15625-2.351562 7.910156.804688 10.621093 42.929688 36.886719 110.699219 12.230469 120.554688-50.890625 38.910156 48.277344 106.761718 37.457032 127.617187-12.800781 1.59375-3.839844-.226563-8.246094-4.066406-9.84375-3.84375-1.589844-8.25.230469-9.84375 4.070313-8.972657 21.628906-29.964844 34.699218-52.039063 34.699218-25.9375-.003906-53.679687-19.617187-62.917968-50.160156 26.269531 33.898438 80.683593 26.867188 93.226562-11.269531 12.261719-37.273438-23.148438-68.695313-54.789062-52.714844-25.011719 12.632813-22.960938 49.382813 1.601562 57.464844 8.503906 2.796875 18.238281.828125 22.316406-2.410157 8.960938-5.984374 7.1875-19.808593-3.171875-23.214843-7.40625-2.4375-15.523437 2.140625-16.910156 10.183593-9.304687-5.5-9.273437-22.402343 2.957031-28.578124 11.707032-5.910157 25.96875-1.222657 31.878906 10.488281 7.859376 15.5625 1.628907 34.519531-13.9375 42.378906-20.335937 10.269531-45.238281 2.078125-55.503906-18.257813-13.308594-26.34375-2.695312-58.605468 23.652344-71.910156 3.710938-1.875 5.203125-6.40625 3.328125-10.117187-1.875-3.714844-6.40625-5.203125-10.117187-3.328125-19.429688 9.8125-32.164063 27.667968-36.238282 47.496094-.933594 2.292968-1.761718 4.605468-2.492187 6.929687-9.648438-48.613281.058593-96.910156 33.617187-134.511719l42.113282 22.902344 2.65625 25.582031c.398437 3.871094 3.667968 6.753907 7.480468 6.753907.257813 0 .523438-.011719.785156-.042969 4.136719-.425781 7.144532-4.128907 6.714844-8.265625l-1.585937-15.300782c52.855469 28.375 51 28.648438 54.589843 28.648438 7.78125 0 10.445313-10.425781 3.605469-14.148438l-24.875-13.527343 13.738281-7.632813c3.636719-2.019531 4.945313-6.605468 2.925782-10.242187-2.019532-3.636719-6.601563-4.945313-10.238282-2.925781l-22.101562 12.277343-64.78125-35.226562c60.398438-55.242188 130.003906-45.136719 229.398438-81.132813 53.386718-14.570312 103.824218 36.484375 85.1875 83.5-5.5 13.867188-16.066407 24.761719-29.757813 30.679688-33.839844 14.625-68.933594-18.027344-57.136719-47.777344 3.25-8.203125 9.5-14.644531 17.601563-18.144531 17.449219-7.542969 35.785156 6.867187 34.152343 22.214843-8.859374-7.367187-22.308593-3.90625-26.539062 6.769532-6.253906 15.769531 12.113281 29.84375 25.734375 19.855468 24.664063-15.109374 19.835937-51.808593-8.730469-63.136718-34.960937-13.859375-72.160156 25.515625-55.660156 63.691406 6.171875 14.277344 17.53125 25.296875 31.992188 31.03125 33.617187 13.328125 69.542968-7.339844 82.34375-39.636719 17.957031-45.285156-14.664063-94.59375-62.679688-104.75 45.289062-23.34375 74.742188-56.359375 92.410156-110.589843zm0 0" fill="#84b017"/></svg>