<svg height="512.00049pt" viewBox="0 0 512.00049 512.00049" width="512.00049pt" xmlns="http://www.w3.org/2000/svg"><path d="m160.191406 130.324219 4.242188 1.972656 8.96875 4.1875c5.660156 2.640625 7.78125 9.90625 3.976562 15.246094-2.875 4.042969-8.355468 5.28125-12.855468 3.183593l-12.976563-6.050781c-3.742187-1.746093-7.621094 2.132813-5.882813 5.871094l6.046876 13.492187c.675781 1.410157.988281 2.910157.988281 4.382813 0 3.855469-2.195313 7.558594-5.925781 9.292969-5.132813 2.378906-11.222657.164062-13.613282-4.96875l-6.039062-13.550782c-1.746094-3.742187-7.199219-3.265624-8.269532.726563l-4.304687 15.691406c-1.214844 4.574219-5.351563 7.589844-9.863281 7.589844-.882813 0-1.777344-.117187-2.660156-.355469-5.453126-1.464844-8.699219-7.066406-7.230469-12.523437l4.289062-15.703125c1.070313-3.980469-3.417969-7.128906-6.804687-4.757813l-11.941406 8.355469c-5.125 3.585938-12.472657 1.785156-15.195313-4.179688-2.066406-4.519531-.394531-9.871093 3.667969-12.71875l11.734375-8.222656c3.386719-2.367187 1.964843-7.667968-2.152344-8.023437l-14.515625-1.265625c-5.300781-.46875-9.34375-4.957032-9.34375-10.195313 0-.300781.011719-.59375.042969-.894531.488281-5.601562 5.476562-9.789062 11.085937-9.289062l14.519532 1.265624c4.105468.355469 6.433593-4.613281 3.511718-7.535156l-10.308594-10.308594c-4.417968-4.417968-3.929687-11.972656 1.476563-15.691406 4.09375-2.816406 9.652344-2.101562 13.167969 1.402344l10.132812 10.132812c.039063.042969.082032.082032.125.105469 2.929688 2.753907 7.761719.433594 7.398438-3.617187l-1.269532-14.519532c-.539062-6.226562 4.6875-11.691406 11.226563-11.066406 4.933594.464844 8.75 4.59375 9.175781 9.527344l1.246094 14.28125c.363281 4.105469 5.664062 5.527344 8.035156 2.152344l7.835938-13.398438c3.40625-4.863281 10.214844-5.851562 14.859375-2.140625 4.332031 3.460938 5.15625 9.726563 1.851562 14.1875l-7.796875 13.082031c-2.367187 3.378907.78125 7.878907 4.769532 6.808594l14.082031-3.773437c.875-.238281 1.757812-.34375 2.628906-.34375 4.523437 0 8.679687 3.015625 9.894531 7.578125 1.457032 5.433594-1.796875 11.066406-7.230468 12.523437l-14.082032 3.769531c-3.980468 1.070313-4.460937 6.539063-.71875 8.285157zm0 0" fill="#fb5858"/><path d="m126.988281 277.324219c0 1.164062-.199219 2.351562-.625 3.515625-1.933593 5.308594-7.816406 8.050781-13.125 6.121094l-13.851562-5.324219c-1.996094-.726563-3.910157.042969-5 1.445312-1.03125 1.320313-1.339844 3.191407-.34375 4.925781l8.054687 14.136719c.933594 1.609375 1.371094 3.375 1.371094 5.113281 0 3.53125-1.828125 6.960938-5.113281 8.851563-4.894531 2.828125-11.152344 1.15625-13.96875-3.738281l-8.0625-14.136719c-2.070313-3.574219-7.460938-2.617187-8.179688 1.445313l-2.535156 14.351562c-1.082031 6.164062-7.554687 10.082031-13.707031 7.785156-4.644532-1.726562-7.253906-6.691406-6.390625-11.589844l2.480469-14.101562c.71875-4.0625-4.03125-6.804688-7.199219-4.15625l-11.164063 9.375c-1.910156 1.597656-4.238281 2.378906-6.554687 2.378906-2.933594 0-5.84375-1.246094-7.859375-3.648437-3.617188-4.300781-3.042969-10.785157 1.269531-14.402344l11.160156-9.375c3.160157-2.648437 1.289063-7.804687-2.835937-7.804687h-14.582032c-6.253906 0-11.242187-5.695313-10.046874-12.148438.902343-4.886719 5.339843-8.316406 10.296874-8.316406h14.332032c4.125 0 5.996094-5.152344 2.835937-7.804688l-11.160156-9.371094c-4.792969-4.023437-4.957031-11.578124.101563-15.765624 3.828124-3.160157 9.4375-2.933594 13.230468.257812l10.976563 9.207031c3.167969 2.652344 7.917969-.09375 7.199219-4.15625l-3.925782-15.015625c-1.03125-5.839844 3.085938-11.347656 8.988282-12.015625 5.519531-.621093 10.527343 3.234375 11.339843 8.71875l.09375.375 3.65625 14.382813c.71875 4.066406 6.109375 5.019531 8.179688 1.445312l7.285156-12.625c1.890625-3.265625 5.351563-5.105468 8.894531-5.105468 1.726563 0 3.484375.4375 5.082032 1.363281 4.875 2.816406 6.558593 9.101562 3.742187 13.976562l-7.285156 12.617188c-2.066407 3.574219 1.464843 7.785156 5.34375 6.371093l13.695312-4.988281c5.871094-2.140625 12.511719 1.496094 13.59375 7.972657.832031 4.894531-2.171875 9.640624-6.839843 11.335937l-13.457032 4.90625c-3.875 1.402344-3.875 6.890625 0 8.304687l13.8125 5.257813c4.1875 1.507813 6.796875 5.445313 6.796875 9.652344zm0 0" fill="#f44545"/><path d="m187.390625 407.316406c0 .882813-.117187 1.777344-.355469 2.660156-1.464844 5.457032-7.066406 8.699219-12.523437 7.234376l-15.703125-4.292969c-3.980469-1.070313-7.128906 3.417969-4.757813 6.804687l8.355469 11.941406c.746094 1.070313 1.265625 2.246094 1.558594 3.453126 1.089844 4.550781-1.019532 9.589843-5.738282 11.742187-4.519531 2.066406-9.871093.394531-12.71875-3.667969l-8.222656-11.734375c-2.367187-3.386719-7.667968-1.964843-8.023437 2.152344l-1.265625 14.515625c-.46875 5.300781-4.957032 9.34375-10.195313 9.34375-.300781 0-.59375-.007812-.894531-.039062-5.601562-.488282-9.789062-5.476563-9.289062-11.089844l1.265624-14.519532c.355469-4.105468-4.613281-6.433593-7.535156-3.511718l-10.308594 10.308594c-4.417968 4.417968-11.972656 3.929687-15.691406-1.476563-2.816406-4.09375-2.101562-9.652344 1.402344-13.167969l10.132812-10.128906c2.921876-2.921875.601563-7.890625-3.511718-7.527344l-14.519532 1.269532c-6.226562.539062-11.691406-4.6875-11.066406-11.222657.464844-4.9375 4.59375-8.753906 9.527344-9.179687l14.28125-1.246094c4.105469-.363281 5.527344-5.664062 2.152344-8.03125l-13.398438-7.835938c-4.863281-3.410156-5.851562-10.21875-2.140625-14.863281 3.460938-4.332031 9.726563-5.15625 14.1875-1.851562l13.082031 7.796875c3.378907 2.367187 7.878907-.78125 6.808594-4.769532l-3.773437-14.082031c-.238281-.875-.34375-1.757812-.34375-2.628906 0-4.523437 3.015625-8.679687 7.578125-9.894531 5.433594-1.457032 11.066406 1.796875 12.523437 7.234375l3.769531 14.082031c.34375 1.296875 1.175782 2.234375 2.183594 2.753906 2.070313 1.089844 4.925782.476563 6.101563-2.039062l6.160156-13.207032c2.640625-5.664062 9.90625-7.785156 15.246094-3.980468 4.042969 2.878906 5.28125 8.355468 3.183593 12.855468l-6.050781 12.980469c-1.746093 3.738281 2.132813 7.617188 5.871094 5.878907l13.492187-6.046876c1.410157-.675781 2.910157-.988281 4.382813-.988281 3.855469 0 7.558594 2.195313 9.292969 5.925781 2.378906 5.132813.164062 11.222657-4.96875 13.613282l-13.550782 6.039062c-3.742187 1.746094-3.265624 7.199219.726563 8.269532l15.691406 4.304687c4.574219 1.214844 7.589844 5.351563 7.589844 9.863281zm0 0" fill="#fb5858"/><path d="m321.816406 460.097656c-1.726562 4.648438-6.691406 7.253906-11.589844 6.394532l-14.101562-2.484376c-4.0625-.71875-6.804688 4.03125-4.15625 7.199219l7.585938 9.042969 1.789062 2.121094c1.597656 1.910156 2.378906 4.238281 2.378906 6.558594 0 2.929687-1.246094 5.839843-3.648437 7.855468-4.300781 3.617188-10.785157 3.042969-14.402344-1.269531l-9.375-11.160156c-2.648437-3.160157-7.804687-1.289063-7.804687 2.835937v14.582032c0 6.253906-5.695313 11.246093-12.148438 10.050781-4.886719-.90625-8.316406-5.34375-8.316406-10.300781v-14.332032c0-4.125-5.152344-5.996094-7.804688-2.835937l-9.371094 11.160156c-4.023437 4.792969-11.578124 4.957031-15.765624-.101563-3.160157-3.824218-2.933594-9.4375.257812-13.230468l9.207031-10.976563c2.652344-3.167969-.09375-7.917969-4.15625-7.199219l-15.015625 3.925782c-5.839844 1.03125-11.347656-3.085938-12.015625-8.988282-.621093-5.519531 3.234375-10.527343 8.71875-11.339843l14.757813-3.75c4.066406-.71875 5.019531-6.109375 1.445312-8.179688l-12.625-7.285156c-3.265625-1.890625-5.105468-5.351563-5.105468-8.894531 0-1.726563.4375-3.480469 1.363281-5.082032 2.816406-4.875 9.101562-6.558593 13.976562-3.742187l12.617188 7.285156c3.574219 2.070313 7.785156-1.464843 6.371093-5.339843l-4.988281-13.699219c-2.140625-5.871094 1.496094-12.511719 7.972657-13.59375 4.894531-.832031 9.640624 2.171875 11.335937 6.839843l4.90625 13.457032c.644531 1.765625 2.121094 2.722656 3.679687 2.890625 1.871094.1875 3.855469-.78125 4.625-2.890625l5.257813-13.8125c1.507813-4.1875 5.445313-6.796875 9.652344-6.796875 1.164062 0 2.351562.199219 3.515625.625 5.308594 1.933593 8.050781 7.816406 6.121094 13.125l-5.324219 13.855469c-1.410157 3.875 2.796875 7.410156 6.371093 5.339843l14.136719-8.054687c1.609375-.933594 3.375-1.371094 5.113281-1.371094 3.53125 0 6.960938 1.828125 8.851563 5.113281 2.828125 4.894531 1.15625 11.152344-3.738281 13.96875l-14.136719 8.0625c-3.574219 2.070313-2.617187 7.460938 1.445313 8.179688l14.351562 2.535156c6.164062 1.082031 10.082031 7.554687 7.785156 13.707031zm0 0" fill="#f44545"/><path d="m457.46875 394.199219c0 .300781-.007812.59375-.039062.894531-.488282 5.601562-5.476563 9.789062-11.089844 9.289062l-14.519532-1.265624c-4.105468-.355469-6.433593 4.613281-3.511718 7.535156l10.308594 10.308594c4.417968 4.417968 3.929687 11.972656-1.476563 15.691406-4.09375 2.816406-9.652344 2.101562-13.167969-1.402344l-10.128906-10.132812c-2.828125-2.828126-7.578125-.746094-7.546875 3.128906 0 .136718.011719.25.019531.382812l1.269532 14.519532c.539062 6.226562-4.6875 11.691406-11.222657 11.066406-4.9375-.464844-8.753906-4.589844-9.179687-9.527344l-1.246094-14.28125c-.363281-4.105469-5.664062-5.527344-8.03125-2.148438l-7.835938 13.394532c-3.410156 4.863281-10.21875 5.851562-14.863281 2.140625-4.332031-3.460938-5.15625-9.726563-1.851562-14.1875l7.796875-13.082031c2.367187-3.378907-.78125-7.878907-4.769532-6.808594l-14.082031 3.773437c-.875.238281-1.757812.34375-2.628906.34375-4.523437 0-8.679687-3.015625-9.894531-7.578125-1.457032-5.433594 1.796875-11.066406 7.234375-12.523437l14.082031-3.769531c3.976562-1.070313 4.457031-6.539063.714844-8.285157l-13.207032-6.160156c-5.664062-2.640625-7.785156-9.90625-3.980468-15.246094 2.878906-4.042969 8.355468-5.28125 12.855468-3.179687l12.980469 6.046875c3.738281 1.746093 7.617188-2.128907 5.878907-5.871094l-6.046876-13.488281c-.675781-1.414063-.988281-2.910156-.988281-4.386719 0-3.855469 2.195313-7.554687 5.925781-9.292969 5.132813-2.378906 11.222657-.164062 13.613282 4.96875l6.039062 13.550782c1.746094 3.742187 7.199219 3.265624 8.269532-.726563l4.304687-15.691406c1.214844-4.574219 5.351563-7.585938 9.863281-7.585938.882813 0 1.777344.113281 2.660156.351563 5.070313 1.363281 8.230469 6.289062 7.472657 11.359375-.054688.382812-.136719.777343-.238281 1.164062l-4.292969 15.703125c-1.070313 3.980469 3.417969 7.128906 6.804687 4.757813l11.941406-8.355469c5.125-3.582031 12.472657-1.785156 15.195313 4.179688 2.066406 4.519531.394531 9.871093-3.667969 12.71875l-11.734375 8.222656c-3.386719 2.367187-1.964843 7.667968 2.152344 8.023437l14.515625 1.265625c5.300781.46875 9.34375 4.957032 9.34375 10.195313zm0 0" fill="#fb5858"/><path d="m511.824219 255.65625c-.90625 4.886719-5.34375 8.316406-10.300781 8.316406h-14.332032c-4.125 0-5.996094 5.152344-2.835937 7.804688l11.160156 9.371094c.636719.53125 1.1875 1.132812 1.652344 1.769531 3.085937 4.199219 2.628906 10.359375-1.753907 13.996093-3.824218 3.160157-9.4375 2.933594-13.230468-.257812l-10.976563-9.207031c-3.167969-2.652344-7.917969.09375-7.199219 4.15625l3.925782 15.015625c1.03125 5.839844-3.085938 11.351562-8.988282 12.015625-5.519531.621093-10.527343-3.234375-11.339843-8.71875l-3.75-14.757813c-.71875-4.0625-6.109375-5.019531-8.179688-1.445312l-7.285156 12.625c-1.890625 3.265625-5.351563 5.105468-8.894531 5.105468-1.726563 0-3.480469-.4375-5.082032-1.363281-4.875-2.816406-6.558593-9.101562-3.742187-13.976562l7.285156-12.617188c2.070313-3.574219-1.464843-7.785156-5.339843-6.371093l-13.699219 4.988281c-5.871094 2.140625-12.511719-1.496094-13.59375-7.96875-.832031-4.894531 2.171875-9.644531 6.839843-11.339844l13.457032-4.90625c3.875-1.402344 3.875-6.890625 0-8.300781l-13.8125-5.261719c-4.1875-1.503906-6.796875-5.445313-6.796875-9.652344 0-1.164062.199219-2.351562.625-3.511719 1.933593-5.3125 7.816406-8.054687 13.125-6.125l13.855469 5.324219c3.875 1.410157 7.410156-2.796875 5.339843-6.371093l-8.054687-14.132813c-.933594-1.613281-1.371094-3.378906-1.371094-5.113281 0-3.535156 1.828125-6.964844 5.113281-8.855469 4.894531-2.828125 11.152344-1.152344 13.96875 3.742187l8.0625 14.132813c.800781 1.390625 2.109375 2.097656 3.460938 2.191406 2.101562.167969 4.28125-1.152343 4.71875-3.636719l2.535156-14.351562c1.082031-6.164062 7.554687-10.082031 13.707031-7.785156 4.648438 1.726562 7.253906 6.695312 6.394532 11.589844l-2.484376 14.101562c-.71875 4.0625 4.03125 6.808594 7.199219 4.15625l11.164063-9.375c1.910156-1.597656 4.238281-2.378906 6.558594-2.378906 2.929687 0 5.839843 1.246094 7.855468 3.648437 3.617188 4.300781 3.042969 10.789063-1.269531 14.402344l-11.160156 9.375c-3.160157 2.652344-1.289063 7.804687 2.835937 7.804687h14.582032c6.253906 0 11.246093 5.695313 10.050781 12.148438zm0 0" fill="#f44545"/><path d="m454.214844 115.640625c-.464844 4.933594-4.589844 8.75-9.527344 9.175781l-14.28125 1.246094c-4.105469.363281-5.527344 5.664062-2.148438 8.035156l13.394532 7.835938c.601562.425781 1.144531.890625 1.632812 1.410156 3.40625 3.648438 3.761719 9.375.507813 13.449219-3.460938 4.332031-9.726563 5.15625-14.1875 1.851562l-13.082031-7.796875c-3.378907-2.367187-7.878907.78125-6.808594 4.769532l3.773437 14.082031c.238281.875.34375 1.757812.34375 2.628906 0 4.523437-3.015625 8.679687-7.578125 9.894531-5.433594 1.457032-11.066406-1.796875-12.523437-7.230468l-3.769531-14.082032c-1.070313-3.980468-6.539063-4.460937-8.285157-.71875l-6.160156 13.210938c-2.640625 5.660156-9.90625 7.78125-15.246094 3.976562-4.042969-2.875-5.28125-8.355468-3.179687-12.855468l6.046875-12.976563c1.746093-3.742187-2.128907-7.621094-5.871094-5.882813l-13.488281 6.046876c-1.414063.675781-2.910156.988281-4.386719.988281-3.855469 0-7.554687-2.195313-9.292969-5.925781-2.378906-5.132813-.164062-11.222657 4.96875-13.613282l13.550782-6.039062c3.742187-1.746094 3.265624-7.199219-.726563-8.269532l-15.691406-4.304687c-4.574219-1.214844-7.585938-5.351563-7.585938-9.863281 0-.882813.113281-1.777344.351563-2.660156 1.464844-5.453126 7.066406-8.699219 12.523437-7.230469l15.703125 4.289062c3.980469 1.070313 7.128906-3.417969 4.757813-6.804687l-8.355469-11.941406c-3.582031-5.125-1.785156-12.472657 4.179688-15.195313 4.519531-2.066406 9.871093-.394531 12.71875 3.667969l8.222656 11.734375c.621094.882812 1.433594 1.433593 2.304687 1.695312 2.484375.769531 5.457031-.800781 5.71875-3.847656l1.265625-14.515625c.46875-5.300781 4.957032-9.34375 10.195313-9.34375.300781 0 .59375.011719.894531.042969 5.601562.488281 9.789062 5.476562 9.289062 11.085937l-1.265624 14.519532c-.355469 4.105468 4.613281 6.433593 7.535156 3.511718l10.308594-10.308594c4.417968-4.417968 11.972656-3.929687 15.691406 1.476563 2.816406 4.09375 2.101562 9.652344-1.402344 13.167969l-10.132812 10.132812c-2.917969 2.917969-.601563 7.886719 3.511718 7.523438l14.519532-1.269532c6.226562-.539062 11.691406 4.6875 11.066406 11.226563zm0 0" fill="#fb5858"/><path d="m293.714844 76.324219 12.625 7.285156c2.464844 1.421875 4.117187 3.75 4.773437 6.328125.214844.832031.332031 1.695312.332031 2.566406 0 1.726563-.4375 3.484375-1.363281 5.082032-2.816406 4.875-9.101562 6.558593-13.976562 3.742187l-12.617188-7.285156c-3.574219-2.066407-7.785156 1.464843-6.371093 5.34375l4.988281 13.695312c2.140625 5.871094-1.496094 12.511719-7.96875 13.59375-4.894531.832031-9.644531-2.171875-11.339844-6.839843l-4.90625-13.457032c-1.402344-3.875-6.890625-3.875-8.300781 0l-5.261719 13.8125c-1.503906 4.1875-5.445313 6.796875-9.652344 6.796875-1.164062 0-2.351562-.199219-3.511719-.625-5.3125-1.933593-8.054687-7.816406-6.125-13.125l5.324219-13.851562c1.410157-3.878907-2.796875-7.410157-6.371093-5.34375l-14.132813 8.054687c-1.613281.933594-3.378906 1.371094-5.113281 1.371094-3.535156 0-6.964844-1.828125-8.855469-5.113281-2.828125-4.894531-1.152344-11.152344 3.742187-13.96875l14.132813-8.0625c3.574219-2.070313 2.617187-7.460938-1.445313-8.179688l-14.351562-2.535156c-6.164062-1.082031-10.082031-7.554687-7.785156-13.707031 1.726562-4.644532 6.695312-7.253906 11.589844-6.390625l14.101562 2.480469c4.0625.71875 6.808594-4.03125 4.15625-7.199219l-9.375-11.164063c-1.597656-1.910156-2.378906-4.238281-2.378906-6.554687 0-2.933594 1.246094-5.84375 3.648437-7.859375 4.300781-3.617188 10.789063-3.042969 14.402344 1.269531l9.375 11.160156c.957031 1.144531 2.234375 1.621094 3.480469 1.582031 2.214844-.0625 4.324218-1.777343 4.324218-4.417968v-14.582032c0-6.253906 5.695313-11.242187 12.148438-10.046874 4.886719.902343 8.316406 5.339843 8.316406 10.296874v14.332032c0 4.125 5.152344 5.996094 7.804688 2.835937l9.371094-11.160156c4.023437-4.792969 11.578124-4.957031 15.765624.101563 3.160157 3.828124 2.933594 9.4375-.257812 13.230468l-9.207031 10.976563c-2.652344 3.167969.09375 7.917969 4.15625 7.199219l15.015625-3.925782c5.839844-1.03125 11.351562 3.085938 12.015625 8.988282.621093 5.519531-3.234375 10.527343-8.71875 11.339843l-14.757813 3.75c-4.0625.71875-5.019531 6.109375-1.445312 8.179688zm0 0" fill="#f44545"/><path d="m293.714844 76.324219 12.625 7.285156c2.464844 1.421875 4.117187 3.75 4.773437 6.328125-.832031.042969-1.675781.050781-2.515625.050781-35.53125 0-64.882812-26.457031-69.414062-60.761719 2.214844-.0625 4.324218-1.777343 4.324218-4.417968v-14.582032c0-6.253906 5.695313-11.242187 12.148438-10.046874 4.886719.902343 8.316406 5.339843 8.316406 10.296874v14.332032c0 4.125 5.152344 5.996094 7.804688 2.835937l9.371094-11.160156c4.023437-4.792969 11.578124-4.957031 15.765624.101563 3.160157 3.828124 2.933594 9.4375-.257812 13.230468l-9.207031 10.976563c-2.652344 3.167969.09375 7.917969 4.15625 7.199219l15.015625-3.925782c5.839844-1.03125 11.351562 3.085938 12.015625 8.988282.621093 5.519531-3.234375 10.527343-8.71875 11.339843l-14.757813 3.75c-4.0625.71875-5.019531 6.109375-1.445312 8.179688zm0 0" fill="#fb5858"/><path d="m254.109375 85.546875c-11.597656 0-21.085937-9.488281-21.085937-21.089844 0-11.597656 9.488281-21.085937 21.085937-21.085937 11.601563 0 21.089844 9.488281 21.089844 21.085937 0 11.601563-9.488281 21.089844-21.089844 21.089844zm0 0" fill="#d63030"/><path d="m243.644531 46.175781c-18.785156 10.714844-10.957031 39.375 10.464844 39.375 6.351563 0 12.203125-2.945312 15.816406-7.199219-11.710937-7.773437-20.949219-18.976562-26.28125-32.175781zm0 0" fill="#c42d2d"/><path d="m174.992188 118.269531-14.082032 3.769531c-3.980468 1.070313-4.460937 6.539063-.71875 8.285157l4.242188 1.972656c-4.792969 1.488281-9.875 2.289063-15.152344 2.289063-27.042969 0-49.191406-21.003907-50.996094-47.597657 2.929688 2.753907 7.761719.433594 7.398438-3.617187l-1.269532-14.519532c-.539062-6.226562 4.6875-11.691406 11.226563-11.066406 4.933594.464844 8.75 4.59375 9.175781 9.527344l1.246094 14.28125c.363281 4.105469 5.664062 5.527344 8.035156 2.152344l7.835938-13.398438c3.40625-4.863281 10.214844-5.851562 14.859375-2.140625 4.332031 3.460938 5.15625 9.726563 1.851562 14.1875l-7.796875 13.082031c-2.367187 3.378907.78125 7.878907 4.769532 6.808594l14.082031-3.773437c.875-.238281 1.757812-.34375 2.628906-.34375 4.523437 0 8.679687 3.015625 9.894531 7.578125 1.457032 5.433594-1.796875 11.066406-7.230468 12.523437zm0 0" fill="#fc7979"/><path d="m134.136719 136.808594c-8.203125 8.203125-21.621094 8.203125-29.824219 0s-8.203125-21.621094 0-29.824219c8.203125-8.199219 21.621094-8.199219 29.824219 0 8.203125 8.203125 8.203125 21.621094 0 29.824219zm0 0" fill="#d63030"/><path d="m104.03125 107.273438c-7.90625 8.222656-7.84375 21.390624.28125 29.535156 9.441406 9.441406 25.519531 7.851562 32.753906-3.691406-14.339844-3.519532-26.3125-13.082032-33.035156-25.84375zm0 0" fill="#c42d2d"/><path d="m454.214844 115.640625c-.464844 4.933594-4.589844 8.75-9.527344 9.175781l-14.28125 1.246094c-4.105469.363281-5.527344 5.664062-2.148438 8.035156l13.394532 7.835938c.601562.425781 1.144531.890625 1.632812 1.410156-2.328125.28125-4.710937.425781-7.109375.425781-32.695312 0-59.207031-26.507812-59.207031-59.203125 0-.78125.011719-1.558594.050781-2.328125 2.484375.769531 5.457031-.800781 5.71875-3.847656l1.265625-14.515625c.46875-5.300781 4.957032-9.34375 10.195313-9.34375.300781 0 .59375.011719.894531.042969 5.601562.488281 9.789062 5.476562 9.289062 11.085937l-1.265624 14.519532c-.355469 4.105468 4.613281 6.433593 7.535156 3.511718l10.308594-10.308594c4.417968-4.417968 11.972656-3.929687 15.691406 1.476563 2.816406 4.09375 2.101562 9.652344-1.402344 13.167969l-10.132812 10.132812c-2.917969 2.917969-.601563 7.886719 3.511718 7.523438l14.519532-1.269532c6.226562-.539062 11.691406 4.6875 11.066406 11.226563zm0 0" fill="#fc7979"/><path d="m375.191406 134.136719c-8.199218-8.203125-8.199218-21.621094 0-29.824219 8.203125-8.203125 21.625-8.203125 29.824219 0 8.203125 8.203125 8.203125 21.621094 0 29.824219-8.199219 8.203125-21.621094 8.203125-29.824219 0zm0 0" fill="#d63030"/><path d="m404.53125 134.605469c-4.042969 3.78125-9.230469 5.683593-14.425781 5.683593-5.402344 0-10.808594-2.058593-14.914063-6.152343-8.199218-8.199219-8.199218-21.625 0-29.824219 1.269532-1.257812 2.652344-2.328125 4.125-3.203125 4.066406 14.011719 13.167969 25.867187 25.214844 33.496094zm0 0" fill="#c42d2d"/><path d="m126.988281 277.324219c0 1.164062-.199219 2.351562-.625 3.515625-1.933593 5.308594-7.816406 8.050781-13.125 6.121094l-13.851562-5.324219c-1.996094-.726563-3.910157.042969-5 1.445312-21.160157-9.03125-35.980469-30.011719-35.980469-54.464843 0-9.394532 2.195312-18.269532 6.082031-26.160157l3.65625 14.382813c.71875 4.066406 6.109375 5.019531 8.179688 1.445312l7.285156-12.625c1.890625-3.265625 5.351563-5.105468 8.894531-5.105468 1.726563 0 3.484375.4375 5.082032 1.363281 4.875 2.816406 6.558593 9.101562 3.742187 13.976562l-7.285156 12.617188c-2.066407 3.574219 1.464843 7.785156 5.34375 6.371093l13.695312-4.988281c5.871094-2.140625 12.511719 1.496094 13.59375 7.972657.832031 4.894531-2.171875 9.640624-6.839843 11.335937l-13.457032 4.90625c-3.875 1.402344-3.875 6.890625 0 8.304687l13.8125 5.257813c4.1875 1.507813 6.796875 5.445313 6.796875 9.652344zm0 0" fill="#fb5858"/><path d="m321.816406 460.097656c-1.726562 4.648438-6.691406 7.253906-11.589844 6.394532l-14.101562-2.484376c-4.0625-.71875-6.804688 4.03125-4.15625 7.199219l7.585938 9.042969c-25.117188-6.859375-43.585938-29.835938-43.585938-57.128906 0-5.039063.632812-9.933594 1.820312-14.609375 1.871094.1875 3.855469-.78125 4.625-2.890625l5.257813-13.8125c1.507813-4.1875 5.445313-6.796875 9.652344-6.796875 1.164062 0 2.351562.199219 3.515625.625 5.308594 1.933593 8.050781 7.816406 6.121094 13.125l-5.324219 13.855469c-1.410157 3.875 2.796875 7.410156 6.371093 5.339843l14.136719-8.054687c1.609375-.933594 3.375-1.371094 5.113281-1.371094 3.53125 0 6.960938 1.828125 8.851563 5.113281 2.828125 4.894531 1.15625 11.152344-3.738281 13.96875l-14.136719 8.0625c-3.574219 2.070313-2.617187 7.460938 1.445313 8.179688l14.351562 2.535156c6.164062 1.082031 10.082031 7.554687 7.785156 13.707031zm0 0" fill="#fb5858"/><path d="m187.390625 407.316406c0 .882813-.117187 1.777344-.355469 2.660156-1.464844 5.457032-7.066406 8.699219-12.523437 7.234376l-15.703125-4.292969c-3.980469-1.070313-7.128906 3.417969-4.757813 6.804687l8.355469 11.941406c.746094 1.070313 1.265625 2.246094 1.558594 3.453126-25.710938-6.457032-44.742188-29.722657-44.742188-57.429688 0-8.480469 1.789063-16.546875 5-23.839844 2.070313 1.089844 4.925782.476563 6.101563-2.039062l6.160156-13.207032c2.640625-5.664062 9.90625-7.785156 15.246094-3.980468 4.042969 2.878906 5.28125 8.355468 3.183593 12.855468l-6.050781 12.980469c-1.746093 3.738281 2.132813 7.617188 5.871094 5.878907l13.492187-6.046876c1.410157-.675781 2.910157-.988281 4.382813-.988281 3.855469 0 7.558594 2.195313 9.292969 5.925781 2.378906 5.132813.164062 11.222657-4.96875 13.613282l-13.550782 6.039062c-3.742187 1.746094-3.265624 7.199219.726563 8.269532l15.691406 4.304687c4.574219 1.214844 7.589844 5.351563 7.589844 9.863281zm0 0" fill="#fc7979"/><path d="m457.46875 394.199219c0 .300781-.007812.59375-.039062.894531-.488282 5.601562-5.476563 9.789062-11.089844 9.289062l-14.519532-1.265624c-4.105468-.355469-6.433593 4.613281-3.511718 7.535156l10.308594 10.308594c4.417968 4.417968 3.929687 11.972656-1.476563 15.691406-4.09375 2.816406-9.652344 2.101562-13.167969-1.402344l-10.128906-10.132812c-2.828125-2.828126-7.578125-.746094-7.546875 3.128906-10.515625-10.683594-16.992187-25.335938-16.992187-41.507813 0-21.304687 11.253906-39.992187 28.144531-50.414062-.054688.382812-.136719.777343-.238281 1.164062l-4.292969 15.703125c-1.070313 3.980469 3.417969 7.128906 6.804687 4.757813l11.941406-8.355469c5.125-3.582031 12.472657-1.785156 15.195313 4.179688 2.066406 4.519531.394531 9.871093-3.667969 12.71875l-11.734375 8.222656c-3.386719 2.367187-1.964843 7.667968 2.152344 8.023437l14.515625 1.265625c5.300781.46875 9.34375 4.957032 9.34375 10.195313zm0 0" fill="#fc7979"/><path d="m511.824219 255.65625c-.90625 4.886719-5.34375 8.316406-10.300781 8.316406h-14.332032c-4.125 0-5.996094 5.152344-2.835937 7.804688l11.160156 9.371094c.636719.53125 1.1875 1.132812 1.652344 1.769531-32.390625-.355469-58.539063-26.71875-58.539063-59.195313 0-2.632812.175782-5.230468.507813-7.765625 2.101562.167969 4.28125-1.152343 4.71875-3.636719l2.535156-14.351562c1.082031-6.164062 7.554687-10.082031 13.707031-7.785156 4.648438 1.726562 7.253906 6.695312 6.394532 11.589844l-2.484376 14.101562c-.71875 4.0625 4.03125 6.808594 7.199219 4.15625l11.164063-9.375c1.910156-1.597656 4.238281-2.378906 6.558594-2.378906 2.929687 0 5.839843 1.246094 7.855468 3.648437 3.617188 4.300781 3.042969 10.789063-1.269531 14.402344l-11.160156 9.375c-3.160157 2.652344-1.289063 7.804687 2.835937 7.804687h14.582032c6.253906 0 11.246093 5.695313 10.050781 12.148438zm0 0" fill="#fb5858"/><g fill="#d63030"><path d="m58.394531 237.691406c11.109375-3.335937 22.929688 3.027344 26.261719 14.136719 3.335938 11.105469-3.027344 22.925781-14.132812 26.257813-11.109376 3.335937-22.929688-3.023438-26.261719-14.132813-3.335938-11.109375 3.027343-22.925781 14.132812-26.261719zm0 0"/><path d="m278.320312 442.320312c2.875 11.238282-3.972656 22.78125-15.207031 25.652344-11.238281 2.875-22.78125-3.972656-25.65625-15.207031-2.871093-11.238281 3.972657-22.78125 15.210938-25.65625 11.238281-2.871094 22.78125 3.972656 25.652343 15.210937zm0 0"/><path d="m136.808594 377.863281c8.203125 8.203125 8.203125 21.625 0 29.824219-8.203125 8.203125-21.621094 8.203125-29.824219 0-8.199219-8.199219-8.199219-21.621094 0-29.824219 8.203125-8.199219 21.621094-8.199219 29.824219 0zm0 0"/><path d="m377.863281 375.191406c8.203125-8.199218 21.625-8.199218 29.824219 0 8.203125 8.203125 8.203125 21.625 0 29.824219-8.199219 8.203125-21.621094 8.203125-29.824219 0-8.199219-8.199219-8.199219-21.621094 0-29.824219zm0 0"/><path d="m426.453125 254.109375c0-11.597656 9.488281-21.085937 21.089844-21.085937 11.597656 0 21.085937 9.488281 21.085937 21.085937 0 11.601563-9.488281 21.089844-21.085937 21.089844-11.601563 0-21.089844-9.488281-21.089844-21.089844zm0 0"/></g><path d="m59.074219 237.5c-.21875.054688-.449219.117188-.675781.1875-9.105469 2.734375-15.019532 11.164062-15.019532 20.234375 0 1.996094.28125 4.023437.882813 6.027344 2.734375 9.105469 11.164062 15.019531 20.234375 15.019531 1.996094 0 4.023437-.28125 6.027344-.882812 3.191406-.957032 5.996093-2.621094 8.285156-4.761719-10.394532-9.019531-17.59375-21.585938-19.734375-35.824219zm0 0" fill="#c42d2d"/><path d="m252.664062 427.113281c-9.5 2.421875-15.859374 11.058594-15.859374 20.453125 0 1.714844.207031 3.460938.65625 5.195313 2.421874 9.5 11.058593 15.871093 20.460937 15.871093 1.714844 0 3.453125-.210937 5.1875-.65625 3.316406-.851562 6.253906-2.453124 8.667969-4.582031-9.085938-9.78125-14.902344-22.644531-15.703125-36.851562-1.132813.09375-2.277344.277343-3.410157.570312zm0 0" fill="#c42d2d"/><path d="m119.515625 371.84375c-4.582031.511719-9.03125 2.527344-12.535156 6.019531-4.105469 4.09375-6.152344 9.507813-6.152344 14.914063 0 5.402344 2.046875 10.816406 6.152344 14.914062 4.105469 4.09375 9.511719 6.152344 14.914062 6.152344 2.847657 0 5.707031-.574219 8.367188-1.726562-6.941407-9.707032-11.039063-21.585938-11.039063-34.429688 0-1.976562.09375-3.917969.292969-5.84375zm0 0" fill="#c42d2d"/><path d="m391.996094 369.058594c-5.144532.1875-10.234375 2.226562-14.132813 6.132812-4.09375 4.105469-6.152343 9.511719-6.152343 14.914063 0 5.402343 2.058593 10.808593 6.152343 14.914062s9.507813 6.152344 14.914063 6.152344c.582031 0 1.171875-.023437 1.753906-.074219-3.355469-7.429687-5.226562-15.671875-5.226562-24.359375 0-6.152343.945312-12.097656 2.691406-17.679687zm0 0" fill="#c42d2d"/><path d="m439.625 234.582031c-7.710938 3.136719-13.175781 10.722657-13.175781 19.527344 0 5.796875 2.378906 11.066406 6.203125 14.890625 3.824218 3.824219 9.09375 6.195312 14.890625 6.195312 5.175781 0 9.925781-1.882812 13.605469-5.007812-11.015626-8.699219-18.863282-21.242188-21.523438-35.605469zm0 0" fill="#c42d2d"/></svg>