<svg height="511pt" viewBox="-4 0 511 511.99981" width="511pt" xmlns="http://www.w3.org/2000/svg"><path d="m113.789062 173.921875c-3.203124-15.308594.484376-30.695313 12.601563-44.175781 6.980469-7.769532 19.980469-22.234375 26.796875-40.59375 8.648438-23.296875 5.027344-45.605469-10.769531-66.300782-30.476563-39.9375-93.960938-24.058593-99.992188 20.84375-1.707031 12.714844 1.636719 25.335938 9.425781 35.539063 13.359376 17.503906 38.46875 20.875 55.972657 7.515625 13.496093-10.300781 16.898437-28.730469 8.882812-42.957031-7.035156-15.332031-29.851562-11.980469-32.101562 4.777343-1.527344 11.367188 8.503906 20.957032 19.824219 18.859376-6.03125 14.082031-29.050782 17.832031-40.621094 2.675781-11.035156-14.460938-8.25-35.207031 6.210937-46.246094 18.945313-14.457031 45.980469-10.828125 60.441407 8.121094 33.789062 44.273437-13.203126 83.453125-20.285157 93.652343-30.273437 43.578126-1.171875 87.804688 38.195313 124.019532 1.445312 1.328125 3.273437 1.984375 5.089844 1.984375 6.789062 0 10.167968-8.390625 5.097656-13.058594-25.671875-23.609375-40.730469-45.363281-44.769532-64.65625zm0 0" fill="#f29500"/><path d="m428.351562 417.019531c-22.667968 21.484375-12.535156 57.125 15.410157 61.796875 16.394531 4.164063 28.046875-15.738281 16.4375-27.984375-7.890625-8.328125-21.648438-6.539062-27.125 3.589844-4.488281-8.464844-1.550781-19.679687 5.628906-26.480469 11.753906-11.144531 30.304687-7.660156 40.851563 3.46875 21.851562 23.054688 1.785156 65.542969-34.054688 65.542969-29.757812 0-46.902344-17.292969-55.199219-45.140625-14.769531-49.570312-60.59375-88.332031-120.296875-86.074219-4.148437.15625-7.390625 3.648438-7.234375 7.800781.160157 4.152344 3.640625 7.398438 7.804688 7.234376 50.730469-1.917969 92.050781 30.851562 105.304687 75.335937 11.335938 38.03125 37.097656 55.890625 69.625 55.890625 31.351563-.003906 57.277344-25.078125 58.125-56.609375 1.105469-41.359375-47.914062-64.304687-75.277344-38.371094zm0 0" fill="#f29500"/><path d="m168.449219 366.925781c-3.992188 28.132813-21.976563 68.988281-89.230469 88.316407-3.703125 1.074218-7.554688 2.066406-11.566406 3-13.019532 3.019531-24.09375-7.785157-21.363282-20.855469 8.253907-39.488281 35.1875-110.140625 121.828126-100 0 0 2.757812 12.417969.332031 29.539062zm0 0" fill="#ffa90b"/><path d="m168.449219 366.925781c-3.992188 28.132813-21.976563 68.988281-89.230469 88.316407 9.46875-34.65625 32.710938-81.859376 89.230469-88.316407zm0 0" fill="#ffb52d"/><path d="m298.214844 226.878906c-.765625 3.640625-1.6875 7.542969-2.789063 11.625-9.761719 35.898438-34.273437 85.5-95.421875 89.160156-7.332031.433594-15.183594.210938-23.609375-.769531 0 0-20.613281-92.800781 100.453125-120.859375 13.03125-3.015625 24.09375 7.773438 21.367188 20.84375zm0 0" fill="#ffa90b"/><path d="m295.425781 238.503906c-9.761719 35.898438-34.273437 85.5-95.421875 89.160156 4.375-28.964843 23.703125-70.804687 95.421875-89.160156zm0 0" fill="#ffb52d"/><path d="m167.003906 327.996094s-92.800781 20.613281-120.855468-100.453125c-3.019532-13.03125 7.785156-24.09375 20.851562-21.367188 3.613281.753907 7.472656 1.667969 11.515625 2.769531 35.757813 9.699219 85.199219 34.042969 89.210937 94.699219.503907 7.542969.300782 15.644531-.722656 24.351563zm0 0" fill="#ffa90b"/><path d="m167.726562 303.644531c-28.867187-4.292969-70.703124-23.394531-89.210937-94.699219 35.757813 9.699219 85.199219 34.042969 89.210937 94.699219zm0 0" fill="#ffb52d"/><path d="m277.511719 458.089844c-3.171875-.660156-6.542969-1.441406-10.0625-2.375-36.921875-9.699219-89.621094-35.046875-90.90625-100.636719-.121094-5.9375.179687-12.195313.953125-18.804687 0 0 92.800781-20.613282 120.855468 100.464843 3.019532 13.019531-7.78125 24.089844-20.839843 21.351563zm0 0" fill="#ffa90b"/><path d="m267.449219 455.714844c-36.921875-9.699219-89.621094-35.046875-90.90625-100.636719 29.660156 4.332031 73.171875 24.273437 90.90625 100.636719zm0 0" fill="#ffb52d"/><path d="m165.621094 332.921875s-51.046875 80.191406-156.496094 14.421875c-11.34375-7.078125-11.535156-22.535156-.359375-29.847656 2.917969-1.90625 6.085937-3.882813 9.5-5.859375 31.332031-18.105469 82.148437-35.886719 127.363281.792969 6.820313 5.527343 13.511719 12.296874 19.992188 20.492187zm0 0" fill="#ffc14f"/><path d="m335.746094 346.773438c-33.761719 22.097656-102.761719 53.011718-156.855469-15.425782 0 0 6.609375-10.390625 19.992187-20.625 22.707032-17.359375 64.90625-34.273437 127.355469.792969 3 1.675781 6.046875 3.480469 9.148438 5.417969 11.34375 7.070312 11.535156 22.539062.359375 29.839844zm0 0" fill="#ffc14f"/><path d="m145.628906 312.429688c-22.699218 17.363281-64.90625 34.273437-127.363281-.792969 31.332031-18.105469 82.148437-35.886719 127.363281.792969zm0 0" fill="#ffcd71"/><path d="m326.238281 311.515625c-31.34375 18.105469-82.160156 35.878906-127.355469-.792969 22.707032-17.359375 64.90625-34.273437 127.355469.792969zm0 0" fill="#ffcd71"/><path d="m190.515625 307.242188c-5.246094 6.21875-11.542969 12.328124-19.046875 18.257812 0 0-80.195312-51.046875-14.425781-156.496094 7.082031-11.34375 22.539062-11.535156 29.851562-.359375 1.457031 2.214844 2.941407 4.582031 4.433594 7.089844 18.796875 31.484375 38.757813 84.699219-.8125 131.507813zm0 0" fill="#ffc14f"/><path d="m191.488281 488.535156c-1.273437 2.214844-2.617187 4.460938-4.03125 6.730469-7.070312 11.34375-22.539062 11.535156-29.851562.359375-22.085938-33.761719-53.011719-102.75 15.4375-156.855469 0 0 9.488281 6.039063 19.257812 18.253907 18.027344 22.53125 37.023438 66.082031-.8125 131.511718zm0 0" fill="#ffc14f"/><path d="m190.515625 307.242188c-18.023437-22.527344-37.023437-66.078126.8125-131.507813 18.796875 31.484375 38.757813 84.699219-.8125 131.507813zm0 0" fill="#ffcd71"/><path d="m191.488281 488.535156c-18.796875-31.488281-38.757812-84.6875.8125-131.511718 18.027344 22.53125 37.023438 66.082031-.8125 131.511718zm0 0" fill="#ffcd71"/><path d="m281.847656 323.839844h-91.753906l64.425781-64.425782c2.9375-2.9375 2.9375-7.703124 0-10.640624-2.941406-2.9375-7.703125-2.9375-10.640625 0l-64.878906 64.882812v-91.113281c0-4.152344-3.367188-7.523438-7.523438-7.523438s-7.523437 3.371094-7.523437 7.523438v91.753906l-64.425781-64.425781c-2.9375-2.9375-7.699219-2.9375-10.636719 0-2.941406 2.941406-2.941406 7.703125 0 10.640625l64.878906 64.878906h-91.109375c-4.15625 0-7.523437 3.371094-7.523437 7.523437 0 4.15625 3.367187 7.523438 7.523437 7.523438h91.753906l-64.425781 64.425781c-2.9375 2.9375-2.9375 7.699219 0 10.636719s7.699219 2.9375 10.636719 0l64.882812-64.878906v91.109375c0 4.15625 3.367188 7.523437 7.523438 7.523437s7.523438-3.367187 7.523438-7.523437v-91.753907c67.0625 65.886719 63.910156 66.628907 69.742187 66.628907 6.644531 0 10.074219-8.089844 5.320313-12.839844l-64.878907-64.882813h91.109375c4.15625 0 7.523438-3.367187 7.523438-7.523437 0-4.152344-3.367188-7.519531-7.523438-7.519531zm0 0" fill="#f29500"/><path d="m222.59375 332.140625c0 23.832031-16.558594 43.792969-38.796875 49.007813-3.710937.871093-7.574219 1.332031-11.546875 1.332031-27.804688 0-50.34375-22.535157-50.34375-50.339844s22.539062-50.34375 50.34375-50.34375c7.101562 0 13.871094 1.472656 20 4.132813 17.855469 7.734374 30.34375 25.507812 30.34375 46.210937zm0 0" fill="#7c3f2c"/><path d="m222.59375 332.140625c0 23.832031-16.558594 43.792969-38.796875 49.007813-17.84375-7.734376-30.332031-25.519532-30.332031-46.210938 0-23.832031 16.550781-43.792969 38.785156-49.007812 17.855469 7.734374 30.34375 25.507812 30.34375 46.210937zm0 0" fill="#954c35"/></svg>