<svg height="512pt" viewBox="0 0 512 512.00054" width="512pt" xmlns="http://www.w3.org/2000/svg"><path d="m251.589844 70.558594s-2.703125 4.257812-8.179688 8.441406c-9.289062 7.09375-26.539062 14.007812-52.085937-.332031-1.230469-.683594-2.472657-1.429688-3.734375-2.214844-4.640625-2.890625-4.714844-9.214844-.148438-12.199219 13.804688-9.039062 42.019532-21.683594 64.148438 6.304688zm0 0" fill="#44bfd7"/><path d="m321.160156 76.222656c-1.1875.777344-2.492187 1.585938-3.890625 2.394532-12.820312 7.414062-33.589843 14.683593-52.074219-.320313-2.796874-2.257813-5.53125-5.023437-8.179687-8.378906 0 0 20.875-32.792969 63.992187-5.902344 4.636719 2.898437 4.71875 9.214844.152344 12.207031zm0 0" fill="#44bfd7"/><path d="m243.410156 79c-9.289062 7.09375-26.539062 14.007812-52.085937-.332031 12.808593-7.394531 33.59375-14.671875 52.085937.332031zm0 0" fill="#60c8dd"/><path d="m317.269531 78.617188c-12.820312 7.414062-33.589843 14.683593-52.074219-.320313 9.289063-7.09375 26.539063-14.011719 52.074219.320313zm0 0" fill="#60c8dd"/><path d="m262.359375 59.347656c-2.257813 2.785156-5.023437 5.527344-8.378906 8.179688 0 0-32.792969-20.875-5.902344-64.003906 2.902344-4.636719 9.214844-4.710938 12.210937-.144532.773438 1.191406 1.582032 2.484375 2.390626 3.882813 7.402343 12.808593 14.683593 33.589843-.320313 52.085937zm0 0" fill="#44bfd7"/><path d="m262.730469 133.207031c-.683594 1.230469-1.429688 2.472657-2.214844 3.738281-2.890625 4.636719-9.214844 4.71875-12.207031.152344-9.03125-13.8125-21.671875-42.027344 6.316406-64.144531 0 0 4.253906 2.703125 8.4375 8.179687 7.09375 9.289063 14.007812 26.539063-.332031 52.074219zm0 0" fill="#44bfd7"/><path d="m262.359375 59.347656c-7.105469-9.289062-14.019531-26.550781.320313-52.085937 7.402343 12.808593 14.683593 33.589843-.320313 52.085937zm0 0" fill="#60c8dd"/><path d="m262.730469 133.207031c-7.402344-12.820312-14.671875-33.589843.332031-52.074219 7.09375 9.289063 14.007812 26.539063-.332031 52.074219zm0 0" fill="#60c8dd"/><path d="m274.886719 70.238281c0 7.621094-4.140625 14.269531-10.292969 17.832031-3.023438 1.75-6.542969 2.753907-10.292969 2.753907-11.367187 0-20.59375-9.214844-20.59375-20.585938 0-11.367187 9.226563-20.59375 20.59375-20.59375 3.75 0 7.269531 1.003907 10.292969 2.765625 6.152344 3.550782 10.292969 10.207032 10.292969 17.828125zm0 0" fill="#269ab1"/><path d="m274.886719 70.238281c0 7.621094-4.140625 14.269531-10.292969 17.832031-6.148438-3.5625-10.292969-10.210937-10.292969-17.832031 0-7.621093 4.144531-14.277343 10.292969-17.828125 6.152344 3.550782 10.292969 10.207032 10.292969 17.828125zm0 0" fill="#2cb3cd"/><path d="m254.699219 442.085938s-2.703125 4.257812-8.179688 8.441406c-9.289062 7.089844-26.539062 14.007812-52.085937-.332032-1.230469-.683593-2.472656-1.429687-3.738282-2.214843-4.636718-2.890625-4.710937-9.21875-.144531-12.199219 13.804688-9.039062 42.019531-21.683594 64.148438 6.304688zm0 0" fill="#44bfd7"/><path d="m324.269531 447.75c-1.191406.777344-2.496093 1.585938-3.894531 2.394531-12.816406 7.414063-33.589844 14.679688-52.070312-.324219-2.796876-2.253906-5.53125-5.019531-8.179688-8.375 0 0 20.875-32.792968 63.988281-5.902343 4.640625 2.898437 4.722657 9.214843.15625 12.207031zm0 0" fill="#44bfd7"/><path d="m246.519531 450.527344c-9.289062 7.089844-26.539062 14.007812-52.085937-.332032 12.808594-7.394531 33.589844-14.671874 52.085937.332032zm0 0" fill="#60c8dd"/><path d="m320.375 450.144531c-12.816406 7.414063-33.589844 14.679688-52.070312-.324219 9.289062-7.089843 26.539062-14.007812 52.070312.324219zm0 0" fill="#60c8dd"/><path d="m265.464844 430.875c-2.253906 2.785156-5.019532 5.527344-8.375 8.179688 0 0-32.792969-20.875-5.902344-64.003907 2.898438-4.636719 9.214844-4.710937 12.207031-.144531.777344 1.191406 1.585938 2.484375 2.394531 3.882812 7.402344 12.808594 14.679688 33.589844-.324218 52.085938zm0 0" fill="#44bfd7"/><path d="m265.839844 504.730469c-.683594 1.234375-1.429688 2.476562-2.214844 3.738281-2.890625 4.640625-9.21875 4.722656-12.210938.15625-9.027343-13.8125-21.671874-42.027344 6.316407-64.144531 0 0 4.257812 2.703125 8.441406 8.179687 7.089844 9.289063 14.007813 26.539063-.332031 52.070313zm0 0" fill="#44bfd7"/><path d="m265.464844 430.875c-7.101563-9.289062-14.019532-26.550781.324218-52.085938 7.402344 12.808594 14.679688 33.589844-.324218 52.085938zm0 0" fill="#60c8dd"/><path d="m265.839844 504.730469c-7.402344-12.816407-14.671875-33.589844.332031-52.070313 7.089844 9.289063 14.007813 26.539063-.332031 52.070313zm0 0" fill="#60c8dd"/><path d="m277.996094 441.765625c0 7.621094-4.140625 14.269531-10.292969 17.832031-3.023437 1.75-6.542969 2.753906-10.292969 2.753906-11.367187 0-20.59375-9.214843-20.59375-20.585937 0-11.367187 9.226563-20.59375 20.59375-20.59375 3.75 0 7.269532 1.003906 10.292969 2.765625 6.152344 3.550781 10.292969 10.207031 10.292969 17.828125zm0 0" fill="#269ab1"/><path d="m277.996094 441.765625c0 7.621094-4.140625 14.269531-10.292969 17.832031-6.152344-3.5625-10.292969-10.210937-10.292969-17.832031s4.140625-14.277344 10.292969-17.828125c6.152344 3.550781 10.292969 10.207031 10.292969 17.828125zm0 0" fill="#2cb3cd"/><path d="m67.527344 257.335938s-2.703125 4.253906-8.179688 8.4375c-9.289062 7.09375-26.539062 14.011718-52.085937-.328126-1.230469-.683593-2.472657-1.429687-3.738281-2.21875-4.636719-2.886718-4.710938-9.214843-.144532-12.195312 13.804688-9.039062 42.019532-21.683594 64.148438 6.304688zm0 0" fill="#44bfd7"/><path d="m137.097656 263c-1.1875.777344-2.492187 1.585938-3.890625 2.390625-12.820312 7.414063-33.589843 14.683594-52.074219-.320313-2.796874-2.257812-5.53125-5.019531-8.179687-8.375 0 0 20.875-32.792968 63.992187-5.902343 4.636719 2.898437 4.71875 9.214843.152344 12.207031zm0 0" fill="#44bfd7"/><path d="m59.347656 265.773438c-9.289062 7.09375-26.539062 14.011718-52.085937-.328126 12.808593-7.394531 33.589843-14.675781 52.085937.328126zm0 0" fill="#60c8dd"/><path d="m133.207031 265.390625c-12.820312 7.414063-33.589843 14.683594-52.074219-.320313 9.289063-7.09375 26.539063-14.007812 52.074219.320313zm0 0" fill="#60c8dd"/><path d="m78.296875 246.121094c-2.257813 2.785156-5.023437 5.53125-8.378906 8.179687 0 0-32.792969-20.875-5.902344-64 2.898437-4.640625 9.214844-4.710937 12.207031-.144531.777344 1.191406 1.585938 2.484375 2.394532 3.882812 7.402343 12.808594 14.683593 33.589844-.320313 52.082032zm0 0" fill="#44bfd7"/><path d="m78.667969 319.980469c-.683594 1.234375-1.429688 2.476562-2.214844 3.738281-2.890625 4.640625-9.214844 4.722656-12.207031.15625-9.03125-13.8125-21.675782-42.03125 6.316406-64.148438 0 0 4.253906 2.703126 8.4375 8.179688 7.09375 9.289062 14.007812 26.539062-.332031 52.074219zm0 0" fill="#44bfd7"/><path d="m78.296875 246.121094c-7.105469-9.289063-14.019531-26.546875.320313-52.082032 7.402343 12.808594 14.683593 33.589844-.320313 52.082032zm0 0" fill="#60c8dd"/><path d="m78.667969 319.980469c-7.402344-12.816407-14.671875-33.589844.332031-52.074219 7.09375 9.289062 14.007812 26.539062-.332031 52.074219zm0 0" fill="#60c8dd"/><path d="m90.824219 257.015625c0 7.621094-4.140625 14.269531-10.292969 17.828125-3.023438 1.75-6.542969 2.757812-10.292969 2.757812-11.367187 0-20.59375-9.21875-20.59375-20.585937 0-11.371094 9.226563-20.597656 20.59375-20.597656 3.75 0 7.269531 1.007812 10.292969 2.765625 6.152344 3.550781 10.292969 10.210937 10.292969 17.832031zm0 0" fill="#269ab1"/><path d="m90.824219 257.015625c0 7.621094-4.140625 14.269531-10.292969 17.828125-6.148438-3.558594-10.292969-10.207031-10.292969-17.828125s4.144531-14.28125 10.292969-17.832031c6.152344 3.550781 10.292969 10.210937 10.292969 17.832031zm0 0" fill="#2cb3cd"/><path d="m439.054688 255.265625s-2.703126 4.253906-8.179688 8.4375c-9.289062 7.09375-26.539062 14.007813-52.085938-.332031-1.230468-.683594-2.472656-1.429688-3.738281-2.214844-4.636719-2.890625-4.710937-9.214844-.144531-12.199219 13.804688-9.039062 42.019531-21.679687 64.148438 6.308594zm0 0" fill="#44bfd7"/><path d="m508.625 260.929688c-1.191406.773437-2.496094 1.582031-3.894531 2.390624-12.816407 7.414063-33.589844 14.683594-52.070313-.320312-2.796875-2.257812-5.53125-5.023438-8.183594-8.378906 0 0 20.875-32.792969 63.992188-5.902344 4.640625 2.902344 4.722656 9.214844.15625 12.210938zm0 0" fill="#44bfd7"/><path d="m430.875 263.703125c-9.289062 7.09375-26.539062 14.007813-52.085938-.332031 12.808594-7.394532 33.589844-14.671875 52.085938.332031zm0 0" fill="#60c8dd"/><path d="m504.730469 263.320312c-12.816407 7.414063-33.589844 14.683594-52.070313-.320312 9.289063-7.09375 26.539063-14.011719 52.070313.320312zm0 0" fill="#60c8dd"/><path d="m449.824219 244.050781c-2.257813 2.785157-5.023438 5.527344-8.378907 8.179688 0 0-32.792968-20.875-5.902343-64 2.898437-4.640625 9.214843-4.714844 12.207031-.148438.777344 1.191407 1.585938 2.488281 2.394531 3.882813 7.402344 12.808594 14.679688 33.59375-.320312 52.085937zm0 0" fill="#44bfd7"/><path d="m450.195312 317.910156c-.683593 1.230469-1.429687 2.472656-2.214843 3.738282-2.890625 4.636718-9.214844 4.71875-12.210938.152343-9.027343-13.8125-21.671875-42.027343 6.316407-64.144531 0 0 4.257812 2.703125 8.441406 8.179688 7.089844 9.289062 14.007812 26.539062-.332032 52.074218zm0 0" fill="#44bfd7"/><path d="m449.824219 244.050781c-7.105469-9.289062-14.023438-26.550781.320312-52.085937 7.402344 12.808594 14.679688 33.59375-.320312 52.085937zm0 0" fill="#60c8dd"/><path d="m450.195312 317.910156c-7.402343-12.820312-14.671874-33.589844.332032-52.074218 7.089844 9.289062 14.007812 26.539062-.332032 52.074218zm0 0" fill="#60c8dd"/><path d="m462.351562 254.941406c0 7.621094-4.140624 14.269532-10.292968 17.832032-3.023438 1.75-6.542969 2.753906-10.292969 2.753906-11.367187 0-20.59375-9.214844-20.59375-20.585938 0-11.367187 9.226563-20.59375 20.59375-20.59375 3.75 0 7.269531 1.003906 10.292969 2.765625 6.152344 3.550781 10.292968 10.207031 10.292968 17.828125zm0 0" fill="#269ab1"/><path d="m462.351562 254.941406c0 7.621094-4.140624 14.269532-10.292968 17.832032-6.148438-3.5625-10.292969-10.210938-10.292969-17.832032s4.144531-14.277344 10.292969-17.828125c6.152344 3.550781 10.292968 10.207031 10.292968 17.828125zm0 0" fill="#2cb3cd"/><path d="m121.753906 127.992188s1.101563 4.921874.183594 11.753906c-1.550781 11.582031-8.859375 28.671875-37.0625 36.59375-1.355469.386718-2.757812.738281-4.210938 1.078125-5.320312 1.234375-9.847656-3.1875-8.726562-8.523438 3.367188-16.152343 14.378906-45.046875 49.816406-40.902343zm0 0" fill="#44bfd7"/><path d="m174.957031 82.804688c-.292969 1.390624-.644531 2.882812-1.0625 4.441406-3.824219 14.308594-13.371093 34.136718-37.046875 36.597656-3.574218.378906-7.460937.355469-11.710937-.140625 0 0-8.425781-37.949219 41.078125-49.421875 5.328125-1.230469 9.855468 3.175781 8.742187 8.523438zm0 0" fill="#44bfd7"/><path d="m121.9375 139.746094c-1.550781 11.582031-8.859375 28.671875-37.0625 36.59375 3.828125-14.285156 13.378906-34.125 37.0625-36.59375zm0 0" fill="#60c8dd"/><path d="m173.894531 87.246094c-3.824219 14.308594-13.371093 34.136718-37.046875 36.597656 1.550782-11.585938 8.859375-28.671875 37.046875-36.597656zm0 0" fill="#60c8dd"/><path d="m121.441406 112.449219c.375 3.566406.359375 7.460937-.140625 11.707031 0 0-37.945312 8.429688-49.429687-41.082031-1.230469-5.328125 3.1875-9.847657 8.53125-8.734375 1.390625.292968 2.878906.636718 4.4375 1.054687 14.292968 3.820313 34.132812 13.371094 36.601562 37.054688zm0 0" fill="#44bfd7"/><path d="m173.929688 164.410156c.390624 1.355469.738281 2.761719 1.078124 4.210938 1.238282 5.324218-3.179687 9.855468-8.523437 8.742187-16.152344-3.382812-45.042969-14.394531-40.890625-49.824219 0 0 4.917969-1.097656 11.75-.183593 11.582031 1.554687 28.671875 8.859375 36.585938 37.054687zm0 0" fill="#44bfd7"/><path d="m121.441406 112.449219c-11.589844-1.542969-28.6875-8.859375-36.601562-37.054688 14.292968 3.820313 34.132812 13.371094 36.601562 37.054688zm0 0" fill="#60c8dd"/><path d="m173.929688 164.410156c-14.300782-3.828125-34.125-13.375-36.585938-37.054687 11.582031 1.554687 28.671875 8.859375 36.585938 37.054687zm0 0" fill="#60c8dd"/><path d="m138.003906 111.292969c5.386719 5.390625 7.160156 13.019531 5.328125 19.886719-.898437 3.375-2.679687 6.574218-5.328125 9.226562-8.039062 8.039062-21.082031 8.046875-29.121094.007812-8.039062-8.042968-8.039062-21.089843 0-29.128906 2.652344-2.648437 5.851563-4.429687 9.234376-5.324218 6.859374-1.835938 14.496093-.058594 19.886718 5.332031zm0 0" fill="#269ab1"/><path d="m138.003906 111.292969c5.386719 5.390625 7.160156 13.019531 5.328125 19.886719-6.867187 1.828124-14.496093.058593-19.882812-5.332032-5.390625-5.386718-7.171875-13.023437-5.332031-19.886718 6.859374-1.835938 14.496093-.058594 19.886718 5.332031zm0 0" fill="#2cb3cd"/><path d="m386.664062 388.503906s1.097657 4.921875.183594 11.75c-1.554687 11.585938-8.859375 28.671875-37.066406 36.597656-1.351562.386719-2.757812.738282-4.207031 1.074219-5.324219 1.238281-9.851563-3.183593-8.730469-8.523437 3.371094-16.152344 14.382812-45.042969 49.820312-40.898438zm0 0" fill="#44bfd7"/><path d="m439.863281 343.316406c-.292969 1.390625-.644531 2.882813-1.0625 4.441406-3.820312 14.308594-13.371093 34.136719-37.046875 36.59375-3.574218.382813-7.460937.359376-11.707031-.136718 0 0-8.429687-37.949219 41.074219-49.421875 5.328125-1.230469 9.855468 3.175781 8.742187 8.523437zm0 0" fill="#44bfd7"/><path d="m386.847656 400.253906c-1.554687 11.585938-8.859375 28.671875-37.066406 36.597656 3.832031-14.285156 13.378906-34.128906 37.066406-36.597656zm0 0" fill="#60c8dd"/><path d="m438.800781 347.757812c-3.820312 14.308594-13.371093 34.136719-37.046875 36.59375 1.550782-11.582031 8.859375-28.671874 37.046875-36.59375zm0 0" fill="#60c8dd"/><path d="m386.347656 372.960938c.375 3.566406.359375 7.460937-.136718 11.707031 0 0-37.949219 8.425781-49.429688-41.082031-1.230469-5.332032 3.183594-9.847657 8.527344-8.734376 1.390625.292969 2.878906.636719 4.4375 1.054688 14.292968 3.820312 34.132812 13.367188 36.601562 37.054688zm0 0" fill="#44bfd7"/><path d="m438.835938 424.921875c.390624 1.355469.742187 2.761719 1.078124 4.210937 1.238282 5.324219-3.179687 9.855469-8.523437 8.742188-16.152344-3.382812-45.042969-14.394531-40.890625-49.824219 0 0 4.917969-1.097656 11.75-.183593 11.585938 1.550781 28.671875 8.859374 36.585938 37.054687zm0 0" fill="#44bfd7"/><path d="m386.347656 372.960938c-11.589844-1.546876-28.6875-8.859376-36.601562-37.054688 14.292968 3.820312 34.132812 13.367188 36.601562 37.054688zm0 0" fill="#60c8dd"/><path d="m438.835938 424.921875c-14.296876-3.828125-34.125-13.375-36.585938-37.054687 11.585938 1.550781 28.671875 8.859374 36.585938 37.054687zm0 0" fill="#60c8dd"/><path d="m402.910156 371.804688c5.386719 5.386718 7.160156 13.015624 5.328125 19.886718-.898437 3.375-2.679687 6.574219-5.328125 9.222656-8.039062 8.039063-21.082031 8.046876-29.121094.007813-8.039062-8.039063-8.039062-21.085937 0-29.125 2.652344-2.652344 5.851563-4.429687 9.234376-5.324219 6.859374-1.835937 14.496093-.058594 19.886718 5.332032zm0 0" fill="#269ab1"/><path d="m402.910156 371.804688c5.386719 5.386718 7.160156 13.015624 5.328125 19.886718-6.867187 1.828125-14.496093.058594-19.882812-5.332031-5.390625-5.390625-7.171875-13.023437-5.332031-19.886719 6.859374-1.835937 14.496093-.058594 19.886718 5.332032zm0 0" fill="#2cb3cd"/><path d="m123.675781 390.214844s1.097657 4.921875.183594 11.75c-1.554687 11.585937-8.859375 28.671875-37.066406 36.59375-1.351563.390625-2.757813.742187-4.207031 1.078125-5.324219 1.238281-9.851563-3.183594-8.730469-8.523438 3.371093-16.148437 14.382812-45.042969 49.820312-40.898437zm0 0" fill="#44bfd7"/><path d="m176.875 345.027344c-.292969 1.390625-.644531 2.882812-1.0625 4.441406-3.820312 14.308594-13.371094 34.136719-37.046875 36.59375-3.574219.382812-7.460937.359375-11.707031-.136719 0 0-8.429688-37.949219 41.074218-49.421875 5.328126-1.230468 9.855469 3.175782 8.742188 8.523438zm0 0" fill="#44bfd7"/><path d="m123.859375 401.96875c-1.554687 11.582031-8.859375 28.671875-37.066406 36.59375 3.832031-14.285156 13.378906-34.128906 37.066406-36.59375zm0 0" fill="#60c8dd"/><path d="m175.8125 349.46875c-3.820312 14.308594-13.371094 34.136719-37.046875 36.59375 1.550781-11.582031 8.859375-28.671875 37.046875-36.59375zm0 0" fill="#60c8dd"/><path d="m123.359375 374.671875c.375 3.566406.359375 7.460937-.136719 11.707031 0 0-37.949218 8.429688-49.429687-41.082031-1.230469-5.332031 3.183593-9.847656 8.527343-8.734375 1.390626.292969 2.878907.636719 4.4375 1.054688 14.292969 3.820312 34.132813 13.367187 36.601563 37.054687zm0 0" fill="#44bfd7"/><path d="m175.847656 426.632812c.390625 1.355469.742188 2.761719 1.078125 4.210938 1.238281 5.324219-3.179687 9.855469-8.523437 8.742188-16.152344-3.382813-45.042969-14.394532-40.890625-49.824219 0 0 4.917969-1.097657 11.75-.183594 11.585937 1.554687 28.671875 8.859375 36.585937 37.054687zm0 0" fill="#44bfd7"/><path d="m123.359375 374.671875c-11.589844-1.546875-28.6875-8.859375-36.601563-37.054687 14.292969 3.820312 34.132813 13.367187 36.601563 37.054687zm0 0" fill="#60c8dd"/><path d="m175.847656 426.632812c-14.296875-3.828124-34.125-13.375-36.585937-37.054687 11.585937 1.554687 28.671875 8.859375 36.585937 37.054687zm0 0" fill="#60c8dd"/><path d="m139.921875 373.515625c5.386719 5.386719 7.160156 13.015625 5.332031 19.882813-.902344 3.378906-2.679687 6.578124-5.332031 9.226562-8.039063 8.039062-21.078125 8.046875-29.121094.007812-8.039062-8.039062-8.039062-21.085937 0-29.125 2.652344-2.652343 5.851563-4.429687 9.234375-5.324218 6.859375-1.835938 14.496094-.058594 19.886719 5.332031zm0 0" fill="#269ab1"/><path d="m139.921875 373.515625c5.386719 5.386719 7.160156 13.015625 5.332031 19.882813-6.871094 1.832031-14.5.0625-19.886718-5.328126-5.390626-5.390624-7.167969-13.027343-5.332032-19.886718 6.859375-1.835938 14.496094-.058594 19.886719 5.332031zm0 0" fill="#2cb3cd"/><path d="m384.917969 126.042969s1.097656 4.917969.183593 11.75c-1.550781 11.582031-8.859374 28.671875-37.0625 36.59375-1.355468.390625-2.761718.738281-4.210937 1.078125-5.324219 1.238281-9.847656-3.183594-8.726563-8.523438 3.367188-16.152344 14.378907-45.042968 49.816407-40.898437zm0 0" fill="#44bfd7"/><path d="m438.117188 80.851562c-.292969 1.390626-.644532 2.886719-1.0625 4.445313-3.820313 14.304687-13.367188 34.132813-37.046876 36.59375-3.574218.378906-7.460937.359375-11.707031-.140625 0 0-8.429687-37.945312 41.074219-49.421875 5.332031-1.230469 9.855469 3.179687 8.742188 8.523437zm0 0" fill="#44bfd7"/><path d="m385.101562 137.792969c-1.550781 11.582031-8.859374 28.671875-37.0625 36.59375 3.828126-14.285157 13.375-34.125 37.0625-36.59375zm0 0" fill="#60c8dd"/><path d="m437.054688 85.296875c-3.820313 14.304687-13.367188 34.132813-37.046876 36.59375 1.550782-11.582031 8.859376-28.671875 37.046876-36.59375zm0 0" fill="#60c8dd"/><path d="m384.601562 110.496094c.375 3.566406.359376 7.460937-.136718 11.710937 0 0-37.949219 8.425781-49.429688-41.085937-1.230468-5.328125 3.183594-9.84375 8.53125-8.734375 1.390625.292969 2.875.636719 4.433594 1.054687 14.292969 3.824219 34.136719 13.371094 36.601562 37.054688zm0 0" fill="#44bfd7"/><path d="m437.09375 162.460938c.386719 1.355468.738281 2.761718 1.074219 4.210937 1.238281 5.320313-3.175781 9.855469-8.519531 8.742187-16.152344-3.382812-45.046876-14.394531-40.894532-49.824218 0 0 4.921875-1.101563 11.75-.183594 11.585938 1.550781 28.671875 8.859375 36.589844 37.054688zm0 0" fill="#44bfd7"/><path d="m384.601562 110.496094c-11.589843-1.542969-28.6875-8.859375-36.601562-37.054688 14.292969 3.824219 34.136719 13.371094 36.601562 37.054688zm0 0" fill="#60c8dd"/><path d="m437.09375 162.460938c-14.300781-3.828126-34.128906-13.378907-36.589844-37.054688 11.585938 1.550781 28.671875 8.859375 36.589844 37.054688zm0 0" fill="#60c8dd"/><path d="m401.164062 109.339844c5.386719 5.390625 7.160157 13.019531 5.332032 19.886718-.902344 3.375-2.679688 6.574219-5.332032 9.226563-8.039062 8.039063-21.078124 8.046875-29.117187.007813-8.042969-8.039063-8.042969-21.085938 0-29.125 2.648437-2.652344 5.847656-4.429688 9.230469-5.324219 6.863281-1.839844 14.5-.058594 19.886718 5.328125zm0 0" fill="#269ab1"/><path d="m401.164062 109.339844c5.386719 5.390625 7.160157 13.019531 5.332032 19.886718-6.871094 1.832032-14.5.058594-19.886719-5.328124-5.390625-5.390626-7.167969-13.027344-5.332031-19.886719 6.863281-1.839844 14.5-.058594 19.886718 5.328125zm0 0" fill="#2cb3cd"/></svg>