<svg height="511pt" viewBox="0 0 511.99971 511" width="511pt" xmlns="http://www.w3.org/2000/svg"><path d="m489.074219 253.386719c0-35.671875-27.46875-64.753907-62.191407-67.613281-3.492187-.289063-5.246093-4.332032-3.078124-7.085938 21.132812-26.863281 18.835937-65.523438-5.441407-89.800781-25.226562-25.226563-65.214843-26.359375-91.78125-3.835938-2.675781 2.269531-6.773437.648438-7.191406-2.832031-4.050781-33.960938-33.035156-59.652344-67.34375-59.652344-35.671875 0-64.753906 27.46875-67.613281 62.1875-.289063 3.496094-4.332032 5.246094-7.089844 3.078125-26.808594-21.09375-65.464844-18.890625-89.796875 5.441407-25.230469 25.230468-26.355469 65.214843-3.835937 91.785156 2.265624 2.675781.648437 6.769531-2.835938 7.1875-33.871094 4.042968-59.652344 32.933594-59.652344 67.34375 0 35.671875 27.472656 64.753906 62.191406 67.613281 3.496094.289063 5.246094 4.332031 3.078126 7.085937-21.132813 26.863282-18.835938 65.527344 5.441406 89.800782 25.226562 25.226562 65.214844 26.359375 91.785156 3.835937 2.671875-2.265625 6.773438-.648437 7.1875 2.835938 4.050781 33.957031 33.035156 59.652343 67.34375 59.652343 35.671875 0 64.753906-27.472656 67.613281-62.191406.289063-3.496094 4.332031-5.25 7.085938-3.082031 26.925781 21.191406 65.589843 18.777344 89.800781-5.4375 25.230469-25.230469 26.355469-65.214844 3.835938-91.785156-2.265626-2.671875-.648438-6.769531 2.835937-7.1875 33.875-4.042969 59.652344-32.933594 59.652344-67.34375zm0 0" fill="#def4f8"/><path d="m258.253906 469.730469c-23.871094 0-43.996094-17.804688-46.8125-41.421875-1.503906-12.605469-12.210937-22.113282-24.902344-22.113282-5.910156 0-11.664062 2.117188-16.191406 5.957032-8.46875 7.179687-19.28125 11.132812-30.449218 11.132812-12.589844 0-24.429688-4.910156-33.339844-13.816406-16.878906-16.878906-18.515625-43.703125-3.808594-62.390625 5.71875-7.273437 6.976562-17.050781 3.285156-25.527344-3.691406-8.464843-11.707031-14.199219-20.921875-14.957031-24.226562-1.996094-43.207031-22.644531-43.207031-47.003906 0-23.867188 17.808594-43.992188 41.425781-46.8125 9.183594-1.09375 16.988281-7.121094 20.371094-15.722656 3.378906-8.597657 1.765625-18.316407-4.214844-25.371094-15.71875-18.546875-14.539062-46.5625 2.683594-63.789063 8.910156-8.910156 20.773437-13.816406 33.398437-13.816406 10.644532 0 20.671876 3.460937 28.992188 10.007813 4.410156 3.46875 9.914062 5.378906 15.5 5.378906 13.164062-.003906 23.90625-9.894532 24.984375-23.015625 1.996094-24.226563 22.644531-43.207031 47.003906-43.207031 23.867188 0 43.992188 17.808593 46.808594 41.421874 1.503906 12.609376 12.210937 22.117188 24.90625 22.113282 5.910156 0 11.660156-2.113282 16.191406-5.953125 8.464844-7.179688 19.28125-11.132813 30.449219-11.132813 12.589844 0 24.429688 4.90625 33.339844 13.816406 16.875 16.878907 18.515625 43.699219 3.808594 62.390626-5.71875 7.269531-6.976563 17.050781-3.285157 25.523437 3.691407 8.46875 11.707031 14.203125 20.917969 14.960937 24.230469 1.996094 43.207031 22.640626 43.207031 47.003907 0 23.867187-17.808593 43.988281-41.421875 46.808593-9.183594 1.097657-16.992187 7.121094-20.371094 15.722657-3.378906 8.597656-1.765624 18.320312 4.210938 25.371093 15.722656 18.546876 14.542969 46.566407-2.679688 63.792969-8.910156 8.90625-20.777343 13.8125-33.421874 13.8125 0 0 0 0-.003907 0-10.632812 0-20.648437-3.460937-28.964843-10.003906-4.410157-3.46875-9.914063-5.382813-15.496094-5.382813-13.167969 0-23.910156 9.894532-24.988282 23.015626-2 24.230468-22.644531 43.207031-47.003906 43.207031zm0 0" fill="#c2eaf2"/><path d="m78.242188 84.722656s1.714843 7.683594.285156 18.351563c-2.425782 18.09375-13.835938 44.789062-57.890625 57.160156-2.117188.605469-4.3125 1.15625-6.578125 1.683594-8.3125 1.929687-15.378906-4.976563-13.628906-13.3125 5.257812-25.226563 22.457031-70.359375 77.8125-63.882813zm0 0" fill="#44bfd7"/><path d="m161.335938 14.136719c-.457032 2.171875-1.003907 4.503906-1.65625 6.941406-5.96875 22.347656-20.882813 53.316406-57.871094 57.160156-5.578125.59375-11.652344.558594-18.285156-.21875 0 0-13.164063-59.273437 64.160156-77.195312 8.324218-1.921875 15.390625 4.960937 13.652344 13.3125zm0 0" fill="#44bfd7"/><path d="m78.527344 103.078125c-2.425782 18.089844-13.839844 44.785156-57.890625 57.15625 5.980469-22.308594 20.894531-53.304687 57.890625-57.15625zm0 0" fill="#60c8dd"/><path d="m159.679688 21.078125c-5.96875 22.34375-20.882813 53.316406-57.871094 57.160156 2.425781-18.09375 13.839844-44.785156 57.871094-57.160156zm0 0" fill="#60c8dd"/><path d="m77.75 60.441406c.582031 5.570313.558594 11.65625-.21875 18.289063 0 0-59.273438 13.160156-77.207031-64.171875-1.921875-8.324219 4.976562-15.382813 13.324219-13.644532 2.171874.457032 4.492187.996094 6.929687 1.648438 22.324219 5.96875 53.316406 20.882812 57.171875 57.878906zm0 0" fill="#44bfd7"/><path d="m159.734375 141.605469c.609375 2.117187 1.15625 4.3125 1.683594 6.578125 1.933593 8.3125-4.964844 15.390625-13.3125 13.652344-25.230469-5.28125-70.359375-22.484376-63.875-77.824219 0 0 7.6875-1.714844 18.355469-.285157 18.09375 2.425782 44.789062 13.839844 57.148437 57.878907zm0 0" fill="#44bfd7"/><path d="m77.75 60.441406c-18.105469-2.414062-44.808594-13.839844-57.171875-57.878906 22.324219 5.96875 53.316406 20.882812 57.171875 57.878906zm0 0" fill="#60c8dd"/><path d="m159.734375 141.605469c-22.332031-5.980469-53.304687-20.894531-57.144531-57.878907 18.089844 2.425782 44.785156 13.839844 57.144531 57.878907zm0 0" fill="#60c8dd"/><path d="m428.496094 84.722656s1.714844 7.683594.285156 18.351563c-2.425781 18.09375-13.835938 44.789062-57.890625 57.160156-2.117187.605469-4.3125 1.15625-6.578125 1.683594-8.3125 1.929687-15.378906-4.976563-13.628906-13.3125 5.257812-25.226563 22.460937-70.359375 77.8125-63.882813zm0 0" fill="#44bfd7"/><path d="m511.59375 14.136719c-.457031 2.171875-1.007812 4.503906-1.660156 6.941406-5.96875 22.347656-20.882813 53.316406-57.867188 57.160156-5.582031.59375-11.65625.558594-18.289062-.21875 0 0-13.164063-59.273437 64.160156-77.195312 8.324219-1.921875 15.394531 4.960937 13.65625 13.3125zm0 0" fill="#44bfd7"/><path d="m428.78125 103.078125c-2.425781 18.089844-13.835938 44.785156-57.890625 57.15625 5.980469-22.308594 20.894531-53.304687 57.890625-57.15625zm0 0" fill="#60c8dd"/><path d="m509.933594 21.078125c-5.96875 22.34375-20.882813 53.316406-57.867188 57.160156 2.421875-18.09375 13.835938-44.785156 57.867188-57.160156zm0 0" fill="#60c8dd"/><path d="m428.003906 60.441406c.582032 5.570313.558594 11.65625-.21875 18.289063 0 0-59.273437 13.160156-77.207031-64.171875-1.921875-8.324219 4.976563-15.382813 13.324219-13.644532 2.171875.457032 4.496094.996094 6.929687 1.648438 22.324219 5.96875 53.316407 20.882812 57.171875 57.878906zm0 0" fill="#44bfd7"/><path d="m509.992188 141.605469c.605468 2.117187 1.152343 4.3125 1.679687 6.578125 1.933594 8.3125-4.964844 15.390625-13.3125 13.652344-25.230469-5.28125-70.355469-22.484376-63.871094-77.824219 0 0 7.683594-1.714844 18.351563-.285157 18.09375 2.425782 44.789062 13.839844 57.152344 57.878907zm0 0" fill="#44bfd7"/><path d="m428.003906 60.441406c-18.105468-2.414062-44.808594-13.839844-57.171875-57.878906 22.324219 5.96875 53.316407 20.882812 57.171875 57.878906zm0 0" fill="#60c8dd"/><path d="m509.992188 141.605469c-22.335938-5.980469-53.304688-20.894531-57.148438-57.878907 18.089844 2.425782 44.785156 13.839844 57.148438 57.878907zm0 0" fill="#60c8dd"/><path d="m78.242188 434.871094s1.714843 7.683594.285156 18.355468c-2.425782 18.089844-13.835938 44.785157-57.890625 57.15625-2.117188.609376-4.3125 1.15625-6.578125 1.683594-8.3125 1.933594-15.378906-4.976562-13.628906-13.3125 5.257812-25.230468 22.457031-70.355468 77.8125-63.882812zm0 0" fill="#44bfd7"/><path d="m161.335938 364.285156c-.457032 2.171875-1.003907 4.503906-1.65625 6.941406-5.96875 22.347657-20.882813 53.316407-57.871094 57.160157-5.578125.59375-11.652344.558593-18.285156-.21875 0 0-13.164063-59.273438 64.160156-77.195313 8.324218-1.921875 15.390625 4.964844 13.652344 13.3125zm0 0" fill="#44bfd7"/><path d="m91.890625 80.617188 43.695313-43.699219c3.027343-3.027344 3.027343-7.9375 0-10.964844-3.027344-3.027344-7.9375-3.027344-10.964844 0l-44.398438 44.398437-43.695312-43.695312c-3.03125-3.03125-7.941406-3.03125-10.96875 0-3.027344 3.027344-3.027344 7.9375 0 10.964844l44.398437 44.398437-43.695312 43.695313c-3.027344 3.027344-3.027344 7.9375 0 10.964844 1.515625 1.515624 3.5 2.273437 5.484375 2.273437s3.96875-.757813 5.480468-2.273437l44.398438-44.394532 43.695312 43.695313c1.515626 1.511719 3.5 2.269531 5.484376 2.269531 1.984374 0 3.96875-.753906 5.484374-2.269531 3.027344-3.027344 3.027344-7.9375 0-10.964844zm0 0" fill="#def4f8"/><path d="m486.492188 125.683594-44.398438-44.398438 43.695312-43.695312c3.03125-3.03125 3.03125-7.941406 0-10.96875-3.027343-3.027344-7.9375-3.027344-10.964843 0l-44.398438 44.398437-43.695312-43.695312c-3.027344-3.027344-7.9375-3.027344-10.964844 0-3.03125 3.027343-3.03125 7.9375 0 10.964843l44.394531 44.398438-43.695312 43.699219c-3.027344 3.027343-3.027344 7.9375 0 10.964843 1.515625 1.515626 3.5 2.269532 5.484375 2.269532s3.96875-.753906 5.484375-2.269532l44.398437-44.398437 43.695313 43.695313c1.511718 1.515624 3.496094 2.273437 5.480468 2.273437 1.984376 0 3.972657-.757813 5.484376-2.273437 3.027343-3.027344 3.027343-7.9375 0-10.964844zm0 0" fill="#def4f8"/><path d="m78.527344 453.226562c-2.425782 18.09375-13.839844 44.785157-57.890625 57.160157 5.980469-22.3125 20.894531-53.308594 57.890625-57.160157zm0 0" fill="#60c8dd"/><path d="m159.679688 371.226562c-5.96875 22.347657-20.882813 53.316407-57.871094 57.160157 2.425781-18.09375 13.839844-44.785157 57.871094-57.160157zm0 0" fill="#60c8dd"/><path d="m77.75 410.589844c.582031 5.570312.558594 11.65625-.21875 18.289062 0 0-59.273438 13.164063-77.207031-64.171875-1.921875-8.324219 4.976562-15.378906 13.324219-13.640625 2.171874.457032 4.496093.992188 6.929687 1.644532 22.324219 5.96875 53.316406 20.882812 57.171875 57.878906zm0 0" fill="#44bfd7"/><path d="m159.734375 491.753906c.609375 2.117188 1.15625 4.3125 1.683594 6.578125 1.933593 8.3125-4.964844 15.394531-13.3125 13.652344-25.230469-5.28125-70.359375-22.480469-63.875-77.824219 0 0 7.6875-1.714844 18.355469-.285156 18.09375 2.425781 44.789062 13.839844 57.148437 57.878906zm0 0" fill="#44bfd7"/><path d="m77.75 410.589844c-18.105469-2.410156-44.808594-13.835938-57.171875-57.878906 22.324219 5.96875 53.316406 20.882812 57.171875 57.878906zm0 0" fill="#60c8dd"/><path d="m159.734375 491.753906c-22.332031-5.980468-53.304687-20.894531-57.144531-57.878906 18.089844 2.425781 44.785156 13.839844 57.144531 57.878906zm0 0" fill="#60c8dd"/><path d="m91.890625 432.269531 43.695313-43.695312c3.027343-3.027344 3.027343-7.9375 0-10.964844-3.027344-3.03125-7.9375-3.03125-10.964844 0l-44.398438 44.398437-43.695312-43.699218c-3.03125-3.027344-7.941406-3.027344-10.96875 0-3.027344 3.03125-3.027344 7.941406 0 10.96875l44.398437 44.398437-43.695312 43.695313c-3.027344 3.027344-3.027344 7.9375 0 10.964844 1.515625 1.515624 3.5 2.273437 5.484375 2.273437s3.96875-.757813 5.480468-2.273437l44.398438-44.398438 43.695312 43.699219c1.515626 1.511719 3.5 2.269531 5.484376 2.269531 1.984374 0 3.96875-.757812 5.484374-2.269531 3.027344-3.03125 3.027344-7.941407 0-10.96875zm0 0" fill="#def4f8"/><path d="m103.617188 408.785156c8.417968 8.417969 11.183593 20.332032 8.328124 31.058594-1.410156 5.273438-4.1875 10.269531-8.328124 14.410156-12.558594 12.558594-32.925782 12.570313-45.480469.011719-12.558594-12.558594-12.558594-32.9375 0-45.492187 4.136719-4.140626 9.136719-6.921876 14.417969-8.316407 10.71875-2.867187 22.648437-.089843 31.0625 8.328125zm0 0" fill="#269ab1"/><path d="m103.617188 408.785156c8.417968 8.417969 11.183593 20.332032 8.328124 31.058594-10.730468 2.859375-22.644531.09375-31.0625-8.324219-8.417968-8.417969-11.195312-20.34375-8.328124-31.0625 10.71875-2.867187 22.648437-.089843 31.0625 8.328125zm0 0" fill="#2cb3cd"/><path d="m428.496094 434.871094s1.714844 7.683594.285156 18.355468c-2.425781 18.089844-13.835938 44.785157-57.890625 57.15625-2.117187.609376-4.3125 1.15625-6.578125 1.683594-8.3125 1.933594-15.378906-4.976562-13.628906-13.3125 5.257812-25.230468 22.460937-70.355468 77.8125-63.882812zm0 0" fill="#44bfd7"/><path d="m511.59375 364.285156c-.457031 2.171875-1.007812 4.503906-1.660156 6.941406-5.96875 22.347657-20.882813 53.316407-57.867188 57.160157-5.582031.59375-11.65625.558593-18.289062-.21875 0 0-13.164063-59.273438 64.160156-77.195313 8.324219-1.921875 15.394531 4.964844 13.65625 13.3125zm0 0" fill="#44bfd7"/><path d="m428.78125 453.226562c-2.425781 18.09375-13.835938 44.785157-57.890625 57.160157 5.980469-22.3125 20.894531-53.308594 57.890625-57.160157zm0 0" fill="#60c8dd"/><path d="m509.933594 371.226562c-5.96875 22.347657-20.882813 53.316407-57.867188 57.160157 2.421875-18.09375 13.835938-44.785157 57.867188-57.160157zm0 0" fill="#60c8dd"/><path d="m428.003906 410.589844c.582032 5.570312.558594 11.65625-.21875 18.289062 0 0-59.273437 13.164063-77.207031-64.171875-1.921875-8.324219 4.976563-15.378906 13.324219-13.640625 2.171875.457032 4.496094.992188 6.929687 1.644532 22.324219 5.96875 53.316407 20.882812 57.171875 57.878906zm0 0" fill="#44bfd7"/><path d="m509.992188 491.753906c.605468 2.117188 1.152343 4.3125 1.679687 6.578125 1.933594 8.3125-4.964844 15.394531-13.3125 13.652344-25.230469-5.28125-70.355469-22.480469-63.871094-77.824219 0 0 7.683594-1.714844 18.351563-.285156 18.09375 2.425781 44.789062 13.839844 57.152344 57.878906zm0 0" fill="#44bfd7"/><path d="m428.003906 410.589844c-18.105468-2.410156-44.808594-13.835938-57.171875-57.878906 22.324219 5.96875 53.316407 20.882812 57.171875 57.878906zm0 0" fill="#60c8dd"/><path d="m509.992188 491.753906c-22.335938-5.980468-53.304688-20.894531-57.148438-57.878906 18.089844 2.425781 44.785156 13.839844 57.148438 57.878906zm0 0" fill="#60c8dd"/><path d="m486.492188 477.335938-44.398438-44.394532 43.695312-43.699218c3.03125-3.027344 3.03125-7.9375 0-10.964844-3.027343-3.027344-7.9375-3.027344-10.964843 0l-44.398438 44.398437-43.695312-43.695312c-3.027344-3.03125-7.9375-3.03125-10.964844 0-3.03125 3.027343-3.03125 7.9375 0 10.964843l44.394531 44.398438-43.695312 43.695312c-3.027344 3.027344-3.027344 7.941407 0 10.96875 1.515625 1.511719 3.5 2.269532 5.484375 2.269532s3.96875-.757813 5.484375-2.269532l44.398437-44.398437 43.695313 43.695313c1.511718 1.515624 3.496094 2.273437 5.480468 2.273437 1.984376 0 3.972657-.757813 5.484376-2.273437 3.027343-3.027344 3.027343-7.941407 0-10.96875zm0 0" fill="#def4f8"/><path d="m453.871094 408.785156c8.417968 8.417969 11.1875 20.332032 8.328125 31.058594-1.410157 5.273438-4.1875 10.269531-8.328125 14.410156-12.554688 12.558594-32.921875 12.570313-45.480469.011719s-12.558594-32.9375 0-45.492187c4.140625-4.140626 9.136719-6.921876 14.421875-8.316407 10.714844-2.867187 22.640625-.089843 31.058594 8.328125zm0 0" fill="#269ab1"/><path d="m453.871094 408.785156c8.417968 8.417969 11.1875 20.332032 8.328125 31.058594-10.726563 2.859375-22.644531.09375-31.0625-8.324219s-11.195313-20.34375-8.324219-31.0625c10.714844-2.867187 22.640625-.089843 31.058594 8.328125zm0 0" fill="#2cb3cd"/><path d="m103.617188 58.632812c8.417968 8.417969 11.183593 20.335938 8.328124 31.0625-1.410156 5.273438-4.1875 10.269532-8.328124 14.410157-12.558594 12.558593-32.925782 12.570312-45.480469.011719-12.558594-12.558594-12.558594-32.9375 0-45.492188 4.136719-4.140625 9.136719-6.921875 14.417969-8.316406 10.71875-2.871094 22.648437-.089844 31.0625 8.324218zm0 0" fill="#269ab1"/><path d="m103.617188 58.632812c8.417968 8.417969 11.183593 20.335938 8.328124 31.0625-10.730468 2.859376-22.644531.09375-31.0625-8.324218-8.417968-8.417969-11.195312-20.347656-8.328124-31.0625 10.71875-2.871094 22.648437-.089844 31.0625 8.324218zm0 0" fill="#2cb3cd"/><path d="m453.871094 58.632812c8.417968 8.417969 11.1875 20.335938 8.328125 31.0625-1.410157 5.273438-4.1875 10.269532-8.328125 14.410157-12.554688 12.558593-32.921875 12.570312-45.480469.011719-12.558594-12.558594-12.558594-32.9375 0-45.492188 4.140625-4.140625 9.136719-6.921875 14.421875-8.316406 10.714844-2.871094 22.640625-.089844 31.058594 8.324218zm0 0" fill="#269ab1"/><path d="m453.871094 58.632812c8.417968 8.417969 11.1875 20.335938 8.328125 31.0625-10.726563 2.859376-22.644531.09375-31.0625-8.324218-8.417969-8.417969-11.195313-20.347656-8.324219-31.0625 10.714844-2.871094 22.640625-.089844 31.058594 8.324218zm0 0" fill="#2cb3cd"/></svg>