<svg height="512pt" viewBox="0 -157 512.0004 512" width="512pt" xmlns="http://www.w3.org/2000/svg"><path d="m186.683594 91.015625c-34.234375 4.203125-46.894532 47.421875-22.148438 66.753906 5.789063 4.523438 12.742188 6.960938 19.960938 7.078125 16.777344 1.679688 25.410156-19.695312 12.09375-30.097656-9.027344-7.054688-22.363282-3.253906-26.273438 7.570312-9.238281-12.503906-.53125-34.078124 18.199219-36.378906 8.746094-1.074218 17.378906 1.320313 24.320313 6.742188 26.105468 20.394531 10.679687 70.414062-31.929688 70.414062-27.734375 0-51.828125-20.742187-55.296875-48.957031-10.050781-81.824219 81.246094-80.351563 95.636719-87.222656-1.363282-8.101563-9.234375-13.410157-17.253906-11.632813l-20.003907 4.421875.011719.042969c-31.5625 4.648438-56.828125 25.96875-67.898438 53.871094 3.269532-17 .21875-35.230469-9.992187-50.820313-2.277344-3.476562-6.9375-4.449219-10.410156-2.171875-3.472657 2.277344-4.445313 6.933594-2.171875 10.410156 25.140625 38.378907-7.359375 88.90625-46.914063 80.65625-19.113281-3.980468-35.09375-21.75-30.890625-41.902343 5.339844-25.621094 34.714844-31.820313 46.898438-13.21875 7.472656 11.40625-.660156 26.109375-11.546875 26.5 2.691406-7.644531-2.035157-15.628907-9.691407-17.222657-7.097656-1.480468-14.054687 3.074219-15.535156 10.175782-2.941406 14.109375 20.71875 30.160156 39.914063 17.589844 15.085937-9.882813 19.320312-30.195313 9.441406-45.28125-11.785156-17.992188-36.007813-23.039063-54-11.257813-21.667969 14.195313-27.722656 43.222656-13.527344 64.894531 24.9375 38.070313 83.832031 33.925782 104.234375-14.472656-16.894531 79.578125 77.199219 118.355469 116.390625 68.191406 9.558594-12.238281 13.78125-27.464844 11.886719-42.875-3.234375-26.332031-27.160156-45.039062-53.503906-41.800781zm0 0" fill="#c1bde0"/><path d="m490.796875 57.078125c-17.992187-11.78125-42.214844-6.734375-53.996094 11.257813-9.882812 15.085937-5.648437 35.398437 9.4375 45.28125 19.195313 12.570312 42.855469-3.480469 39.914063-17.589844-1.480469-7.101563-8.433594-11.65625-15.535156-10.175782-7.652344 1.59375-12.382813 9.578126-9.691407 17.222657-10.886719-.390625-19.019531-15.09375-11.546875-26.5 12.1875-18.601563 41.558594-12.402344 46.898438 13.21875 4.203125 20.152343-11.777344 37.921875-30.890625 41.902343-39.550781 8.25-72.054688-42.277343-46.914063-80.65625 2.273438-3.476562 1.300782-8.136718-2.171875-10.410156-3.472656-2.277344-8.132812-1.304687-10.410156 2.171875-10.210937 15.589844-13.261719 33.820313-9.992187 50.820313-11.070313-27.902344-36.335938-49.222656-67.894532-53.871094l.007813-.042969-20-4.421875c-8.023438-1.777344-15.894531 3.53125-17.257813 11.632813 14.390625 6.871093 105.6875 5.398437 95.636719 87.222656-3.464844 28.214844-27.5625 48.957031-55.292969 48.957031-42.613281 0-58.035156-50.019531-31.933594-70.414062 6.941407-5.421875 15.578126-7.816406 24.320313-6.742188 18.730469 2.300782 27.4375 23.871094 18.203125 36.378906-3.914062-10.824218-17.246094-14.625-26.277344-7.570312-13.316406 10.402344-4.683594 31.777344 12.09375 30.097656 7.21875-.117187 14.171875-2.554687 19.960938-7.078125 24.746094-19.332031 12.089844-62.550781-22.144532-66.753906-26.34375-3.238281-50.273437 15.46875-53.507812 41.800781-1.894531 15.410156 2.328125 30.636719 11.886719 42.875 39.191406 50.164063 133.285156 11.386719 116.390625-68.191406 20.398437 48.398438 79.296875 52.542969 104.230468 14.472656 14.199219-21.671875 8.148438-50.699218-13.523437-64.894531zm0 0" fill="#c1bde0"/><path d="m500.988281 23.457031c0 6.476563-2.625 12.34375-6.875 16.582031-4.242187 4.25-10.105469 6.878907-16.59375 6.878907h-443.039062c-12.960938 0-23.46875-10.507813-23.46875-23.460938 0-6.476562 2.628906-12.339843 6.878906-16.578125 4.238281-4.253906 10.105469-6.878906 16.589844-6.878906h443.039062c11.5 0 21.0625 8.261719 23.066407 19.167969.273437 1.394531.402343 2.828125.402343 4.289062zm0 0" fill="#aba6d5"/><path d="m500.585938 19.167969h-439.378907c-11.488281 0-21.050781-8.261719-23.058593-19.167969h439.371093c11.5 0 21.0625 8.261719 23.066407 19.167969zm0 0" fill="#c1bde0"/></svg>