<svg height="512pt" viewBox="-9 0 512 512" width="512pt" xmlns="http://www.w3.org/2000/svg"><path d="m231.476562 235.890625c-4.316406-.535156-8.226562 2.535156-8.753906 6.839844-5.042968 41.03125-50.144531 70.257812-91.171875 65.222656-31.957031-3.925781-54.648437-32.964844-50.722656-64.925781 3.035156-24.699219 25.484375-42.246094 50.191406-39.207032 18.855469 2.316407 32.3125 19.542969 30 38.398438-2.398437 19.523438-24.945312 28.6875-38.023437 19.023438 11.324218-4.089844 15.285156-18.027344 7.917968-27.457032-6.003906-7.683594-17.09375-9.046875-24.773437-3.042968-4.953125 3.867187-7.261719 9.855468-6.679687 15.675781.125 7.542969 2.675781 14.8125 7.398437 20.859375 20.289063 25.96875 65.375 12.503906 69.753906-23.140625 3.371094-27.457031-16.222656-52.539063-43.679687-55.910157-33.320313-4.097656-63.605469 19.558594-67.699219 52.886719-5.160156 41.992188 26.214844 83.117188 75.5 83.117188 45.019531 0 91.957031-33.785157 97.585937-79.582031.527344-4.304688-2.535156-8.226563-6.84375-8.757813zm0 0" fill="#84b017"/><path d="m107.039062 157.738281s-81.449218 49.414063-106.671874-54.804687c-1.742188-7.167969 2.898437-14.3125 10.148437-15.726563 1.425781-.28125 2.953125-.554687 4.558594-.816406 29.738281-4.871094 87.722656-5.195313 91.753906 65.0625.113281 2.035156.1875 4.128906.210937 6.285156zm0 0" fill="#9bcf1b"/><path d="m106.828125 151.453125c-32.085937-5.761719-71.925781-21.902344-91.753906-65.0625 29.738281-4.871094 87.722656-5.195313 91.753906 65.0625zm0 0" fill="#b9e746"/><path d="m235.34375 141.414062c-2.375-3.628906-7.292969-4.714843-10.875-2.265624-33.007812 22.570312-67.121094 12.605468-84.164062-13.410157-13.1875-20.132812-7.566407-47.101562 12.570312-60.289062 15.34375-10.054688 36.003906-5.746094 46.054688 9.597656 7.582031 11.578125 4.351562 27.085937-7.226563 34.671875-11.949219 7.824219-27.296875-.734375-27.699219-12.070312 8.003906 2.824218 16.34375-2.136719 18.007813-10.121094 1.546875-7.421875-3.214844-14.6875-10.632813-16.234375-15.167968-3.164063-31.316406 21.960937-18.382812 41.707031 5.003906 7.636719 12.679687 12.867188 21.617187 14.730469 31.675781 6.605469 56.644531-32.011719 37.460938-61.292969-14.796875-22.589844-45.21875-28.933594-67.8125-14.132812-40.132813 26.285156-34.605469 87.027343 14.070312 108.457031-16.574219 1.707031-33.046875-1.792969-47.261719-9.765625l-33.867187-21.425782-.703125-18.726562c-.160156-4.335938-3.804688-7.738281-8.144531-7.558594-4.335938.164063-7.71875 3.808594-7.558594 8.144532l.300781 7.953124-34.519531-21.835937c-3.667969-2.320313-8.519531-1.226563-10.839844 2.441406-2.320312 3.667969-1.230469 8.519531 2.4375 10.839844l15.289063 9.671875-7.578125 3.578125c-7.566407 3.570313-4.988281 14.964844 3.359375 14.964844 3.050781 0 3.578125-1.121094 19.949218-8.59375 58.464844 36.980469 53.667969 33.960937 53.984376 34.140625 46.683593 26.324218 88.105468 2.539062 90.859374 2.039062 11.40625-1.023437 28.8125-7.636718 39.039063-14.335937 3.628906-2.378907 4.644531-7.246094 2.265625-10.878907zm0 0" fill="#84b017"/><path d="m263.003906 235.890625c4.316406-.535156 8.226563 2.535156 8.753906 6.839844 5.042969 41.03125 50.144532 70.257812 91.175782 65.222656 31.953125-3.925781 54.644531-32.964844 50.71875-64.925781-3.035156-24.699219-25.484375-42.246094-50.191406-39.207032-18.855469 2.316407-32.3125 19.542969-29.996094 38.398438 2.394531 19.523438 24.945312 28.6875 38.019531 19.023438-11.324219-4.089844-15.285156-18.027344-7.914063-27.457032 6-7.683594 17.089844-9.046875 24.769532-3.042968 4.957031 3.867187 7.261718 9.855468 6.679687 15.675781-.125 7.542969-2.671875 14.8125-7.398437 20.859375-20.289063 25.96875-65.375 12.503906-69.753906-23.140625-3.371094-27.457031 16.222656-52.539063 43.679687-55.910157 33.320313-4.097656 63.605469 19.558594 67.699219 52.886719 5.160156 41.992188-26.214844 83.117188-75.5 83.117188-45.019532 0-91.957032-33.785157-97.582032-79.582031-.53125-4.304688 2.53125-8.226563 6.839844-8.757813zm0 0" fill="#84b017"/><path d="m387.445312 157.738281s81.445313 49.414063 106.671876-54.804687c1.738281-7.167969-2.902344-14.3125-10.152344-15.726563-1.425782-.28125-2.953125-.554687-4.558594-.816406-29.738281-4.871094-87.71875-5.195313-91.753906 65.0625-.113282 2.035156-.1875 4.128906-.207032 6.285156zm0 0" fill="#9bcf1b"/><path d="m387.652344 151.453125c32.085937-5.761719 71.925781-21.902344 91.753906-65.0625-29.738281-4.871094-87.71875-5.195313-91.753906 65.0625zm0 0" fill="#b9e746"/><path d="m259.136719 141.414062c2.375-3.628906 7.292969-4.714843 10.875-2.265624 33.007812 22.570312 67.125 12.605468 84.164062-13.410157 13.1875-20.132812 7.566407-47.101562-12.566406-60.289062-15.347656-10.054688-36.007813-5.746094-46.058594 9.597656-7.582031 11.578125-4.351562 27.085937 7.226563 34.671875 11.949218 7.824219 27.296875-.734375 27.699218-12.070312-8.003906 2.824218-16.339843-2.136719-18.007812-10.121094-1.542969-7.421875 3.214844-14.6875 10.636719-16.234375 15.164062-3.164063 31.3125 21.960937 18.378906 41.707031-5.003906 7.636719-12.679687 12.867188-21.617187 14.730469-31.675782 6.605469-56.640626-32.011719-37.460938-61.292969 14.796875-22.589844 45.21875-28.933594 67.8125-14.132812 40.132812 26.285156 34.605469 87.027343-14.070312 108.457031 16.574218 1.707031 33.046874-1.792969 47.265624-9.765625l33.867188-21.425782.699219-18.726562c.164062-4.335938 3.804687-7.738281 8.144531-7.558594 4.335938.164063 7.71875 3.808594 7.558594 8.144532l-.300782 7.953124 34.519532-21.835937c3.667968-2.320313 8.519531-1.226563 10.839844 2.441406 2.320312 3.664063 1.226562 8.519531-2.4375 10.839844l-15.289063 9.671875 7.578125 3.578125c7.5625 3.570313 4.988281 14.964844-3.359375 14.964844-3.050781 0-3.582031-1.121094-19.949219-8.59375-58.464844 36.976562-53.667968 33.957031-53.988281 34.136719-46.679687 26.328124-88.101563 2.542968-90.859375 2.042968-11.402344-1.023437-28.808594-7.636718-39.035156-14.335937-3.628906-2.378907-4.644532-7.246094-2.265625-10.878907zm0 0" fill="#84b017"/><path d="m107.039062 353.832031s-81.449218-49.414062-106.671874 54.808594c-1.742188 7.164063 2.898437 14.308594 10.148437 15.722656 1.425781.285157 2.953125.554688 4.558594.816407 29.738281 4.871093 87.722656 5.199218 91.753906-65.0625.113281-2.03125.1875-4.128907.210937-6.285157zm0 0" fill="#9bcf1b"/><path d="m106.828125 360.117188c-32.085937 5.761718-71.925781 21.90625-91.753906 65.0625 29.738281 4.871093 87.722656 5.195312 91.753906-65.0625zm0 0" fill="#b9e746"/><path d="m235.34375 370.15625c-2.375 3.628906-7.292969 4.714844-10.875 2.269531-33.007812-22.574219-67.121094-12.605469-84.164062 13.410157-13.1875 20.132812-7.566407 47.097656 12.570312 60.289062 15.34375 10.050781 36.003906 5.742188 46.054688-9.601562 7.582031-11.574219 4.351562-27.085938-7.226563-34.667969-11.949219-7.828125-27.296875.730469-27.699219 12.066406 8.003906-2.824219 16.34375 2.136719 18.007813 10.125 1.546875 7.417969-3.214844 14.6875-10.632813 16.234375-15.167968 3.160156-31.316406-21.960938-18.382812-41.707031 5.003906-7.636719 12.679687-12.871094 21.617187-14.730469 31.675781-6.605469 56.644531 32.007812 37.460938 61.289062-14.796875 22.59375-45.21875 28.933594-67.8125 14.136719-40.132813-26.289062-34.605469-87.03125 14.070312-108.460937-16.574219-1.707032-33.046875 1.796875-47.261719 9.769531l-33.867187 21.421875-.703125 18.730469c-.160156 4.335937-3.804688 7.738281-8.144531 7.554687-4.335938-.160156-7.71875-3.808594-7.558594-8.144531l.300781-7.949219-34.519531 21.832032c-3.667969 2.320312-8.519531 1.226562-10.839844-2.441407-2.320312-3.664062-1.230469-8.519531 2.4375-10.839843l15.289063-9.671876-7.578125-3.578124c-7.566407-3.570313-4.988281-14.960938 3.359375-14.960938 3.050781 0 3.578125 1.117188 19.949218 8.589844 58.464844-36.976563 53.667969-33.957032 53.984376-34.136719 46.683593-26.328125 88.105468-2.542969 90.859374-2.042969 11.40625 1.023438 28.8125 7.636719 39.039063 14.335938 3.628906 2.378906 4.644531 7.25 2.265625 10.878906zm0 0" fill="#84b017"/><path d="m387.445312 353.832031s81.445313-49.414062 106.671876 54.808594c1.738281 7.164063-2.902344 14.308594-10.152344 15.722656-1.425782.285157-2.953125.554688-4.558594.816407-29.738281 4.871093-87.71875 5.199218-91.753906-65.0625-.113282-2.03125-.1875-4.128907-.207032-6.285157zm0 0" fill="#9bcf1b"/><path d="m387.652344 360.117188c32.085937 5.761718 71.925781 21.90625 91.753906 65.0625-29.738281 4.871093-87.71875 5.195312-91.753906-65.0625zm0 0" fill="#b9e746"/><path d="m259.136719 370.15625c2.375 3.628906 7.292969 4.714844 10.875 2.269531 33.007812-22.574219 67.125-12.605469 84.164062 13.410157 13.1875 20.132812 7.566407 47.097656-12.566406 60.289062-15.347656 10.050781-36.007813 5.742188-46.058594-9.601562-7.582031-11.574219-4.351562-27.085938 7.226563-34.667969 11.949218-7.828125 27.296875.730469 27.699218 12.066406-8.003906-2.824219-16.339843 2.136719-18.007812 10.125-1.542969 7.417969 3.214844 14.6875 10.636719 16.234375 15.164062 3.160156 31.3125-21.960938 18.378906-41.707031-5.003906-7.636719-12.679687-12.871094-21.617187-14.730469-31.675782-6.605469-56.640626 32.007812-37.460938 61.289062 14.796875 22.59375 45.21875 28.933594 67.8125 14.136719 40.132812-26.289062 34.605469-87.03125-14.070312-108.460937 16.574218-1.707032 33.046874 1.796875 47.265624 9.769531l33.867188 21.421875.699219 18.730469c.164062 4.335937 3.804687 7.738281 8.144531 7.554687 4.335938-.160156 7.71875-3.808594 7.558594-8.144531l-.300782-7.949219 34.519532 21.832032c3.667968 2.320312 8.519531 1.226562 10.839844-2.4375 2.320312-3.667969 1.226562-8.519532-2.4375-10.839844l-15.289063-9.671875 7.578125-3.578125c7.5625-3.574219 4.988281-14.964844-3.359375-14.964844-3.050781 0-3.582031 1.121094-19.949219 8.59375-58.464844-36.980469-53.667968-33.960938-53.988281-34.140625-46.679687-26.324219-88.101563-2.539063-90.859375-2.039063-11.402344 1.019532-28.808594 7.632813-39.035156 14.335938-3.628906 2.375-4.644532 7.246094-2.265625 10.875zm0 0" fill="#84b017"/><path d="m271.722656 24.523438v462.953124c0 9.0625-4.914062 16.96875-12.226562 21.214844-3.613282 2.105469-7.8125 3.308594-12.285156 3.308594-6.777344 0-12.894532-2.746094-17.335938-7.1875-4.433594-4.429688-7.175781-10.558594-7.175781-17.335938v-462.953124c0-13.546876 10.964843-24.5117192 24.511719-24.523438 4.472656 0 8.671874 1.203125 12.285156 3.308594 1.855468 1.070312 3.542968 2.367187 5.050781 3.878906 4.429687 4.429688 7.175781 10.558594 7.175781 17.335938zm0 0" fill="#6e9213"/><path d="m271.722656 24.523438v462.953124c0 9.0625-4.914062 16.96875-12.226562 21.214844-7.308594-4.234375-12.222656-12.152344-12.222656-21.214844v-462.953124c0-9.0625 4.914062-16.96875 12.222656-21.214844 1.855468 1.070312 3.542968 2.367187 5.050781 3.878906 4.429687 4.429688 7.175781 10.558594 7.175781 17.335938zm0 0" fill="#84b017"/></svg>