<svg height="512pt" viewBox="0 0 512.00055 512" width="512pt" xmlns="http://www.w3.org/2000/svg"><path d="m77.449219 96.484375c-1.488281 1.929687-2.816407 3.492187-3.832031 4.617187-1.226563 1.367188-1.992188 2.101563-1.992188 2.101563-3.117188-.863281-6.035156-1.808594-8.769531-2.824219-16.976563-6.339844-26.882813-15.542968-32.195313-25.808594-2.542968-4.921874-4.03125-10.078124-4.726562-15.289062-2.40625-17.976562 4.554687-36.492188 9.835937-47.425781.039063-.097657.089844-.199219.140625-.300781 2.546875-5.238282 8.792969-7.460938 14-5.070313.210938.101563.433594.203125.644532.324219.070312.039062.132812.070312.203124.109375 10.359376 5.632812 18.3125 11.496093 24.328126 17.410156 3.964843 3.894531 7.082031 7.824219 9.484374 11.726563 15.371094 24.964843 1.570313 49.105468-7.121093 60.429687zm0 0" fill="#b9e746"/><path d="m73.617188 101.101562c-20.679688-26.363281-25.0625-67.1875-22.859376-94.183593 68.273438 37.144531 32.183594 83.832031 22.859376 94.183593zm0 0" fill="#caed73"/><path d="m78.917969 101.300781c1.960937 7.535157 3.089843 16.40625 3.089843 24.320313 0 3.359375-.203124 6.507812-.605468 9.375-.523438 3.773437-3.75 6.5-7.460938 6.5-.34375 0-.695312-.023438-1.046875-.070313-4.125-.574219-7-4.386719-6.425781-8.511719.300781-2.171874.449219-4.625.449219-7.292968 0-6.535156-.953125-14.140625-2.5625-20.367188l-1.5-4.875-7.632813-24.824218-24.5625-.984376c-2.542968-4.921874-4.03125-10.078124-4.726562-15.289062l24.582031.984375-2.222656-7.242187c-.332031-.691407-.554688-1.40625-.664063-2.152344l-11.859375-39.015625c.039063-.097657.089844-.199219.140625-.300781 2.546875-5.238282 8.792969-7.460938 14-5.070313l9.253906 30.4375 15.921876-12.59375c3.964843 3.894531 7.082031 7.824219 9.484374 11.726563l-20.679687 16.367187 13.558594 44.0625 1.378906 4.496094c.03125.109375.058594.210937.089844.320312zm0 0" fill="#84b017"/><path d="m98.390625 434.394531c1.929687 1.488281 3.492187 2.816407 4.617187 3.832031 1.367188 1.226563 2.101563 1.988282 2.101563 1.988282-.863281 3.121094-1.808594 6.035156-2.824219 8.773437-6.339844 16.976563-15.542968 26.882813-25.8125 32.195313-4.917968 2.542968-10.078125 4.03125-15.285156 4.726562-17.976562 2.402344-36.492188-4.554687-47.425781-9.835937-.097657-.042969-.199219-.089844-.300781-.140625-5.238282-2.546875-7.460938-8.792969-5.070313-14 .101563-.214844.203125-.433594.324219-.644532.039062-.070312.070312-.132812.109375-.203124 5.632812-10.359376 11.496093-18.316407 17.410156-24.328126 3.894531-3.964843 7.824219-7.082031 11.726563-9.484374 24.964843-15.371094 49.105468-1.570313 60.429687 7.121093zm0 0" fill="#b9e746"/><path d="m103.007812 438.226562c-26.363281 20.679688-67.1875 25.0625-94.183593 22.859376 37.144531-68.273438 83.832031-32.183594 94.183593-22.859376zm0 0" fill="#caed73"/><path d="m103.207031 432.925781c7.535157-1.960937 16.40625-3.089843 24.320313-3.089843 3.359375 0 6.507812.203124 9.375.605468 3.773437.523438 6.496094 3.75 6.496094 7.460938 0 .34375-.019532.695312-.070313 1.046875-.570313 4.125-4.382813 7-8.507813 6.425781-2.171874-.300781-4.625-.453125-7.292968-.453125-6.535156 0-14.140625.957031-20.367188 2.566406l-4.875 1.5-24.824218 7.632813-.988282 24.5625c-4.917968 2.542968-10.078125 4.03125-15.285156 4.726562l.984375-24.582031-7.242187 2.222656c-.695313.332031-1.40625.554688-2.152344.664063l-39.015625 11.859375c-.097657-.042969-.199219-.089844-.300781-.140625-5.238282-2.546875-7.460938-8.792969-5.070313-14l30.4375-9.253906-12.59375-15.921876c3.894531-3.964843 7.824219-7.082031 11.726563-9.484374l16.367187 20.675781 44.0625-13.554688 4.496094-1.378906c.109375-.03125.210937-.0625.320312-.089844zm0 0" fill="#84b017"/><path d="m436.300781 413.453125c1.488281-1.933594 2.816407-3.492187 3.832031-4.617187 1.226563-1.367188 1.988282-2.101563 1.988282-2.101563 3.121094.863281 6.035156 1.808594 8.773437 2.824219 16.976563 6.335937 26.882813 15.539062 32.195313 25.808594 2.542968 4.917968 4.03125 10.078124 4.726562 15.289062 2.402344 17.972656-4.554687 36.492188-9.835937 47.425781-.042969.097657-.089844.199219-.140625.300781-2.546875 5.238282-8.792969 7.460938-14 5.066407-.214844-.097657-.433594-.199219-.644532-.320313-.070312-.039062-.132812-.070312-.203124-.109375-10.359376-5.632812-18.316407-11.496093-24.328126-17.410156-3.964843-3.894531-7.082031-7.828125-9.484374-11.730469-15.371094-24.960937-1.570313-49.101562 7.121093-60.425781zm0 0" fill="#b9e746"/><path d="m440.132812 408.835938c20.675782 26.363281 25.0625 67.1875 22.859376 94.183593-68.273438-37.144531-32.183594-83.835937-22.859376-94.183593zm0 0" fill="#caed73"/><path d="m434.832031 408.632812c-1.960937-7.53125-3.089843-16.402343-3.089843-24.320312 0-3.359375.203124-6.503906.605468-9.371094.523438-3.773437 3.75-6.5 7.460938-6.5.34375 0 .695312.019532 1.046875.070313 4.125.574219 7 4.386719 6.425781 8.511719-.300781 2.171874-.453125 4.625-.453125 7.289062 0 6.539062.957031 14.144531 2.566406 20.371094l1.5 4.875 7.632813 24.824218 24.5625.984376c2.542968 4.917968 4.03125 10.078124 4.726562 15.289062l-24.582031-.984375 2.222656 7.242187c.332031.691407.554688 1.40625.664063 2.152344l11.859375 39.015625c-.042969.097657-.089844.199219-.140625.300781-2.546875 5.238282-8.792969 7.460938-14 5.066407l-9.253906-30.433594-15.921876 12.59375c-3.964843-3.894531-7.082031-7.828125-9.484374-11.730469l20.675781-16.363281-13.554688-44.0625-1.378906-4.496094c-.03125-.113281-.0625-.210937-.089844-.324219zm0 0" fill="#84b017"/><path d="m415.359375 75.542969c-1.933594-1.488281-3.492187-2.816407-4.617187-3.832031-1.367188-1.226563-2.101563-1.992188-2.101563-1.992188.863281-3.117188 1.808594-6.03125 2.824219-8.769531 6.335937-16.976563 15.539062-26.882813 25.808594-32.195313 4.917968-2.542968 10.078124-4.03125 15.289062-4.726562 17.972656-2.402344 36.492188 4.554687 47.421875 9.835937.101563.039063.203125.089844.304687.140625 5.238282 2.546875 7.460938 8.792969 5.066407 14-.097657.210938-.199219.433594-.320313.644532-.039062.070312-.070312.132812-.109375.203124-5.632812 10.359376-11.496093 18.3125-17.410156 24.328126-3.894531 3.964843-7.828125 7.082031-11.730469 9.484374-24.960937 15.371094-49.101562 1.570313-60.425781-7.121093zm0 0" fill="#b9e746"/><path d="m410.742188 71.710938c26.363281-20.679688 67.1875-25.0625 94.183593-22.859376-37.144531 68.273438-83.835937 32.183594-94.183593 22.859376zm0 0" fill="#caed73"/><path d="m410.539062 77.011719c-7.53125 1.960937-16.402343 3.089843-24.320312 3.089843-3.359375 0-6.507812-.203124-9.371094-.605468-3.773437-.523438-6.5-3.75-6.5-7.460938 0-.34375.019532-.695312.070313-1.046875.574219-4.125 4.386719-7 8.511719-6.425781 2.171874.300781 4.625.449219 7.289062.449219 6.539062 0 14.144531-.953125 20.367188-2.5625l4.878906-1.5 24.824218-7.632813.984376-24.5625c4.917968-2.542968 10.078124-4.03125 15.289062-4.726562l-.984375 24.582031 7.242187-2.222656c.691407-.332031 1.40625-.554688 2.152344-.664063l39.011719-11.859375c.101563.039063.203125.089844.304687.140625 5.238282 2.546875 7.460938 8.792969 5.066407 14l-30.433594 9.253906 12.59375 15.921876c-3.894531 3.964843-7.828125 7.082031-11.730469 9.484374l-16.363281-20.679687-44.0625 13.558594-4.496094 1.378906c-.113281.03125-.210937.058594-.324219.089844zm0 0" fill="#84b017"/><path d="m507.636719 182.8125c-17.464844-8.125-45.71875-31.46875-51.332031-36.171875-22.929688-42.082031-59.21875-76.527344-102.855469-97.082031 13.171875-1.898438 28.089843-4.664063 38.355469-8.410156 3.914062-1.425782 5.929687-5.757813 4.5-9.671876-1.429688-3.914062-5.757813-5.925781-9.671876-4.5-20.234374 7.386719-62.65625 10.757813-63.582031 10.882813-44.6875-13.558594-94.523437-13.308594-140.804687 2.765625 8.140625-10.832031 14.746094-19.730469 19.476562-29.898438 1.757813-3.777343.121094-8.261718-3.65625-10.019531-3.777344-1.757812-8.265625-.121093-10.023437 3.65625-9.277344 19.941407-34.210938 47.621094-35.082031 48.832031-43.101563 22.257813-78.375 58.222657-99.765626 101.636719-1.902343-13.417969-4.710937-28.839843-8.554687-39.371093-1.429687-3.910157-5.757813-5.925782-9.671875-4.5-3.914062 1.429687-5.929688 5.757812-4.5 9.671874 5.945312 16.304688 9.222656 46.167969 10.839844 63.277344-15.742188 47.917969-15.105469 100.902344 2.320312 148.796875-10.621094-7.9375-23.042968-16.464843-32.902344-21.050781-3.777343-1.761719-8.265624-.121094-10.019531 3.65625-1.757812 3.777344-.121093 8.265625 3.65625 10.023438 19.570313 9.105468 52.050781 36.820312 52.722657 37.320312 22.019531 40.71875 56.578124 74.398438 98.179687 95.273438-13.898437 1.902343-30.453125 4.808593-41.566406 8.863281-9.296875 3.394531-4.273438 17.617187 5.175781 14.171875 21.316406-7.777344 62.554688-10.449219 64.816406-11.152344 47.199219 16.03125 98.839844 15.941406 145.539063.285156-7.867188 10.070313-16.070313 21.648438-20.480469 31.128906-1.757812 3.777344-.121094 8.261719 3.65625 10.019532 3.804688 1.769531 8.277344.09375 10.019531-3.65625 8.238281-17.699219 33.050781-45.636719 37.195313-50.242188 44.199218-22.496094 82.078125-60.429687 103.96875-108.660156 1.890625 12.738281 4.574218 26.8125 8.160156 36.632812 1.433594 3.925782 5.769531 5.925782 9.671875 4.5 3.914063-1.429687 5.929687-5.757812 4.5-9.671874-7.019531-19.246094-10.503906-59.292969-10.804687-62.90625 12.699218-44.761719 11.722656-94.507813-5.25-140.6875 5.003906 3.703124 28.414062 20.644531 34.582031 20.644531 2.84375 0 5.566406-1.617188 6.847656-4.363281 1.753906-3.78125.117187-8.265626-3.660156-10.023438zm-40.175781 94.609375c-.664063 1.382813-11.457032 22.96875-35.171876 24.761719-4.152343.316406-7.265624 3.9375-6.949218 8.09375.3125 4.160156 3.945312 7.265625 8.089844 6.949218 12.097656-.914062 21.640624-5.472656 28.921874-10.945312-11.898437 47.636719-39.964843 88.933594-78.019531 117.703125-14.21875 4.628906-30.777343 3.039063-42.746093-7.242187-3.160157-2.714844-7.921876-2.355469-10.636719.808593-2.714844 3.160157-2.355469 7.921875.804687 10.636719 8.734375 7.503906 18.164063 11.058594 26.8125 12.496094-41.832031 23-90.128906 31.070312-137.292968 23.054687-3.027344-1.539062-22.722657-12.398437-24.433594-35.007812-.316406-4.152344-3.9375-7.265625-8.09375-6.953125-4.152344.316406-7.265625 3.9375-6.953125 8.09375.8125 10.71875 4.488281 19.429687 9.121093 26.34375-40.40625-13.277344-75.484374-38.398438-101.101562-71.246094-4.578125-12.5625-3.121094-30.351562 7.316406-42.503906 2.714844-3.160156 2.355469-7.921875-.804687-10.636719-3.160157-2.714844-7.925781-2.351563-10.636719.804687-7.695312 8.957032-11.238281 18.636719-12.601562 27.464844-24.597657-42.832031-32.445313-91.074218-25.652344-136.546875 6.039062-12.582031 19.445312-23.753906 35.269531-24.953125 4.15625-.316406 7.269531-3.9375 6.953125-8.09375-.316406-4.152344-3.921875-7.261718-8.089844-6.949218-11.21875.847656-20.242187 4.828124-27.304687 9.769531 13.410156-43.984375 40.773437-81.941407 76.917969-108.683594 5.449218-1.566406 25.097656-5.859375 40.988281 7.792969 1.421875 1.222656 3.171875 1.824218 4.914062 1.824218 6.976563 0 10.207031-8.722656 4.917969-13.265624-8.382812-7.203126-17.40625-10.765626-25.769531-12.3125 39.703125-21.539063 84.125-29.199219 127.035156-23.839844.175781.097656.351563.199218.539063.285156.941406.441406 23.035156 11.078125 24.867187 35.21875.300781 3.960938 3.605469 6.976562 7.515625 6.976562 4.394531 0 7.859375-3.734374 7.527344-8.113281-.894532-11.816406-5.261719-21.191406-10.566406-28.40625 43.417968 11.980469 81.285156 37.46875 108.777343 71.640625.066407.253906.140625.507813.230469.757813.351562.976562 8.457031 24.121093-7.320312 42.484375-2.714844 3.160156-2.355469 7.921875.804687 10.636718 3.15625 2.710938 7.917969 2.363282 10.640625-.804687 7.980469-9.289063 11.5-19.363281 12.746094-28.453125 23.332031 39.230469 33.265625 84.707031 28.433594 130.359375zm0 0" fill="#954c35"/></svg>