<svg height="511pt" viewBox="0 -1 511.99952 511" width="511pt" xmlns="http://www.w3.org/2000/svg"><g fill="#8078bf"><path d="m18.351562 55.097656 21.980469 7.796875c7.535157 28.09375 25.644531 48.742188 52.832031 59.488281 1.464844.578126 2.449219 1.21875 4.40625 1.21875 7.691407 0 10.550782-10.152343 3.96875-14.152343-2.871093-1.746094-23.085937-7.214844-36.882812-28.445313l15.441406-23.675781c2.300782-3.527344 1.304688-8.257813-2.222656-10.558594-3.53125-2.300781-8.257812-1.308593-10.5625 2.222657l-10.429688 15.996093c-5.71875-16.421875-6.207031-34.585937-4.148437-52.011719.496094-4.183593-2.496094-7.980468-6.679687-8.476562-4.199219-.488281-7.980469 2.5-8.472657 6.683594-1.375 11.628906-1.675781 22.980468-.445312 34.386718l-13.683594-4.855468c-3.96875-1.40625-8.332031.671875-9.742187 4.640625-1.40625 3.972656.671874 8.332031 4.640624 9.742187zm0 0"/><path d="m114.4375 385.359375c-3.640625-2.125-8.308594-.898437-10.4375 2.742187-1.71875 2.941407-6.808594 23.230469-27.773438 37.386719l-23.964843-15.039062c-3.566407-2.238281-8.277344-1.164063-10.519531 2.40625-2.238282 3.570312-1.160157 8.28125 2.410156 10.519531l16.199218 10.167969c-16.378906 6.019531-34.660156 6.78125-51.957031 5.039062-4.183593-.417969-7.933593 2.632813-8.3554685 6.828125-.4218745 4.191406 2.6367185 7.933594 6.8281255 8.355469 11.570312 1.164063 23.03125 1.269531 34.386718-.152344l-4.613281 13.757813c-1.660156 4.953125 2.042969 10.058594 7.234375 10.058594 3.191406 0 6.164062-2.015626 7.234375-5.207032l7.414063-22.105468c29.3125-8.398438 47.542968-26.449219 58.890624-54.761719 1.785157-3.566407.515626-7.953125-2.976562-9.996094zm0 0"/><path d="m483.558594 458.929688-22.21875-7.019532c-8.953125-29.375-27.332032-47.027344-55.792969-57.9375-3.597656-1.722656-7.964844-.375-9.941406 3.152344-2.0625 3.675781-.757813 8.324219 2.917969 10.386719 2.960937 1.660156 23.359374 6.417969 37.871093 27.117187l-14.621093 24.226563c-3.082032 5.105469.644531 11.574219 6.527343 11.574219 2.585938 0 5.105469-1.316407 6.539063-3.691407l9.882812-16.371093c6.292969 16.253906 7.386719 34.484374 5.945313 51.859374-.351563 4.199219 2.773437 7.886719 6.972656 8.234376 4.207031.351562 7.886719-2.78125 8.234375-6.972657.953125-11.441406.886719-22.882812-.757812-34.382812l13.84375 4.375c4.019531 1.269531 8.308593-.960938 9.574218-4.976563 1.269532-4.019531-.960937-8.308594-4.976562-9.574218zm0 0"/><path d="m504.867188 50.289062c-11.585938-.757812-23.039063-.460937-34.363282 1.355469l4.128906-13.917969c1.199219-4.039062-1.101562-8.285156-5.140624-9.484374-4.042969-1.199219-8.289063 1.101562-9.488282 5.144531l-6.628906 22.335937c-29.710938 9.605469-46.828125 28.742188-56.953125 56.796875-1.660156 3.628907-.238281 7.96875 3.324219 9.886719 3.707031 1.992188 8.335937.617188 10.335937-3.101562 1.613281-3 6.011719-23.480469 26.441407-38.34375 24.917968 14.054687 24.710937 15.234374 28.308593 15.234374 7.785157 0 10.554688-10.335937 3.835938-14.234374l-16.566407-9.605469c16.136719-6.570313 34.386719-7.976563 51.769532-6.839844 4.207031.289063 7.835937-2.910156 8.113281-7.113281.273437-4.207032-2.910156-7.835938-7.117187-8.113282zm0 0"/></g><path d="m294.191406 82.710938c-6.0625 7.761718-13.9375 13.285156-22.566406 16.441406-2.289062.832031-4.628906 1.503906-7 2.003906-7.617188 1.617188-15.574219 1.476562-23.226562-.488281-6.582032-1.6875-12.929688-4.742188-18.628907-9.199219-22.136719-17.304688-26.0625-49.269531-8.757812-71.417969 12.085937-15.464843 31.335937-22.046875 49.394531-18.699219 7.792969 1.433594 15.351562 4.71875 22.023438 9.9375 22.140624 17.296876 26.066406 49.273438 8.761718 71.421876zm0 0" fill="#aba6d5"/><path d="m294.191406 82.710938c-6.0625 7.761718-13.9375 13.285156-22.566406 16.441406-2.289062.832031-4.628906 1.503906-7 2.003906-1.128906-.203125-2.269531-.457031-3.386719-.742188-6.582031-1.691406-12.929687-4.742187-18.628906-9.199218-22.136719-17.304688-26.066406-49.269532-8.757813-71.417969 7.671876-9.828125 18.242188-16.066406 29.554688-18.445313 7.792969 1.433594 15.351562 4.71875 22.023438 9.9375 22.140624 17.296876 26.066406 49.273438 8.761718 71.421876zm0 0" fill="#c1bde0"/><path d="m253.3125 51.140625c-1.097656 1.40625-1.585938 3.15625-1.375 4.925781.695312 5.605469 5.800781 9.601563 11.425781 8.921875 8.046875-.988281 13.808594-8.34375 12.808594-16.402343-.660156-5.378907-3.375-10.183594-7.648437-13.519532-4.273438-3.347656-9.585938-4.820312-14.964844-4.160156-7.234375.882812-13.695313 4.539062-18.183594 10.285156-4.484375 5.738282-6.46875 12.890625-5.582031 20.125 1.808593 14.792969 24.640625 33.113282 41.832031 37.835938-9.632812 3.53125-20.195312 4.089844-30.226562 1.515625-13.894532-10.214844-25.136719-24.273438-26.757813-37.492188-1.382813-11.28125 1.710937-22.421875 8.710937-31.386719 7-8.949218 17.0625-14.648437 28.34375-16.03125 9.421876-1.148437 18.738282 1.433594 26.226563 7.285157 7.488281 5.847656 12.242187 14.261719 13.398437 23.683593 2.015626 16.410157-9.695312 31.394532-26.105468 33.410157-13.957032 1.710937-26.703125-8.25-28.414063-22.210938-.722656-5.816406.875-11.566406 4.488281-16.175781 3.601563-4.617188 8.789063-7.558594 14.609376-8.269531 4.179687-.507813 7.984374 2.460937 8.503906 6.644531.507812 4.191406-2.460938 7.996094-6.652344 8.503906-1.761719.222656-3.347656 1.109375-4.4375 2.511719zm0 0" fill="#8078bf"/><path d="m205.1875 87.808594c-1.371094 9.753906-5.429688 18.476562-11.324219 25.519531-1.566406 1.867187-3.253906 3.621094-5.058593 5.238281-5.789063 5.210938-12.75 9.066406-20.359376 11.1875-6.542968 1.828125-13.566406 2.359375-20.730468 1.351563-27.824219-3.917969-47.207032-29.640625-43.296875-57.472657 2.738281-19.4375 16.113281-34.761718 33.429687-40.890624 7.464844-2.65625 15.652344-3.589844 24.042969-2.40625 27.820313 3.910156 47.207031 29.636718 43.296875 57.472656zm0 0" fill="#aba6d5"/><path d="m205.1875 87.808594c-1.371094 9.753906-5.429688 18.476562-11.324219 25.519531-1.566406 1.867187-3.253906 3.621094-5.058593 5.238281-1.078126.386719-2.191407.734375-3.304688 1.050782-6.546875 1.828124-13.570312 2.359374-20.730469 1.347656-27.828125-3.917969-47.210937-29.636719-43.296875-57.472656 1.730469-12.34375 7.765625-23.03125 16.375-30.75 7.464844-2.652344 15.652344-3.589844 24.042969-2.40625 27.820313 3.910156 47.207031 29.636718 43.296875 57.472656zm0 0" fill="#c1bde0"/><path d="m154 80.90625c-.25 1.765625.203125 3.527344 1.273438 4.953125 3.402343 4.507813 9.824218 5.417969 14.355468 2.015625 6.476563-4.878906 7.785156-14.128906 2.890625-20.609375-3.261719-4.328125-8.015625-7.128906-13.386719-7.882813-5.371093-.761718-10.710937.613282-15.039062 3.878907-5.820312 4.382812-9.589844 10.777343-10.601562 17.996093-1.015626 7.214844.839843 14.398438 5.222656 20.222657 8.964844 11.902343 37.898437 16.355469 55.148437 11.847656-6.578125 7.875-15.445312 13.640625-25.417969 16.425781-17.144531-1.894531-33.90625-8.449218-41.917968-19.085937-6.839844-9.082031-9.730469-20.273438-8.152344-31.539063 1.585938-11.25 7.453125-21.214844 16.53125-28.054687 7.582031-5.707031 16.945312-8.128907 26.355469-6.808594 9.410156 1.324219 17.730469 6.234375 23.445312 13.8125 9.949219 13.207031 7.304688 32.039063-5.902343 41.988281-11.234376 8.460938-27.253907 6.207032-35.710938-5.027344-3.535156-4.675781-5.027344-10.453124-4.203125-16.25.808594-5.800781 3.832031-10.941406 8.515625-14.46875 3.367188-2.53125 8.148438-1.863281 10.6875 1.5 2.535156 3.375 1.867188 8.15625-1.511719 10.691407-1.410156 1.074219-2.339843 2.636719-2.582031 4.394531zm0 0" fill="#8078bf"/><path d="m130.65625 136.726562c3.691406 9.132813 4.535156 18.714844 2.953125 27.761719-.421875 2.398438-1.007813 4.761719-1.761719 7.0625-2.410156 7.410157-6.511718 14.226563-12.039062 19.871094-4.753906 4.855469-10.570313 8.828125-17.277344 11.535156-26.058594 10.519531-55.703125-2.0625-66.230469-28.125-7.351562-18.199219-3.425781-38.160156 8.5-52.128906 5.140625-6.03125 11.765625-10.933594 19.621094-14.105469 26.046875-10.519531 55.703125 2.066406 66.234375 28.128906zm0 0" fill="#aba6d5"/><path d="m130.65625 136.726562c3.691406 9.132813 4.535156 18.714844 2.953125 27.761719-.421875 2.398438-1.007813 4.761719-1.761719 7.0625-.742187.875-1.53125 1.734375-2.339844 2.5625-4.753906 4.855469-10.570312 8.828125-17.277343 11.535157-26.054688 10.519531-55.703125-2.0625-66.230469-28.125-4.675781-11.558594-4.792969-23.828126-1.199219-34.816407 5.140625-6.035156 11.765625-10.9375 19.621094-14.105469 26.046875-10.523437 55.703125 2.0625 66.234375 28.125zm0 0" fill="#c1bde0"/><path d="m82.875 156.34375c.667969 1.652344 1.9375 2.949219 3.578125 3.648438 5.203125 2.207031 11.21875-.21875 13.441406-5.429688 3.167969-7.464844-.324219-16.128906-7.800781-19.292969-4.988281-2.121093-10.507812-2.167969-15.535156-.136719-5.035156 2.027344-8.96875 5.890626-11.085938 10.882813-2.851562 6.703125-2.917968 14.125-.179687 20.886719 2.722656 6.753906 7.925781 12.046875 14.632812 14.898437 13.71875 5.828125 41-4.78125 53.6875-17.3125-1.761719 10.109375-6.558593 19.535157-13.800781 26.9375-15.796875 6.925781-33.59375 9.632813-45.847656 4.425781-10.464844-4.441406-18.5625-12.691406-22.828125-23.234374-4.253907-10.539063-4.15625-22.101563.285156-32.5625 3.714844-8.734376 10.613281-15.511719 19.425781-19.074219 8.808594-3.558594 18.472656-3.464844 27.210938.238281 15.21875 6.460938 22.339844 24.097656 15.878906 39.316406-5.496094 12.941406-20.496094 19-33.441406 13.503906-5.398438-2.285156-9.578125-6.542968-11.765625-11.976562-2.199219-5.425781-2.148438-11.390625.140625-16.785156 1.652344-3.875 6.128906-5.6875 10.007812-4.046875 3.882813 1.65625 5.695313 6.132812 4.039063 10.015625-.6875 1.632812-.714844 3.449218-.042969 5.097656zm0 0" fill="#8078bf"/><path d="m90.566406 216.355469c7.761719 6.0625 13.289063 13.9375 16.441406 22.5625.835938 2.289062 1.507813 4.628906 2.003907 7 1.617187 7.621093 1.476562 15.578125-.488281 23.226562-1.6875 6.582031-4.742188 12.933594-9.195313 18.628907-17.308594 22.140624-49.273437 26.066406-71.421875 8.761718-15.464844-12.085937-22.046875-31.335937-18.699219-49.394531 1.433594-7.792969 4.722657-15.351563 9.941407-22.027344 17.292968-22.136719 49.269531-26.066406 71.417968-8.757812zm0 0" fill="#aba6d5"/><path d="m90.566406 216.355469c7.761719 6.0625 13.289063 13.9375 16.441406 22.5625.835938 2.289062 1.507813 4.628906 2.003907 7-.203125 1.128906-.457031 2.269531-.742188 3.390625-1.6875 6.582031-4.742187 12.929687-9.195312 18.625-17.308594 22.140625-49.273438 26.066406-71.421875 8.761718-9.828125-7.671874-16.0625-18.242187-18.445313-29.554687 1.433594-7.792969 4.722657-15.351563 9.941407-22.027344 17.292968-22.136719 49.269531-26.066406 71.417968-8.757812zm0 0" fill="#c1bde0"/><path d="m58.996094 257.234375c1.40625 1.097656 3.15625 1.585937 4.925781 1.371094 5.605469-.691407 9.605469-5.796875 8.921875-11.425781-.984375-8.046876-8.339844-13.804688-16.398438-12.808594-5.382812.664062-10.183593 3.378906-13.523437 7.652344-3.34375 4.273437-4.820313 9.582031-4.160156 14.964843.886719 7.234375 4.539062 13.695313 10.285156 18.179688 5.738281 4.488281 12.890625 6.472656 20.125 5.585937 14.792969-1.808594 33.117187-24.640625 37.835937-41.835937 3.53125 9.636719 4.089844 20.195312 1.515626 30.226562-10.214844 13.898438-24.273438 25.140625-37.488282 26.757813-11.285156 1.382812-22.425781-1.707032-31.386718-8.707032-8.953126-7-14.652344-17.0625-16.035157-28.34375-1.148437-9.421874 1.433594-18.742187 7.285157-26.230468 5.847656-7.488282 14.261718-12.238282 23.683593-13.398438 16.410157-2.015625 31.398438 9.695313 33.410157 26.105469 1.710937 13.960937-8.25 26.707031-22.207032 28.417969-5.820312.722656-11.570312-.875-16.175781-4.488282-4.621094-3.601562-7.5625-8.789062-8.273437-14.609374-.507813-4.179688 2.460937-7.988282 6.644531-8.503907 4.191406-.511719 7.996093 2.460938 8.503906 6.652344.222656 1.761719 1.109375 3.347656 2.511719 4.4375zm0 0" fill="#8078bf"/><path d="m95.664062 305.359375c9.753907 1.371094 18.476563 5.425781 25.519532 11.320313 1.867187 1.566406 3.621094 3.257812 5.238281 5.0625 5.210937 5.789062 9.066406 12.75 11.1875 20.355468 1.828125 6.546875 2.359375 13.570313 1.351563 20.734375-3.917969 27.824219-29.640626 47.207031-57.472657 43.292969-19.433593-2.734375-34.761719-16.113281-40.890625-33.425781-2.652344-7.464844-3.589844-15.652344-2.40625-24.042969 3.910156-27.820312 29.640625-47.210938 57.472656-43.296875zm0 0" fill="#aba6d5"/><path d="m95.664062 305.359375c9.753907 1.371094 18.476563 5.425781 25.519532 11.320313 1.867187 1.566406 3.621094 3.257812 5.238281 5.0625.386719 1.078124.734375 2.191406 1.050781 3.304687 1.828125 6.542969 2.359375 13.566406 1.347656 20.730469-3.917968 27.824218-29.636718 47.207031-57.472656 43.296875-12.34375-1.730469-23.03125-7.765625-30.75-16.375-2.652344-7.464844-3.589844-15.65625-2.40625-24.046875 3.910156-27.816406 29.640625-47.207032 57.472656-43.292969zm0 0" fill="#c1bde0"/><path d="m88.761719 356.546875c1.765625.25 3.527343-.203125 4.953125-1.273437 4.507812-3.402344 5.417968-9.824219 2.015625-14.355469-4.878907-6.476563-14.128907-7.785157-20.609375-2.890625-4.328125 3.261718-7.128906 8.015625-7.882813 13.386718-.761719 5.371094.613281 10.710938 3.878907 15.039063 4.382812 5.820313 10.777343 9.589844 18 10.601563 7.210937 1.015624 14.398437-.839844 20.21875-5.226563 11.90625-8.960937 16.359374-37.894531 11.851562-55.144531 7.875 6.578125 13.636719 15.441406 16.425781 25.417968-1.898437 17.140626-8.453125 33.90625-19.089843 41.917969-9.078126 6.839844-20.273438 9.730469-31.535157 8.152344-11.253906-1.585937-21.21875-7.453125-28.058593-16.53125-5.707032-7.582031-8.128907-16.945313-6.804688-26.355469 1.320312-9.410156 6.234375-17.730468 13.8125-23.445312 13.203125-9.953125 32.035156-7.304688 41.984375 5.902344 8.460937 11.234374 6.210937 27.253906-5.023437 35.710937-4.679688 3.535156-10.457032 5.027344-16.253907 4.203125-5.800781-.808594-10.941406-3.832031-14.46875-8.515625-2.53125-3.367187-1.859375-8.148437 1.5-10.6875 3.378907-2.535156 8.160157-1.867187 10.695313 1.507813 1.074218 1.410156 2.632812 2.34375 4.390625 2.585937zm0 0" fill="#8078bf"/><path d="m144.582031 379.890625c9.132813-3.691406 18.714844-4.539063 27.761719-2.957031 2.398438.421875 4.761719 1.011718 7.0625 1.765625 7.410156 2.410156 14.226562 6.511719 19.871094 12.035156 4.855468 4.753906 8.828125 10.574219 11.535156 17.28125 10.519531 26.054687-2.0625 55.703125-28.125 66.230469-18.199219 7.347656-38.160156 3.425781-52.128906-8.503906-6.03125-5.136719-10.933594-11.761719-14.105469-19.621094-10.519531-26.046875 2.066406-55.703125 28.128906-66.230469zm0 0" fill="#aba6d5"/><path d="m144.582031 379.890625c9.132813-3.691406 18.714844-4.539063 27.761719-2.957031 2.398438.421875 4.761719 1.011718 7.0625 1.765625.875.742187 1.734375 1.53125 2.5625 2.335937 4.855469 4.753906 8.828125 10.574219 11.535156 17.28125 10.519532 26.054688-2.0625 55.703125-28.125 66.230469-11.558594 4.675781-23.828125 4.792969-34.816406 1.195313-6.035156-5.136719-10.9375-11.761719-14.105469-19.621094-10.523437-26.046875 2.0625-55.703125 28.125-66.230469zm0 0" fill="#c1bde0"/><path d="m164.199219 427.667969c1.652343-.664063 2.949219-1.9375 3.648437-3.578125 2.207032-5.199219-.21875-11.214844-5.429687-13.4375-7.464844-3.167969-16.128907.320312-19.292969 7.796875-2.121094 4.992187-2.167969 10.507812-.136719 15.535156 2.027344 5.035156 5.890625 8.96875 10.882813 11.085937 6.703125 2.851563 14.125 2.917969 20.886718.183594 6.753907-2.722656 12.046876-7.925781 14.898438-14.632812 5.828125-13.71875-4.78125-41-17.3125-53.6875 10.109375 1.761718 19.535156 6.558594 26.933594 13.800781 6.929687 15.796875 9.636718 33.59375 4.429687 45.847656-4.445312 10.460938-12.691406 18.5625-23.234375 22.828125-10.539062 4.253906-22.101562 4.15625-32.566406-.289062-8.730469-3.710938-15.511719-10.609375-19.070312-19.421875-3.558594-8.808594-3.46875-18.472657.238281-27.210938 6.460937-15.21875 24.09375-22.339843 39.3125-15.878906 12.945312 5.496094 19.003906 20.496094 13.503906 33.441406-2.28125 5.398438-6.539063 9.578125-11.972656 11.765625-5.429688 2.199219-11.390625 2.148438-16.789063-.144531-3.875-1.648437-5.683594-6.125-4.042968-10.003906 1.65625-3.882813 6.132812-5.695313 10.015624-4.039063 1.636719.6875 3.453126.710938 5.097657.039063zm0 0" fill="#8078bf"/><path d="m224.210938 419.980469c6.0625-7.765625 13.9375-13.289063 22.5625-16.441407 2.289062-.835937 4.632812-1.507812 7-2.003906 7.621093-1.617187 15.578124-1.476562 23.226562.488282 6.582031 1.6875 12.933594 4.738281 18.628906 9.195312 22.140625 17.304688 26.066406 49.273438 8.761719 71.421875-12.085937 15.464844-31.335937 22.046875-49.394531 18.699219-7.792969-1.433594-15.351563-4.722656-22.027344-9.941406-22.136719-17.292969-26.066406-49.269532-8.757812-71.417969zm0 0" fill="#aba6d5"/><path d="m224.210938 419.980469c6.0625-7.765625 13.9375-13.289063 22.5625-16.441407 2.289062-.835937 4.632812-1.507812 7-2.003906 1.128906.203125 2.269531.457032 3.390624.742188 6.582032 1.6875 12.929688 4.742187 18.625 9.195312 22.140626 17.308594 26.066407 49.273438 8.761719 71.421875-7.671875 9.828125-18.242187 16.0625-29.554687 18.445313-7.792969-1.433594-15.351563-4.722656-22.027344-9.941406-22.136719-17.292969-26.066406-49.269532-8.757812-71.417969zm0 0" fill="#c1bde0"/><path d="m265.089844 451.546875c1.097656-1.402344 1.585937-3.152344 1.371094-4.921875-.691407-5.605469-5.796876-9.605469-11.425782-8.925781-8.046875.988281-13.804687 8.34375-12.808594 16.402343.664063 5.382813 3.378907 10.183594 7.652344 13.519532 4.273438 3.347656 9.582032 4.824218 14.964844 4.160156 7.234375-.882812 13.695312-4.535156 18.179688-10.285156 4.488281-5.738282 6.472656-12.890625 5.585937-20.121094-1.808594-14.792969-24.640625-33.117188-41.835937-37.835938 9.636718-3.53125 20.195312-4.089843 30.226562-1.515624 13.898438 10.210937 25.140625 24.273437 26.757812 37.488281 1.382813 11.28125-1.707031 22.421875-8.707031 31.386719-7 8.953124-17.0625 14.648437-28.34375 16.035156-9.421875 1.148437-18.742187-1.4375-26.230469-7.285156-7.488281-5.851563-12.238281-14.265626-13.398437-23.6875-2.015625-16.410157 9.695313-31.394532 26.105469-33.410157 13.960937-1.707031 26.707031 8.253907 28.417968 22.210938.722657 5.820312-.875 11.566406-4.488281 16.175781-3.601562 4.621094-8.789062 7.558594-14.609375 8.273438-4.179687.507812-7.988281-2.464844-8.503906-6.644532-.511719-4.191406 2.460938-7.996094 6.652344-8.507812 1.761718-.222656 3.347656-1.105469 4.4375-2.511719zm0 0" fill="#8078bf"/><path d="m313.214844 414.882812c1.371094-9.757812 5.425781-18.476562 11.320312-25.523437 1.566406-1.867187 3.257813-3.617187 5.0625-5.234375 5.789063-5.210938 12.75-9.066406 20.355469-11.191406 6.546875-1.828125 13.570313-2.359375 20.734375-1.347656 27.824219 3.917968 47.207031 29.636718 43.292969 57.472656-2.734375 19.433594-16.113281 34.757812-33.425781 40.890625-7.464844 2.652343-15.65625 3.585937-24.046876 2.40625-27.816406-3.910157-47.207031-29.640625-43.292968-57.472657zm0 0" fill="#aba6d5"/><path d="m313.214844 414.882812c1.371094-9.757812 5.425781-18.476562 11.320312-25.523437 1.566406-1.867187 3.257813-3.617187 5.0625-5.234375 1.078125-.390625 2.191406-.738281 3.304688-1.050781 6.542968-1.828125 13.566406-2.359375 20.730468-1.347657 27.824219 3.917969 47.207032 29.636719 43.296876 57.46875-1.730469 12.347657-7.765626 23.035157-16.375 30.753907-7.464844 2.652343-15.65625 3.585937-24.046876 2.402343-27.816406-3.90625-47.207031-29.636718-43.292968-57.46875zm0 0" fill="#c1bde0"/><path d="m364.402344 421.78125c.25-1.765625-.203125-3.523438-1.273438-4.949219-3.402344-4.511719-9.824218-5.417969-14.355468-2.015625-6.476563 4.878906-7.785157 14.128906-2.890626 20.605469 3.261719 4.332031 8.015626 7.132813 13.386719 7.886719 5.371094.761718 10.710938-.617188 15.039063-3.878906 5.820312-4.382813 9.589844-10.777344 10.601562-18 1.015625-7.210938-.839844-14.398438-5.226562-20.21875-8.960938-11.90625-37.894532-16.359376-55.144532-11.851563 6.578126-7.875 15.441407-13.636719 25.417969-16.425781 17.140625 1.898437 33.910157 8.453125 41.917969 19.089844 6.839844 9.078124 9.730469 20.273437 8.152344 31.535156-1.585938 11.253906-7.453125 21.21875-16.53125 28.058594-7.582032 5.707031-16.945313 8.128906-26.355469 6.804687s-17.730469-6.234375-23.445313-13.8125c-9.953124-13.203125-7.304687-32.035156 5.902344-41.988281 11.234375-8.457032 27.253906-6.207032 35.710938 5.027344 3.535156 4.679687 5.027344 10.457031 4.203125 16.253906-.808594 5.800781-3.832031 10.941406-8.515625 14.46875-3.367188 2.53125-8.148438 1.859375-10.6875-1.503906-2.535156-3.375-1.867188-8.15625 1.507812-10.691407 1.410156-1.074219 2.34375-2.632812 2.585938-4.394531zm0 0" fill="#8078bf"/><path d="m387.746094 365.964844c-3.691406-9.132813-4.535156-18.714844-2.953125-27.761719.421875-2.398437 1.007812-4.761719 1.761719-7.0625 2.410156-7.410156 6.511718-14.230469 12.039062-19.871094 4.753906-4.855469 10.570312-8.828125 17.277344-11.535156 26.054687-10.519531 55.703125 2.0625 66.230468 28.125 7.351563 18.199219 3.425782 38.160156-8.5 52.125-5.140624 6.03125-11.765624 10.933594-19.621093 14.105469-26.050781 10.523437-55.707031-2.0625-66.234375-28.125zm0 0" fill="#aba6d5"/><path d="m387.746094 365.964844c-3.691406-9.132813-4.535156-18.714844-2.953125-27.761719.421875-2.398437 1.007812-4.761719 1.761719-7.0625.742187-.878906 1.53125-1.738281 2.339843-2.566406 4.753907-4.855469 10.570313-8.824219 17.277344-11.53125 26.054687-10.519531 55.703125 2.0625 66.230469 28.125 4.675781 11.554687 4.792968 23.828125 1.195312 34.816406-5.136718 6.03125-11.761718 10.933594-19.621094 14.105469-26.046874 10.523437-55.703124-2.0625-66.230468-28.125zm0 0" fill="#c1bde0"/><path d="m435.523438 346.347656c-.664063-1.652344-1.9375-2.953125-3.578126-3.652344-5.199218-2.203124-11.214843.222657-13.4375 5.433594-3.167968 7.460938.320313 16.128906 7.796876 19.292969 4.992187 2.117187 10.507812 2.167969 15.535156.132813 5.035156-2.027344 8.96875-5.886719 11.085937-10.878907 2.851563-6.707031 2.917969-14.128906.183594-20.886719-2.726563-6.753906-7.929687-12.050781-14.636719-14.898437-13.714844-5.832031-40.996094 4.78125-53.683594 17.308594 1.761719-10.105469 6.554688-19.535157 13.800782-26.933594 15.796875-6.929687 33.59375-9.632813 45.847656-4.425781 10.460938 4.441406 18.5625 12.691406 22.824219 23.234375 4.253906 10.539062 4.160156 22.101562-.285157 32.5625-3.714843 8.734375-10.613281 15.511719-19.421874 19.070312-8.8125 3.5625-18.472657 3.46875-27.210938-.238281-15.21875-6.460938-22.34375-24.09375-15.882812-39.3125 5.5-12.941406 20.5-19.003906 33.441406-13.503906 5.402344 2.285156 9.582031 6.542968 11.765625 11.972656 2.203125 5.429688 2.152343 11.394531-.140625 16.789062-1.648438 3.875-6.125 5.683594-10.003906 4.042969-3.886719-1.65625-5.695313-6.128906-4.039063-10.015625.6875-1.632812.710937-3.449218.039063-5.09375zm0 0" fill="#8078bf"/><path d="m427.835938 286.335938c-7.765626-6.0625-13.289063-13.9375-16.441407-22.566407-.835937-2.289062-1.507812-4.628906-2.003906-7-1.617187-7.617187-1.476563-15.574219.488281-23.226562 1.6875-6.582031 4.738282-12.929688 9.195313-18.628907 17.304687-22.136718 49.273437-26.0625 71.421875-8.757812 15.464844 12.085938 22.046875 31.335938 18.699218 49.394531-1.433593 7.792969-4.722656 15.351563-9.941406 22.023438-17.292968 22.140625-49.269531 26.066406-71.417968 8.761719zm0 0" fill="#aba6d5"/><path d="m427.835938 286.335938c-7.765626-6.0625-13.289063-13.9375-16.441407-22.566407-.835937-2.289062-1.507812-4.628906-2.003906-7 .203125-1.128906.457031-2.269531.742187-3.386719 1.6875-6.582031 4.742188-12.929687 9.195313-18.628906 17.308594-22.136718 49.273437-26.066406 71.421875-8.757812 9.828125 7.671875 16.0625 18.242187 18.445312 29.554687-1.433593 7.792969-4.722656 15.351563-9.941406 22.023438-17.292968 22.140625-49.269531 26.066406-71.417968 8.761719zm0 0" fill="#c1bde0"/><path d="m459.402344 245.457031c-1.402344-1.097656-3.152344-1.585937-4.921875-1.375-5.605469.695313-9.605469 5.800781-8.921875 11.425781.984375 8.046876 8.339844 13.808594 16.398437 12.808594 5.382813-.660156 10.183594-3.375 13.519531-7.648437 3.347657-4.273438 4.824219-9.585938 4.164063-14.964844-.886719-7.234375-4.539063-13.695313-10.285156-18.183594-5.738281-4.484375-12.890625-6.46875-20.125-5.582031-14.792969 1.808594-33.117188 24.640625-37.835938 41.832031-3.53125-9.632812-4.089843-20.195312-1.515625-30.226562 10.214844-13.894531 24.273438-25.136719 37.488282-26.757813 11.285156-1.382812 22.425781 1.710938 31.386718 8.710938 8.953125 7 14.652344 17.0625 16.035156 28.34375 1.148438 9.421875-1.433593 18.738281-7.285156 26.226562-5.851562 7.488282-14.261718 12.242188-23.683594 13.398438-16.410156 2.015625-31.398437-9.695313-33.410156-26.105469-1.710937-13.957031 8.25-26.703125 22.207032-28.414063 5.820312-.722656 11.570312.875 16.175781 4.488282 4.621093 3.601562 7.558593 8.789062 8.273437 14.609375.507813 4.179687-2.460937 7.984375-6.644531 8.503906-4.191406.507813-7.996094-2.460937-8.503906-6.652344-.226563-1.761719-1.109375-3.347656-2.515625-4.4375zm0 0" fill="#8078bf"/><path d="m422.738281 197.332031c-9.757812-1.371093-18.476562-5.429687-25.523437-11.324219-1.867188-1.566406-3.617188-3.253906-5.234375-5.058593-5.210938-5.789063-9.066407-12.75-11.191407-20.359375-1.828124-6.542969-2.359374-13.566406-1.347656-20.730469 3.917969-27.824219 29.636719-47.207031 57.472656-43.296875 19.433594 2.738281 34.757813 16.113281 40.890626 33.429688 2.652343 7.464843 3.585937 15.652343 2.40625 24.042968-3.910157 27.820313-29.640626 47.207032-57.472657 43.296875zm0 0" fill="#aba6d5"/><path d="m422.738281 197.332031c-9.757812-1.371093-18.476562-5.429687-25.523437-11.324219-1.867188-1.566406-3.617188-3.253906-5.234375-5.058593-.390625-1.078125-.738281-2.191407-1.050781-3.304688-1.828126-6.546875-2.359376-13.570312-1.347657-20.730469 3.917969-27.828124 29.636719-47.210937 57.46875-43.296874 12.347657 1.730468 23.035157 7.765624 30.753907 16.375 2.652343 7.464843 3.585937 15.652343 2.402343 24.042968-3.90625 27.820313-29.636719 47.207032-57.46875 43.296875zm0 0" fill="#c1bde0"/><path d="m429.636719 146.144531c-1.765625-.25-3.523438.203125-4.949219 1.273438-4.511719 3.402343-5.417969 9.824219-2.015625 14.355469 4.878906 6.472656 14.128906 7.785156 20.605469 2.890624 4.332031-3.261718 7.132812-8.015624 7.886718-13.386718.761719-5.375-.617187-10.710938-3.878906-15.039063-4.382812-5.824219-10.777344-9.59375-18-10.601562-7.210937-1.019531-14.398437.839843-20.21875 5.222656-11.90625 8.964844-16.359375 37.898437-11.851562 55.148437-7.875-6.578124-13.640625-15.445312-16.425782-25.417968 1.898438-17.144532 8.453126-33.910156 19.089844-41.917969 9.078125-6.839844 20.273438-9.730469 31.535156-8.152344 11.253907 1.585938 21.21875 7.449219 28.058594 16.53125 5.703125 7.582031 8.125 16.945313 6.804688 26.355469-1.324219 9.410156-6.234375 17.730469-13.8125 23.445312-13.203125 9.949219-32.039063 7.300782-41.988282-5.902343-8.457031-11.234375-6.207031-27.253907 5.027344-35.714844 4.679688-3.535156 10.453125-5.023437 16.25-4.203125 5.804688.8125 10.945313 3.835938 14.46875 8.519531 2.53125 3.363281 1.863282 8.144531-1.5 10.6875-3.375 2.535157-8.15625 1.863281-10.691406-1.511719-1.074219-1.410156-2.632812-2.339843-4.394531-2.582031zm0 0" fill="#8078bf"/><path d="m373.820312 122.796875c-9.132812 3.691406-18.714843 4.539063-27.761718 2.957031-2.398438-.421875-4.761719-1.011718-7.0625-1.765625-7.410156-2.40625-14.230469-6.507812-19.871094-12.035156-4.855469-4.753906-8.828125-10.570313-11.535156-17.277344-10.519532-26.058593 2.0625-55.707031 28.125-66.234375 18.199218-7.347656 38.160156-3.425781 52.125 8.503906 6.03125 5.136719 10.9375 11.761719 14.105468 19.621094 10.523438 26.046875-2.0625 55.703125-28.125 66.230469zm0 0" fill="#aba6d5"/><path d="m373.820312 122.796875c-9.132812 3.691406-18.714843 4.539063-27.761718 2.957031-2.398438-.421875-4.761719-1.011718-7.0625-1.765625-.878906-.738281-1.738282-1.53125-2.566406-2.335937-4.855469-4.753906-8.824219-10.570313-11.53125-17.277344-10.519532-26.058594 2.0625-55.703125 28.121093-66.234375 11.558594-4.675781 23.832031-4.789063 34.820313-1.195313 6.03125 5.140626 10.933594 11.765626 14.105468 19.621094 10.523438 26.046875-2.0625 55.703125-28.125 66.230469zm0 0" fill="#c1bde0"/><path d="m354.203125 75.019531c-1.652344.667969-2.953125 1.9375-3.652344 3.578125-2.203125 5.203125.222657 11.21875 5.433594 13.441406 7.460937 3.167969 16.128906-.324218 19.292969-7.800781 2.117187-4.988281 2.167968-10.507812.132812-15.535156-2.027344-5.035156-5.886718-8.96875-10.878906-11.085937-6.707031-2.851563-14.128906-2.917969-20.886719-.179688-6.753906 2.722656-12.050781 7.925781-14.898437 14.632812-5.828125 13.71875 4.78125 41 17.308594 53.6875-10.105469-1.761718-19.535157-6.558593-26.933594-13.800781-6.929688-15.796875-9.632813-33.59375-4.425782-45.847656 4.441407-10.464844 12.691407-18.5625 23.234376-22.828125 10.539062-4.253906 22.101562-4.15625 32.5625.285156 8.734374 3.714844 15.511718 10.613282 19.070312 19.425782 3.5625 8.808593 3.46875 18.472656-.238281 27.210937-6.460938 15.21875-24.09375 22.339844-39.3125 15.878906-12.941407-5.5-19.003907-20.496093-13.503907-33.441406 2.285157-5.398437 6.542969-9.578125 11.972657-11.765625 5.429687-2.199219 11.394531-2.148438 16.789062.140625 3.875 1.652344 5.683594 6.128906 4.042969 10.007813-1.65625 3.882812-6.128906 5.695312-10.015625 4.039062-1.632813-.6875-3.449219-.714844-5.09375-.042969zm0 0" fill="#8078bf"/></svg>