<svg height="512pt" viewBox="-61 0 512 512.00016" width="512pt" xmlns="http://www.w3.org/2000/svg"><path d="m387.699219 250.273438c0-.003907 0-.011719 0-.015626-.976563-5.375-6.925781-8.027343-11.519531-5.335937-46.675782 27.339844-103.046876 33.644531-154.648438 17.292969-4.074219-1.289063-8.414062.964844-9.703125 5.03125-1.289063 4.070312.964844 8.414062 5.035156 9.703125 45.945313 14.558593 95.8125 12.632812 140.800781-5.71875-56.464843 72.335937-160.40625 96.597656-245.367187 48.253906-91.964844-52.328125-124.050781-169.101563-71.71875-261.074219 2.109375-3.710937.816406-8.429687-2.894531-10.539062-3.710938-2.113282-8.429688-.816406-10.539063 2.894531-56.550781 99.386719-21.894531 225.59375 77.507813 282.152344 93.804687 53.375 210.097656 25.195312 270.417968-59.179688 6.054688 90.464844-60.386718 163.902344-165.320312 163.902344-4.269531 0-7.730469 3.460937-7.730469 7.726563 0 4.269531 3.460938 7.730468 7.730469 7.730468 121.90625 0 198.019531-92.808594 177.949219-202.824218zm0 0" fill="#c2eaf2"/><path d="m180.332031 131.507812c-8.007812 1.328126-15.609375 2.234376-22.824219 2.75-79.679687 5.730469-112.734374-35.269531-125.5-60.9375-5.648437-11.335937-7.335937-19.679687-7.335937-19.679687 89.582031-38.023437 147.035156 55.167969 157.535156 74 .898438 1.589844-.082031 3.566406-1.875 3.867187zm0 0" fill="#269ab1"/><path d="m157.507812 134.257812c-79.679687 5.730469-112.734374-35.269531-125.5-60.9375 60.78125-14.015624 104.441407 31.621094 125.5 60.9375zm0 0" fill="#2cb3cd"/><path d="m191.542969 18.890625c-2.84375 3.257813-8.160157 9.046875-15.476563 15.777344-21.039062 19.339843-58.660156 46.417969-101.917968 43.296875-7.632813-.546875-15.433594-2.03125-23.347657-4.667969-9.285156-3.09375-18.710937-7.75-28.203125-14.332031 1.648438-4.8125 2.15625-5.773438 4.824219-9.902344 14.609375-22.546875 61.113281-74.355469 163.082031-34.34375 1.6875.667969 2.234375 2.800781 1.039063 4.171875zm0 0" fill="#44bfd7"/><path d="m176.066406 34.667969c-21.039062 19.339843-58.660156 46.417969-101.917968 43.296875-7.632813-.546875-15.433594-2.03125-23.347657-4.667969 16.0625-21.257813 53.785157-54.808594 125.265625-38.628906zm0 0" fill="#7cd2e3"/><path d="m103.269531 177.851562c-.628906 13.28125-2.339843 23.769532-3.339843 28.984376-.339844 1.773437-2.347657 2.6875-3.90625 1.761718-6.726563-3.976562-12.980469-8.066406-18.78125-12.28125-46.542969-33.726562-64.007813-74.335937-60.394532-112.003906 1-10.46875 3.628906-20.722656 7.71875-30.53125.753906-1.359375 1.710938-2.949219 2.855469-4.71875 5.996094 1.863281 11.539063 4.070312 16.660156 6.550781 12.324219 6 22.195313 13.652344 30.066407 22.351563 26.8125 29.613281 30.492187 71.242187 29.121093 99.886718zm0 0" fill="#44bfd7"/><path d="m77.242188 196.316406c-46.542969-33.726562-64.007813-74.335937-60.394532-112.003906.320313.144531.640625.296875.960938.453125 12.324218 5.996094 22.195312 13.652344 30.066406 22.347656 23.636719 26.109375 29.292969 61.554688 29.367188 89.203125zm0 0" fill="#7cd2e3"/><path d="m246.441406 276.605469c-48.601562 35.003906-95.753906-13.144531-104.59375-22.988281-.730468-.824219-.433594-2.140626.585938-2.554688 8.417968-3.441406 16.230468-5.839844 23.460937-7.386719 40.371094-8.65625 62.898438 9.261719 73.292969 21.90625 5.058594 6.128907 7.253906 11.023438 7.253906 11.023438zm0 0" fill="#44bfd7"/><path d="m239.1875 265.582031c-30.242188 9.171875-57.84375-8.574219-73.292969-21.90625 40.371094-8.65625 62.898438 9.261719 73.292969 21.90625zm0 0" fill="#60c8dd"/><path d="m246.957031 273.132812c-.328125 3.113282-.503906 3.761719-1.542969 6.597657-1 2.707031-2.464843 6.097656-4.546874 9.777343-8.5625 15.09375-27.664063 35.199219-68.59375 34.703126-6.179688-.070313-12.847657-.605469-20.0625-1.710938-1.089844-.164062-1.699219-1.371094-1.171876-2.347656 1.863282-3.453125 6.222657-10.984375 12.890626-19.28125 10.757812-13.402344 27.542968-28.796875 49.519531-32.136719 6.84375-1.039063 14.199219-.917969 22.019531.816406 3.71875.8125 7.554688 1.996094 11.488281 3.582031zm0 0" fill="#7cd2e3"/><path d="m235.46875 269.550781c-9.386719 14.578125-28.574219 31.941407-66.644531 31.476563-1.597657-.019532-3.226563-.070313-4.894531-.15625 10.757812-13.402344 27.542968-28.796875 49.519531-32.136719 6.84375-1.039063 14.199219-.917969 22.019531.816406zm0 0" fill="#c2eaf2"/><path d="m226.175781 443.820312c-38.199219 46.132813-95.984375 11.425782-107.007812 4.132813-.925781-.621094-.957031-1.957031-.082031-2.628906 7.089843-5.316407 13.878906-9.53125 20.339843-12.816407 38.484375-19.589843 65.53125-6.296874 78.339844 3.492188 5.535156 4.246094 8.410156 7.820312 8.410156 7.820312zm0 0" fill="#269ab1"/><path d="m217.765625 436c-27.859375 17.1875-60.289063 5.71875-78.339844-3.492188 38.484375-19.589843 65.53125-6.296874 78.339844 3.492188zm0 0" fill="#2cb3cd"/><path d="m225.96875 447.097656c-1.609375 16.453125-12.355469 57.917969-79.402344 64.894532-1.101562.113281-1.988281-.898438-1.722656-1.980469.96875-3.964844 3.433594-12.859375 8.109375-23.027344 7.121094-15.46875 19.371094-33.890625 39.3125-42.464844 6.460937-2.769531 13.722656-4.523437 21.882813-4.78125 3.699218-.121093 7.585937.0625 11.65625.589844.460937 3.089844.453124 3.761719.164062 6.769531zm0 0" fill="#44bfd7"/><path d="m214.148438 439.738281c-5.945313 17.054688-21.390626 39.054688-61.195313 47.246094 7.121094-15.46875 19.371094-33.890625 39.3125-42.464844 6.460937-2.769531 13.722656-4.523437 21.882813-4.78125zm0 0" fill="#7cd2e3"/><path d="m246.484375 276.515625c-.269531.914063-.628906 1.996094-1.070313 3.214844-13.128906-1.042969-23.609374-5.121094-31.964843-10.996094-29.449219-20.667969-32.644531-63.542969-32.984375-73.816406-.039063-1.113281 1.042968-1.925781 2.09375-1.585938 8.109375 2.605469 15.394531 5.65625 21.886718 9.054688 26.964844 14.160156 40.285157 34.558593 42.636719 55.808593.679688 6.078126.464844 12.230469-.597656 18.320313zm0 0" fill="#7cd2e3"/><path d="m247.082031 258.195312c-4.824219-1.816406-9.160156-4.152343-13.023437-6.875-17.527344-12.300781-25.75-32.457031-29.613282-48.933593 26.964844 14.160156 40.285157 34.558593 42.636719 55.808593zm0 0" fill="#c2eaf2"/><path d="m226.195312 443.71875c-.03125.945312-.101562 2.089844-.226562 3.378906-12.960938 2.308594-24.132812 1-33.703125-2.578125-33.707031-12.578125-47.617187-53.25-50.542969-63.109375-.308594-1.0625.527344-2.125 1.628906-2.0625 9.078126.503906 17.363282 1.730469 24.882813 3.585938 32.324219 7.933594 50.511719 27.316406 56.21875 50.191406.867187 3.460938 1.445313 6.996094 1.742187 10.59375zm0 0" fill="#44bfd7"/><path d="m224.453125 433.125c-4.132813-.628906-8.015625-1.660156-11.671875-3.03125-23.421875-8.746094-37.292969-31.054688-44.546875-47.160156 32.324219 7.933594 50.511719 27.316406 56.21875 50.191406zm0 0" fill="#7cd2e3"/></svg>