<svg height="512pt" viewBox="-3 0 512 512.00036" width="512pt" xmlns="http://www.w3.org/2000/svg"><path d="m358.007812 502.652344c-5.558593 3.382812-12.105468 6.433594-19.804687 9.023437-3.054687 1.023438-6.386719-.4375-7.648437-3.40625-6.953126-16.410156-22.296876-68.996093 49.472656-89.515625 0 0 .828125 1.738282 1.914062 4.761719 5.007813 13.925781 15.511719 55.078125-23.933594 79.136719zm0 0" fill="#60c8dd"/><path d="m358.007812 502.652344c-.011718-.023438-.019531-.050782-.03125-.074219-5.96875-14.082031-18.117187-54.828125 23.964844-79.0625 5.007813 13.925781 15.511719 55.078125-23.933594 79.136719zm0 0" fill="#a6e0ec"/><path d="m167.75 9.308594c-5.183594 2.917968-11.09375 6.550781-17.589844 11.039062-33.890625 23.394532-83.730468 69.949219-129.117187 158.988282-4.480469 8.785156-8.917969 17.984374-13.285157 27.605468-19.710937-107.839844 49.152344-194.765625 156.929688-206.9062498 5.402344-.6093752 7.792969 6.6015628 3.0625 9.2734378zm0 0" fill="#2cb3cd"/><path d="m150.160156 20.347656c-33.890625 23.394532-83.730468 69.949219-129.117187 158.988282 2.402343-77.585938 52.875-138.65625 129.117187-158.988282zm0 0" fill="#60c8dd"/><path d="m206.097656 184.40625c-17.632812 18.429688-76.851562 64.804688-198.339844 22.535156 7.792969-4.5625 16.390626-8.78125 25.570313-12.613281 47.824219-19.96875 111.398437-29.355469 158.59375-21.5 3.929687.652344 7.738281 1.417969 11.421875 2.316406 4.179688 1.027344 5.722656 6.15625 2.753906 9.261719zm0 0" fill="#2cb3cd"/><g fill="#60c8dd"><path d="m191.921875 172.828125c-23.457031 18.5625-73.207031 43.273437-158.59375 21.5 47.824219-19.96875 111.398437-29.355469 158.59375-21.5zm0 0"/><path d="m477.152344 389.8125c-23.285156-14.351562-51.414063-14.417969-74.097656-2.65625 15.214843-42.535156 17.042968-88.625 4.828124-133.085938-32.484374-118.261718-154.484374-187.699218-272.769531-155.207031-57.160156 15.699219-104.78125 52.71875-134.097656 104.238281-2.117187 3.726563-.816406 8.464844 2.910156 10.585938 3.722657 2.117188 8.460938.820312 10.582031-2.910156 64.722657-113.746094 217.636719-139.285156 315.84375-52.796875 26.40625 26.113281 31.8125 68.421875 9.984376 100.921875-19.152344 28.515625-57.738282 36.101562-86.261719 16.941406-22.105469-14.84375-27.980469-44.746094-13.132813-66.855469 11.398438-16.96875 34.359375-21.480469 51.332032-10.082031 17.773437 11.9375 15.335937 38.332031-.582032 46.027344.453125-2.304688.484375-4.734375.003906-7.179688-1.988281-10.117187-11.796874-16.707031-21.914062-14.71875-16.511719 3.242188-20.097656 24.894532-7.496094 33.355469 16.609375 11.15625 39.300782 6.773437 50.515625-9.921875 6.488281-9.65625 8.824219-21.265625 6.582031-32.683594-7.949218-40.460937-66.207031-50.847656-91.328124-13.449218-19.625 29.222656-11.863282 68.761718 17.363281 88.394531 35.660156 23.949219 83.871093 14.449219 107.800781-21.175781 12.847656-19.125 18.214844-41.75 15.464844-64.390626 31.738281 50.761719 40.570312 114.078126 21.765625 172.691407-5.578125-22.734375-21.632813-42.566407-44.96875-51.929688-49.097657-19.695312-98.683594 28.890625-79.742188 73.203125 9.800781 22.933594 36.082031 37.164063 60.175781 26.863282 10.378907-4.433594 18.410157-12.644532 22.609376-23.121094 11.367187-28.324219-16.742188-56.71875-42.480469-45.722656-7.328125 3.132812-13 8.929687-15.96875 16.328124-1.59375 3.976563.335937 8.496094 4.3125 10.09375 3.976562 1.59375 8.496093-.335937 10.09375-4.3125 5.152343-12.851562 23.328125-11.714843 29.46875 2.65625 2.082031 4.871094 2.140625 10.261719.167969 15.179688-9.257813 23.082031-42.722657 22.578125-54.109376-4.0625-13.496093-31.582031 23.285157-67.308594 59.691407-52.699219 27.773437 11.140625 45.789062 42.484375 33.039062 77.773438-3.195312 8.746093 9.054688 14.820312 14.25 6.390625 17.246094-27.980469 54.039063-36.714844 82.019531-19.46875 21.65625 13.347656 28.414063 41.824218 15.066407 63.480468-10.226563 16.597657-32.050781 21.777344-48.648438 11.546876-12.546875-7.734376-16.464843-24.234376-8.730469-36.78125 8.789063-14.261719 30.433594-11.394532 33.710938 2.402343.882812 3.71875.261719 7.558594-1.742188 10.816407-2.25 3.648437-1.117187 8.429687 2.535157 10.679687 3.648437 2.246094 8.429687 1.113281 10.675781-2.535156 4.183594-6.785157 5.472656-14.792969 3.632812-22.546875-6.460937-27.207032-45.976562-32.996094-62.023437-6.960938-17.570313 28.507813 3.121094 65.695313 40.410156 65.691406 17.085938 0 33.792969-8.585937 43.394531-24.167968 17.839844-28.945313 8.804688-67-20.136718-84.839844zm0 0"/></g></svg>