<svg height="511pt" viewBox="0 -117 511.99964 511" width="511pt" xmlns="http://www.w3.org/2000/svg"><path d="m487.816406 173.648438c-20.492187-13.421876-47.941406-7.703126-61.367187 12.792968-17.464844 26.667969 5.445312 61.566406 34.039062 55.605469 10.695313-2.230469 18.988281-10.570313 20.503907-15.171875 4.429687-11.21875-5.371094-23.160156-17.410157-20.652344-9.519531 1.984375-14.941406 12.304688-10.835937 21.371094-13.261719-1.144531-22.789063-19.042969-13.707032-32.90625 8.863282-13.535156 26.992188-17.3125 40.53125-8.449219 17.75 11.625 22.730469 35.523438 11.105469 53.269531-15.101562 23.054688-46.140625 29.523438-69.191406 14.421876-29.753906-19.488282-38.0625-59.335938-18.570313-89.089844 2.175782-3.328125 1.386719-7.773438-1.800781-10.152344s-7.679687-1.859375-10.25 1.175781c-.175781.210938-17.964843 20.988281-47.859375 34.242188-19.046875 8.445312-38.488281 12.058593-58.195312 10.882812 4.691406-2.1875 9.453125-4.644531 14.277344-7.402343 3.609374-2.0625 4.863281-6.660157 2.800781-10.269532s-6.660157-4.863281-10.265625-2.800781c-11.929688 6.816406-23.8125 11.945313-35.621094 15.394531-11.8125-3.449218-23.695312-8.578125-35.625-15.394531-3.605469-2.0625-8.203125-.808594-10.265625 2.800781s-.808594 8.207032 2.800781 10.269532c4.828125 2.757812 9.589844 5.214843 14.28125 7.402343-19.710937 1.175781-39.152344-2.4375-58.195312-10.882812-29.894532-13.253907-47.683594-34.03125-47.851563-34.234375-2.5625-3.046875-7.058593-3.574219-10.253906-1.195313-3.195313 2.378907-3.984375 6.832031-1.804687 10.164063 19.488281 29.75 11.183593 69.601562-18.570313 89.089844-23.050781 15.097656-54.089844 8.632812-69.191406-14.421876-17.921875-27.359374 5.226562-63.257812 33.121093-57.4375 7.652344 1.59375 14.230469 6.074219 18.515626 12.617188 8.972656 13.703125-.285157 31.765625-13.730469 32.90625 4.113281-9.070312-1.320313-19.386719-10.835938-21.371094-15.140625-3.15625-24.84375 15.609375-13.652343 26.183594 4.390624 4.902344 10.207031 8.273438 16.769531 9.640625 28.597656 5.964844 51.5-28.941406 34.039062-55.605469-13.421875-20.492187-40.871093-26.214844-61.367187-12.789062-24.691406 16.171875-31.621094 49.414062-15.449219 74.105468 19.75 30.144532 60.175781 38.320313 90.027344 18.765626 27.609375-18.082032 39.800781-49.976563 34.847656-79.5625 36.328125 26.285156 78.945313 35.714843 122.390625 24.472656 43.421875 11.242187 86.046875 1.824218 122.394531-24.472656-7.757812 46.339843 27.09375 90.175781 70.375 90.175781 21.210938 0 42.03125-10.347657 54.496094-29.378907 16.171875-24.691406 9.242187-57.933593-15.449219-74.109374zm0 0" fill="#c1bde0"/><path d="m270.035156 123.425781c-3.601562 4.125-7.933594 7.96875-13.082031 11.4375 0 0-66.726563-36.210937-3.691406-132.40625 1.714843-2.617187 5.628906-2.558593 7.605469-.128906 2.507812 3.070313 6.019531 8.648437 9.621093 15.914063 12.945313 26.066406 27.019531 73.816406-.453125 105.183593zm0 0" fill="#aba6d5"/><path d="m270.035156 123.425781c-14.1875-15.78125-30.371094-48.863281.453125-105.183593 12.945313 26.066406 27.019531 73.816406-.453125 105.183593zm0 0" fill="#c1bde0"/><path d="m259.101562 116.59375c-.023437 5.820312-.863281 11.910156-2.691406 18.269531 0 0-74.390625 15.152344-87.9375-99.0625-.359375-3.109375 2.671875-5.570312 5.75-4.988281 4.175782.792969 11.085938 3.050781 19.214844 6.722656 26.449219 11.929688 65.800781 38.8125 65.664062 79.058594zm0 0" fill="#8078bf"/><path d="m259.101562 116.59375c-20.882812-3.363281-53.070312-18.703125-65.664062-79.058594 26.449219 11.929688 65.800781 38.8125 65.664062 79.058594zm0 0" fill="#958fca"/><path d="m343.523438 35.800781c-.863282 7.292969-1.976563 14.058594-3.300782 20.328125-13.785156 65.269532-50.601562 77.5625-70.828125 79.175782-8.296875.683593-13.808593-.441407-13.808593-.441407-18.351563-63.984375 62.484374-100.285156 82.1875-104.050781 3.082031-.582031 6.113281 1.878906 5.75 4.988281zm0 0" fill="#8078bf"/><path d="m340.222656 56.128906c-13.785156 65.269532-50.601562 77.5625-70.828125 79.175782 1.292969-41.78125 45.140625-68.78125 70.828125-79.175782zm0 0" fill="#958fca"/><path d="m256.410156 134.863281s-47.25 59.421875-131.042968-19.363281c-2.277344-2.148438-1.535157-5.980469 1.203124-7.515625 3.753907-2.097656 10.628907-4.855469 19.378907-7.292969 30.914062-8.632812 85.246093-13.265625 108.101562 29.367188.835938 1.535156 1.617188 3.140625 2.359375 4.804687zm0 0" fill="#51489a"/><path d="m254.050781 130.058594c-20.398437 10.503906-57.273437 16.144531-108.101562-29.367188 30.914062-8.632812 85.246093-13.265625 108.101562 29.367188zm0 0" fill="#5f55af"/><path d="m386.628906 115.5c-4.03125 3.792969-7.976562 7.265625-11.839844 10.433594-42.804687 35.167968-75.0625 33.734375-95.148437 25.65625-15.773437-6.320313-24.054687-16.726563-24.054687-16.726563.304687-.671875.605468-1.324219.925781-1.976562 21.972656-45.761719 78.191406-40.988281 109.738281-32.136719 8.660156 2.417969 15.453125 5.148438 19.175781 7.234375 2.738281 1.535156 3.480469 5.367187 1.203125 7.515625zm0 0" fill="#51489a"/><path d="m366.25 100.75c-3.351562 3.082031-6.640625 5.949219-9.871094 8.597656-42.804687 35.167969-75.0625 33.734375-95.152344 25.65625-1.65625-.660156-3.230468-1.375-4.714843-2.117187 21.972656-45.761719 78.191406-40.988281 109.738281-32.136719zm0 0" fill="#5f55af"/></svg>