<svg height="511pt" viewBox="1 -105 511.999 511" width="511pt" xmlns="http://www.w3.org/2000/svg"><g fill="#fc7979"><path d="m83.855469 155.527344c0 8.789062-7.125 15.914062-15.914063 15.914062-8.789062 0-15.917968-7.125-15.917968-15.914062 0-8.789063 7.128906-15.914063 15.917968-15.914063 8.789063 0 15.914063 7.125 15.914063 15.914063zm0 0"/><path d="m458.765625 155.527344c0 8.789062-7.128906 15.914062-15.917969 15.914062-8.789062 0-15.914062-7.125-15.914062-15.914062 0-8.789063 7.125-15.914063 15.914062-15.914063 8.789063 0 15.917969 7.125 15.917969 15.914063zm0 0"/><path d="m458.765625 284.6875c0 8.792969-7.128906 15.917969-15.917969 15.917969-8.789062 0-15.914062-7.125-15.914062-15.917969 0-8.789062 7.125-15.914062 15.914062-15.914062 8.789063 0 15.917969 7.125 15.917969 15.914062zm0 0"/><path d="m83.855469 284.6875c0 8.792969-7.125 15.917969-15.914063 15.917969-8.789062 0-15.917968-7.125-15.917968-15.917969 0-8.789062 7.128906-15.914062 15.917968-15.914062 8.789063 0 15.914063 7.125 15.914063 15.914062zm0 0"/></g><path d="m117.429688 162.714844h275.929687c3.640625 23.921875 24.347656 42.304687 49.269531 42.304687 15.738282 0 30.21875-7.199219 39.738282-19.75 2.511718-3.316406 1.863281-8.042969-1.453126-10.554687-3.316406-2.511719-8.042968-1.863282-10.554687 1.449218-6.640625 8.765626-16.75 13.789063-27.730469 13.789063-18.527344 0-33.71875-14.5625-34.71875-32.847656 1.257813-4.796875-2.363281-9.457031-7.285156-9.457031h-290.160156c-4.160156 0-7.535156 3.375-7.535156 7.535156 0 33.171875-42.386719 47.515625-62.5 20.980468-2.515626-3.3125-7.238282-3.964843-10.554688-1.449218-3.316406 2.511718-3.964844 7.238281-1.453125 10.554687 26.664063 35.167969 82.421875 20.714844 89.007813-22.554687zm0 0" fill="#fb5858"/><path d="m393.359375 277.5h-275.929687c-6.59375-43.316406-62.375-57.679688-89.007813-22.550781-2.511719 3.3125-1.863281 8.039062 1.453125 10.550781 3.316406 2.515625 8.039062 1.863281 10.554688-1.449219 19.558593-25.800781 60.691406-13.101562 62.449218 19.058594-1.257812 4.800781 2.363282 9.457031 7.285156 9.457031h290.160157c4.160156 0 7.53125-3.371094 7.53125-7.535156 0-33.167969 42.390625-47.515625 62.503906-20.980469 2.511719 3.3125 7.234375 3.964844 10.554687 1.449219 3.316407-2.511719 3.964844-7.238281 1.453126-10.550781-26.664063-35.171875-82.421876-20.71875-89.007813 22.550781zm0 0" fill="#fb5858"/><path d="m46.824219 227.726562c4.335937.230469 8.148437-3.292968 7.90625-8.09375-.210938-4.152343-3.726563-7.359374-7.90625-7.140624-11.253907.570312-19.699219-1.695313-25.101563-6.734376-6.335937-5.90625-6.648437-14.136718-6.65625-14.433593-.035156-4.128907-3.394531-7.46875-7.535156-7.46875-4.160156 0-7.53125 3.371093-7.53125 7.53125 0 9.574219 5.273438 21.617187 15.621094 28.726562-10.433594 7.171875-15.621094 19.359375-15.621094 28.714844 0 4.160156 3.371094 7.53125 7.53125 7.53125 4.164062 0 7.535156-3.371094 7.535156-7.53125 0-.082031.175782-8.210937 6.515625-14.234375 5.394531-5.132812 13.886719-7.441406 25.242188-6.867188zm0 0" fill="#fb5858"/><path d="m496.378906 220.113281c10.417969-7.152343 15.621094-19.320312 15.621094-28.726562 0-4.160157-3.371094-7.53125-7.535156-7.53125-4.160156 0-7.53125 3.371093-7.53125 7.53125 0 .082031-.179688 8.210937-6.515625 14.238281-5.398438 5.128906-13.882813 7.441406-25.246094 6.863281-4.226563-.230469-8.144531 3.164063-7.902344 8.09375.210938 4.15625 3.746094 7.367188 7.902344 7.144531 11.253906-.570312 19.703125 1.695313 25.105469 6.734376 6.335937 5.90625 6.648437 14.132812 6.65625 14.429687.03125 4.132813 3.394531 7.46875 7.53125 7.46875 4.164062 0 7.535156-3.371094 7.535156-7.53125 0-9.585937-5.261719-21.597656-15.621094-28.714844zm0 0" fill="#fb5858"/><path d="m353.875 62c-4.160156 0-7.53125 3.371094-7.53125 7.53125 0 47.421875-47.351562 80.078125-86.132812 47.734375-2.867188-2.390625-7.058594-2.3125-9.832032.160156-9.40625 8.394531-20.714844 12.832031-32.699218 12.832031-29.355469 0-53.234376-27.242187-53.234376-60.726562 0-4.160156-3.371093-7.53125-7.53125-7.53125-4.164062 0-7.535156 3.371094-7.535156 7.53125 0 60.664062 61.078125 96.207031 106.015625 63.191406 44.867188 32.964844 106.011719-2.453125 106.011719-63.191406 0-4.160156-3.371094-7.53125-7.53125-7.53125zm0 0" fill="#fdbcbc"/><path d="m262.335938 104.484375c-2.753907 2.964844-5.988282 5.738281-9.746094 8.269531 0 0-56.746094-30.253906-4.074219-110.625 1.425781-2.1796872 4.699219-2.128906 6.347656-.101562 1.828125 2.238281 4.335938 6.097656 6.988281 11.089844 11.472657 21.523437 25.734376 64.308593.484376 91.367187zm0 0" fill="#fb5858"/><path d="m262.335938 104.484375c-12.535157-12.773437-28.726563-41.308594-.484376-91.367187 11.472657 21.523437 25.734376 64.308593.484376 91.367187zm0 0" fill="#fc7979"/><path d="m254.8125 99.03125c-.152344 4.390625-.855469 8.96875-2.222656 13.722656 0 0-62.148438 12.652344-73.460938-82.765625-.308594-2.601562 2.230469-4.648437 4.800782-4.167969 4.027343.773438 11.101562 3.164063 19.277343 7.121094 22.277344 10.796875 52.710938 33.226563 51.605469 66.089844zm0 0" fill="#fd9a9a"/><path d="m254.8125 99.03125c-17.457031-3.925781-41.855469-18.269531-51.605469-66.089844 22.277344 10.796875 52.710938 33.226563 51.605469 66.089844zm0 0" fill="#fdbcbc"/><path d="m324.878906 29.988281c-.664062 5.585938-1.496094 10.800781-2.492187 15.671875-10.484375 51.726563-38.085938 64.390625-55.613281 67.023438-9.007813 1.363281-15.355469.070312-15.355469.070312-15.339844-53.457031 52.195312-83.789062 68.660156-86.933594 2.570313-.480468 5.109375 1.566407 4.800781 4.167969zm0 0" fill="#fd9a9a"/><path d="m322.386719 45.660156c-10.484375 51.726563-38.085938 64.390625-55.613281 67.023438-.542969-34.363282 33.375-57.171875 55.613281-67.023438zm0 0" fill="#fdbcbc"/></svg>