<svg height="512pt" viewBox="-136 0 512 512.00005" width="512pt" xmlns="http://www.w3.org/2000/svg"><path d="m35.789062 466.757812c0 9.882813-8.011718 17.894532-17.894531 17.894532-9.882812 0-17.894531-8.011719-17.894531-17.894532 0-9.878906 8.011719-17.890624 17.894531-17.890624 9.882813 0 17.894531 8.011718 17.894531 17.890624zm0 0" fill="#84b017"/><path d="m174.050781 289.203125c-68.242187-13.597656-123.871093 15.589844-148.984375 63.800781v-252.910156c40.585938-5.589844 60.453125-51.816406 38.492188-84.976562h31.480468c4.175782 0 7.558594-3.382813 7.558594-7.558594 0-4.175782-3.382812-7.558594-7.558594-7.558594h-48.824218c-7.226563 0-10.320313 9.21875-4.566406 13.582031 29.65625 22.484375 15.089843 69.960938-22.078126 71.859375-4.835937-1.367187-9.621093 2.273438-9.621093 7.273438v326.234375c0 4.171875 3.382812 7.558593 7.558593 7.558593 38.164063 0 54.667969 48.765626 24.140626 71.910157-3.324219 2.519531-3.976563 7.261719-1.457032 10.589843 2.515625 3.316407 7.257813 3.984376 10.59375 1.457032 33.03125-25.042969 27.550782-75.851563-9.46875-93.65625 32.136719-5.796875 65.640625-.46875 94.605469 15.488281 1.15625.636719 2.40625.9375 3.640625.9375 7.800781 0 10.472656-10.425781 3.652344-14.179687-35.945313-19.804688-78.21875-24.792969-117.585938-14.203126 6.554688-71.386718 68.039063-116.253906 145.46875-100.824218 4.101563.816406 8.074219-1.839844 8.890625-5.933594.816407-4.09375-1.84375-8.078125-5.9375-8.890625zm0 0" fill="#9bcf1b"/><path d="m160.222656 294.769531c35.257813-28.226562 72.613282 6.226563 79.648438 13.296875.582031.59375.40625 1.597656-.347656 1.949219-6.207032 2.914063-11.996094 5.019531-17.382813 6.460937-30.070313 8.066407-47.71875-4.558593-56.035156-13.683593-4.042969-4.421875-5.882813-8.023438-5.882813-8.023438zm0 0" fill="#af2727"/><path d="m166.105469 302.792969c22.425781-8.066407 43.894531 4.234375 56.035156 13.683593-30.070313 8.066407-47.71875-4.5625-56.035156-13.683593zm0 0" fill="#c42d2d"/><path d="m159.964844 297.402344c.128906-2.355469.238281-2.851563.914062-5.023438.648438-2.078125 1.621094-4.6875 3.046875-7.539062 5.867188-11.695313 19.480469-27.566406 50.320313-28.765625 4.660156-.183594 9.699218-.035157 15.175781.519531.828125.082031 1.332031.964844.972656 1.722656-1.269531 2.671875-4.265625 8.511719-8.964843 15.011719-7.585938 10.511719-19.636719 22.746094-36.058594 26.105469-5.113282 1.042968-10.660156 1.234375-16.613282.230468-2.835937-.472656-5.765624-1.21875-8.792968-2.261718zm0 0" fill="#f44545"/><path d="m168.757812 299.664062c6.507813-11.339843 20.289063-25.152343 48.976563-26.265624 1.203125-.042969 2.433594-.070313 3.691406-.070313-7.585937 10.507813-19.632812 22.746094-36.058593 26.101563-5.109376 1.046874-10.65625 1.238281-16.609376.234374zm0 0" fill="#fc7979"/><path d="m160.195312 294.839844c.164063-.699219.394532-1.527344.683594-2.460938 9.925782.277344 17.972656 2.949219 24.488282 7.050782 22.972656 14.4375 27.023437 46.601562 27.671874 54.324218.074219.835938-.707031 1.492188-1.511718 1.273438-6.207032-1.648438-11.808594-3.667969-16.828125-5.980469-20.851563-9.625-31.667969-24.476563-34.253907-40.386719-.742187-4.554687-.816406-9.191406-.25-13.820312zm0 0" fill="#f44545"/><path d="m160.445312 308.660156c3.703126 1.179688 7.058594 2.773438 10.074219 4.675782 13.671875 8.589843 20.636719 23.453124 24.179688 35.710937-20.851563-9.625-31.667969-24.476563-34.253907-40.386719zm0 0" fill="#fc7979"/><path d="m120.324219 416.652344c41.265625-18.976563 69.347656 23.71875 74.492187 32.328125.425782.722656.011719 1.660156-.808594 1.816406-6.765624 1.335937-12.925781 1.988281-18.535156 2.085937-31.304687.566407-45.457031-16.050781-51.355468-26.96875-2.871094-5.300781-3.792969-9.261718-3.792969-9.261718zm0 0" fill="#af2727"/><path d="m124.117188 425.914062c23.839843-2.425781 41.800781 14.796876 51.355468 26.96875-31.300781.566407-45.457031-16.046874-51.355468-26.96875zm0 0" fill="#c42d2d"/><path d="m119.433594 419.160156c.699218-2.265625.925781-2.722656 2.109375-4.683594 1.140625-1.871093 2.722656-4.179687 4.804687-6.613281 8.570313-9.988281 25.714844-22.167969 56.097656-15.84375 4.589844.953125 9.476563 2.320313 14.679688 4.191407.789062.28125 1.066406 1.269531.535156 1.917968-1.890625 2.296875-6.230468 7.269532-12.398437 12.472656-9.957031 8.410157-24.691407 17.425782-41.53125 16.710938-5.242188-.222656-10.703125-1.382812-16.269531-3.8125-2.648438-1.144531-5.328126-2.585938-8.027344-4.339844zm0 0" fill="#f44545"/><path d="m127.460938 423.5c9.109374-9.480469 25.914062-19.613281 54.179687-13.726562 1.1875.25 2.390625.523437 3.621094.828124-9.957031 8.410157-24.6875 17.425782-41.53125 16.710938-5.242188-.222656-10.699219-1.386719-16.269531-3.8125zm0 0" fill="#fc7979"/><path d="m120.28125 416.714844c.332031-.644532.757812-1.394532 1.261719-2.238282 9.621093 2.6875 16.824219 7.25 22.1875 12.835938 18.90625 19.667969 15.042969 52.039062 13.804687 59.734375-.132812.832031-1.058594 1.28125-1.789062.875-5.65625-3.121094-10.632813-6.449219-14.96875-9.925781-18.007813-14.460938-24.953125-31.582032-23.609375-47.734375.378906-4.625 1.433593-9.167969 3.113281-13.546875zm0 0" fill="#f44545"/><path d="m117.167969 430.261719c3.324219 2.050781 6.210937 4.421875 8.691406 7.007812 11.253906 11.707031 14.441406 27.902344 14.917969 40.726563-18.007813-14.457032-24.953125-31.582032-23.609375-47.734375zm0 0" fill="#fc7979"/></svg>