<svg height="512pt" viewBox="-1 -131 512.00045 512" width="512pt" xmlns="http://www.w3.org/2000/svg"><g fill="#b9e746"><path d="m183.21875 147.347656-21.328125 5.175782c-50.710937 12.296874-103.082031 8.433593-151.441406-11.183594-3.886719-1.578125-8.3125.292968-9.890625 4.179687-1.574219 3.886719.296875 8.3125 4.179687 9.886719 31.710938 12.863281 65.03125 19.34375 98.570313 19.34375 20.75 0 41.585937-2.484375 62.160156-7.472656l21.328125-5.175782c4.074219-.988281 6.574219-5.089843 5.589844-9.167968-.988281-4.074219-5.09375-6.574219-9.167969-5.585938zm0 0"/><path d="m183.21875 182.707031-21.328125 5.171875c-36.175781 8.777344-74.523437 9.238282-110.898437 1.339844-4.09375-.886719-8.140626 1.710938-9.03125 5.808594-.886719 4.097656 1.710937 8.140625 5.808593 9.03125 18.261719 3.964844 36.988281 5.945312 55.71875 5.945312 20.871094 0 41.75-2.460937 61.984375-7.367187l21.324219-5.171875c4.074219-.988282 6.578125-5.09375 5.589844-9.167969-.992188-4.074219-5.09375-6.578125-9.167969-5.589844zm0 0"/><path d="m511.441406 145.519531c-1.574218-3.886719-6.003906-5.757812-9.886718-4.179687-48.363282 19.617187-100.734376 23.484375-151.445313 11.183594l-21.324219-5.175782c-4.078125-.988281-8.179687 1.515625-9.167968 5.589844-.992188 4.074219 1.511718 8.179688 5.585937 9.167969l21.328125 5.171875c20.578125 4.992187 41.40625 7.476562 62.164062 7.476562 33.53125 0 66.863282-6.484375 98.566407-19.34375 3.882812-1.578125 5.753906-6.003906 4.179687-9.890625zm0 0"/><path d="m461.011719 189.21875c-36.378907 7.898438-74.726563 7.4375-110.902344-1.339844l-21.328125-5.171875c-4.078125-.988281-8.179688 1.515625-9.167969 5.589844s1.515625 8.179687 5.589844 9.167969l21.328125 5.171875c20.234375 4.910156 41.105469 7.367187 61.980469 7.367187 18.730469 0 37.460937-1.980468 55.71875-5.945312 4.097656-.890625 6.699219-4.933594 5.808593-9.03125-.890624-4.097656-4.929687-6.699219-9.027343-5.808594zm0 0"/></g><path d="m51.066406 118.382812c0 6.878907-5.578125 12.457032-12.457031 12.457032s-12.457031-5.578125-12.457031-12.457032c0-6.878906 5.578125-12.457031 12.457031-12.457031s12.457031 5.578125 12.457031 12.457031zm0 0" fill="#84b017"/><path d="m102.554688 130.839844c0 6.878906-5.578126 12.457031-12.457032 12.457031s-12.457031-5.578125-12.457031-12.457031 5.578125-12.457032 12.457031-12.457032 12.457032 5.578126 12.457032 12.457032zm0 0" fill="#84b017"/><path d="m485.847656 118.382812c0 6.878907-5.574218 12.457032-12.457031 12.457032-6.878906 0-12.457031-5.578125-12.457031-12.457032 0-6.878906 5.578125-12.457031 12.457031-12.457031 6.882813 0 12.457031 5.578125 12.457031 12.457031zm0 0" fill="#84b017"/><path d="m434.359375 130.839844c0 6.878906-5.578125 12.457031-12.457031 12.457031s-12.457032-5.578125-12.457032-12.457031 5.578126-12.457032 12.457032-12.457032 12.457031 5.578126 12.457031 12.457032zm0 0" fill="#84b017"/><path d="m253.226562 150.53125c-2.910156 20.507812-16.015624 50.28125-65.03125 64.367188-2.699218.785156-5.507812 1.507812-8.429687 2.1875-9.488281 2.199218-17.558594-5.671876-15.570313-15.199219 6.015626-28.78125 25.644532-80.273438 88.789063-72.882813 0 0 2.011719 9.050782.242187 21.527344zm0 0" fill="#ffa90b"/><path d="m253.226562 150.53125c-2.910156 20.507812-16.015624 50.28125-65.03125 64.367188 6.898438-25.257813 23.835938-59.65625 65.03125-64.367188zm0 0" fill="#ffb52d"/><path d="m347.800781 48.46875c-.558593 2.652344-1.230469 5.496094-2.035156 8.46875-7.113281 26.164062-24.980469 62.3125-69.542969 64.980469-5.34375.316406-11.066406.15625-17.207031-.5625 0 0-15.023437-67.632813 73.210937-88.078125 9.496094-2.203125 17.558594 5.664062 15.574219 15.191406zm0 0" fill="#ffa90b"/><path d="m345.765625 56.9375c-7.113281 26.164062-24.980469 62.3125-69.542969 64.980469 3.1875-21.109375 17.273438-51.601563 69.542969-64.980469zm0 0" fill="#ffb52d"/><path d="m252.171875 122.160156s-67.632813 15.023438-88.082031-73.210937c-2.199219-9.496094 5.675781-17.558594 15.199218-15.570313 2.632813.546875 5.445313 1.214844 8.394532 2.015625 26.058594 7.070313 62.09375 24.8125 65.015625 69.019531.367187 5.496094.21875 11.402344-.527344 17.746094zm0 0" fill="#ffa90b"/><path d="m252.699219 104.414062c-21.039063-3.128906-51.53125-17.050781-65.015625-69.019531 26.058594 7.070313 62.09375 24.8125 65.015625 69.019531zm0 0" fill="#ffb52d"/><path d="m332.710938 216.976562c-2.3125-.484374-4.769532-1.054687-7.332032-1.734374-26.910156-7.070313-65.320312-25.542969-66.253906-73.34375-.089844-4.328126.132812-8.890626.695312-13.707032 0 0 67.632813-15.019531 88.078126 73.222656 2.203124 9.488282-5.671876 17.558594-15.1875 15.5625zm0 0" fill="#ffa90b"/><path d="m325.378906 215.242188c-26.910156-7.070313-65.316406-25.542969-66.253906-73.34375 21.617188 3.160156 53.328125 17.691406 66.253906 73.34375zm0 0" fill="#ffb52d"/><path d="m251.164062 125.75s-37.203124 58.445312-114.054687 10.511719c-8.265625-5.160157-8.40625-16.425781-.261719-21.753907 2.125-1.390624 4.4375-2.828124 6.921875-4.269531 22.835938-13.195312 59.871094-26.15625 92.824219.578125 4.972656 4.027344 9.847656 8.960938 14.570312 14.933594zm0 0" fill="#ffc14f"/><path d="m375.152344 135.847656c-24.605469 16.101563-74.890625 38.632813-114.316406-11.242187 0 0 4.816406-7.574219 14.566406-15.03125 16.550781-12.652344 47.308594-24.980469 92.820312.578125 2.183594 1.222656 4.40625 2.535156 6.667969 3.949218 8.265625 5.152344 8.40625 16.421876.261719 21.746094zm0 0" fill="#ffc14f"/><path d="m236.59375 110.816406c-16.542969 12.652344-47.304688 24.980469-92.824219-.578125 22.835938-13.195312 59.871094-26.15625 92.824219.578125zm0 0" fill="#ffcd71"/><path d="m368.222656 110.152344c-22.84375 13.195312-59.875 26.148437-92.816406-.578125 16.550781-12.65625 47.304688-24.980469 92.816406.578125zm0 0" fill="#ffcd71"/><path d="m269.308594 107.035156c-3.824219 4.535156-8.414063 8.984375-13.882813 13.304688 0 0-58.445312-37.199219-10.511719-114.054688 5.160157-8.265625 16.425782-8.40625 21.753907-.261718 1.0625 1.617187 2.144531 3.339843 3.234375 5.167968 13.699218 22.949219 28.246094 61.730469-.59375 95.84375zm0 0" fill="#ffc14f"/><path d="m270.015625 239.160156c-.925781 1.617188-1.90625 3.253906-2.9375 4.90625-5.152344 8.269532-16.425781 8.40625-21.753906.265625-16.097657-24.609375-38.636719-74.886719 11.25-114.320312 0 0 6.914062 4.402343 14.035156 13.304687 13.136719 16.417969 26.984375 48.160156-.59375 95.84375zm0 0" fill="#ffc14f"/><path d="m269.308594 107.035156c-13.136719-16.417968-26.980469-48.160156.59375-95.84375 13.699218 22.949219 28.246094 61.730469-.59375 95.84375zm0 0" fill="#ffcd71"/><path d="m270.015625 239.160156c-13.699219-22.945312-28.246094-61.71875.59375-95.84375 13.136719 16.417969 26.984375 48.160156-.59375 95.84375zm0 0" fill="#ffcd71"/><path d="m335.871094 117.105469h-61.984375l43.5-43.496094c2.925781-2.929687 2.925781-7.691406 0-10.617187-2.929688-2.929688-7.691407-2.925782-10.617188 0l-43.828125 43.828124v-61.515624c0-4.140626-3.371094-7.507813-7.507812-7.507813-4.140625 0-7.507813 3.367187-7.507813 7.507813v61.984374l-43.5-43.5c-4.742187-4.742187-12.816406-1.316406-12.816406 5.308594 0 5.511719 1.28125 3.316406 46.027344 49.136719h-61.511719c-4.140625 0-7.507812 3.371094-7.507812 7.507813 0 4.140624 3.367187 7.507812 7.507812 7.507812h61.980469l-43.496094 43.5c-2.929687 2.925781-2.929687 7.6875 0 10.617188 2.925781 2.925781 7.691406 2.925781 10.617187 0l43.828126-43.828126v61.515626c0 4.136718 3.367187 7.507812 7.507812 7.507812s7.507812-3.371094 7.507812-7.507812v-62.042969c46.066407 45.390625 43.550782 45.753906 48.804688 45.753906 6.65625 0 10.046875-8.082031 5.308594-12.816406l-43.828125-43.828125h61.515625c4.140625 0 7.507812-3.367188 7.507812-7.507813s-3.367187-7.507812-7.507812-7.507812zm0 0" fill="#f29500"/><path d="m292.6875 125.179688c0 17.371093-12.070312 31.917968-28.277344 35.71875-2.703125.636718-5.519531.972656-8.414062.972656-20.265625 0-36.691406-16.425782-36.691406-36.6875 0-20.265625 16.425781-36.691406 36.691406-36.691406 5.175781 0 10.109375 1.074218 14.578125 3.011718 13.011719 5.632813 22.113281 18.589844 22.113281 33.675782zm0 0" fill="#7c3f2c"/><path d="m292.6875 125.179688c0 17.371093-12.070312 31.917968-28.277344 35.71875-13.003906-5.636719-22.105468-18.597657-22.105468-33.679688 0-17.367188 12.0625-31.914062 28.269531-35.714844 13.011719 5.632813 22.113281 18.589844 22.113281 33.675782zm0 0" fill="#954c35"/></svg>