<svg height="512pt" viewBox="0 0 512 512" width="512pt" xmlns="http://www.w3.org/2000/svg"><path d="m512 22.171875c0 3.03125-1.441406 5.851563-3.824219 7.625-.550781.417969-1.15625.773437-1.804687 1.066406-28.804688 12.886719-151.410156 73.769531-232.375 208.382813-3.207032 5.316406-6.339844 10.75-9.402344 16.292968-3.746094-5.667968-5.730469-12.324218-5.730469-19.089843 0-.648438.019531-1.296875.050781-1.945313 6.863282-122.980468 118.941407-217.457031 243.152344-221.886718 5.085938-.179688 9.441406 3.625 9.890625 8.699218.023438.292969.042969.574219.042969.855469zm0 0" fill="#b9e746"/><path d="m508.175781 29.796875c-.550781.417969-1.15625.773437-1.804687 1.066406-28.804688 12.886719-151.410156 73.769531-232.375 208.382813 12.917968-114.480469 117.238281-201.648438 234.179687-209.449219zm0 0" fill="#caed73"/><path d="m255.539062 247.40625c-5.667968 3.746094-12.324218 5.730469-19.089843 5.730469-.648438 0-1.296875-.019531-1.945313-.050781-122.980468-6.863282-217.457031-118.941407-221.886718-243.152344-.179688-5.085938 3.625-9.441406 8.699218-9.8906252.292969-.0234376.574219-.0429688.855469-.0429688 1.589844 0 3.125.398438 4.480469 1.128906 1.820312.960938 3.324218 2.527344 4.210937 4.5 12.816407 28.648438 73.097657 150.042969 206.136719 231.027344 6.027344 3.667969 12.210938 7.257812 18.539062 10.75zm0 0" fill="#b9e746"/><path d="m237 236.65625c-115.292969-12.5625-203.078125-117.800781-210.347656-235.527344 1.820312.960938 3.324218 2.527344 4.210937 4.5 12.816407 28.648438 73.097657 150.042969 206.136719 231.027344zm0 0" fill="#caed73"/><path d="m253.136719 275.550781c0 .648438-.019531 1.296875-.050781 1.945313-6.863282 122.980468-118.941407 217.457031-243.152344 221.886718-5.085938.179688-9.441406-3.625-9.8906252-8.699218-.0234376-.292969-.0429688-.574219-.0429688-.855469 0-3.730469 2.183594-7.144531 5.628906-8.691406 2.152344-.960938 4.824219-2.191407 7.96875-3.695313 39.386719-18.925781 152.207032-81.632812 227.144532-209.292968 2.265624-3.835938 4.480468-7.730469 6.664062-11.6875 3.746094 5.667968 5.730469 12.324218 5.730469 19.089843zm0 0" fill="#b9e746"/><path d="m240.742188 268.148438c-12.460938 112.359374-112.964844 198.503906-227.144532 209.292968 39.386719-18.925781 152.207032-81.632812 227.144532-209.292968zm0 0" fill="#caed73"/><path d="m499.382812 502.066406c.179688 5.085938-3.625 9.441406-8.699218 9.890625-.03125 0-.0625 0-.09375.011719-.261719.011719-.511719.03125-.761719.03125-3.730469 0-7.144531-2.183594-8.691406-5.628906-12.09375-27.019532-66.414063-136.589844-184.226563-216.898438-12.730468-8.6875-26.203125-17.023437-40.449218-24.878906 5.667968-3.746094 12.324218-5.730469 19.089843-5.730469.648438 0 1.296875.019531 1.945313.050781 122.980468 6.863282 217.457031 118.941407 221.886718 243.152344zm0 0" fill="#b9e746"/><path d="m490.589844 511.96875c-.261719.011719-.511719.03125-.761719.03125-3.730469 0-7.144531-2.183594-8.691406-5.628906-12.09375-27.019532-66.414063-136.589844-184.226563-216.898438 104.015625 19.355469 182.472656 114.554688 193.679688 222.496094zm0 0" fill="#caed73"/><path d="m251.917969 293.324219c-4.285157 30.1875-23.578125 74.015625-95.730469 94.75-3.972656 1.152343-8.101562 2.21875-12.410156 3.21875-13.964844 3.238281-25.84375-8.351563-22.917969-22.371094 8.855469-42.367187 37.75-118.167969 130.703125-107.289063 0 0 2.957031 13.324219.355469 31.691407zm0 0" fill="#ffa90b"/><path d="m251.917969 293.324219c-4.285157 30.1875-23.578125 74.015625-95.730469 94.75 10.15625-37.179688 35.089844-87.820313 95.730469-94.75zm0 0" fill="#ffb52d"/><path d="m391.132812 143.078125c-.820312 3.90625-1.808593 8.09375-2.992187 12.472656-10.472656 38.515625-36.769531 91.726563-102.371094 95.65625-7.867187.460938-16.292969.226563-25.332031-.828125 0 0-22.113281-99.5625 107.773438-129.660156 13.976562-3.238281 25.847656 8.339844 22.921874 22.359375zm0 0" fill="#ffa90b"/><path d="m388.140625 155.550781c-10.472656 38.511719-36.769531 91.726563-102.371094 95.652344 4.691407-31.074219 25.429688-75.960937 102.371094-95.652344zm0 0" fill="#ffb52d"/><path d="m250.367188 251.5625s-99.5625 22.113281-129.660157-107.773438c-3.238281-13.976562 8.351563-25.847656 22.371094-22.921874 3.875.808593 8.015625 1.789062 12.355469 2.972656 38.359375 10.40625 91.402344 36.523437 95.707031 101.59375.539063 8.09375.324219 16.789062-.773437 26.128906zm0 0" fill="#ffa90b"/><path d="m251.140625 225.433594c-30.96875-4.605469-75.851563-25.09375-95.707031-101.59375 38.363281 10.40625 91.402344 36.523437 95.707031 101.59375zm0 0" fill="#ffb52d"/><path d="m368.921875 391.132812c-3.402344-.710937-7.019531-1.550781-10.792969-2.550781-39.613281-10.40625-96.152344-37.601562-97.527344-107.964843-.128906-6.371094.191407-13.085938 1.023438-20.179688 0 0 99.558594-22.113281 129.65625 107.785156 3.238281 13.964844-8.351562 25.847656-22.359375 22.910156zm0 0" fill="#ffa90b"/><path d="m358.128906 388.582031c-39.613281-10.40625-96.152344-37.601562-97.527344-107.964843 31.820313 4.648437 78.5 26.039062 97.527344 107.964843zm0 0" fill="#ffb52d"/><path d="m248.882812 256.84375s-54.765624 86.035156-167.894531 15.476562c-12.171875-7.597656-12.375-24.179687-.386719-32.027343 3.128907-2.042969 6.53125-4.164063 10.191407-6.28125 33.617187-19.425781 88.128906-38.503907 136.640625.847656 7.320312 5.929687 14.496094 13.195313 21.449218 21.984375zm0 0" fill="#ffc14f"/><path d="m431.398438 271.707031c-36.222657 23.703125-110.246094 56.871094-168.28125-16.550781 0 0 7.09375-11.148438 21.449218-22.125 24.359375-18.628906 69.632813-36.773438 136.632813.847656 3.214843 1.796875 6.488281 3.734375 9.8125 5.8125 12.171875 7.585938 12.375 24.179688.386719 32.015625zm0 0" fill="#ffc14f"/><path d="m227.433594 234.859375c-24.351563 18.628906-69.632813 36.769531-136.640625-.851563 33.617187-19.421874 88.132812-38.5 136.640625.851563zm0 0" fill="#ffcd71"/><path d="m421.199219 233.882812c-33.628907 19.421876-88.144531 38.492188-136.632813-.851562 24.359375-18.628906 69.632813-36.769531 136.632813.851562zm0 0" fill="#ffcd71"/><path d="m275.589844 229.296875c-5.628906 6.671875-12.386719 13.226563-20.433594 19.585937 0 0-86.035156-54.761718-15.476562-167.894531 7.597656-12.167969 24.179687-12.375 32.027343-.386719 1.558594 2.378907 3.152344 4.917969 4.753907 7.609376 20.167968 33.777343 41.582031 90.863281-.871094 141.085937zm0 0" fill="#ffc14f"/><path d="m276.632812 423.789062c-1.363281 2.378907-2.808593 4.789063-4.324218 7.222657-7.585938 12.167969-24.179688 12.375-32.023438.386719-23.699218-36.222657-56.875-110.234376 16.558594-168.28125 0 0 10.179688 6.480468 20.660156 19.585937 19.339844 24.171875 39.71875 70.894531-.871094 141.085937zm0 0" fill="#ffc14f"/><path d="m275.589844 229.296875c-19.335938-24.167969-39.71875-70.894531.871094-141.085937 20.167968 33.777343 41.582031 90.863281-.871094 141.085937zm0 0" fill="#ffcd71"/><path d="m276.632812 423.789062c-20.164062-33.777343-41.578124-90.851562.871094-141.085937 19.339844 24.171875 39.71875 70.894531-.871094 141.085937zm0 0" fill="#ffcd71"/><path d="m373.574219 247.097656h-98.4375l69.117187-69.117187c3.152344-3.152344 3.152344-8.261719 0-11.414063s-8.261718-3.152344-11.414062 0l-69.605469 69.605469v-97.746094c0-4.457031-3.613281-8.070312-8.070313-8.070312-4.457031 0-8.070312 3.613281-8.070312 8.070312v98.4375l-69.117188-69.121093c-3.152343-3.152344-8.261718-3.152344-11.414062 0-3.152344 3.152343-3.152344 8.265624 0 11.414062l69.605469 69.609375h-97.746094c-4.457031 0-8.070313 3.613281-8.070313 8.070313 0 4.457031 3.613282 8.070312 8.070313 8.070312h98.4375l-69.121094 69.117188c-3.152343 3.152343-3.152343 8.261718 0 11.414062 3.15625 3.152344 8.261719 3.152344 11.414063 0l69.609375-69.605469v97.746094c0 4.457031 3.609375 8.070313 8.070312 8.070313 4.457031 0 8.070313-3.613282 8.070313-8.070313v-98.4375c71.949218 70.6875 68.5625 71.480469 74.824218 71.480469 7.125 0 10.804688-8.675782 5.707032-13.773438l-69.605469-69.609375h97.746094c4.457031 0 8.070312-3.613281 8.070312-8.070312s-3.613281-8.070313-8.070312-8.070313zm0 0" fill="#f29500"/><path d="m310.003906 256.003906c0 25.570313-17.765625 46.984375-41.625 52.578125-3.980468.9375-8.121094 1.433594-12.382812 1.433594-29.832032 0-54.011719-24.179687-54.011719-54.011719 0-29.828125 24.179687-54.007812 54.011719-54.007812 7.617187 0 14.878906 1.582031 21.457031 4.433594 19.152344 8.296874 32.550781 27.363281 32.550781 49.574218zm0 0" fill="#7c3f2c"/><path d="m310.003906 256.003906c0 25.570313-17.765625 46.984375-41.625 52.578125-19.140625-8.296875-32.539062-27.375-32.539062-49.574219 0-25.566406 17.753906-46.984374 41.613281-52.578124 19.152344 8.296874 32.550781 27.363281 32.550781 49.574218zm0 0" fill="#954c35"/></svg>