<svg height="512pt" viewBox="-4 0 512 512.00185" width="512pt" xmlns="http://www.w3.org/2000/svg"><g fill="#6860a9"><path d="m53.800781 221.09375c18.375 0 35.9375-10.644531 43.832031-28.503906 8.886719-20.117188-.195312-43.59375-20.316406-52.480469-16.820312-7.433594-36.550781.203125-43.984375 17.023437-5.492187 12.425782 7.328125 27.484376 21.667969 21.933594 10.726562-4.152344 14.226562-17.65625 6.753906-26.492187 15.351563-1.800781 29.632813 16.617187 22.003906 33.882812-7.285156 16.480469-26.617187 23.960938-43.097656 16.683594-21.554687-9.527344-31.34375-34.8125-21.816406-56.371094 12.328125-27.902343 45.058594-40.574219 72.960938-28.242187 35.914062 15.871094 52.144531 57.78125 36.269531 93.703125-2.226563 5.039062 1.503906 10.652343 6.933593 10.652343 2.910157 0 5.6875-1.6875 6.941407-4.523437 4.695312-10.625 7.046875-21.699219 7.3125-32.648437 17.714843 14.832031 41.980469 20.0625 64.328125 13.367187 19.808594-5.9375 33.976562-21.785156 38.734375-40.503906 11.527343 45.378906 68.089843 56.417969 103.0625 27.132812.265625 10.953125 2.617187 22.027344 7.3125 32.652344 1.253906 2.835937 4.03125 4.523437 6.941406 4.523437 5.421875 0 9.164063-5.605468 6.933594-10.652343-15.871094-35.914063.347656-77.832031 36.269531-93.703125 27.898438-12.328125 60.632812.339844 72.960938 28.242187 9.527343 21.554688-.261719 46.84375-21.820313 56.367188-16.476563 7.28125-35.8125-.199219-43.09375-16.679688-7.574219-17.148437 6.578125-35.707031 22.011719-33.894531-7.484375 8.839844-3.984375 22.351562 6.746094 26.503906 8.648437 3.347656 18.371093-.953125 21.722656-9.601562 6.496094-16.785156-18.660156-40.574219-44.039063-29.359375-20.070312 8.867187-29.183593 32.410156-20.316406 52.480469 10.664063 24.128906 38.972656 35.089843 63.101563 24.425781 29.207031-12.90625 42.46875-47.167969 29.5625-76.375-16.53125-37.40625-63.464844-55.597657-104.054688-30.082031-40.792969-18.976563-40.917969-77.800782-3.816406-92.449219 10.335937-4.082031 21.644531-3.894531 31.839844.527343 16.070312 6.972657 23.472656 25.722657 16.5 41.792969-8.050782 18.554688-34.441407 18.839844-40.800782 2.726563-2.578125-6.527344-1.148437-14.910156 4.71875-18.863282 1.867188 7.980469 10.277344 12.128907 17.597656 9.238282 6.746094-2.664063 10.054688-10.292969 7.390626-17.035156-5.425782-13.746094-34.285157-13.851563-43.398438 7.152343-3.484375 8.03125-3.632812 16.9375-.417969 25.078125 11.316407 28.664063 55.421875 28.640625 68.828125-2.261718 10.300782-23.742188-.632812-51.441407-24.378906-61.742188-28.71875-12.460938-62.222656.769531-74.683594 29.488281-13.890625 32.007813-1.535156 68.890625 27.496094 86.507813-14.464844 13.632812-17.773438 24.578125-26.464844 41.675781-12.960937 19.867187-37.859375 28.976563-60.625 22.152344-22.027344-6.597657-34.515625-29.769531-27.914062-51.800781 7.722656-25.769532 42.636718-30.34375 53.734375-9.753907 3.027343 5.617188 3.683593 12.082031 1.851562 18.195313-3.972656 13.265625-20.738281 16.203125-27.8125 7.984375 7.714844-2.792969 10.84375-11.640625 7.109375-18.570313-5.585937-10.371094-20.890625-8.554687-24.171875 2.398438-7.460937 24.902344 19.75 44.8125 43.558594 31.984375 17.667969-9.519531 22.027344-32.097657 12.816406-49.191407-17.742187-32.929687-71.84375-26.085937-82.261719 14.96875-10.421874-41.097656-64.527343-47.878906-82.257812-14.96875-15.402344 28.585938 8.601562 60.476563 37.769531 51.734376 14.679688-4.402344 23.003907-19.84375 18.601563-34.527344-3.277344-10.949219-18.578125-12.773438-24.171875-2.398438-3.722657 6.914063-.617188 15.773438 7.109375 18.570313-7.085938 8.234375-23.839844 5.257812-27.808594-7.984375-1.835938-6.113282-1.175781-12.578125 1.851562-18.195313 3.03125-5.621093 8.066407-9.726562 14.179688-11.558593 16.78125-5.03125 34.523438 4.53125 39.554688 21.3125 3.1875 10.644531 2.042968 21.898437-3.230469 31.683593-17 31.550781-65.238281 28.730469-85.308594-2.035156-8.664063-17.046875-12.011719-28.054687-26.464844-41.675781 46.421875-28.175782 43.171875-98.199219-3.738281-116.722656-14.101562-5.5625-29.53125-5.304688-43.445312.730468-23.742188 10.300782-34.679688 38-24.378907 61.742188 6.382813 14.714844 20.792969 23.519531 35.894531 23.519531 26.347657-.003906 41.882813-24.746094 32.515626-46.335937-6.085938-14.027344-22.453126-20.492188-36.480469-14.402344-10.484375 4.546875-10.492188 19.953125.472656 24.285156 7.3125 2.886719 15.726563-1.25 17.597656-9.242188 5.867188 3.957032 7.296875 12.339844 4.71875 18.867188-6.375 16.144531-32.773437 15.777344-40.804687-2.726562-3.375-7.785157-3.519532-16.421876-.402344-24.3125 11.316406-28.660157 57.503906-28.445313 71.636719 4.128906 11.640625 26.835937-.34375 58.046875-26.710938 70.3125-59.449219-37.378906-126.003906 20.347656-105.085937 74.390625 8.445312 21.824219 29.140625 36.148437 49.867187 36.144531zm0 0"/><path d="m470.117188 295.015625c-24.128907-10.664063-52.4375.292969-63.097657 24.425781-13.867187 31.378906 16.582031 64.398438 45.832031 53.074219 11.9375-4.621094 23.292969-17.621094 18.519532-29.957031-3.347656-8.648438-13.074219-12.945313-21.722656-9.597656-10.710938 4.144531-14.238282 17.652343-6.746094 26.5-15.40625 1.8125-29.601563-16.707032-22.011719-33.890626 7.285156-16.480468 26.617187-23.964843 43.097656-16.683593 21.554688 9.527343 31.34375 34.816406 21.820313 56.371093-12.332032 27.902344-45.0625 40.570313-72.964844 28.242188-35.914062-15.871094-52.140625-57.78125-36.269531-93.703125 1.691406-3.832031-.039063-8.308594-3.871094-10.003906-3.832031-1.691407-8.3125.042969-10.003906 3.875-4.625 10.460937-7.082031 21.507812-7.371094 32.609375-17.492187-14.621094-41.699219-20.09375-64.273437-13.328125-19.804688 5.933593-33.976563 21.785156-38.730469 40.5-11.535157-45.398438-68.0625-56.378907-103.007813-27.171875-.289062-11.101563-2.746094-22.148438-7.367187-32.609375-1.695313-3.832031-6.175781-5.5625-10.003907-3.875-3.832031 1.695312-5.566406 6.171875-3.875 10.003906 21.085938 47.710937-15.597656 98.421875-58.550781 98.421875-21.246093 0-41.554687-12.308594-50.679687-32.960938-9.523438-21.554687.261718-46.84375 21.820312-56.371093 16.480469-7.28125 35.8125.203125 43.09375 16.683593 7.554688 17.097657-6.515625 35.699219-22.003906 33.882813 7.484375-8.851563 3.953125-22.347656-6.75-26.492187-13.039062-5.046876-26.046875 7.136718-22.164062 20.371093.109374.527344.269531 1.050781.496093 1.5625 7.429688 16.820313 27.160157 24.460938 43.984375 17.023438 20.070313-8.867188 29.179688-32.410157 20.3125-52.480469-10.664062-24.128906-38.96875-35.089844-63.097656-24.421875-29.207031 12.90625-42.46875 47.164063-29.5625 76.375 16.648438 37.679687 63.46875 55.539063 104.070312 30.085937 26.351563 12.273438 38.328126 43.480469 26.691407 70.304688-9.132813 21.046875-33.6875 30.742188-54.734375 21.609375-16.105469-6.988281-23.488282-25.679687-16.5-41.789063 5.246094-12.089843 19.347656-17.65625 31.4375-12.414062 12.613281 5.472656 13.710937 22.4375 4.644531 28.550781-1.867187-7.992187-10.289063-12.125-17.597656-9.238281-11.105469 4.382812-10.824219 19.792969-.472657 24.285156 14.0625 6.101563 30.378907-.339844 36.484376-14.40625 7.191406-16.574218-.445313-35.914062-17.019532-43.105468-19.761718-8.574219-42.816406.527343-51.390625 20.289062-10.300781 23.742188.632813 51.441406 24.375 61.742188 28.847657 12.519531 62.28125-.894532 74.6875-29.484376 13.878907-31.996093 1.546875-68.855468-27.457031-86.484374 14.710938-13.820313 17.777344-24.792969 26.425781-41.703126 12.960938-19.867187 37.859375-28.972656 60.621094-22.152343 33.792969 10.128906 39.796875 55.96875 12.550781 70.652343-7.46875 4.023438-16.058594 4.898438-24.1875 2.460938-12.65625-3.789062-19.828125-17.097656-16.035156-29.75 3.96875-13.238281 20.726562-16.21875 27.8125-7.984375-7.734375 2.800781-10.832031 11.660156-7.109375 18.566406 3.441406 6.386719 11.40625 8.773438 17.789063 5.332031 9.320312-5.023437 9.242187-19.546874 4.234374-28.84375-12.328124-22.871093-49.125-18.554687-57.253906 8.574219-2.996094 9.996094-1.921875 20.558594 3.03125 29.746094 17.894532 33.214844 71.882813 25.933594 82.257813-14.964844 6.820312 26.882813 33.84375 41.421875 59.082031 33.855469 32.011719-9.589844 37.789062-53.300781 10.363281-68.078125-24.039062-12.953125-50.945312 7.335937-43.558593 31.984375 3.28125 10.949219 18.582031 12.773438 24.171874 2.394531 3.726563-6.914062.621094-15.769531-7.109374-18.570312 4.558593-5.292969 13.050781-5.828125 19.300781-2.457031 15.289062 8.238281 11.824219 34.398437-7.519531 40.195312-8.132813 2.4375-16.722657 1.5625-24.191407-2.464844-27.28125-14.699218-21.207031-60.53125 12.550781-70.648437 22.765626-6.824219 47.660157 2.285156 60.625 22.152343 8.714844 17.054688 11.652344 27.828126 26.421876 41.699219-29 17.632813-41.335938 54.492188-27.453126 86.484375 12.425782 28.644532 45.886719 41.980469 74.683594 29.488282 23.742188-10.300782 34.679688-38 24.378906-61.742188-8.574218-19.761719-31.628906-28.863281-51.390624-20.289062-25.882813 11.230468-25.988282 48.300781-1.761719 57.863281 8.386719 3.3125 18.289062 1.90625 22.574219-1.113281 9.363281-5.492188 8.390624-19.492188-1.824219-23.523438-7.304688-2.886719-15.734375 1.242188-17.601563 9.246094-9.027344-6.078125-8.003906-23.066406 4.648438-28.558594 12.089844-5.246094 26.191406.324219 31.4375 12.414062 6.972656 16.070313-.429688 34.816407-16.5 41.789063-21.046875 9.132813-45.601563-.5625-54.734375-21.609375-11.636719-26.824219.339843-58.03125 26.691406-70.300781 40.359375 25.300781 87.402344 7.636719 104.070313-30.089844 12.90625-29.210937-.355469-63.46875-29.5625-76.375zm0 0"/><path d="m247.765625 258.425781s1.269531 5.691407.210937 13.589844c-1.792968 13.394531-10.242187 33.152344-42.855468 42.3125-1.566406.449219-3.191406.855469-4.867188 1.246094-6.15625 1.429687-11.386718-3.683594-10.089844-9.855469 3.890626-18.675781 16.625-52.085938 57.601563-47.292969zm0 0"/><path d="m309.28125 206.175781c-.339844 1.605469-.746094 3.332031-1.230469 5.136719-4.417969 16.542969-15.457031 39.46875-42.835937 42.316406-4.132813.4375-8.628906.414063-13.539063-.164062 0 0-9.746093-43.878906 47.496094-57.144532 6.164063-1.421874 11.394531 3.671876 10.109375 9.855469zm0 0"/></g><path d="m247.976562 272.015625c-1.792968 13.394531-10.242187 33.152344-42.855468 42.3125 4.425781-16.515625 15.46875-39.460937 42.855468-42.3125zm0 0" fill="#8078bf"/><path d="m308.050781 211.3125c-4.417969 16.542969-15.457031 39.46875-42.835937 42.3125 1.792968-13.390625 10.242187-33.152344 42.835937-42.3125zm0 0" fill="#8078bf"/><path d="m247.402344 240.453125c.429687 4.121094.414062 8.625-.160156 13.539063 0 0-43.882813 9.742187-57.15625-47.503907-1.421876-6.164062 3.683593-11.386719 9.863281-10.101562 1.609375.339843 3.328125.734375 5.128906 1.21875 16.527344 4.417969 39.46875 15.460937 42.324219 42.847656zm0 0" fill="#6860a9"/><path d="m308.09375 300.539062c.449219 1.566407.855469 3.191407 1.246094 4.867188 1.429687 6.152344-3.675782 11.394531-9.855469 10.109375-18.675781-3.914063-52.082031-16.644531-47.28125-57.613281 0 0 5.6875-1.269532 13.585937-.210938 13.394532 1.792969 33.152344 10.242188 42.304688 42.847656zm0 0" fill="#6860a9"/><path d="m247.402344 240.453125c-13.402344-1.785156-33.171875-10.242187-42.324219-42.847656 16.527344 4.417969 39.46875 15.460937 42.324219 42.847656zm0 0" fill="#8078bf"/><path d="m308.09375 300.539062c-16.535156-4.429687-39.460938-15.46875-42.304688-42.847656 13.394532 1.792969 33.152344 10.242188 42.304688 42.847656zm0 0" fill="#8078bf"/><path d="m257.871094 256.503906 32.347656-32.347656c2.242188-2.242188 2.242188-5.878906 0-8.121094-2.242188-2.242187-5.878906-2.242187-8.117188 0l-32.867187 32.867188-32.347656-32.347656c-2.242188-2.238282-5.878907-2.238282-8.121094 0-2.242187 2.242187-2.242187 5.878906 0 8.121093l32.867187 32.867188-32.347656 32.347656c-2.242187 2.242187-2.242187 5.875 0 8.117187 1.121094 1.121094 2.589844 1.679688 4.0625 1.679688 1.46875 0 2.9375-.558594 4.058594-1.679688l32.867188-32.867187 32.347656 32.347656c1.117187 1.121094 2.589844 1.679688 4.058594 1.679688s2.9375-.558594 4.058593-1.679688c2.242188-2.242187 2.242188-5.875 0-8.117187zm0 0" fill="#c1bde0"/><path d="m256.902344 256.027344c0 3.910156-3.167969 7.078125-7.078125 7.078125-3.910157 0-7.078125-3.167969-7.078125-7.078125s3.167968-7.078125 7.078125-7.078125c3.910156 0 7.078125 3.167969 7.078125 7.078125zm0 0" fill="#453d83"/></svg>