<svg height="511pt" viewBox="-19 0 511 511.99992" width="511pt" xmlns="http://www.w3.org/2000/svg"><path d="m99.703125 58.917969c-1.617187 8.566406-4.414063 14.429687-4.414063 14.429687-56.453124-16.140625-44.386718-57.5-38.917968-70.417968.996094-2.332032 3.617187-3.480469 6.019531-2.671876 3.46875 1.171876 6.648437 2.453126 9.550781 3.84375 29.71875 14.210938 30.734375 39.070313 27.761719 54.816407zm0 0" fill="#8078bf"/><path d="m99.703125 58.917969c-31.203125-14.574219-31.480469-39.269531-27.761719-54.816407 29.71875 14.210938 30.734375 39.070313 27.761719 54.816407zm0 0" fill="#958fca"/><path d="m180.058594 144.480469h-44.085938l-19.273437-42.84375c3.191406 1.363281 6.511719 2.476562 9.957031 3.296875 4.695312 1.113281 9.4375 1.664062 14.148438 1.664062 11.125 0 22.0625-3.074218 31.769531-9.058594 23.546875-14.515624 30.898437-45.480468 16.382812-69.027343-12.0625-19.570313-37.792969-25.679688-57.359375-13.617188-16.386718 10.097657-21.496094 31.640625-11.398437 48.027344 8.523437 13.835937 26.722656 18.152344 40.558593 9.625 11.796876-7.273437 15.480469-22.785156 8.207032-34.585937-2.25-3.652344-7.035156-4.789063-10.6875-2.539063-3.652344 2.253906-4.789063 7.039063-2.539063 10.691406 2.777344 4.503907 1.371094 10.429688-3.136719 13.207031-6.539062 4.03125-15.144531 1.988282-19.179687-4.554687-5.601563-9.089844-2.761719-21.042969 6.328125-26.644531 12.273438-7.566406 28.414062-3.734375 35.980469 8.539062 10.015625 16.253906 4.945312 37.632813-11.3125 47.648438-10.28125 6.339844-22.417969 8.296875-34.175781 5.503906-11.753907-2.789062-21.71875-9.992188-28.054688-20.273438-.042969-.070312-.09375-.132812-.140625-.203124-.082031-.125-.167969-.253907-.257813-.375-.066406-.089844-.140624-.175782-.210937-.261719-.089844-.109375-.179687-.222657-.277344-.328125-.082031-.089844-.167969-.175782-.257812-.261719-.089844-.089844-.179688-.179687-.273438-.265625-.0625-.058594-.128906-.113281-.191406-.167969-2.136719-1.976562-5.292969-2.675781-8.171875-1.519531-3.984375 1.597656-5.914062 6.121094-4.320312 10.101562 9.289062 23.148438-1.988282 49.53125-25.132813 58.816407-17.726563 7.109375-37.925781-1.523438-45.035156-19.246094-5.367188-13.378906 1.152343-28.632813 14.53125-34.003906 4.804687-1.925781 10.066406-1.863281 14.824219.167969 4.753906 2.03125 8.4375 5.796874 10.359374 10.597656 1.386719 3.453125 1.347657 7.242187-.117187 10.667968-1.464844 3.421876-4.171875 6.070313-7.628906 7.457032-4.90625 1.972656-10.507813-.421875-12.480469-5.332032-1.597656-3.984374-6.121094-5.917968-10.101562-4.320312-3.980469 1.597656-5.914063 6.121094-4.316407 10.105469 5.160157 12.859375 19.824219 19.128906 32.6875 13.96875 7.308594-2.933594 13.035157-8.535157 16.128907-15.773438 3.09375-7.242187 3.183593-15.253906.253906-22.558593-7.167969-17.863282-27.527344-26.566407-45.390625-19.398438-21.335938 8.558594-31.726563 32.875-23.171875 54.210938 7.851562 19.570312 26.722656 31.488281 46.625 31.488281 6.207031 0 12.511718-1.160157 18.617187-3.609375 17.539063-7.035156 30-21.382813 35.300781-38.132813l18.542969 41.21875v55.59375c0 4.289063 3.476563 7.765625 7.769531 7.765625 4.289063 0 7.765626-3.476562 7.765626-7.765625v-48.15625h41.941406c4.289062 0 7.769531-3.476562 7.769531-7.769531 0-4.289062-3.480469-7.769531-7.769531-7.769531zm0 0" fill="#c1bde0"/><path d="m373.78125 58.917969c1.617188 8.566406 4.414062 14.429687 4.414062 14.429687 56.453126-16.140625 44.386719-57.5 38.917969-70.417968-.996093-2.332032-3.617187-3.480469-6.019531-2.671876-3.46875 1.171876-6.648438 2.453126-9.550781 3.84375-29.71875 14.210938-30.734375 39.070313-27.761719 54.816407zm0 0" fill="#8078bf"/><path d="m373.78125 58.917969c31.203125-14.574219 31.480469-39.269531 27.761719-54.816407-29.71875 14.210938-30.734375 39.070313-27.761719 54.816407zm0 0" fill="#958fca"/><path d="m293.425781 144.480469h44.085938l19.277343-42.84375c-3.191406 1.363281-6.515624 2.476562-9.960937 3.296875-4.695313 1.113281-9.4375 1.664062-14.144531 1.664062-11.125 0-22.0625-3.074218-31.769532-9.058594-23.550781-14.515624-30.902343-45.480468-16.386718-69.027343 12.0625-19.570313 37.796875-25.679688 57.363281-13.617188 16.382813 10.097657 21.496094 31.640625 11.398437 48.027344-8.527343 13.835937-26.722656 18.152344-40.558593 9.625-11.800781-7.273437-15.480469-22.785156-8.210938-34.585937 2.253907-3.652344 7.039063-4.789063 10.691407-2.539063 3.652343 2.253906 4.789062 7.039063 2.539062 10.691406-2.777344 4.503907-1.371094 10.429688 3.132812 13.207031 6.539063 4.03125 15.148438 1.988282 19.179688-4.554687 5.601562-9.089844 2.765625-21.042969-6.324219-26.644531-12.277343-7.566406-28.417969-3.734375-35.980469 8.539062-10.019531 16.253906-4.945312 37.632813 11.308594 47.648438 10.285156 6.339844 22.421875 8.296875 34.175782 5.503906 11.753906-2.789062 21.71875-9.992188 28.058593-20.273438.042969-.070312.09375-.132812.136719-.203124.085938-.125.167969-.253907.257812-.375.066407-.089844.140626-.175782.210938-.261719.089844-.109375.179688-.222657.277344-.328125.082031-.089844.171875-.175782.257812-.261719.089844-.089844.179688-.179687.277344-.265625.0625-.058594.125-.113281.191406-.167969 2.132813-1.976562 5.289063-2.675781 8.171875-1.519531 3.980469 1.597656 5.914063 6.121094 4.316407 10.101562-9.285157 23.148438 1.988281 49.53125 25.136718 58.816407 17.722656 7.109375 37.921875-1.523438 45.03125-19.246094 5.371094-13.382813-1.148437-28.636719-14.53125-34.003906-4.800781-1.925781-10.066406-1.867188-14.824218.164062-4.753907 2.035157-8.433594 5.796875-10.359376 10.597657-1.386718 3.457031-1.347656 7.246093.117188 10.667968s4.171875 6.074219 7.628906 7.460938c4.910156 1.96875 10.507813-.425782 12.480469-5.335938 1.597656-3.980468 6.121094-5.914062 10.101563-4.316406 3.980468 1.597656 5.914062 6.121094 4.316406 10.101562-5.160156 12.863282-19.824219 19.128907-32.6875 13.96875-7.308594-2.929687-13.035156-8.53125-16.128906-15.773437-3.09375-7.238281-3.183594-15.25-.25-22.558594 7.164062-17.859375 27.523437-26.5625 45.386718-19.398437 21.335938 8.558594 31.726563 32.878906 23.171875 54.210937-7.851562 19.570313-26.722656 31.492188-46.625 31.488281-6.203125 0-12.511719-1.160156-18.617187-3.605468-17.539063-7.035156-30-21.382813-35.300782-38.132813l-18.542968 41.214844v55.59375c0 4.289063-3.476563 7.769531-7.765625 7.769531-4.292969 0-7.769531-3.480468-7.769531-7.769531v-48.152344h-41.941407c-4.289062 0-7.769531-3.476562-7.769531-7.769531 0-4.289062 3.480469-7.769531 7.769531-7.769531zm0 0" fill="#c1bde0"/><path d="m373.78125 453.082031c1.617188-8.566406 4.414062-14.429687 4.414062-14.429687 56.453126 16.140625 44.386719 57.5 38.917969 70.417968-.996093 2.332032-3.617187 3.480469-6.019531 2.671876-3.46875-1.171876-6.648438-2.453126-9.550781-3.84375-29.71875-14.210938-30.734375-39.070313-27.761719-54.816407zm0 0" fill="#8078bf"/><path d="m373.78125 453.082031c31.203125 14.574219 31.480469 39.269531 27.761719 54.816407-29.71875-14.210938-30.734375-39.070313-27.761719-54.816407zm0 0" fill="#958fca"/><path d="m293.425781 367.519531h44.085938l19.277343 42.84375c-3.191406-1.359375-6.515624-2.476562-9.960937-3.296875-4.695313-1.113281-9.4375-1.664062-14.144531-1.664062-11.125 0-22.0625 3.074218-31.769532 9.058594-23.550781 14.515624-30.902343 45.480468-16.386718 69.03125 12.0625 19.570312 37.796875 25.675781 57.363281 13.613281 16.382813-10.097657 21.496094-31.640625 11.398437-48.023438-8.527343-13.839843-26.722656-18.15625-40.558593-9.628906-11.800781 7.273437-15.480469 22.789063-8.210938 34.585937 2.253907 3.652344 7.039063 4.789063 10.691407 2.539063 3.652343-2.25 4.789062-7.039063 2.539062-10.691406-2.777344-4.503907-1.371094-10.429688 3.132812-13.207031 6.539063-4.03125 15.148438-1.988282 19.179688 4.554687 5.601562 9.089844 2.765625 21.042969-6.324219 26.648437-12.277343 7.5625-28.417969 3.730469-35.980469-8.542968-10.019531-16.253906-4.945312-37.628906 11.308594-47.648438 10.285156-6.339844 22.421875-8.292968 34.175782-5.503906 11.753906 2.789062 21.71875 9.992188 28.058593 20.277344.042969.066406.09375.128906.136719.199218.085938.125.167969.253907.257812.375.066407.089844.140626.175782.210938.261719.089844.113281.179688.222657.277344.328125.082031.089844.171875.175782.257812.265625.089844.089844.179688.179688.277344.261719.0625.058594.125.113281.191406.167969 2.132813 1.980469 5.289063 2.675781 8.171875 1.519531 3.980469-1.59375 5.914063-6.121094 4.316407-10.101562-9.285157-23.144532 1.988281-49.53125 25.136718-58.816407 17.722656-7.109375 37.921875 1.523438 45.03125 19.246094 5.371094 13.382813-1.148437 28.636719-14.53125 34.003906-4.800781 1.925781-10.066406 1.867188-14.824218-.164062-4.753907-2.03125-8.433594-5.796875-10.359376-10.597657-1.386718-3.457031-1.347656-7.242187.117188-10.667968 1.464844-3.421875 4.171875-6.070313 7.628906-7.457032 4.910156-1.972656 10.507813.421876 12.480469 5.332032 1.597656 3.980468 6.121094 5.914062 10.101563 4.316406 3.980468-1.597656 5.914062-6.121094 4.316406-10.101562-5.160156-12.863282-19.824219-19.128907-32.6875-13.96875-7.308594 2.929687-13.035156 8.53125-16.128906 15.773437-3.09375 7.238281-3.183594 15.253906-.25 22.558594 7.164062 17.863281 27.523437 26.5625 45.386718 19.398437 21.335938-8.558594 31.726563-32.878906 23.171875-54.210937-7.851562-19.570313-26.722656-31.492188-46.625-31.488281-6.203125 0-12.511719 1.160156-18.617187 3.605468-17.539063 7.039063-30 21.382813-35.300782 38.132813l-18.542968-41.214844v-55.59375c0-4.289063-3.476563-7.769531-7.765625-7.769531-4.292969 0-7.769531 3.480468-7.769531 7.769531v48.15625h-41.941407c-4.289062 0-7.769531 3.476563-7.769531 7.769531 0 4.289063 3.480469 7.765625 7.769531 7.765625zm0 0" fill="#c1bde0"/><path d="m99.703125 453.082031c-1.617187-8.566406-4.414063-14.429687-4.414063-14.429687-56.453124 16.140625-44.386718 57.5-38.917968 70.417968.996094 2.332032 3.617187 3.480469 6.019531 2.671876 3.46875-1.171876 6.648437-2.453126 9.550781-3.84375 29.71875-14.210938 30.734375-39.070313 27.761719-54.816407zm0 0" fill="#8078bf"/><path d="m99.703125 453.082031c-31.203125 14.574219-31.480469 39.269531-27.761719 54.816407 29.71875-14.210938 30.734375-39.070313 27.761719-54.816407zm0 0" fill="#958fca"/><path d="m180.058594 367.519531h-44.085938l-19.273437 42.84375c3.191406-1.359375 6.511719-2.476562 9.957031-3.296875 4.695312-1.113281 9.4375-1.664062 14.148438-1.664062 11.125 0 22.0625 3.074218 31.769531 9.058594 23.546875 14.515624 30.898437 45.480468 16.382812 69.03125-12.0625 19.570312-37.792969 25.675781-57.359375 13.613281-16.386718-10.097657-21.496094-31.640625-11.398437-48.023438 8.523437-13.839843 26.722656-18.15625 40.558593-9.628906 11.796876 7.273437 15.480469 22.789063 8.207032 34.585937-2.25 3.652344-7.035156 4.789063-10.6875 2.539063s-4.789063-7.039063-2.539063-10.691406c2.777344-4.503907 1.371094-10.429688-3.136719-13.207031-6.539062-4.03125-15.144531-1.988282-19.179687 4.554687-5.601563 9.089844-2.761719 21.042969 6.328125 26.648437 12.273438 7.5625 28.414062 3.730469 35.980469-8.542968 10.015625-16.253906 4.945312-37.628906-11.3125-47.648438-10.28125-6.339844-22.417969-8.292968-34.175781-5.503906-11.753907 2.789062-21.71875 9.992188-28.054688 20.277344-.042969.066406-.09375.128906-.140625.199218-.082031.125-.167969.253907-.257813.375-.066406.089844-.140624.175782-.210937.261719-.089844.113281-.179687.222657-.277344.328125-.082031.089844-.167969.175782-.257812.265625-.089844.089844-.179688.179688-.273438.261719-.0625.058594-.128906.113281-.191406.167969-2.136719 1.980469-5.292969 2.675781-8.171875 1.519531-3.984375-1.59375-5.914062-6.121094-4.320312-10.101562 9.289062-23.144532-1.988282-49.53125-25.132813-58.816407-17.726563-7.109375-37.925781 1.523438-45.035156 19.246094-5.367188 13.378906 1.152343 28.632813 14.53125 34.003906 4.804687 1.925781 10.066406 1.867188 14.824219-.167969 4.753906-2.03125 8.4375-5.796874 10.359374-10.59375 1.386719-3.457031 1.347657-7.246093-.117187-10.667968-1.464844-3.425782-4.171875-6.074219-7.628906-7.460938-4.90625-1.96875-10.507813.421875-12.480469 5.335938-1.597656 3.980468-6.121094 5.914062-10.101562 4.316406-3.980469-1.597656-5.914063-6.121094-4.316407-10.101562 5.160157-12.863282 19.824219-19.132813 32.6875-13.972657 7.308594 2.933594 13.035157 8.535157 16.128907 15.777344 3.09375 7.238281 3.183593 15.25.253906 22.558594-7.167969 17.859375-27.527344 26.5625-45.390625 19.398437-21.335938-8.5625-31.726563-32.878906-23.171875-54.214844 7.851562-19.570312 26.722656-31.488281 46.625-31.488281 6.207031 0 12.511718 1.160157 18.617187 3.609375 17.539063 7.035156 30 21.382813 35.300781 38.132813l18.542969-41.214844v-55.59375c0-4.292969 3.476563-7.769531 7.769531-7.769531 4.289063 0 7.765626 3.476562 7.765626 7.769531v48.152344h41.941406c4.289062 0 7.769531 3.480469 7.769531 7.769531 0 4.292969-3.480469 7.769531-7.769531 7.769531zm0 0" fill="#c1bde0"/></svg>