<svg height="512pt" viewBox="0 -14 512 512" width="512pt" xmlns="http://www.w3.org/2000/svg"><path d="m204.472656 146.898438s-.902344 3.476562-3.035156 8.605468c-6.132812 14.757813-22.414062 43.191406-56.53125 41.90625-4.761719-.167968-9.878906-.933594-15.359375-2.394531-9.785156-2.589844-20.753906-7.414063-33.007813-15.140625-.539062-.34375-1.046874-.714844-1.511718-1.121094-2.03125-1.769531-3.355469-4.121094-3.875-6.636718-.621094-2.929688-.164063-6.082032 1.492187-8.816407.125-.238281.28125-.464843.4375-.691406 8.203125-11.828125 23.714844-30.335937 44.316407-37.546875 4.953124-1.726562 10.203124-2.816406 15.710937-2.980469 13.402344-.425781 28.371094 4.492188 44.445313 18.371094 2.039062 1.75 4.101562 3.65625 6.171874 5.707031.25.238282.496094.488282.746094.738282zm0 0" fill="#9bcf1b"/><path d="m203.726562 146.160156-112.574218 25.957032c-.671875-3.179688-.082032-6.617188 1.929687-9.507813 15.585938-22.464844 57.542969-69.050781 110.644531-16.449219zm0 0" fill="#b9e746"/><path d="m255.222656 133.402344c-8.699218 6.605468-36.40625 17.75-48.78125 21.015625-.144531.027343.425782-.09375-5.003906 1.085937-6.222656 1.347656-20.363281 4.402344-52.53125 11.363282l-4 30.542968c-4.761719-.167968-9.878906-.933594-15.359375-2.394531l3.234375-24.660156-33.425781 7.238281-4.328125 1.160156c-2.03125-1.769531-3.355469-4.121094-3.875-6.636718-.621094-2.929688-.164063-6.082032 1.492187-8.816407 14.230469-3.457031 28.484375-6.316406 58.859375-12.894531-8.554687-14.582031-10.386718-17.355469-14.105468-25.34375 4.953124-1.726562 10.203124-2.816406 15.710937-2.980469l14.335937 24.875 30.109376-6.503906 5.105468-1.105469c10.347656-2.757812 36.105469-12.957031 43.160156-18.3125 3.417969-2.601562 8.285157-1.9375 10.882813 1.480469 2.589844 3.417969 1.925781 8.285156-1.480469 10.886719zm0 0" fill="#84b017"/><path d="m193.40625 304.371094s3.484375-.886719 9.003906-1.488282c15.886719-1.734374 48.644532-1.160156 63.953125 29.355469 2.152344 4.253907 3.945313 9.105469 5.304688 14.609375 2.445312 9.828125 3.5 21.761719 2.628906 36.222656-.039063.636719-.121094 1.261719-.25 1.863282-.574219 2.632812-1.996094 4.925781-3.953125 6.59375-2.269531 1.957031-5.25 3.074218-8.441406 2.9375-.269532.007812-.542969-.019532-.820313-.046875-14.316406-1.488281-38.007812-6.171875-54.25-20.75-3.898437-3.507813-7.382812-7.585938-10.179687-12.332031-6.828125-11.542969-9.726563-27.027344-5.308594-47.800782.550781-2.628906 1.230469-5.355468 2.027344-8.15625.089844-.332031.1875-.671875.285156-1.007812zm0 0" fill="#9bcf1b"/><path d="m193.121094 305.378906 76.972656 86.148438c-2.460938 2.121094-5.761719 3.257812-9.261719 2.890625-27.195312-2.835938-88.230469-17.164063-67.710937-89.039063zm0 0" fill="#b9e746"/><path d="m166.28125 275.488281c9.980469 4.441407 23.945312 14.261719 32.765625 23.535157.097656.113281-.285156-.328126 3.363281 3.859374 4.179688 4.808594 13.667969 15.726563 35.261719 40.5625l28.691406-11.207031c2.152344 4.253907 3.945313 9.105469 5.304688 14.609375l-23.167969 9.050782 22.445312 25.800781 3.101563 3.234375c-.574219 2.632812-1.996094 4.925781-3.953125 6.59375-2.269531 1.957031-5.25 3.074218-8.441406 2.9375-9.886719-10.804688-19.257813-21.917969-39.65625-45.371094-8.65625 14.523438-10.207032 17.464844-15.414063 24.570312-3.898437-3.503906-7.382812-7.582031-10.183593-12.332031l14.898437-24.542969-20.203125-23.253906-3.433594-3.941406c-7.394531-7.738281-19.597656-16.304688-27.6875-19.90625-3.925781-1.742188-5.6875-6.328125-3.945312-10.253906 1.746094-3.914063 6.332031-5.679688 10.253906-3.945313zm0 0" fill="#84b017"/><path d="m418.804688 178.246094s3.5625.496094 8.898437 2.027344c15.367187 4.394531 45.480469 17.300781 48.125 51.339843.382813 4.75.210937 9.921875-.613281 15.53125-1.445313 10.019531-4.980469 21.46875-11.246094 34.53125-.277344.574219-.589844 1.121094-.9375 1.628907-1.527344 2.222656-3.710938 3.808593-6.152344 4.609374-2.839844.957032-6.019531.863282-8.925781-.46875-.25-.09375-.496094-.222656-.738281-.351562-12.691406-6.789062-32.863282-20.074219-42.390625-39.710938-2.285157-4.71875-3.972657-9.808593-4.769531-15.265624-1.960938-13.261719 1.207031-28.695313 13.148437-46.257813 1.503906-2.230469 3.160156-4.496094 4.957031-6.789063.210938-.273437.425782-.546874.644532-.824218zm0 0" fill="#9bcf1b"/><path d="m418.160156 179.070312 38.71875 108.84375c-3.078125 1.035157-6.5625.84375-9.664062-.820312-24.109375-12.902344-75.207032-49.226562-29.054688-108.023438zm0 0" fill="#b9e746"/><path d="m405.929688 142.828125c7.5625 7.882813 15.457031 20.679687 20.121093 32.597656.046875.140625-.140625-.410156 1.652344 4.84375 2.054687 6.03125 6.714844 19.722657 17.324219 50.878907l30.800781.460937c.382813 4.753906.210937 9.921875-.613281 15.535156l-24.867188-.378906 11.03125 32.371094 1.652344 4.167969c-1.527344 2.222656-3.710938 3.808593-6.152344 4.609374-2.839844.957032-6.019531.863282-8.925781-.46875-5.070313-13.738281-9.550781-27.566406-19.574219-56.988281-13.503906 10.175781-16.046875 12.316407-23.554687 16.925781-2.285157-4.71875-3.972657-9.808593-4.769531-15.265624l23.066406-17.097657-9.917969-29.160156-1.6875-4.945313c-3.925781-9.960937-10.660156-20.933593-16.789063-27.324218-2.976562-3.097656-2.875-8.007813.21875-10.984375 3.097657-2.964844 8.011719-2.867188 10.984376.222656zm0 0" fill="#84b017"/><path d="m512 20.132812c0 1.140626-.09375 2.257813-.28125 3.347657-1.59375 9.527343-9.867188 16.789062-19.851562 16.789062h-88.089844v94.902344c0 11.113281-9.011719 20.125-20.132813 20.125h-106.402343v102.960937c0 11.113282-9.019532 20.132813-20.132813 20.132813h-99.503906v91.457031c0 11.113282-9.019531 20.125-20.132813 20.125h-97.203125v74.199219c0 11.121094-9.023437 20.132813-20.136719 20.132813-.515624 0-1.023437-.019532-1.53125-.0625-10.410156-.777344-18.601562-9.464844-18.601562-20.070313v-94.324219c0-11.125 9.011719-20.136718 20.132812-20.136718h97.203126v-91.453126c0-11.125 9.011718-20.132812 20.136718-20.132812h99.5v-102.953125c0-11.125 9.011719-20.132813 20.136719-20.132813h106.410156v-94.90625c0-11.121093 9.011719-20.132812 20.125-20.132812h108.222657c11.121093 0 20.132812 9.011719 20.132812 20.132812zm0 0" fill="#dba999"/><path d="m511.71875 23.480469c-1.59375 9.527343-9.867188 16.789062-19.851562 16.789062h-88.089844v94.902344c0 11.113281-9.011719 20.125-20.132813 20.125h-106.402343v102.960937c0 11.113282-9.019532 20.132813-20.132813 20.132813h-99.503906v91.457031c0 11.113282-9.019531 20.125-20.132813 20.125h-97.203125v74.199219c0 11.121094-9.023437 20.132813-20.136719 20.132813-.515624 0-1.023437-.019532-1.53125-.0625v-90.976563c0-11.113281 9.011719-20.125 20.125-20.125h97.210938v-91.453125c0-11.125 9.011719-20.136719 20.125-20.136719h99.511719v-102.960937c0-11.113282 9.011719-20.125 20.136719-20.125h106.398437v-94.902344c0-11.125 9.023437-20.132812 20.136719-20.132812h108.222656c.421875 0 .835938.007812 1.25.050781zm0 0" fill="#d29380"/></svg>