<svg height="512pt" viewBox="0 -87 512.00001 512" width="512pt" xmlns="http://www.w3.org/2000/svg"><path d="m96.921875 171.875c-7.359375 9.089844-23.242187 17.222656-36.351563 30.3125-5.636718 5.628906-10.765624 12.191406-14.472656 20.132812-.785156 1.691407-3.238281 1.519532-3.75-.28125-5.269531-18.496093-17.914062-80.914062 38.78125-114.1875 7.339844 3.910157 13.28125 8.984376 17.574219 14.777344 10.683594 14.355469 11.320313 33.09375-1.78125 49.246094zm0 0" fill="#aba6d5"/><path d="m96.921875 171.875c-7.359375 9.089844-23.242187 17.222656-36.351563 30.3125-.914062-24.992188 5.5-57.515625 38.132813-79.558594 10.683594 14.355469 11.320313 33.09375-1.78125 49.246094zm0 0" fill="#c1bde0"/><path d="m93.402344 92.75c-3.234375 5.519531-7.789063 10.65625-13.527344 15.101562-61.476562-23.285156-59.484375-86.9375-57.394531-106.058593.203125-1.8593752 2.585937-2.453125 3.652343-.914063 5.195313 7.519532 11.667969 13.289063 18.484376 18.003906 14.898437 10.3125 31.464843 15.621094 40.082031 23.191407 16.425781 14.4375 18.375 34.21875 8.703125 50.675781zm0 0" fill="#aba6d5"/><path d="m93.402344 92.75c-35.324219-17.238281-46.121094-49.199219-48.785156-73.867188 14.898437 10.3125 31.464843 15.621094 40.082031 23.191407 16.425781 14.4375 18.375 34.21875 8.703125 50.675781zm0 0" fill="#c1bde0"/><path d="m190 197.117188c-9.730469 3.8125-25.019531 3.589843-40.921875 7.019531-9.53125 2.050781-19.292969 5.417969-28.191406 11.730469-1.515625 1.085937-3.558594-.28125-3.113281-2.101563 4.5625-18.6875 24.398437-79.195313 90.121093-80.121094 3.199219 5.046875 5.46875 10.253907 6.816407 15.453125 5.207031 19.953125-3.144532 39.578125-24.710938 48.019532zm0 0" fill="#aba6d5"/><path d="m220.53125 129.867188c-3.679688 1.375-7.640625 2.390624-11.839844 2.984374-41.941406-50.617187-8.769531-104.972656 2.492188-120.5625 1.09375-1.519531 3.457031-.855468 3.628906 1.015626.964844 10.9375 4.773438 20.585937 9.4375 29.222656 7.703125 14.234375 17.722656 25.683594 21.132812 35.527344 8.140626 23.53125-3.480468 43.839843-24.851562 51.8125zm0 0" fill="#aba6d5"/><path d="m190 197.117188c-9.730469 3.8125-25.019531 3.589843-40.921875 7.019531 9.839844-21.554688 29.160156-48.355469 65.632813-55.039063 5.207031 19.953125-3.144532 39.578125-24.710938 48.019532zm0 0" fill="#c1bde0"/><path d="m220.53125 129.867188c-17.5-33.597657-6.964844-66.78125 3.71875-87.339844 7.703125 14.234375 17.722656 25.683594 21.132812 35.527344 8.140626 23.53125-3.480468 43.839843-24.851562 51.8125zm0 0" fill="#c1bde0"/><path d="m285 247.726562c-11.449219.824219-27.875-4.988281-45.992188-5.78125-8.273437-.363281-16.898437.320313-25.5625 3.15625-1.78125.582032-3.328124-1.328124-2.363281-2.9375 9.914063-16.484374 46.828125-68.378906 109.855469-49.730468 1.109375 4.09375 1.742188 8.132812 1.921875 12.042968 1.085937 22.800782-13.019531 41.46875-37.859375 43.25zm0 0" fill="#aba6d5"/><path d="m331.214844 190.996094c-3.933594.230468-8.035156.019531-12.234375-.664063-25.023438-60.789062 22.808593-102.839843 38.1875-114.390625 1.5-1.113281 3.558593.222656 3.15625 2.050782-1.929688 8.917968-1.71875 17.5625-.511719 25.757812 2.65625 17.933594 10.125 33.675781 10.476562 45.15625.785157 24.871094-16.316406 40.804688-39.074218 42.089844zm0 0" fill="#aba6d5"/><path d="m285 247.726562c-11.449219.824219-27.875-4.988281-45.992188-5.78125 15.292969-18.710937 43.339844-42.796874 83.851563-37.46875 1.085937 22.800782-13.019531 41.46875-37.859375 43.25zm0 0" fill="#c1bde0"/><path d="m331.214844 190.996094c-9.480469-39.738282 11.570312-70.105469 28.597656-87.246094 2.65625 17.933594 10.125 33.675781 10.476562 45.15625.785157 24.871094-16.316406 40.804688-39.074218 42.089844zm0 0" fill="#c1bde0"/><path d="m508.667969 177.40625c-3.453125-2.324219-8.140625-1.40625-10.464844 2.046875-18.1875 27.03125-49.390625 33.867187-83.273437 30.75-.515626-.105469-1.046876-.15625-1.589844-.152344-50.890625-5.128906-107.832032-31.433593-151.945313-56.46875-58.671875-33.179687-137.175781-65.609375-202.6875-48.648437-40.996093 10.617187-56.929687 35.800781-57.585937 36.867187-2.179688 3.53125-1.0859378 8.136719 2.429687 10.335938 3.519531 2.199219 8.160157 1.125 10.378907-2.378907.558593-.882812 14.105468-21.722656 49.839843-30.550781 33.707031-8.324219 94.046875-6.847656 190.097657 47.441407 33.730468 20.5 87.113281 44.648437 132.398437 54.300781-37.59375 25.734375-41.113281 82.347656-4.65625 106.773437 23.011719 15.410156 56.3125 12.925782 72.617187-11.414062 6.984376-10.433594 9.492188-22.960938 7.058594-35.277344-6.566406-33.207031-49.71875-42.425781-66.84375-16.859375-15.613281 23.3125 3.085938 51.316406 27.675782 46.449219 10.429687-2.058594 14.484374-17.097656 4.398437-23.855469-6.488281-4.34375-15.539063-2.179687-19.144531 5.152344-1.539063-1.6875-2.605469-3.757813-3.0625-6.058594-3.296875-16.667969 16.101562-27.84375 31.980468-17.207031 13.011719 8.714844 13.65625 26.949218 5.410157 39.261718-11.4375 17.078126-35.347657 18.230469-51.695313 7.277344-33.347656-22.335937-20.625-80.328125 23.851563-89.984375 38.996093 3.507813 75.171875-5.101562 96.859375-37.335937 2.324218-3.453125 1.410156-8.140625-2.046875-10.464844zm0 0" fill="#8078bf"/></svg>