<svg height="511pt" viewBox="0 -4 511.99955 511" width="511pt" xmlns="http://www.w3.org/2000/svg"><path d="m335.691406 164.671875c-3.261718 5.042969-4.800781 7.960937-4.800781 7.960937-122.933594 194.566407-300.015625 147.90625-300.015625 147.90625l-6.757812-2.054687c0-.011719.011718-.011719.011718-.019531 52.839844-112.097656 230.839844-128.371094 310.617188-153.492188.324218-.101562.632812-.203125.945312-.300781zm0 0" fill="#a6e0ec"/><path d="m335.691406 164.671875c-3.261718 5.042969-4.800781 7.960937-4.800781 7.960937-122.933594 194.566407-300.015625 147.90625-300.015625 147.90625l-6.757812-2.054687c0-.011719.011718-.011719.011718-.019531 22.601563-14.984375 63.625-36.117188 136.503906-59.257813 0 0 123.917969-52.015625 174.113282-94.234375.324218-.101562.632812-.203125.945312-.300781zm0 0" fill="#c2eaf2"/><path d="m502.464844 38.394531c-15.132813 66.636719-101.527344 105.460938-166.773438 126.277344.101563-.152344.191406-.304687.292969-.453125 49.570313-76.300781 117.28125-102.335938 166.480469-125.824219zm0 0" fill="#a6e0ec"/><path d="m501.386719 42.835938c-16.875 62.78125-100.738281 101.113281-165.695313 121.835937.101563-.152344.191406-.304687.292969-.453125l118.179687-82.347656zm0 0" fill="#c2eaf2"/><path d="m511.207031 7.128906c-.511719-4.140625-4.292969-7.0859372-8.421875-6.570312-4.136718.511718-7.078125 4.28125-6.566406 8.417968 1.03125 8.359376.820312 16.351563-.453125 23.996094-56.890625 21.367188-109.507813 56.640625-148.050781 102.832032 5.222656-54.046876-43.605469-101.347657-94.3125-86.691407-31.960938 9.238281-55.082032 41.636719-45.429688 75.03125 7.570313 26.199219 34.210938 45.375 61.898438 37.378907 11.867187-3.429688 21.6875-11.277344 27.65625-22.097657 16.023437-29.054687-10.492188-63.507812-39.707032-55.066406-6.441406 1.859375-12.011718 5.589844-16.136718 10.703125-12.789063 11.433594-1.191406 32.28125 15.21875 27.539062 10.457031-3.023437 14.960937-15.316406 9.007812-24.375 14.664063-.78125 27.214844 17.90625 18.390625 33.90625-8.3125 15.074219-27.246093 20.546876-42.316406 12.230469-19.757813-10.894531-26.929687-35.703125-16.03125-55.460937 6.824219-12.378906 18.0625-21.355469 31.640625-25.28125 49.179688-14.210938 94.472656 46.019531 67.238281 96.410156-71.445312 21.722656-252.851562 39.058594-307.582031 155.332031-.03125.070313-.066406.136719-.097656.210938-15.148438 32.324219-11.441406 56.8125-11.238282 58.042969.605469 3.699218 3.800782 6.316406 7.433594 6.316406 4.675782 0 8.175782-4.171875 7.476563-8.722656-.039063-.238282-2.617188-18.449219 7.550781-43.539063.101562.015625 34.121094 9.449219 84.207031 3.25-4.296875 3.007813-8.304687 6.332031-12.019531 9.910156-23.453125 13.460938-96.347656 43.574219-100.546875 112.703125-.253906 4.164063 2.914063 7.742188 7.078125 7.996094 4.179688.25 7.742188-2.929688 7.996094-7.082031 2.59375-42.71875 36.835937-68.816407 64.640625-85.046875-38 77.171875 39.496093 141.957031 77.671875 134.589844 4.097656-.789063 6.777344-4.75 5.984375-8.84375-.789063-4.09375-4.75-6.773438-8.84375-5.984376-23.539063 4.554688-72.796875-34.910156-70.039063-80.335937 1.550782-25.515625 14.972656-50.816406 37.980469-66.410156-31.925781 63.007812 33.148437 122.402343 83.574219 94.148437 13.03125-7.304687 22.441406-19.242187 26.496094-33.621094 6.914062-24.546874-7.425782-50.144531-31.972657-57.0625-20.4375-5.757812-41.753906 6.183594-47.515625 26.621094-4.246094 15.066406 2.972656 30.695313 16.414063 37.550782 13.882812 10.707031 32.484375-5.429688 23.945312-20.667969-5.289062-9.445313-18.238281-11.113281-25.746093-3.265625-4.195313-14.183594 11.238281-30.652344 28.804687-25.703125 16.53125 4.660156 26.191406 21.898437 21.53125 38.429687-2.957031 10.496094-9.824219 19.210938-19.335937 24.542969-22.863282 12.808594-50.632813.398437-62.839844-21.386719-17.855469-31.867187 1.804687-71.441406 35.445312-84.921875 40.570313-14.339843 78.066406-39.128906 102.539063-62.910156 40.933593-38.042969 65.828125-81.035156 63.796875-78.125.242187-.445313 1.21875-2.199219 2.972656-5 15.53125-5.039063 32.089844-11.074219 48.589844-18.214844 65.421875-28.304687 130.792968-74.6875 122.023437-145.703125zm-308.289062 198.382813c9.140625-2.664063 18.75-5.222657 28.847656-7.660157l-10.835937 25.648438c-10.515626 4.796875-21.308594 9.613281-32.164063 14.378906zm-49.136719 16.960937c9.332031-3.800781 19.34375-7.488281 30.0625-11.035156l-15.214844 34.796875c-.558594.289063-1.082031.648437-1.558594 1.070313-10.007812 4.300781-19.945312 8.515624-29.648437 12.589843zm-20.40625 8.972656c-15.652344 36.113282-15.414062 34.488282-15.640625 36.65625-8.15625 3.375-16.03125 6.605469-23.53125 9.664063l14.625-33.445313c7.503906-4.355468 15.660156-8.664062 24.546875-12.875zm-47.542969 27.761719-10.625 24.296875c-.3125.71875-.503906 1.457032-.585937 2.195313-11.027344 4.441406-20.746094 8.3125-28.613282 11.421875 9.050782-11.847656 21.828126-24.871094 39.824219-37.914063zm-44 55.804688c8.839844-3.460938 21.941407-8.628907 37.824219-15.011719l34.621094 15.453125c-32.945313 4.488281-59.332032 1.703125-72.445313-.441406zm98.496094-4.46875-41.234375-18.40625c7.535156-3.066407 15.460938-6.316407 23.671875-9.710938l46.085937 19.425781c-9.984374 3.683594-19.546874 6.515626-28.523437 8.691407zm48.121094-16.820313-46.125-19.441406c9.921875-4.164062 20.105469-8.484375 30.367187-12.898438l43.007813 17.820313c-9.246094 5.609375-18.359375 10.414063-27.25 14.519531zm42.546875-24.492187c-.53125-.28125-11.140625-4.640625-39.035156-16.210938 10.253906-4.492187 20.476562-9.046875 30.496093-13.601562 1.492188 1.019531.203125.230469 31.570313 11.996093-7.6875 6.5625-15.382813 12.476563-23.03125 17.816407zm35.679687-29.226563-25.160156-9.363281c22.90625-10.714844 44.058594-21.226563 61.171875-30.78125-11.753906 15.253906-23.832031 28.558594-36.011719 40.144531zm-25.355469-25.957031 8.585938-20.324219c13.648438-2.921875 26.035156-4.609375 54.160156-11.988281-16.394531 9.683594-38.332031 20.800781-62.746094 32.3125zm114.648438-64.382813c21.90625-27.265624 64.605469-69.695312 134.523438-98.398437-19.414063 46.722656-79.789063 78.46875-134.523438 98.398437zm0 0" fill="#44bfd7"/></svg>