<svg height="512pt" viewBox="0 0 512 512" width="512pt" xmlns="http://www.w3.org/2000/svg"><path d="m512 16.703125v478.59375c0 9.21875-7.484375 16.703125-16.703125 16.703125h-64.039063c-9.21875 0-16.703124-7.484375-16.703124-16.703125v-381.148437c0-9.230469-7.472657-16.703126-16.703126-16.703126h-381.148437c-9.21875 0-16.703125-7.484374-16.703125-16.703124v-64.039063c0-9.21875 7.484375-16.703125 16.703125-16.703125h478.59375c9.21875 0 16.703125 7.484375 16.703125 16.703125zm0 0" fill="#a6e0ec"/><g fill="#7cd2e3"><path d="m463.277344 65.425781v446.574219h-32.019532c-9.21875 0-16.703124-7.484375-16.703124-16.703125v-381.148437c0-9.230469-7.472657-16.703126-16.703126-16.703126h-381.148437c-9.21875 0-16.703125-7.484374-16.703125-16.703124v-32.019532h446.574219c9.230469 0 16.703125 7.472656 16.703125 16.703125zm0 0"/><path d="m377.875 218.421875c-27.6875-20.152344-66.390625 2.574219-61.507812 33.574219 4.3125 27.363281 37.296874 36.871094 52.804687 15.5625 2.546875-3.5 1.773437-8.402344-1.726563-10.953125-3.503906-2.546875-8.40625-1.773438-10.953124 1.726562-4.097657 5.628907-11.960938 6.851563-17.574219 2.765625-7.902344-5.75-9.644531-16.800781-3.890625-24.703125 7.808594-10.730469 22.890625-13.101562 33.621094-5.296875 14.285156 10.398438 17.449218 30.476563 7.050781 44.761719-13.632813 18.730469-39.960938 22.878906-58.691407 9.25-24.234374-17.640625-29.636718-51.667969-12.097656-75.945313l10.765625-12.609374-12.261719-10.183594-11.472656 13.433594c-33.414062 31.113281-88.597656 8.472656-88.011718-31.839844.164062-11.21875 4.6875-21.707032 12.738281-29.523438 19.542969-18.984375 52.449219-5.726562 52.109375 17.777344-.273438 18.863281-20.328125 28.875-32.300782 16.546875-4.835937-4.972656-4.71875-12.957031.257813-17.789063 3.105469-3.015624 3.179687-7.980468.160156-11.085937-11.136719-11.464844-30.640625 20.265625-11.667969 39.800781 21.621094 22.253906 58.75 5.769532 59.230469-27.242187.542969-37.414063-49.160156-57.957031-78.714843-29.257813-11.050782 10.738282-17.265626 25.136719-17.488282 40.546875-.660156 45.214844 49.628906 74.386719 92.488282 57.398438-9.628907 41.570312 20.546874 83.675781 60.914062 83.675781 17.839844 0 35.445312-8.226562 46.722656-23.722656 15.480469-21.277344 10.769532-51.183594-10.503906-66.667969zm0 0"/><path d="m319.160156 201.976562c-6.011718 1.328126-12.808594 2.15625-20.46875 2.394532 0 0-13.601562-68.300782 58.578125-73.839844 2.96875-.222656 5.625 1.839844 6.085938 4.785156.417969 2.699219.804687 6.335938.867187 10.539063.273438 18.363281-5.894531 47.539062-45.0625 56.121093zm0 0"/></g><path d="m319.160156 201.976562c.636719-18.34375 7.765625-47.445312 45.0625-56.121093.273438 18.363281-5.894531 47.539062-45.0625 56.121093zm0 0" fill="#a6e0ec"/></svg>