<svg height="512pt" viewBox="0 -138 512.00003 512" width="512pt" xmlns="http://www.w3.org/2000/svg"><path d="m460.113281 84.691406c-32.921875 6.859375-41.332031 46.886719-15.628906 63.726563 3.5625 2.335937 8.347656 1.335937 10.683594-2.226563 2.332031-3.566406 1.335937-8.351562-2.230469-10.683594-14.546875-9.53125-8.824219-31.714843 10.324219-35.707031 23.570312-4.90625 43.082031 25.597657 27.925781 48.738281-15.484375 23.644532-50.546875 27.648438-72.207031.53125-.554688-1.070312-12.296875-13.648437-12.054688-35.207031.125-11.003906-4.09375-21.394531-11.871093-29.261719-7.875-7.964843-18.386719-12.351562-29.589844-12.351562h-218.9375c-23.058594 0-41.71875 18.71875-41.460938 41.613281.214844 19.03125-9.148437 36.609375-25.046875 47.019531-19.726562 12.921876-46.292969 7.386719-59.214843-12.34375-9.871094-15.070312-5.640626-35.363281 9.429687-45.234374 17.378906-11.382813 40.289063 3.207031 36.632813 20.734374-.984376 4.742188-3.761719 8.8125-7.8125 11.46875-3.566407 2.332032-4.5625 7.117188-2.230469 10.683594 2.335937 3.5625 7.121093 4.558594 10.683593 2.226563 7.5-4.914063 12.640626-12.453125 14.46875-21.230469 6.484376-31.113281-31.441406-55.628906-60.199218-36.792969-10.75 7.039063-18.113282 17.84375-20.734375 30.425781-10.636719 51.011719 62.632812 90.050782 104.179687 37.699219.570313-.484375-.382812.375 6.925782-6.589843 29.050781-24.648438 76.476562-12.363282 83.785156 22.765624 4.007812 19.273438-5.914063 41.476563-26.492188 45.757813-14.695312 3.054687-31.550781-4.472656-34.78125-20-3.929687-18.890625 13.859375-32.890625 28.269532-23.441406 2.066406 1.355469 3.652343 3.238281 4.640624 5.441406-.652343.035156-1.304687.105469-1.960937.242187-7.222656 1.503907-11.863281 8.578126-10.359375 15.800782 2.472656 11.886718 17.976562 14.28125 24.269531 4.675781 8.546875-13.039063 4.917969-30.515625-8.128906-39.066406-25.3125-16.597657-58.71875 6.425781-51.839844 39.488281 5.023438 24.148438 30.132813 36.730469 53.035157 31.964844 29.101562-6.050782 44.199218-36.40625 38.457031-64.007813-8.382813-40.296875-55.125-58.355469-92.164063-41.886719 1.121094-5.175781 1.679688-10.527343 1.621094-15.976562-.078125-6.847656 2.554688-13.324219 7.410156-18.238281 4.957032-5.007813 11.566406-7.769531 18.617188-7.769531h218.9375c14.519531 0 26.191406 11.773437 26.03125 26.007812-.0625 5.378906.480468 10.667969 1.574218 15.789062-21.363281-9.320312-46.695312-7.679687-66.835937 5.527344-45.210937 29.640625-27.773437 101.570313 23.398437 101.570313 35.960938-.003907 54.980469-36.261719 37.535157-62.867188-4.882813-7.449219-12.375-12.550781-21.09375-14.363281-16.28125-3.382812-33.714844 5.738281-37.226563 22.613281-1.867187 8.980469 1.257813 18.664063 5.023438 22.441407 7.125 8.4375 20.996094 5.035156 23.273437-5.902344 1.625-7.820313-3.972656-15.558594-12.320312-16.042969 2.898437-6.464844 11.003906-9.476563 18.105469-8 11.484374 2.386719 17.09375 14.992187 14.804687 26-3.222656 15.480469-20.046875 23.058594-34.78125 20-30.695313-6.386719-38.472656-52.734375-8.257813-72.539063 20.21875-13.261718 47.144532-11.601562 65.546876 4.015626l5.457031 5.21875c27.683593 36.703124 76.746093 32.902343 98.398437-.152344 22.683594-34.628906-7.027344-80.011719-43.984375-72.304688zm0 0" fill="#c1bde0"/><path d="m420.214844 5.453125v61.332031c0 3.015625-2.4375 5.460938-5.453125 5.460938h-317.53125c-3.015625 0-5.453125-2.445313-5.453125-5.460938v-61.332031c0-3.015625 2.4375-5.453125 5.453125-5.453125h317.53125c3.015625 0 5.453125 2.4375 5.453125 5.453125zm0 0" fill="#6860a9"/><path d="m420.214844 36.125v30.660156c0 3.015625-2.4375 5.460938-5.453125 5.460938h-317.53125c-3.015625 0-5.453125-2.445313-5.453125-5.460938v-30.660156zm0 0" fill="#453d83"/></svg>