<svg height="511pt" viewBox="0 -56 511.9983 511" width="511pt" xmlns="http://www.w3.org/2000/svg"><path d="m505.453125 68.273438c-13.621094-1.890626-27.589844-.949219-41.070313 2.492187 7.042969-15.652344 7.3125-33.378906 4.050782-50.4375-.785156-4.121094-4.773438-6.820313-8.878906-6.03125-4.117188.785156-6.816407 4.761719-6.03125 8.878906 4.136718 21.65625 1.414062 45.820313-16.613282 58.484375-44.394531 24.460938-66.726562 73.742188-64.179687 122.722656-49.304688 8.40625-82.773438 67.972657-58.886719 120.226563h-115.6875c23.472656-51.351563-8.460938-111.554687-58.816406-120.25 2.023437-49.046875-20.796875-97.210937-64.246094-121.160156-18.03125-12.65625-20.757812-36.824219-16.617188-58.488281.785157-4.113282-1.914062-8.089844-6.03125-8.878907-4.121093-.785156-8.09375 1.917969-8.878906 6.03125-3.261718 17.0625-2.996094 34.789063 4.050782 50.441407-13.480469-3.441407-27.449219-4.382813-41.070313-2.492188-4.152344.574219-7.050781 4.410156-6.4726562 8.5625.5742192 4.152344 4.4062502 7.050781 8.5585932 6.472656 34.367188-4.769531 72.9375 11.265625 95.675782 45.457032-21.867188-9.507813-45.335938-17.578126-69.335938-14.121094-4.148437.597656-7.027344 4.445312-6.429687 8.59375.597656 4.152344 4.445312 7.035156 8.59375 6.429687 20.886719-3.007812 42.566406 4.847657 62.878906 13.785157 7.273437 3.203124 15.238281 7.144531 17.679687 13.449218 4.148438 10.703125 7.167969 27.523438 6.492188 44.953125-40.160156 1.738281-73.574219 37.046875-65.34375 76.542969 5.855469 28.09375 32.273438 50.289062 61.875 44.117188 12.703125-2.648438 23.609375-10.082032 30.71875-20.9375 12.199219-18.621094 6.972656-43.695313-11.652344-55.894532-3.503906-2.300781-8.210937-1.320312-10.507812 2.191406-2.296875 3.503907-1.316406 8.207032 2.191406 10.507813 11.621094 7.609375 14.882812 23.257813 7.269531 34.878906-4.886719 7.460938-12.386719 12.574219-21.117187 14.390625-21.113282 4.40625-39.746094-12.339844-43.914063-32.351562-8.617187-41.328125 44.089844-75.476563 84.355469-49.101563 33.492188 21.941407 42.847656 66.804688 20.90625 100.300781-3.296875 5.035157.316406 11.75 6.351562 11.75h141.363282c6.015625 0 9.652344-6.703124 6.347656-11.75-33.820312-51.636718 9.988281-119.457031 63.351562-108.339843 14.757813 3.074219 27.4375 11.714843 35.695313 24.324219 13.183594 20.128906 7.535156 47.230468-12.589844 60.414062-15.4375 10.109375-36.113281 5.800781-46.226562-9.636719-7.613281-11.621093-4.351563-27.269531 7.269531-34.882812 3.507812-2.296875 4.488281-7 2.191406-10.507813-2.300781-3.507812-7.003906-4.484375-10.507812-2.1875-18.625 12.199219-23.851563 37.273438-11.652344 55.894532 14.707031 22.453124 44.785156 28.726562 67.242188 14.015624 27.128906-17.769531 34.742187-54.296874 16.972656-81.425781-13.117188-20.023437-34.628906-31.296875-56.894532-32.269531-.910156-17.886719 2.082032-35.339844 6.417969-46.539062 2.441407-6.304688 10.40625-10.246094 17.679688-13.445313 20.316406-8.9375 41.996093-16.789063 62.878906-13.785156 4.144531.605469 8-2.28125 8.59375-6.429688.601563-4.148437-2.277344-7.996093-6.429687-8.59375-23.992188-3.464843-47.46875 4.609375-69.335938 14.117188 22.835938-34.335938 61.570312-50.195313 95.675781-45.457031 4.144531.574218 7.984375-2.320313 8.5625-6.472657.574219-4.152343-2.320312-7.980469-6.472656-8.558593zm0 0" fill="#c1bde0"/><g fill="#fb5858"><path d="m154.539062 382.210938c0 10.0625-8.15625 18.214843-18.214843 18.214843-10.0625 0-18.21875-8.152343-18.21875-18.214843 0-10.058594 8.15625-18.214844 18.21875-18.214844 10.058593 0 18.214843 8.15625 18.214843 18.214844zm0 0"/><path d="m234.324219 382.210938c0 10.0625-8.15625 18.214843-18.214844 18.214843-10.0625 0-18.21875-8.152343-18.21875-18.214843 0-10.058594 8.15625-18.214844 18.21875-18.214844 10.058594 0 18.214844 8.15625 18.214844 18.214844zm0 0"/><path d="m314.105469 382.210938c0 10.0625-8.152344 18.214843-18.214844 18.214843-10.058594 0-18.214844-8.152343-18.214844-18.214843 0-10.058594 8.15625-18.214844 18.214844-18.214844 10.0625 0 18.214844 8.15625 18.214844 18.214844zm0 0"/><path d="m393.890625 382.210938c0 10.0625-8.15625 18.214843-18.214844 18.214843-10.058593 0-18.214843-8.152343-18.214843-18.214843 0-10.058594 8.15625-18.214844 18.214843-18.214844 10.058594 0 18.214844 8.15625 18.214844 18.214844zm0 0"/></g><path d="m261.015625 173.585938c-.265625 7.710937-1.5 15.757812-3.902344 24.101562 0 0-109.179687 22.234375-129.046875-145.382812-.546875-4.570313 3.917969-8.167969 8.4375-7.320313 7.074219 1.355469 19.496094 5.554687 33.855469 12.507813 39.132813 18.964843 92.59375 58.363281 90.65625 116.09375zm0 0" fill="#fd9a9a"/><path d="m261.015625 173.585938c-30.667969-6.898438-73.523437-32.09375-90.65625-116.09375 39.132813 18.964843 92.59375 58.363281 90.65625 116.09375zm0 0" fill="#fdbcbc"/><path d="m383.929688 52.304688c-1.164063 9.808593-2.628907 18.964843-4.375 27.523437-18.417969 90.863281-66.902344 113.113281-97.691407 117.734375-15.828125 2.402344-26.976562.125-26.976562.125-26.945313-93.898438 91.691406-147.183594 120.609375-152.707031 4.519531-.84375 8.980468 2.753906 8.433594 7.324219zm0 0" fill="#fd9a9a"/><path d="m379.554688 79.828125c-18.417969 90.863281-66.902344 113.113281-97.691407 117.734375-.953125-60.355469 58.628907-100.425781 97.691407-117.734375zm0 0" fill="#fdbcbc"/><path d="m274.226562 183.167969c-4.25 4.578125-9.160156 8.898437-14.769531 12.894531-1.433593 1.023438-3.332031 1.089844-4.816406.140625-14.8125-9.464844-88.382813-65.136719-4.691406-192.84375 2.507812-3.828125 8.257812-3.738281 11.152343-.175781 3.210938 3.933594 7.621094 10.710937 12.277344 19.480468 20.152344 37.808594 45.207032 112.972657.847656 160.503907zm0 0" fill="#fb5858"/><path d="m274.226562 183.167969c-22.015624-22.445313-50.460937-72.570313-.84375-160.503907 20.148438 37.808594 45.203126 112.972657.84375 160.503907zm0 0" fill="#fc7979"/></svg>