<svg height="512pt" viewBox="-35 0 512 512.00027" width="512pt" xmlns="http://www.w3.org/2000/svg"><path d="m332.34375 124.523438c-51.613281-29.367188-111.574219-36.875-168.839844-21.148438-118.484375 32.546875-188.042968 154.773438-155.492187 273.273438 15.730469 57.265624 52.820312 104.976562 104.433593 134.34375 1.203126.683593 2.507813 1.007812 3.796876 1.007812 7.882812 0 10.644531-10.488281 3.8125-14.378906-82.367188-46.863282-118.464844-139.90625-99.890626-224.179688 1.148438 111.335938 109.726563 189.265625 215.179688 155.285156 4.042969-1.300781 6.265625-5.636718 4.960938-9.679687-1.300782-4.039063-5.640626-6.261719-9.675782-4.960937-37.941406 12.226562-78.375 8.949218-113.84375-9.234376-56.296875-28.851562-86.101562-88.273437-80.597656-146.855468 12.921875 36.488281 47.210938 58.664062 79.488281 58.664062 32.15625-.003906 61.597657-21.617187 70.082031-54.148437 12.871094-49.378907-39.542968-90.984375-79.773437-67.390625-20.722656 12.148437-31.226563 39.046875-18.394531 60.925781 15.832031 27.003906 53.640625 26.3125 65.082031-1.011719 7.960937-15.308594-9.105469-31.644531-24.046875-22.882812-10.109375 5.929687-11.519531 20.042968-2.703125 27.84375-9.480469 2.511718-19.949219-3.007813-25.0625-11.730469-12.589844-21.464844 10.847656-50.625 38.476563-43.417969 23.578124 6.144532 37.683593 30.199219 31.535156 53.78125-3.839844 14.738282-13.195313 27.101563-26.335938 34.804688-47.359375 27.769531-110.960937-22.585938-95.730468-82.785156 3.632812-8.003907 7.996093-15.761719 13.089843-23.179688.285157-.410156.515625-.84375.710938-1.285156 62.195312-75.863282 172.570312-99.253906 262.132812-48.292969 3.691407 2.101563 8.386719.8125 10.488281-2.878906 2.101563-3.691407.8125-8.386719-2.882812-10.488281zm0 0" fill="#9bcf1b"/><path d="m441.324219 106.765625c-32.835938 9.507813-47.375 27.226563-47.375 27.226563-17.464844 16.488281-34.980469 20.324218-50.230469 18.53125 8.871094 28.40625 5.199219 40.445312-2.859375 58.144531-1.886719 4.144531-7.980469 3.660156-9.128906-.738281-6.304688-24.292969-30.660157-41.941407-50.976563-52.496094-5.75-2.992188-11.1875-5.414063-15.789062-7.25-7.210938-2.878906-11.917969-9.863282-11.917969-17.625v-55.5625c0 2.410156-1.660156-12.726563 11.917969-18.152344 19.933594-7.964844 58.972656-26.804688 70.183594-55.683594 1.773437-4.5625 8.324218-4.070312 9.300781.730469 2.53125 12.40625 4.070312 28.640625.59375 45.089844-.523438 2.53125-1.179688 5.074219-1.96875 7.609375 15.402343-1.988282 33.164062 1.722656 50.875 18.449218 0 0 14.539062 17.71875 47.375 27.214844 2.265625.667969 2.265625 3.855469 0 4.511719zm0 0" fill="#aba6d5"/><path d="m441.324219 106.765625c-32.835938 9.507813-47.375 27.226563-47.375 27.226563-17.464844 16.488281-34.980469 20.324218-50.230469 18.53125 8.871094 28.40625 5.199219 40.445312-2.859375 58.144531-1.886719 4.144531-7.980469 3.660156-9.128906-.738281-6.304688-24.292969-30.660157-41.941407-50.976563-52.496094-1.371094-6.347656-2.089844-12.949219-2.089844-19.71875 0-42.25 28.078126-77.863282 66.378907-88.734375-.523438 2.53125-1.179688 5.074219-1.96875 7.609375 15.402343-1.988282 33.164062 1.722656 50.875 18.449218 0 0 14.539062 17.71875 47.375 27.214844 2.265625.667969 2.265625 3.855469 0 4.511719zm0 0" fill="#c1bde0"/></svg>