<svg height="512pt" viewBox="0 -2 512.00078 512" width="512pt" xmlns="http://www.w3.org/2000/svg"><path d="m507.636719 178.960938c-17.460938-8.128907-45.714844-31.46875-51.328125-36.175782-22.9375-42.085937-59.230469-76.53125-102.859375-97.078125 13.171875-1.898437 28.089843-4.664062 38.355469-8.410156 3.914062-1.429687 5.929687-5.757813 4.5-9.671875-1.425782-3.914062-5.757813-5.929688-9.671876-4.503906-20.285156 7.402344-62.488281 10.734375-63.582031 10.882812-44.683593-13.554687-94.523437-13.308594-140.804687 2.765625 8.140625-10.832031 12.902344-15.875 17.632812-26.042969 1.757813-3.777343.121094-8.261718-3.65625-10.019531-3.777344-1.757812-8.265625-.121093-10.023437 3.65625-9.3125 20.019531-32.269531 43.628907-33.238281 44.976563-43.101563 22.257812-78.375 58.222656-99.765626 101.636718-1.902343-13.417968-4.710937-28.839843-8.554687-39.371093-1.425781-3.914063-5.753906-5.929688-9.671875-4.5-3.914062 1.429687-5.929688 5.757812-4.5 9.671875 5.949219 16.300781 9.226562 46.253906 10.839844 63.28125-15.738282 47.90625-15.109375 100.890625 2.320312 148.789062-10.621094-7.933594-23.042968-16.460937-32.902344-21.046875-3.773437-1.757812-8.265624-.121093-10.019531 3.65625-1.757812 3.777344-.121093 8.265625 3.65625 10.023438 19.570313 9.105469 52.070313 36.835937 52.722657 37.320312 22.019531 40.71875 56.578124 74.398438 98.179687 95.277344-13.902344 1.902344-30.453125 4.804687-41.566406 8.859375-3.914063 1.429688-5.925781 5.761719-4.5 9.671875 1.425781 3.902344 5.75 5.933594 9.671875 4.503906 21.316406-7.78125 62.558594-10.449219 64.820312-11.15625 47.199219 16.03125 98.839844 15.945313 145.539063.285157-7.867188 10.070312-16.074219 21.652343-20.484375 31.128906-1.753906 3.777344-.117188 8.265625 3.660156 10.023437 3.789062 1.765625 8.269531.105469 10.019531-3.65625 8.234375-17.703125 33.050781-45.636719 37.195313-50.242187 44.199218-22.496094 82.078125-60.433594 103.96875-108.660156 1.890625 12.734374 4.574218 26.808593 8.160156 36.632812 1.113281 3.058594 4.007812 4.957031 7.085938 4.957031 5.210937 0 8.886718-5.195312 7.085937-10.128906-7.019531-19.242187-10.503906-59.289063-10.804687-62.90625 12.699218-44.761719 11.722656-94.511719-5.25-140.6875 10.277343 7.609375 22.007812 15.5625 31.40625 19.9375 3.789062 1.765625 8.269531.105469 10.019531-3.660156 1.757812-3.777344.121093-8.265625-3.65625-10.019531zm-40.175781 94.605468c-.851563 1.777344-11.539063 22.976563-35.171876 24.765625-4.152343.3125-7.265624 3.9375-6.949218 8.089844.3125 4.164063 3.945312 7.265625 8.089844 6.953125 12.097656-.914062 21.640624-5.472656 28.921874-10.949219-11.898437 47.640625-39.96875 88.9375-78.019531 117.707031-14.613281 4.6875-30.828125 3-42.746093-7.242187-3.160157-2.71875-7.921876-2.355469-10.636719.804687-2.714844 3.160157-2.355469 7.921876.804687 10.636719 8.734375 7.503907 18.164063 11.0625 26.8125 12.5-41.847656 23.003907-90.148437 31.066407-137.296875 23.050781-3.035156-1.542968-22.71875-12.402343-24.433593-35.003906-.3125-4.15625-3.933594-7.265625-8.089844-6.953125s-7.269532 3.9375-6.953125 8.089844c.8125 10.71875 4.484375 19.429687 9.117187 26.347656-20.546875-6.753906-39.710937-16.574219-56.960937-28.910156.050781-.324219.085937-.652344.089843-.992187.800782-46.941407 32.074219-54.3125 33.507813-54.625 4.054687-.835938 6.683594-4.796876 5.867187-8.863282-.8125-4.085937-4.785156-6.742187-8.871093-5.921875-1.195313.238281-11.976563 2.613281-22.953125 12.394531-8.890625 7.917969-19.371094 22.253907-22.015625 46.769532-10.933594-9.332032-20.914063-19.753906-29.761719-31.097656-4.636719-13.222657-3.054688-30.4375 7.316406-42.503907 2.714844-3.160156 2.355469-7.925781-.804687-10.640625-3.160157-2.710937-7.925781-2.351562-10.636719.808594-7.695312 8.953125-11.238281 18.636719-12.605469 27.460938-17.796875-30.996094-27.984375-66.890626-27.984375-105.125 0-10.675782.800782-21.164063 2.335938-31.417969 6.214844-12.796875 19.40625-23.753907 35.269531-24.957031 4.152344-.3125 7.265625-3.933594 6.953125-8.089844-.316406-4.15625-3.910156-7.261719-8.09375-6.953125-11.214844.847656-20.242188 4.832031-27.300781 9.769531 13.410156-43.988281 40.777343-81.945312 76.925781-108.6875 5.539062-1.609375 25.054688-5.886719 40.980469 7.800781 1.421875 1.222657 3.167969 1.820313 4.910156 1.820313 2.121094 0 4.234375-.890625 5.726563-2.625 2.714843-3.160156 2.351562-7.925782-.808594-10.640625-8.382813-7.203125-17.40625-10.765625-25.765625-12.3125 39.632812-21.496094 84.035156-29.207031 127.023437-23.839844.1875.105469.378906.207031.578125.300781.230469.105469 22.992188 10.828125 24.835938 35.207032.300781 3.960937 3.609375 6.972656 7.515625 6.972656 4.402344 0 7.859375-3.738282 7.53125-8.113282-.894532-11.8125-5.265625-21.1875-10.566406-28.40625 19.507812 5.382813 37.890624 13.503907 54.71875 23.902344 3.019531 43.9375-25.734376 54.453125-27.117188 54.929688-3.929688 1.308594-6.074219 5.546875-4.792969 9.496094 1.039063 3.183593 3.996094 5.207031 7.171875 5.207031.777344 0 1.5625-.117188 2.339844-.371094 1.15625-.378906 11.585938-4 21.339844-15 7.335937-8.273437 15.386718-22.210937 16.292968-43.914063 14.46875 10.773438 27.523438 23.347657 38.824219 37.394532.0625.25.136719.503906.226563.753906.355468.976562 8.457031 24.121094-7.320313 42.488281-2.714843 3.160157-2.351562 7.921875.808594 10.636719 3.15625 2.714844 7.921875 2.355469 10.636719-.804688 7.980468-9.292968 11.5-19.367187 12.75-28.457031 23.332031 39.234375 33.265625 84.707031 28.433594 130.359375zm0 0" fill="#9bcf1b"/><path d="m225.511719 271.160156c-.703125 22.914063-8.257813 88.933594-71.351563 96.367188 0 0-2.046875-6.199219-2.464844-15.78125-.925781-20.835938 5.828126-57.707032 57.949219-81.933594 2.742188-1.292969 5.605469-2.527344 8.605469-3.726562 3.527344-1.410157 7.375 1.253906 7.261719 5.074218zm0 0" fill="#8078bf"/><path d="m209.644531 269.816406c-2.855469 26.070313-14.226562 69.945313-57.949219 81.933594-.925781-20.839844 5.828126-57.710938 57.949219-81.933594zm0 0" fill="#958fca"/><path d="m235.488281 322.617188c12.214844 1.15625 22.738281 3.816406 29.371094 5.820312 3.660156 1.105469 4.972656 5.609375 2.476563 8.527344-38.351563 44.90625-81.109376 49.644531-113.296876 30.503906-.050781-.003906-.5-.363281-1.046874-.816406-.839844-.6875-1.878907-1.578125-2.007813-1.691406 6.589844-13.777344 15.375-23.402344 25.207031-30.015626 18.554688-12.4375 40.851563-14.085937 59.296875-12.328124zm0 0" fill="#aba6d5"/><path d="m235.488281 322.617188c-.066406 1.101562-.476562 2.210937-1.285156 3.144531-26.621094 31.167969-55.355469 42.988281-81.207031 40.890625-.84375-.691406-1.882813-1.582032-2.011719-1.691406 6.589844-13.777344 15.375-23.402344 25.207031-30.015626 18.554688-12.4375 40.851563-14.085937 59.296875-12.328124zm0 0" fill="#c1bde0"/><path d="m149.890625 250.03125c10.738281 13.648438 34.292969 48.648438 26.300781 84.914062-2.539062 11.5625-8.296875 23.253907-18.703125 34.433594-1.34375-.691406-2.488281-1.335937-3.449219-1.910156-.011718 0-.027343-.011719-.050781-.027344-5.003906-3.839844-9.488281-8.234375-13.332031-13.160156-16.699219-21.261719-21.742188-52.238281-6.210938-89.535156 1.890626-4.546875 4.085938-9.179688 6.601563-13.902344 1.804687-3.382812 6.476563-3.820312 8.84375-.8125zm0 0" fill="#aba6d5"/><path d="m134.449219 264.742188c10.273437 17.292968 20.546875 42.441406 14.863281 68.246093-1.558594 7.101563-4.328125 14.253907-8.65625 21.292969-16.699219-21.261719-21.742188-52.238281-6.207031-89.539062zm0 0" fill="#c1bde0"/><path d="m294.933594 228.667969c-2.363282-22.804688-3.699219-89.242188 57.839844-105.035157 0 0 2.855468 5.871094 4.546874 15.308594 3.703126 20.527344 1.933594 57.972656-46.484374 88.941406-2.542969 1.648438-5.21875 3.253907-8.03125 4.84375-3.308594 1.867188-7.476563-.257812-7.871094-4.058593zm0 0" fill="#8078bf"/><path d="m310.835938 227.882812c-.652344-26.222656 4.753906-71.222656 46.484374-88.941406 3.703126 20.527344 1.933594 57.96875-46.484374 88.941406zm0 0" fill="#958fca"/><path d="m278.171875 179.003906c-12.261719.488282-23.046875-.746094-29.886719-1.84375-3.773437-.609375-5.679687-4.894531-3.59375-8.121094 32.011719-49.628906 73.75-60.035156 108.207032-45.367187.050781 0 .542968.292969 1.144531.671875.925781.570312 2.074219 1.316406 2.21875 1.40625-4.691407 14.535156-12.113281 25.246094-20.972657 33.113281-16.726562 14.804688-38.601562 19.421875-57.117187 20.140625zm0 0" fill="#aba6d5"/><path d="m278.171875 179.003906c-.082031-1.097656.171875-2.257812.851563-3.289062 22.21875-34.441406 49.117187-49.996094 75.019531-51.371094.925781.570312 2.074219 1.316406 2.21875 1.40625-4.691407 14.535156-12.113281 25.25-20.972657 33.113281-16.726562 14.804688-38.601562 19.421875-57.117187 20.140625zm0 0" fill="#c1bde0"/><path d="m372.695312 239.503906c-12.464843-12.089844-40.480468-43.632812-37.40625-80.640625.972657-11.796875 5.117188-24.152343 13.9375-36.621093 1.421876.503906 2.644532.992187 3.671876 1.429687.011718 0 .027343.011719.050781.023437 5.472656 3.140626 10.507812 6.894532 14.976562 11.261719 19.386719 18.839844 28.523438 48.867188 18.109375 87.90625-1.261718 4.753907-2.820312 9.640625-4.683594 14.65625-1.332031 3.59375-5.910156 4.652344-8.65625 1.984375zm0 0" fill="#aba6d5"/><path d="m386.035156 222.863281c-12.488281-15.765625-26.03125-39.316406-23.847656-65.648437.597656-7.246094 2.386719-14.703125 5.738281-22.257813 19.386719 18.839844 28.523438 48.867188 18.109375 87.90625zm0 0" fill="#c1bde0"/></svg>