<svg height="512pt" viewBox="0 -62 512.00037 512" width="512pt" xmlns="http://www.w3.org/2000/svg"><path d="m452.304688 213.546875c-2.144532-3.765625-6.929688-5.082031-10.695313-2.941406-3.765625 2.144531-5.078125 6.933593-2.9375 10.695312 24.796875 43.582031 13.535156 97.261719-23.359375 127.683594-.195312.109375-.386719.226563-.578125.355469-3.457031 2.375-7.066406 4.421875-10.789063 6.136718-26.9375 6.546876-49.570312-21.847656-37.292968-42.78125 3.375-5.753906 8.785156-9.847656 15.238281-11.53125 15.03125-3.914062 27.699219 11.84375 21.070313 23.140626-2.90625 4.957031-9.496094 8.25-14.816407 5.132812-3.089843-1.808594-5.28125-5.726562-3.84375-9.066406 4.179688 1.3125 8.859375-.367188 11.171875-4.304688 4.296875-7.324218-2.1875-16.496094-11.421875-14.097656-11.378906 2.96875-18.1875 14.578125-15.222656 25.960938 5.8125 22.296874 35.578125 24.914062 47.660156 4.308593 13.679688-23.324219-10.039062-53.683593-38.554687-46.25-32.769532 8.546875-42.25 51.699219-12.152344 75.515625-45.1875-5.386718-73.730469-50.433594-59.9375-93.234375 1.328125-4.121093-.9375-8.542969-5.058594-9.871093-4.125-1.324219-8.539062.9375-9.867187 5.058593-14.367188 44.582031 8.910156 92.039063 51.988281 108.4375-32.242188-2.636719-62.496094-20.445312-79.734375-50.734375-3.039063-5.34375-11.300781-5.351562-14.34375 0-17.109375 30.066406-47.433594 47.996094-79.554687 50.660156 42.726562-16.371093 66.226562-63.621093 51.808593-108.359374-1.328125-4.121094-5.746093-6.382813-9.867187-5.058594-4.125 1.328125-6.386719 5.746094-5.058594 9.867187 13.746094 42.664063-14.730469 87.808594-59.882812 93.230469 29.046874-22.992188 21.714843-66.664062-12.207032-75.507812-18.191406-4.742188-36.84375 6.195312-41.585937 24.382812-6.3125 24.210938 19.492187 44.214844 39.308593 32.59375 17.820313-10.445312 15.199219-36.03125-3.84375-40.996094-9.324218-2.441406-15.644531 6.886719-11.417968 14.09375 2.3125 3.945313 7.003906 5.625 11.191406 4.300782 1.417969 3.308593-.769531 7.261718-3.859375 9.074218-7.804687 4.574219-18.984375-4.441406-16.203125-15.109375 2.5625-9.820312 12.632812-15.726562 22.453125-13.164062 13.320313 3.472656 21.332031 17.136719 17.859375 30.457031-4.578125 17.566406-22.355469 28.125-39.910156 23.855469-6.488282-2.988281-10.40625-5.945313-11.367188-6.492188-36.878906-30.410156-48.167968-84.085937-23.359375-127.6875 2.140625-3.761719.824219-8.550781-2.941406-10.691406-3.761719-2.144531-8.550781-.828125-10.691406 2.9375-44.320313 77.890625 12.605469 174.304687 101.183593 174.304687 36.816407 0 72.730469-17.429687 95.117188-48.820312 34.078125 47.902344 99.835938 63.609375 152.609375 33.582031 55.902344-31.808593 75.503906-103.167969 43.695313-159.066406zm0 0" fill="#b9e746"/><path d="m510.394531 214.074219c-14.636719 5.6875-24.183593 25.46875-28.21875 35.578125-2.75 6.882812-10.425781 6.046875-9.203125 6.046875h-28.167968c-3.941407 0-7.476563-2.394531-8.9375-6.046875-4.226563-10.578125-14.484376-29.746094-30.28125-33.84375-2.238282-.585938-2.476563-3.671875-.375-4.621094 8.96875-4.089844 15.074218-5.949219 29.472656-1.453125-.910156-7.738281 1.035156-16.617187 9.390625-25.460937 0 0 8.980469-7.371094 13.800781-24.019532.335938-1.148437 1.957031-1.148437 2.289062 0 2.941407 10.1875 7.445313 16.898438 10.511719 20.578125 1.921875 2.332031 3.28125 3.441407 3.28125 3.441407 8.480469 8.972656 10.363281 17.984374 9.359375 25.785156 9.609375-2.992188 19.445313-2.175782 26.714844-.703125 2.433594.503906 2.675781 3.816406.363281 4.71875zm0 0" fill="#ffa90b"/><path d="m106.421875 215.808594c-15.8125 4.097656-26.066406 23.265625-30.292969 33.84375-1.453125 3.652344-4.996094 6.046875-8.929687 6.046875h-28.167969c1.222656 0-6.449219.835937-9.199219-6.046875-4.039062-10.109375-13.582031-29.890625-28.230469-35.578125-2.3125-.902344-2.0625-4.214844.375-4.71875 7.257813-1.472657 17.09375-2.289063 26.714844.703125-1.015625-7.800782.867188-16.8125 9.347656-25.785156 0 0 8.980469-7.371094 13.800782-24.019532.335937-1.148437 1.957031-1.148437 2.28125 0 2.769531 9.570313 6.910156 16.074219 9.941406 19.878906 2.238281 2.8125 3.859375 4.140626 3.859375 4.140626 8.355469 8.84375 10.308594 17.722656 9.390625 25.460937 14.40625-4.496094 20.511719-2.636719 29.484375 1.453125 2.089844.949219 1.851563 4.035156-.375 4.621094zm0 0" fill="#ffa90b"/><path d="m304.582031 146.902344c-20.722656 11.785156-33.21875 36.753906-40.738281 62.570312-9.859375 33.792969-11.195312 69.039063-11.386719 78.03125-.0625 2.90625-4.433593 2.90625-4.496093 0-.324219-15.859375-4.265626-113.382812-52.121094-140.601562-1.601563-.910156-1.601563-3.207032 0-4.117188 47.855468-27.230468 51.796875-124.742187 52.121094-140.613281.0625-2.894531 4.433593-2.894531 4.496093 0 .191407 9.003906 1.527344 44.238281 11.386719 78.042969 7.519531 25.804687 20.015625 50.773437 40.738281 62.570312 1.597657.910156 1.597657 3.207032 0 4.117188zm0 0" fill="#ffc14f"/><path d="m304.582031 146.902344c-20.722656 11.785156-33.21875 36.753906-40.738281 62.570312-14.523438-17.554687-23.242188-40.066406-23.242188-64.628906s8.71875-47.074219 23.242188-64.628906c7.519531 25.804687 20.015625 50.773437 40.738281 62.570312 1.597657.910156 1.597657 3.207032 0 4.117188zm0 0" fill="#ffcd71"/><g fill="#ffb52d"><path d="m106.421875 215.808594c-15.8125 4.097656-26.066406 23.265625-30.292969 33.84375-1.453125 3.652344-4.996094 6.046875-8.929687 6.046875h-16.308594c-2.667969-8.03125-4.109375-16.617188-4.109375-25.535157 0-18.882812 6.460938-36.25 17.28125-50.03125 2.238281 2.8125 3.859375 4.140626 3.859375 4.140626 8.355469 8.84375 10.308594 17.722656 9.390625 25.460937 14.40625-4.496094 20.511719-2.636719 29.484375 1.453125 2.089844.949219 1.851563 4.035156-.375 4.621094zm0 0"/><path d="m510.394531 214.074219c-14.636719 5.6875-24.183593 25.46875-28.21875 35.578125-2.75 6.882812-10.425781 6.046875-9.203125 6.046875h-14.941406c-2.664062-8.03125-4.109375-16.617188-4.109375-25.535157 0-18.558593 6.242187-35.675781 16.753906-49.332031 1.921875 2.332031 3.28125 3.441407 3.28125 3.441407 8.480469 8.972656 10.363281 17.984374 9.359375 25.785156 9.609375-2.992188 19.445313-2.175782 26.714844-.703125 2.433594.503906 2.675781 3.816406.363281 4.71875zm0 0"/></g></svg>