<svg height="512pt" viewBox="0 -54 512.001 512" width="512pt" xmlns="http://www.w3.org/2000/svg"><g fill="#ffb52d"><path d="m289.933594 91.679688c-12.898438 7.34375-20.683594 22.871093-25.386719 38.941406-6.179687 21.125-7.023437 43.1875-7.132813 48.8125-.039062 1.816406-2.769531 1.816406-2.808593 0-.203125-9.898438-2.660157-70.761719-32.523438-87.753906-1.003906-.5625-1.003906-1.996094 0-2.570313 29.863281-16.980469 32.320313-77.84375 32.523438-87.753906.039062-1.804688 2.769531-1.804688 2.808593 0 .121094 6.097656 1.101563 31.527343 8.816407 54.128906 4.804687 14.09375 12.238281 27.09375 23.703125 33.625 1.003906.574219 1.003906 2.007813 0 2.570313zm0 0"/><path d="m443.96875 102.945312c-5.515625 3.339844-29.261719 18.304688-45.101562 37.828126-8.496094 10.460937-14.714844 22.230468-14.636719 34.21875.011719 1.152343-1.234375 1.863281-2.226563 1.28125-11.222656-6.578126-25.941406-6.609376-40.355468-3.839844-23.65625 4.53125-46.507813 16.589844-51.902344 19.550781-1.585938.871094-2.949219-1.496094-1.40625-2.429687 8.476562-5.125 59.960937-37.6875 59.738281-72.042969-.011719-1.15625 1.234375-1.867188 2.226563-1.285157 29.644531 17.363282 83.582031-10.933593 92.261718-15.710937 1.582032-.871094 2.949219 1.496094 1.402344 2.429687zm0 0"/><path d="m222.273438 191.984375c-8.679688-4.777344-62.617188-33.085937-92.261719-15.710937-.992188.582031-2.234375-.128907-2.226563-1.28125.222656-34.359376-51.261718-66.921876-59.738281-72.046876-1.542969-.933593-.179687-3.300781 1.40625-2.429687 5.316406 2.929687 27.644531 14.695313 50.960937 19.363281 14.726563 2.949219 29.832032 3.066406 41.296876-3.652344.996093-.582031 2.238281.128907 2.230468 1.285157-.082031 12.980469 7.210938 25.707031 16.78125 36.792969 15.757813 18.25 37.679688 32.0625 42.953125 35.25 1.546875.933593.183594 3.300781-1.402343 2.429687zm0 0"/></g><path d="m461.421875 255.839844c-32.304687 6.730468-40.183594 45.792968-15.238281 62.132812 3.472656 2.277344 8.136718 1.300782 10.414062-2.171875 2.277344-3.476562 1.304688-8.140625-2.171875-10.417969-8.171875-5.351562-10.457031-16.300781-5.101562-24.476562 7.261719-11.085938 22.117187-14.179688 33.199219-6.917969 14.695312 9.625 18.820312 29.410157 9.195312 44.105469-14.859375 22.6875-49.070312 27.226562-70.402344.511719-.371094-.710938-.855468-1.378907-1.46875-1.964844-.46875-.921875-10.5-12.945313-10.285156-32.359375.253906-22.300781-17.917969-40.574219-40.425781-40.574219h-77.460938c-.136719 0-13.628906-.121093-21.722656-8.667969-4.699219-4.960937-6.835937-12.109374-6.355469-21.25.214844-4.085937-2.898437-7.742187-7.257812-7.910156-4.5-.230468-8.15625 3.464844-7.921875 7.910156.480469 9.140626-1.65625 16.289063-6.351563 21.25-8.097656 8.546876-21.589844 8.667969-21.746094 8.667969h-77.441406c-22.484375 0-40.675781 18.25-40.425781 40.574219.210937 18.714844-9.125 35.828125-24.417969 45.84375-19.234375 12.597656-45.136718 7.203125-57.734375-12.035156-14.8125-22.609375 4.285157-52.296875 27.226563-47.519532 19.027344 3.964844 23.933594 25.730469 10.0625 34.8125-3.472656 2.277344-4.445313 6.941407-2.171875 10.417969 2.277343 3.476563 6.941406 4.445313 10.417969 2.171875 24.957031-16.351562 17.039062-55.40625-15.238282-62.132812-36.023437-7.507813-65.023437 36.703125-42.886718 70.496094 20.863281 31.847656 68.566406 36.433593 95.9375.148437l5.320312-5.089844c28.324219-24.03125 74.566406-12.054687 81.691406 22.195313 2.246094 10.796875.152344 21.816406-5.894531 31.035156-9.546875 14.566406-29.066406 18.632812-43.636719 9.078125-10.957031-7.179687-14.011718-21.863281-6.828125-32.824219 7.417969-11.3125 24.210938-9.746094 28.703125.273438-8.125.476562-13.601562 8-12.011718 15.644531 2.21875 10.660156 15.738281 13.984375 22.691406 5.753906 3.4375-3.445312 6.800781-12.726562 4.898437-21.878906-3.414062-16.40625-20.378906-25.355469-36.296875-22.046875-30.171875 6.277344-37.214844 49.425781-9.402344 67.664062 7.675782 5.03125 16.460938 7.636719 25.433594 7.636719 32.910156 0 53.558594-32.226562 47.074219-63.402343-8.140625-39.132813-53.378906-56.75-89.425781-41.019532 1.066406-4.992187 1.59375-10.148437 1.535156-15.390625-.15625-13.878906 11.222656-25.359375 25.378906-25.359375h77.386719c12.839844-.15625 27.410156-5.574218 35.746094-17.019531 8.464843 11.632813 23.863281 17.097656 35.6875 17.019531h77.441406c14.148437 0 25.535156 11.46875 25.378906 25.359375-.058593 5.242188.46875 10.398438 1.535157 15.390625-36.054688-15.734375-81.289063 1.894532-89.425782 41.019532-5.597656 26.910156 9.117188 56.507812 37.496094 62.410156 22.789062 4.738281 46.890625-8 51.707031-31.164063 3.910157-18.792969-6.539062-39.074219-26.097656-43.144531-27.242187-5.664062-45.996094 21.949219-32.367187 42.734375 6.210937 9.480469 21.277343 6.886719 23.660156-4.5625 1.585937-7.625-3.871094-15.167969-12.011719-15.644531.960937-2.144532 2.507813-3.980469 4.523437-5.300782 13.640626-8.949218 31.492188 3.953126 27.5625 22.855469-3.140624 15.101563-19.558593 22.480469-33.910156 19.496094-19.96875-4.152344-29.761718-25.71875-25.832031-44.613281 7.238281-34.792969 53.894531-45.777344 81.691406-22.195313l5.320313 5.089844c27.058594 35.871094 74.769531 32.164063 95.9375-.148437 22.066406-33.691407-6.785156-78.019532-42.886719-70.496094zm0 0" fill="#ffcd71"/><path d="m289.933594 91.679688c-12.898438 7.34375-20.683594 22.871093-25.386719 38.941406-7.273437-10.292969-11.546875-22.871094-11.546875-36.433594 0-14.585938 4.933594-28.007812 13.230469-38.703125 4.804687 14.09375 12.238281 27.09375 23.703125 33.625 1.003906.574219 1.003906 2.007813 0 2.570313zm0 0" fill="#ffc14f"/><path d="m180.722656 154.304688c-1.316406.082031-2.628906.121093-3.960937.121093-24.589844 0-45.894531-14.042969-56.347657-34.546875 14.726563 2.949219 29.832032 3.066406 41.296876-3.652344.996093-.582031 2.238281.128907 2.230468 1.285157-.082031 12.980469 7.210938 25.707031 16.78125 36.792969zm0 0" fill="#ffc14f"/><path d="m398.867188 140.773438c-8.496094 10.460937-14.714844 22.230468-14.636719 34.21875.011719 1.152343-1.234375 1.863281-2.226563 1.28125-11.222656-6.578126-25.941406-6.609376-40.355468-3.839844 10.902343-18.949219 31.367187-31.710938 54.800781-31.710938.8125 0 1.617187.019532 2.417969.050782zm0 0" fill="#ffc14f"/></svg>