<svg height="512pt" viewBox="0 -130 512.00007 512" width="512pt" xmlns="http://www.w3.org/2000/svg"><path d="m475.910156 37.582031c-17.027344-10.425781-37.097656-13.597656-56.507812-8.929687-51.34375 12.34375-63.320313 80.308594-22.523438 105.289062 11.527344 7.058594 25.105469 9.203125 38.25 6.046875 22.523438-5.417969 36.441406-28.144531 31.023438-50.667969-4.042969-16.820312-19.632813-27.890624-36.339844-26.847656-18.507812-.976562-26.097656 23.492188-10.3125 33.160156 10.53125 6.449219 24.382812.550782 26.882812-11.691406 11.535157 12.167969 4.902344 36.40625-14.832031 41.152344-9.164062 2.203125-18.632812.707031-26.671875-4.214844-29.164062-17.859375-20.046875-68.160156 18.105469-77.332031 15.433594-3.710937 31.386719-1.191406 44.925781 7.097656 37.167969 22.757813 43.417969 83.550781-12.179687 121.011719-28.574219 19.25-67.324219 28-109.125 24.636719-49.132813-3.953125-100.929688-24.519531-149.785157-59.472657-14.992187-10.722656-31.074218-18.65625-47.800781-23.578124-4.058593-1.195313-8.316406 1.128906-9.507812 5.183593-1.195313 4.0625 1.128906 8.316407 5.1875 9.511719 15.078125 4.4375 29.617187 11.617188 43.207031 21.339844 51.648438 36.949218 113.292969 63.035156 176.023438 63.035156 38.148437 0 73.261718-9.699219 100.359374-27.953125 65.730469-44.285156 57.597657-118.621094 11.621094-146.777344zm0 0" fill="#9bcf1b"/><path d="m123.480469 151.859375c-2.933594 20.6875-16.15625 50.722656-65.605469 64.933594-2.71875.789062-5.550781 1.519531-8.503906 2.207031-9.570313 2.21875-17.710938-5.722656-15.707032-15.332031 6.070313-29.035157 25.871094-80.984375 89.574219-73.527344 0 0 2.027344 9.128906.242188 21.71875zm0 0" fill="#ffa90b"/><path d="m123.480469 151.859375c-2.933594 20.6875-16.15625 50.722656-65.605469 64.933594 6.964844-25.480469 24.050781-60.183594 65.605469-64.933594zm0 0" fill="#ffb52d"/><path d="m218.886719 48.894531c-.558594 2.675781-1.238281 5.546875-2.050781 8.546875-7.175782 26.394532-25.199219 62.859375-70.15625 65.554688-5.390626.316406-11.164063.152344-17.359376-.570313 0 0-15.152343-68.230469 73.859376-88.855469 9.578124-2.21875 17.714843 5.714844 15.707031 15.324219zm0 0" fill="#ffa90b"/><path d="m216.839844 57.441406c-7.175782 26.394532-25.203125 62.859375-70.15625 65.554688 3.214844-21.296875 17.425781-52.058594 70.15625-65.554688zm0 0" fill="#ffb52d"/><path d="m122.417969 123.238281s-68.230469 15.15625-88.855469-73.855469c-2.222656-9.582031 5.722656-17.714843 15.332031-15.710937 2.65625.554687 5.492188 1.226563 8.464844 2.035156 26.292969 7.132813 62.640625 25.03125 65.589844 69.625.371093 5.546875.222656 11.503907-.53125 17.90625zm0 0" fill="#ffa90b"/><path d="m122.949219 105.332031c-21.222657-3.15625-51.984375-17.199219-65.589844-69.625 26.292969 7.132813 62.640625 25.03125 65.589844 69.625zm0 0" fill="#ffb52d"/><path d="m203.667969 218.886719c-2.332031-.488281-4.808594-1.0625-7.398438-1.746094-27.144531-7.132813-65.894531-25.769531-66.835937-73.992187-.089844-4.363282.132812-8.964844.699218-13.828126 0 0 68.230469-15.152343 88.859376 73.867188 2.21875 9.570312-5.722657 17.714844-15.324219 15.699219zm0 0" fill="#ffa90b"/><path d="m196.269531 217.140625c-27.144531-7.132813-65.894531-25.769531-66.835937-73.988281 21.804687 3.183594 53.796875 17.84375 66.835937 73.988281zm0 0" fill="#ffb52d"/><path d="m121.402344 126.859375s-37.53125 58.960937-115.058594 10.605469c-8.34375-5.207032-8.480469-16.570313-.265625-21.949219 2.144531-1.398437 4.476563-2.851563 6.980469-4.304687 23.039062-13.3125 60.398437-26.386719 93.644531.582031 5.015625 4.0625 9.933594 9.042969 14.699219 15.066406zm0 0" fill="#ffc14f"/><path d="m246.484375 137.042969c-24.824219 16.246093-75.554687 38.976562-115.328125-11.339844 0 0 4.863281-7.640625 14.699219-15.164063 16.695312-12.765624 47.722656-25.199218 93.636719.585938 2.203124 1.230469 4.445312 2.558594 6.726562 3.980469 8.339844 5.199219 8.480469 16.570312.265625 21.9375zm0 0" fill="#ffc14f"/><path d="m106.703125 111.792969c-16.6875 12.765625-47.722656 25.199219-93.644531-.582031 23.039062-13.3125 60.398437-26.386719 93.644531.582031zm0 0" fill="#ffcd71"/><path d="m239.492188 111.121094c-23.046876 13.3125-60.40625 26.378906-93.636719-.582032 16.695312-12.765624 47.722656-25.199218 93.636719.582032zm0 0" fill="#ffcd71"/><path d="m139.707031 107.980469c-3.859375 4.574219-8.488281 9.0625-14.003906 13.421875 0 0-58.960937-37.53125-10.605469-115.058594 5.207032-8.34375 16.570313-8.480469 21.945313-.265625 1.070312 1.628906 2.160156 3.367187 3.261719 5.210937 13.820312 23.152344 28.496093 62.273438-.597657 96.691407zm0 0" fill="#ffc14f"/><path d="m140.421875 241.269531c-.9375 1.628907-1.925781 3.28125-2.964844 4.949219-5.199219 8.339844-16.570312 8.480469-21.949219.265625-16.238281-24.824219-38.972656-75.546875 11.351563-115.324219 0 0 6.976563 4.4375 14.160156 13.421875 13.25 16.5625 27.21875 48.582031-.597656 96.6875zm0 0" fill="#ffc14f"/><path d="m139.707031 107.980469c-13.253906-16.5625-27.21875-48.585938.597657-96.691407 13.820312 23.152344 28.496093 62.273438-.597657 96.691407zm0 0" fill="#ffcd71"/><path d="m140.421875 241.269531c-13.820313-23.148437-28.496094-62.265625.597656-96.6875 13.25 16.5625 27.21875 48.582031-.597656 96.6875zm0 0" fill="#ffcd71"/><path d="m206.855469 118.136719h-62.53125l43.882812-43.878907c2.953125-2.953124 2.953125-7.757812 0-10.710937s-7.757812-2.953125-10.710937 0l-44.214844 44.214844v-62.058594c0-4.175781-3.398438-7.574219-7.574219-7.574219s-7.574219 3.398438-7.574219 7.574219v62.53125l-43.878906-43.882813c-4.785156-4.785156-12.929687-1.328124-12.929687 5.355469 0 5.558594 1.292969 3.34375 46.433593 49.570313h-62.058593c-4.175781 0-7.574219 3.398437-7.574219 7.574218 0 4.175782 3.398438 7.574219 7.574219 7.574219h62.53125l-43.882813 43.882813c-2.953125 2.953125-2.953125 7.757812 0 10.710937s7.761719 2.949219 10.710938 0l44.214844-44.21875v62.058594c0 4.175781 3.398437 7.574219 7.574218 7.574219 4.175782 0 7.574219-3.398438 7.574219-7.574219v-62.585937c46.472656 45.789062 43.9375 46.15625 49.234375 46.15625 6.71875 0 10.132812-8.152344 5.359375-12.929688l-44.21875-44.214844h62.058594c4.175781 0 7.574219-3.398437 7.574219-7.574218 0-4.175782-3.398438-7.574219-7.574219-7.574219zm0 0" fill="#f29500"/><path d="m163.289062 126.285156c0 17.523438-12.175781 32.195313-28.523437 36.03125-2.730469.640625-5.570313.980469-8.488281.980469-20.445313 0-37.015625-16.570313-37.015625-37.011719s16.570312-37.011718 37.015625-37.011718c5.21875 0 10.199218 1.082031 14.703125 3.039062 13.128906 5.683594 22.308593 18.75 22.308593 33.972656zm0 0" fill="#7c3f2c"/><path d="m163.289062 126.285156c0 17.523438-12.175781 32.195313-28.523437 36.03125-13.121094-5.683594-22.300781-18.761718-22.300781-33.972656 0-17.523438 12.167968-32.199219 28.515625-36.035156 13.128906 5.6875 22.308593 18.753906 22.308593 33.976562zm0 0" fill="#954c35"/></svg>