<svg height="511pt" viewBox="0 -8 511.99864 511" width="511pt" xmlns="http://www.w3.org/2000/svg"><path d="m495.519531 109.125c-.65625.871094-1.394531 1.699219-2.214843 2.464844-15.265626 14.5-47.289063 34.054687-103.167969 23.058594-17.882813-3.515626-33.878907-13.429688-48.703125-24.039063-160.339844-114.707031-307.90625-61.183594-330.761719 20.070313-2.296875-9.035157-3.0625-18.007813-2.4375-26.777344 6.449219-90.941406 163.097656-159.59375 333.199219-37.894532 46.996094 33.617188 92.375 33.589844 125.035156 12.003907 9.960938-6.585938 23.371094-3.765625 29.644531 6.398437l.558594.910156c4.636719 7.507813 4.070313 16.984376-1.152344 23.804688zm0 0" fill="#c1bde0"/><path d="m495.519531 109.125c-.65625.871094-1.394531 1.699219-2.214843 2.464844-15.265626 14.5-47.289063 34.054687-103.167969 23.058594-17.882813-3.515626-33.878907-13.429688-48.703125-24.039063-160.339844-114.707031-307.90625-61.183594-330.761719 20.070313-2.296875-9.035157-3.0625-18.007813-2.4375-26.777344 24.816406-80.988282 171.445313-132.542969 329.722656-19.3125 46.996094 33.621094 92.375 33.589844 125.035157 12.003906 9.960937-6.585938 23.371093-3.765625 29.644531 6.398438l.558593.910156c1.03125 1.65625 1.796876 3.414062 2.324219 5.222656zm0 0" fill="#aba6d5"/><path d="m498.804688 106.375c-2.882813-3.039062-7.679688-3.164062-10.714844-.28125-11.628906 11.039062-32.632813 24.195312-66.644532 24.195312-32.457031 0-49.839843-7.40625-75.601562-25.839843-77.8125-55.671875-145.261719-67.355469-188.144531-67.355469-43.492188 0-83.546875 12.0625-112.78125 33.960938-56.972657 42.671874-54.628907 106.921874-21.464844 140.203124 1.480469 1.484376 3.421875 2.226563 5.367187 2.226563 6.714844 0 10.109376-8.167969 5.367188-12.925781-12.707031-12.753906-19.003906-29.769532-19.003906-47.84375 0-86.84375 153.457031-156.410156 321.839844-35.9375 27.6875 19.804687 47.953124 28.667968 84.421874 28.667968 39.011719 0 63.449219-15.421874 77.078126-28.359374 3.035156-2.878907 3.160156-7.675782.28125-10.710938zm0 0" fill="#958fca"/><path d="m81.75 114.492188c-24.082031 5.789062-38.445312 29.796874-32.746094 53.480468 4.132813 17.191406 19.730469 29.109375 37.601563 28.296875 19.894531 1.179688 28.089843-25.109375 11.160156-35.476562-11.636719-7.125-26.757813-.128907-28.925781 13.277343-13.339844-14.636718-4.066406-45.917968 25.464844-45.917968 17.78125 0 33.109374 12.097656 37.273437 29.414062 10.011719 41.714844-31.875 74.179688-74.824219 57.675782-3.90625-1.5-8.289062.449218-9.792968 4.355468-1.5 3.910156.449218 8.292969 4.359374 9.792969 54.339844 20.882813 107.871094-21.761719 94.996094-75.367187-6.992187-29.066407-35.980468-46.417969-64.566406-39.53125zm0 0" fill="#958fca"/><path d="m16.480469 386.429688c.65625-.867188 1.394531-1.695313 2.214843-2.464844 15.265626-14.5 47.289063-34.050782 103.167969-23.058594 17.882813 3.515625 33.878907 13.429688 48.703125 24.039062 160.339844 114.707032 307.90625 61.183594 330.761719-20.066406 2.296875 9.03125 3.0625 18.003906 2.4375 26.777344-6.449219 90.941406-163.097656 159.589844-333.199219 37.890625-46.996094-33.617187-92.375-33.585937-125.035156-12.003906-9.960938 6.589843-23.371094 3.769531-29.644531-6.394531l-.558594-.910157c-4.636719-7.507812-4.070313-16.988281 1.152344-23.808593zm0 0" fill="#c1bde0"/><path d="m16.480469 386.429688c.65625-.867188 1.394531-1.695313 2.214843-2.464844 15.265626-14.5 47.289063-34.050782 103.167969-23.058594 17.882813 3.515625 33.878907 13.429688 48.703125 24.039062 160.339844 114.707032 307.90625 61.183594 330.761719-20.066406 2.296875 9.03125 3.0625 18.003906 2.4375 26.777344-24.816406 80.988281-171.445313 132.539062-329.722656 19.308594-46.996094-33.617188-92.378907-33.585938-125.035157-12.003906-9.964843 6.589843-23.371093 3.769531-29.648437-6.394532l-.554687-.910156c-1.03125-1.65625-1.796876-3.417969-2.324219-5.226562zm0 0" fill="#aba6d5"/><g fill="#958fca"><path d="m13.195312 389.183594c2.882813 3.035156 7.679688 3.160156 10.714844.277344 11.628906-11.035157 32.628906-24.191407 66.644532-24.191407 32.457031 0 49.839843 7.40625 75.601562 25.839844 77.8125 55.667969 145.261719 67.355469 188.144531 67.355469 43.492188 0 83.546875-12.0625 112.78125-33.960938 56.96875-42.675781 54.628907-106.921875 21.464844-140.203125-1.480469-1.484375-3.425781-2.230469-5.367187-2.230469-6.71875 0-10.109376 8.171876-5.371094 12.929688 12.707031 12.75 19.003906 29.769531 19.003906 47.839844 0 86.847656-153.453125 156.410156-321.839844 35.941406-27.6875-19.808594-47.953125-28.667969-84.417968-28.667969-39.011719 0-63.449219 15.421875-77.082032 28.355469-3.03125 2.882812-3.15625 7.679688-.277344 10.714844zm0 0"/><path d="m430.25 381.066406c24.078125-5.789062 38.445312-29.800781 32.746094-53.480468-4.132813-17.191407-19.730469-29.109376-37.605469-28.300782-19.890625-1.175781-28.085937 25.113282-11.15625 35.480469 11.636719 7.125 26.753906.128906 28.925781-13.277344 13.339844 14.632813 4.066406 45.917969-25.464844 45.917969-17.78125 0-33.109374-12.097656-37.273437-29.414062-10.011719-41.714844 31.875-74.183594 74.824219-57.679688 3.90625 1.503906 8.289062-.445312 9.789062-4.355469 1.503906-3.90625-.445312-8.289062-4.355468-9.792969-54.339844-20.878906-107.871094 21.765626-94.996094 75.371094 6.988281 29.066406 35.976562 46.414063 64.566406 39.53125zm0 0"/></g></svg>