<svg height="512pt" viewBox="0 0 512 512.00037" width="512pt" xmlns="http://www.w3.org/2000/svg"><path d="m254.382812 99.164062c-3.195312-2.296874-6.488281-4.5625-9.882812-6.65625-2.808594-6.636718-4.753906-11.078124-4.863281-11.339843.625.410156 26.035156 17.222656 63.101562 29.628906 52.707031 17.667969 128.996094 26.441406 191.140625-33.4375 2.386719-2.285156 4.753906-4.683594 7.089844-7.191406l10.324219-9.769531c2.195312 75.378906-122.78125 134.734374-256.910157 38.765624zm0 0" fill="#5f55af"/><path d="m254.382812 99.164062c-3.195312-2.296874-6.488281-4.5625-9.882812-6.65625-7.179688-4.453124-14.804688-8.136718-22.902344-9.710937-42.859375-8.277344-78.160156 46.382813-45.558594 77.074219 17.597657 16.570312 48.175782 14.996094 60.835938-5.679688 4.824219-7.886718 6.296875-17.175781 4.140625-26.160156-5.1875-21.5625-33.632813-26.851562-43.59375-10.585938-4.8125 7.867188-3.304687 16.550782 1.582031 21.476563 3.183594-8.339844 13.054688-11.5625 20.496094-7.011719 12.53125 7.675782 6.277344 27.214844-8.5 26.007813-23.546875 2.023437-40.8125-24.910157-26.460938-48.359375 16.964844-27.707032 62.84375-19.679688 71.160157 14.9375 6.425781 26.710937-10 53.535156-36.710938 59.949218-19.78125 4.753907-39.605469-.683593-53.304687-13.574218-43.851563-41.277344 1.351562-114.019532 58.78125-102.910156 14.777344 2.859374 27.328125 10.777343 38.699218 18.917968 13.375 9.566406 26.609376 17.484375 39.574219 23.917969 95.738281 47.542969 176.707031 14.152344 191.140625-33.4375 2.699219-8.875 3.082032-18.230469.816406-27.660156-5.824218-24.191407-30.238281-39.148438-54.441406-33.328125-18.542968 4.453125-30.003906 23.175781-25.554687 41.730468 3.375 14.019532 17.539062 22.703126 31.566406 19.316407 14.636719-3.515625 19.089844-21.371094 10.730469-29.945313-3.164063 8.363282-13.066406 11.585938-20.5 7.03125-6.625-4.058594-8.710938-12.71875-4.652344-19.335937 8.078125-13.195313 37.832031-8.109375 43.453125 15.296875 4.472656 18.554687-6.941406 37.1875-25.492187 41.648437-22.121094 5.320313-44.460938-8.339843-49.789063-30.488281-6.40625-26.648438 10.0625-53.542969 36.703125-59.949219 32.300781-7.765625 64.894531 12.199219 72.660156 44.488281 1.148438 4.785157 1.785156 9.539063 1.914063 14.234376 2.195312 75.378906-122.78125 134.734374-256.910157 38.765624zm0 0" fill="#958fca"/><path d="m180.328125 262.09375c-3.191406-2.296875-6.488281-4.5625-9.878906-6.660156-2.8125-6.636719-4.757813-11.078125-4.867188-11.339844.625.414062 26.039063 17.222656 63.101563 29.632812 52.710937 17.667969 128.996094 26.4375 191.140625-33.441406 2.390625-2.285156 4.753906-4.683594 7.09375-7.191406l10.324219-9.769531c2.195312 75.382812-122.78125 134.738281-256.914063 38.769531zm0 0" fill="#5f55af"/><path d="m180.328125 262.09375c-3.191406-2.296875-6.488281-4.5625-9.878906-6.660156-7.183594-4.449219-14.808594-8.136719-22.90625-9.707032-42.855469-8.28125-78.160157 46.382813-45.554688 77.070313 17.59375 16.570313 48.171875 15 60.835938-5.679687 4.824219-7.886719 6.292969-17.171876 4.136719-26.15625-5.1875-21.566407-33.628907-26.855469-43.589844-10.585938-4.816406 7.867188-3.304688 16.546875 1.578125 21.472656 3.183593-8.339844 13.054687-11.5625 20.5-7.011718 12.527343 7.675781 6.273437 27.21875-8.503907 26.007812-23.546874 2.023438-40.8125-24.910156-26.457031-48.355469 16.960938-27.710937 62.839844-19.683593 71.160157 14.9375 6.425781 26.710938-10.003907 53.53125-36.714844 59.949219-19.78125 4.753906-39.601563-.683594-53.300782-13.578125-43.855468-41.277344 1.347657-114.015625 58.78125-102.90625 14.777344 2.859375 27.324219 10.777344 38.695313 18.914063 13.378906 9.570312 26.613281 17.484374 39.574219 23.921874 95.738281 47.539063 176.707031 14.152344 191.140625-33.441406 2.699219-8.871094 3.082031-18.230468.816406-27.65625-5.820313-24.195312-30.234375-39.152344-54.4375-33.328125-18.542969 4.449219-30.007813 23.175781-25.554687 41.726563 3.375 14.019531 17.535156 22.703125 31.566406 19.320312 14.632812-3.515625 19.085937-21.375 10.726562-29.945312-3.164062 8.359375-13.0625 11.582031-20.496094 7.03125-6.628906-4.058594-8.714843-12.722656-4.65625-19.339844 8.078126-13.195312 37.832032-8.109375 43.453126 15.300781 4.472656 18.550781-6.9375 37.1875-25.492188 41.648438-22.117188 5.316406-44.460938-8.339844-49.789062-30.488281-6.402344-26.652344 10.0625-53.546876 36.703124-59.949219 32.304688-7.765625 64.898438 12.195312 72.664063 44.488281 1.148437 4.785156 1.78125 9.539062 1.914063 14.230469 2.195312 75.382812-122.78125 134.738281-256.914063 38.769531zm0 0" fill="#958fca"/><path d="m106.273438 425.019531c-3.191407-2.296875-6.484376-4.5625-9.878907-6.65625-2.8125-6.640625-4.753906-11.082031-4.867187-11.34375.625.414063 26.039062 17.222657 63.105468 29.632813 52.707032 17.667968 128.992188 26.441406 191.140626-33.441406 2.386718-2.285157 4.753906-4.683594 7.089843-7.191407l10.324219-9.769531c2.195312 75.382812-122.78125 134.738281-256.914062 38.769531zm0 0" fill="#5f55af"/><path d="m106.273438 425.019531c-3.191407-2.296875-6.484376-4.5625-9.878907-6.65625-7.183593-4.453125-14.808593-8.140625-22.90625-9.710937-42.855469-8.28125-78.160156 46.382812-45.554687 77.074218 17.59375 16.566407 48.175781 14.996094 60.835937-5.683593 4.824219-7.886719 6.292969-17.171875 4.140625-26.15625-5.1875-21.566407-33.632812-26.851563-43.59375-10.585938-4.816406 7.867188-3.304687 16.546875 1.582032 21.472657 3.179687-8.339844 13.050781-11.5625 20.496093-7.007813 12.527344 7.671875 6.273438 27.214844-8.5 26.003906-23.550781 2.027344-40.8125-24.90625-26.460937-48.355469 16.960937-27.707031 62.839844-19.679687 71.160156 14.9375 6.425781 26.710938-10 53.535157-36.714844 59.949219-19.78125 4.753907-39.601562-.683593-53.300781-13.578125-43.855469-41.273437 1.347656-114.015625 58.78125-102.90625 14.777344 2.859375 27.324219 10.777344 38.699219 18.914063 13.375 9.570312 26.609375 17.484375 39.574218 23.921875 95.734376 47.542968 176.707032 14.152344 191.140626-33.441406 2.699218-8.871094 3.082031-18.230469.8125-27.65625-5.820313-24.195313-30.234376-39.152344-54.4375-33.328126-18.542969 4.449219-30.007813 23.175782-25.554688 41.726563 3.375 14.023437 17.535156 22.703125 31.566406 19.320313 14.636719-3.515626 19.085938-21.375 10.726563-29.945313-3.164063 8.359375-13.0625 11.582031-20.496094 7.03125-6.628906-4.058594-8.714844-12.722656-4.652344-19.339844 8.078125-13.195312 37.828125-8.105469 43.449219 15.300781 4.472656 18.554688-6.9375 37.1875-25.492188 41.648438-22.117187 5.316406-44.457031-8.339844-49.785156-30.488281-6.40625-26.652344 10.0625-53.542969 36.703125-59.949219 32.300781-7.765625 64.894531 12.195312 72.660157 44.488281 1.148437 4.785157 1.78125 9.539063 1.914062 14.230469 2.195312 75.382812-122.78125 134.738281-256.914062 38.769531zm0 0" fill="#958fca"/></svg>