<svg height="511pt" viewBox="0 -2 511.99919 511" width="511pt" xmlns="http://www.w3.org/2000/svg"><path d="m366.953125 37.753906c-3.300781 7.664063-7.132813 14.304688-7.132813 14.304688-4.828124 9.789062-10.070312 16.828125-15.433593 21.769531-26.207031 24.203125-55.460938-1.679687-55.460938-1.679687-29.113281-25.140626-47.351562-32.082032-69.917969-39.707032-13.097656-4.417968-27.050781-5.867187-40.714843-3.785156-5.652344.867188-11.609375 2.355469-17.242188 4.820312v.011719c-4.917969 2.152344-9.597656 5.078125-13.582031 8.980469l-10.308594 5.804688c3.570313-17.351563 15.902344-32.28125 34.40625-40.742188 17.320313-7.917969 37.722656-9.175781 59.011719-3.640625 24.101563 6.277344 47.601563 20.722656 69.835937 42.925781 5.421876 5.433594 11.410157 10.804688 18.339844 13.371094 8.921875 3.308594 16.628906 1.265625 21.527344-1.027344 7.445312-3.480468 13.835938-10.210937 16.277344-17.140625 1.390625-3.925781 5.707031-5.988281 9.628906-4.597656.261719.089844.523438.199219.765625.332031zm0 0" fill="#b9e746"/><path d="m370.785156 47.046875c-3.78125 10.703125-13.019531 20.582031-24.105468 25.785156-.761719.351563-1.527344.683594-2.292969.996094-10.089844 4.09375-20.714844 4.285156-30.875.511719-9.675781-3.589844-17.441407-10.523438-23.761719-16.839844-44.265625-44.222656-86.828125-47.714844-111.917969-36.246094-6.761719 3.097656-12.425781 7.28125-16.78125 12.222656v.011719c-6.960937 7.925781-10.523437 17.785157-9.777343 28.167969 1.054687 14.6875 13.871093 25.761719 28.5625 24.714844 10.371093-.753906 20.492187-6.445313 19.6875-17.484375-.292969-4.074219-2.09375-13.46875-12.445313-12.722657-4.921875.359376-7.195313 3.589844-6.761719 9.617188.300782 4.152344-2.828125 7.765625-6.980468 8.066406-4.15625.300782-7.765626-2.828125-8.070313-6.980468-1.035156-14.4375 7.285156-24.777344 20.726563-25.753907 15.601562-1.128906 27.371093 9.847657 28.589843 26.6875 1.296875 17.976563-12.867187 32.113281-33.660156 33.621094-1.015625.070313-2.035156.109375-3.039063.109375-21.691406 0-40.078124-16.828125-41.660156-38.789062-.363281-4.949219-.03125-9.800782.9375-14.46875 3.570313-17.351563 15.902344-32.28125 34.40625-40.742188 17.320313-7.917969 37.722656-9.175781 59.011719-3.640625 24.101563 6.277344 47.601563 20.722656 69.835937 42.925781 5.421876 5.433594 11.410157 10.804688 18.339844 13.371094 8.921875 3.308594 16.628906 1.265625 21.527344-1.027344 7.445312-3.480468 13.835938-10.210937 16.277344-17.140625 1.390625-3.925781 5.707031-5.988281 9.628906-4.597656.261719.089844.523438.199219.765625.332031 3.429687 1.628906 5.128906 5.621094 3.832031 9.292969zm0 0" fill="#9bcf1b"/><path d="m124.1875 49.796875c4.988281 6.6875 8.824219 13.328125 8.824219 13.328125 6.0625 9.078125 9.539062 17.136719 11.136719 24.25 7.859374 34.796875-29.1875 47.191406-29.1875 47.191406-36.328126 12.644532-51.457032 24.96875-69.34375 40.699219-10.375 9.132813-18.605469 20.492187-23.632813 33.367187-2.078125 5.328126-3.765625 11.230469-4.449219 17.339844l.007813.007813c-.59375 5.335937-.398438 10.851562.992187 16.25l-.128906 11.835937c-13.246094-11.773437-20.007812-29.917968-18.082031-50.171875 1.804687-18.960937 10.914062-37.257812 26.351562-52.925781 17.488281-17.734375 41.75-30.863281 72.09375-39.015625 7.414063-1.980469 15.058594-4.480469 20.746094-9.199219 7.328125-6.074218 9.414063-13.769531 9.878906-19.15625.707031-8.191406-1.929687-17.085937-6.707031-22.667968-2.707031-3.164063-2.332031-7.933594.828125-10.636719.210937-.183594.4375-.355469.671875-.496094zm0 0" fill="#b9e746"/><path d="m134.152344 51.125c7.378906 8.625 11.320312 21.5625 10.277344 33.765625-.074219.839844-.171876 1.667969-.28125 2.484375-1.5 10.785156-6.648438 20.082031-14.996094 26.996094-7.949219 6.585937-17.832032 9.84375-26.464844 12.15625-60.429688 16.222656-84.734375 51.339844-87.347656 78.800781-.699219 7.40625.09375 14.402344 2.195312 20.644531l.007813.003906c3.382812 9.992188 10.140625 18.007813 19.507812 22.554688 13.246094 6.429688 29.246094.867188 35.683594-12.375 4.53125-9.359375 4.664063-20.972656-5.296875-25.792969-3.675781-1.785156-12.714844-4.921875-17.242188 4.414063-2.148437 4.441406-.488281 8.023437 4.945313 10.664062 3.75 1.816406 5.3125 6.332032 3.496094 10.082032-1.816407 3.746093-6.328125 5.3125-10.078125 3.496093-13.019532-6.320312-17.816406-18.699219-11.941406-30.824219 6.824218-14.078124 22.214843-18.78125 37.410156-11.417968 16.214844 7.867187 21.375 27.203125 12.285156 45.964844-.445312.914062-.921875 1.8125-1.421875 2.683593-10.847656 18.785157-34.617187 26.296875-54.425781 16.683594-4.46875-2.160156-8.5-4.875-12.058594-8.042969-13.246094-11.773437-20.007812-29.917968-18.082031-50.171875 1.804687-18.960937 10.914062-37.257812 26.351562-52.925781 17.488281-17.734375 41.75-30.863281 72.09375-39.015625 7.414063-1.980469 15.058594-4.480469 20.746094-9.199219 7.328125-6.074218 9.414063-13.769531 9.878906-19.15625.707031-8.191406-1.929687-17.085937-6.707031-22.667968-2.707031-3.164063-2.332031-7.933594.828125-10.636719.210937-.183594.4375-.351563.671875-.496094 3.125-2.15625 7.433594-1.632813 9.964844 1.328125zm0 0" fill="#9bcf1b"/><path d="m13.234375 266.058594c8.289063-.976563 15.957031-.976563 15.957031-.976563 10.890625-.714843 19.609375.304688 26.566406 2.480469 34.066407 10.59375 26.277344 48.871094 26.277344 48.871094-7.214844 37.78125-4.105468 57.046875.570313 80.402344 2.726562 13.550781 8.449219 26.359374 17.082031 37.152343 3.578125 4.460938 7.84375 8.875 12.796875 12.523438l.007813-.007813c4.324218 3.183594 9.199218 5.773438 14.570312 7.269532l10.183594 6.027343c-16.816406 5.585938-35.910156 2.367188-52.488282-9.421875-15.519531-11.042968-26.808593-28.085937-32.660156-49.285156-6.617187-24.015625-5.855468-51.589844 2.257813-81.945312 1.992187-7.410157 3.652343-15.28125 2.40625-22.566407-1.59375-9.382812-7.214844-15.035156-11.652344-18.132812-6.738281-4.707031-15.757813-6.875-22.984375-5.523438-4.089844.757813-8.035156-1.945312-8.792969-6.039062-.054687-.273438-.089843-.554688-.097656-.828125zm0 0" fill="#b9e746"/><path d="m19.367188 258.089844c11.160156-2.074219 24.335937.984375 34.382812 7.984375.6875.484375 1.355469.980469 2.007812 1.488281 8.59375 6.691406 14.070313 15.796875 15.882813 26.480469 1.726563 10.175781-.390625 20.367187-2.703125 29-16.167969 60.445312 2.089844 99.054687 24.570312 115.046875 6.0625 4.304687 12.519532 7.117187 18.972657 8.421875l.011719-.007813c10.34375 2.066406 20.664062.222656 29.28125-5.613281 12.191406-8.257813 15.378906-24.898437 7.125-37.09375-5.839844-8.605469-15.828126-14.523437-24.984376-8.308594-3.382812 2.289063-10.617187 8.546875-4.796874 17.140625 2.773437 4.082032 6.707031 4.433594 11.707031 1.046875 3.449219-2.339843 8.140625-1.433593 10.480469 2.011719 2.335937 3.449219 1.433593 8.140625-2.015626 10.480469-11.980468 8.113281-25.097656 6.082031-32.664062-5.070313-8.777344-12.949218-5.15625-28.632812 8.820312-38.105468 14.917969-10.113282 34.242188-4.914063 45.945313 12.339843.570313.84375 1.113281 1.703125 1.617187 2.574219 10.84375 18.785156 5.460938 43.125-12.765624 55.476562-4.105469 2.789063-8.472657 4.925782-12.996094 6.421876-16.816406 5.585937-35.910156 2.367187-52.488282-9.425782-15.519531-11.042968-26.808593-28.082031-32.660156-49.285156-6.617187-24.011719-5.855468-51.585938 2.257813-81.941406 1.992187-7.414063 3.652343-15.285156 2.40625-22.570313-1.59375-9.382812-7.214844-15.035156-11.652344-18.128906-6.738281-4.707031-15.757813-6.875-22.984375-5.527344-4.089844.761719-8.035156-1.945312-8.792969-6.039062-.054687-.269531-.089843-.550781-.097656-.828125-.304687-3.785156 2.304687-7.253906 6.132813-7.96875zm0 0" fill="#9bcf1b"/><path d="m145.046875 470.277344c3.300781-7.667969 7.132813-14.304688 7.132813-14.304688 4.828124-9.789062 10.070312-16.832031 15.429687-21.773437 26.207031-24.203125 55.464844 1.679687 55.464844 1.679687 29.113281 25.140625 47.351562 32.082032 69.914062 39.710938 13.101563 4.414062 27.054688 5.863281 40.714844 3.78125 5.652344-.867188 11.609375-2.355469 17.242187-4.820313v-.007812c4.921876-2.152344 9.597657-5.082031 13.582032-8.984375l10.3125-5.804688c-3.570313 17.351563-15.90625 32.28125-34.40625 40.742188-17.324219 7.917968-37.726563 9.175781-59.011719 3.640625-24.105469-6.277344-47.605469-20.722657-69.839844-42.925781-5.421875-5.429688-11.40625-10.804688-18.335937-13.367188-8.925782-3.3125-16.632813-1.269531-21.53125 1.023438-7.445313 3.480468-13.832032 10.210937-16.277344 17.144531-1.386719 3.921875-5.703125 5.984375-9.625 4.597656-.261719-.089844-.523438-.203125-.765625-.332031zm0 0" fill="#b9e746"/><path d="m141.214844 460.980469c3.78125-10.703125 13.015625-20.582031 24.101562-25.785157.765625-.351562 1.53125-.683593 2.292969-.996093 10.09375-4.09375 20.714844-4.285157 30.875-.511719 9.679687 3.589844 17.445313 10.523438 23.761719 16.839844 44.265625 44.226562 86.832031 47.714844 111.921875 36.246094 6.757812-3.097657 12.421875-7.28125 16.777343-12.222657v-.007812c6.960938-7.929688 10.523438-17.789063 9.78125-28.167969-1.058593-14.6875-13.875-25.765625-28.5625-24.71875-10.371093.753906-20.492187 6.449219-19.6875 17.484375.292969 4.074219 2.09375 13.46875 12.445313 12.726563 4.917969-.363282 7.191406-3.59375 6.757813-9.617188-.300782-4.15625 2.828124-7.765625 6.984374-8.070312 4.152344-.300782 7.765626 2.828124 8.066407 6.984374 1.035156 14.433594-7.28125 24.777344-20.722657 25.753907-15.605468 1.125-27.375-9.851563-28.589843-26.691407-1.300781-17.976562 12.867187-32.113281 33.660156-33.621093 1.015625-.070313 2.03125-.109375 3.039063-.109375 21.6875 0 40.078124 16.828125 41.65625 38.789062.363281 4.953125.03125 9.800782-.933594 14.46875-3.570313 17.351563-15.90625 32.28125-34.40625 40.742188-17.324219 7.917968-37.726563 9.175781-59.011719 3.640625-24.105469-6.277344-47.605469-20.722657-69.839844-42.925781-5.421875-5.429688-11.40625-10.804688-18.335937-13.367188-8.925782-3.3125-16.632813-1.269531-21.53125 1.023438-7.445313 3.480468-13.832032 10.210937-16.277344 17.144531-1.386719 3.921875-5.703125 5.984375-9.625 4.597656-.261719-.089844-.523438-.203125-.765625-.332031-3.429687-1.628906-5.132813-5.625-3.832031-9.296875zm0 0" fill="#9bcf1b"/><path d="m387.8125 458.234375c-4.988281-6.691406-8.824219-13.332031-8.824219-13.332031-6.0625-9.074219-9.539062-17.136719-11.136719-24.25-7.859374-34.796875 29.183594-47.191406 29.183594-47.191406 36.332032-12.640626 51.460938-24.964844 69.347656-40.695313 10.375-9.136719 18.605469-20.496094 23.632813-33.367187 2.078125-5.328126 3.765625-11.230469 4.449219-17.34375l-.011719-.003907c.597656-5.335937.402344-10.851562-.988281-16.253906l.128906-11.832031c13.242188 11.769531 20.003906 29.914062 18.082031 50.167968-1.804687 18.960938-10.917969 37.257813-26.351562 52.925782-17.488281 17.738281-41.75 30.867187-72.09375 39.019531-7.417969 1.980469-15.0625 4.476563-20.75 9.195313-7.328125 6.074218-9.410157 13.769531-9.875 19.160156-.707031 8.1875 1.925781 17.082031 6.707031 22.667968 2.703125 3.164063 2.332031 7.929688-.832031 10.636719-.207031.179688-.433594.351563-.667969.496094zm0 0" fill="#b9e746"/><path d="m377.84375 456.90625c-7.375-8.628906-11.316406-21.566406-10.277344-33.769531.078125-.835938.171875-1.664063.285156-2.484375 1.5-10.785156 6.648438-20.078125 14.992188-26.992188 7.949219-6.585937 17.835938-9.847656 26.464844-12.160156 60.433594-16.222656 84.738281-51.335938 87.351562-78.800781.695313-7.402344-.097656-14.398438-2.195312-20.640625l-.007813-.007813c-3.386719-9.992187-10.144531-18.003906-19.507812-22.550781-13.246094-6.429688-29.246094-.867188-35.683594 12.375-4.535156 9.359375-4.664063 20.972656 5.296875 25.792969 3.675781 1.785156 12.710938 4.921875 17.242188-4.414063 2.148437-4.441406.488281-8.027344-4.949219-10.664062-3.746094-1.816406-5.3125-6.332032-3.496094-10.082032s6.332031-5.3125 10.082031-3.496093c13.019532 6.320312 17.816406 18.695312 11.941406 30.824219-6.824218 14.074218-22.214843 18.78125-37.410156 11.414062-16.21875-7.863281-21.375-27.199219-12.285156-45.960938.445312-.914062.917969-1.8125 1.421875-2.683593 10.847656-18.785157 34.617187-26.296875 54.425781-16.683594 4.46875 2.160156 8.5 4.875 12.058594 8.042969 13.242188 11.769531 20.007812 29.914062 18.082031 50.167968-1.804687 18.960938-10.917969 37.257813-26.351562 52.925782-17.488281 17.738281-41.75 30.867187-72.09375 39.019531-7.414063 1.980469-15.0625 4.476563-20.746094 9.195313-7.328125 6.074218-9.414063 13.769531-9.878906 19.160156-.707031 8.1875 1.925781 17.082031 6.707031 22.667968 2.707031 3.164063 2.332031 7.929688-.832031 10.636719-.207031.179688-.433594.351563-.667969.492188-3.128906 2.160156-7.4375 1.632812-9.96875-1.324219zm0 0" fill="#9bcf1b"/><path d="m498.765625 241.972656c-8.289063.972656-15.957031.972656-15.957031.972656-10.890625.714844-19.609375-.304687-26.570313-2.476562-34.0625-10.59375-26.273437-48.871094-26.273437-48.871094 7.214844-37.785156 4.105468-57.050781-.574219-80.40625-2.722656-13.550781-8.445313-26.359375-17.078125-37.148437-3.578125-4.464844-7.84375-8.878907-12.796875-12.523438l-.007813.003907c-4.324218-3.183594-9.199218-5.773438-14.570312-7.269532l-10.183594-6.027344c16.8125-5.585937 35.910156-2.367187 52.488282 9.421876 15.519531 11.046874 26.808593 28.085937 32.660156 49.285156 6.613281 24.015625 5.855468 51.589844-2.257813 81.945312-1.992187 7.414063-3.652343 15.28125-2.40625 22.566406 1.59375 9.382813 7.214844 15.035157 11.652344 18.132813 6.734375 4.707031 15.757813 6.875 22.984375 5.523437 4.089844-.757812 8.035156 1.949219 8.792969 6.039063.054687.273437.089843.554687.097656.832031zm0 0" fill="#b9e746"/><path d="m492.632812 249.9375c-11.164062 2.078125-24.335937-.980469-34.382812-7.980469-.6875-.488281-1.359375-.984375-2.007812-1.488281-8.59375-6.691406-14.070313-15.796875-15.882813-26.484375-1.730469-10.175781.390625-20.367187 2.703125-28.996094 16.164062-60.449219-2.09375-99.054687-24.570312-115.050781-6.0625-4.304688-12.519532-7.117188-18.976563-8.417969l-.007813.003907c-10.34375-2.066407-20.664062-.21875-29.285156 5.617187-12.191406 8.257813-15.375 24.894531-7.125 37.089844 5.839844 8.605469 15.832032 14.523437 24.988282 8.308593 3.382812-2.289062 10.617187-8.546874 4.796874-17.140624-2.773437-4.078126-6.707031-4.433594-11.707031-1.046876-3.449219 2.339844-8.140625 1.4375-10.476562-2.011718-2.339844-3.445313-1.4375-8.136719 2.011719-10.476563 11.980468-8.117187 25.097656-6.082031 32.664062 5.070313 8.777344 12.949218 5.15625 28.628906-8.820312 38.105468-14.917969 10.109376-34.242188 4.910157-45.945313-12.34375-.570313-.84375-1.113281-1.703124-1.617187-2.574218-10.84375-18.785156-5.460938-43.125 12.765624-55.472656 4.105469-2.789063 8.472657-4.925782 12.996094-6.421876 16.816406-5.585937 35.910156-2.367187 52.488282 9.421876 15.519531 11.042968 26.808593 28.085937 32.660156 49.285156 6.617187 24.015625 5.855468 51.589844-2.257813 81.945312-1.992187 7.410156-3.652343 15.28125-2.40625 22.566406 1.59375 9.382813 7.214844 15.035157 11.652344 18.132813 6.738281 4.707031 15.757813 6.875 22.984375 5.523437 4.09375-.757812 8.035156 1.949219 8.796875 6.039063.050781.273437.085937.554687.09375.828125.300781 3.789062-2.304687 7.257812-6.132813 7.96875zm0 0" fill="#9bcf1b"/></svg>