<svg height="512pt" viewBox="0 -49 512.0004 512" width="512pt" xmlns="http://www.w3.org/2000/svg"><path d="m502.308594 152.359375-.539063-1.261719c-12.800781 43.636719-92.300781 72.128906-178.644531 10.355469-8.007812-5.734375-16.660156-11.089844-26.324219-12.992187-30.207031-5.9375-47.507812 4.628906-55.757812 12.460937-3.902344 3.699219-4.644531 9.632813-1.824219 14.203125l.300781.492188c3.398438 5.492187 10.644531 7.019531 16.027344 3.457031 17.65625-11.667969 42.175781-11.675781 67.578125 6.488281 100.8125 72.117188 192.277344 21.210938 179.183594-33.203125zm0 0" fill="#a6e0ec"/><path d="m453.75 92.269531c-20.730469 4.984375-33.472656 25.796875-28.492188 46.515625 4.171876 17.355469 21.683594 28.070313 39.027344 23.898438 14.6875-3.527344 23.761719-18.34375 20.230469-33.03125-4.511719-18.777344-28.121094-22.484375-34.035156-12.820313-2.984375 4.871094-1.453125 11.257813 3.417969 14.246094 4.453124 2.726563 10.148437 1.671875 13.386718-2.238281 1.25 1.105468 2.195313 2.585937 2.613282 4.320312 2.808593 11.710938-10.695313 19.902344-22.222657 12.832032-14.566406-8.921876-9.726562-34.453126 9.582031-39.09375 16.824219-4.050782 33.703126 6.285156 37.746094 23.105468 7.535156 31.347656-27.710937 63.578125-82.40625 59.175782-27.859375-2.246094-57.292968-13.941407-85.089844-33.84375-8.113281-5.792969-17.925781-12.019532-29.253906-14.253907-17.804687-3.5-31.679687-1.664062-42.105468 2.085938-8.652344 3.085937-14.925782 7.488281-19.105469 11.214843-.421875.371094-.8125.734376-1.183594 1.085938-2.394531 2.273438-4.070313 5.070312-5.003906 8.078125-1.511719 4.921875-1 10.40625 1.695312 15.066406 7.167969.460938 13.945313 2.6875 20.050781 6.726563 1.140626.753906 2.324219 1.375 3.546876 1.847656 1.214843-.484375 2.40625-1.09375 3.539062-1.847656 6.105469-4.039063 12.882812-6.265625 20.058594-6.726563 12.300781-.808593 25.777344 3.589844 39.007812 13.0625 37.835938 27.078125 73.503906 37.09375 103.308594 37.09375 60.828125-.011719 96.628906-39.667969 87.617188-77.921875 8.851562-36.734375-22.628907-66.585937-55.929688-58.578125zm-41.152344 121.019531c-27.859375-2.242187-57.292968-13.941406-85.089844-33.84375-14.1875-10.152343-30.328124-16.148437-46.074218-15.898437-5.324219.082031-10.597656.871094-15.742188 2.464844-3.238281.996093-6.433594 2.316406-9.542968 3.972656-1.601563.839844-3.1875 1.785156-4.75 2.816406-4.132813 2.726563-8.53125-3.25-5.183594-6.425781l.390625-.363281c2.496093-2.3125 5.644531-4.640625 9.542969-6.605469 5.035156-2.535156 11.320312-4.480469 19.097656-5.023438 5.835937-.417968 12.5-.039062 20.101562 1.457032 8.519532 1.671875 16.609375 6.867187 23.40625 11.726562 37.835938 27.066406 73.503906 37.082032 103.308594 37.082032 25.089844 0 51.175781-7.296876 69.410156-24.058594-13.253906 25.070312-47.816406 35.199218-78.875 32.699218zm0 0" fill="#7cd2e3"/><g fill="#a6e0ec"><path d="m325.316406 322.117188c34.238282-4.203126 46.894532-47.417969 22.148438-66.75-5.789063-4.523438-12.742188-6.964844-19.960938-7.082032-16.777344-1.675781-25.410156 19.695313-12.09375 30.097656 9.03125 7.054688 22.363282 3.253907 26.277344-7.566406 9.234375 12.503906.527344 34.074219-18.203125 36.375-8.746094 1.078125-17.378906-1.320312-24.320313-6.742187-26.105468-20.390625-10.679687-70.414063 31.929688-70.414063 27.734375 0 51.832031 20.746094 55.296875 48.957032 10.050781 81.824218-81.246094 80.351562-95.636719 87.222656 1.363282 8.101562 9.234375 13.410156 17.257813 11.636718l20-4.425781-.011719-.042969c31.5625-4.648437 56.828125-25.96875 67.898438-53.867187-3.269532 17-.21875 35.230469 9.992187 50.820313 2.277344 3.472656 6.9375 4.445312 10.410156 2.167968 3.472657-2.273437 4.445313-6.933594 2.171875-10.40625-25.140625-38.382812 7.359375-88.90625 46.914063-80.660156 19.113281 3.984375 35.09375 21.75 30.890625 41.902344-5.339844 25.621094-34.714844 31.824218-46.898438 13.21875-7.472656-11.402344.660156-26.109375 11.546875-26.5-2.691406 7.648437 2.035157 15.628906 9.691407 17.226562 7.097656 1.476563 14.054687-3.078125 15.535156-10.175781 2.941406-14.113281-20.71875-30.164063-39.914063-17.589844-15.085937 9.882813-19.320312 30.195313-9.441406 45.277344 11.785156 17.992187 36.007813 23.039063 54 11.257813 21.667969-14.195313 27.722656-43.21875 13.527344-64.894532-24.9375-38.070312-83.832031-33.925781-104.234375 14.472656 16.898437-79.578124-77.199219-118.355468-116.390625-68.191406-9.558594 12.238282-13.78125 27.464844-11.886719 42.878906 3.234375 26.332032 27.164062 45.035157 53.503906 41.796876zm0 0"/><path d="m21.203125 356.054688c17.992187 11.78125 42.214844 6.734374 53.996094-11.257813 9.882812-15.082031 5.648437-35.394531-9.4375-45.277344-19.195313-12.574219-42.855469 3.476563-39.914063 17.589844 1.480469 7.097656 8.4375 11.652344 15.535156 10.175781 7.65625-1.597656 12.382813-9.578125 9.691407-17.226562 10.886719.390625 19.019531 15.097656 11.546875 26.5-12.1875 18.605468-41.558594 12.402344-46.898438-13.21875-4.203125-20.152344 11.777344-37.917969 30.890625-41.902344 39.554688-8.246094 72.054688 42.277344 46.914063 80.660156-2.273438 3.472656-1.300782 8.132813 2.171875 10.40625 3.472656 2.277344 8.132812 1.304688 10.410156-2.167968 10.210937-15.589844 13.261719-33.824219 9.992187-50.820313 11.070313 27.898437 36.335938 49.222656 67.898438 53.867187l-.011719.042969 20 4.425781c8.023438 1.773438 15.894531-3.535156 17.257813-11.636718-14.390625-6.871094-105.6875-5.398438-95.636719-87.222656 3.464844-28.214844 27.5625-48.957032 55.296875-48.957032 42.609375 0 58.035156 50.023438 31.929688 70.414063-6.941407 5.421875-15.574219 7.820312-24.320313 6.742187-18.730469-2.300781-27.4375-23.871094-18.203125-36.375 3.914062 10.820313 17.246094 14.621094 26.277344 7.566406 13.316406-10.402343 4.683594-31.773437-12.09375-30.097656-7.21875.117188-14.171875 2.558594-19.960938 7.082032-24.746094 19.332031-12.089844 62.546874 22.148438 66.75 26.339844 3.238281 50.269531-15.464844 53.503906-41.796876 1.894531-15.414062-2.328125-30.640624-11.886719-42.878906-39.191406-50.164062-133.285156-11.386718-116.390625 68.191406-20.398437-48.398437-79.292968-52.542968-104.230468-14.472656-14.199219 21.675782-8.144532 50.699219 13.523437 64.894532zm0 0"/><path d="m11.011719 389.675781c0-6.476562 2.625-12.339843 6.875-16.582031 4.242187-4.25 10.105469-6.875 16.59375-6.875h443.039062c12.960938 0 23.46875 10.507812 23.46875 23.457031 0 6.476563-2.628906 12.339844-6.878906 16.582031-4.238281 4.25-10.105469 6.878907-16.589844 6.878907h-443.039062c-11.5 0-21.0625-8.261719-23.070313-19.167969-.269531-1.394531-.398437-2.828125-.398437-4.292969zm0 0"/></g><path d="m11.410156 393.96875h439.382813c11.488281 0 21.050781 8.257812 23.058593 19.167969h-439.371093c-11.5 0-21.0625-8.261719-23.070313-19.167969zm0 0" fill="#7cd2e3"/><path d="m9.984375 152.359375.542969-1.261719c12.800781 43.636719 92.296875 72.128906 178.640625 10.355469 8.011719-5.734375 16.664062-11.089844 26.328125-12.992187 30.203125-5.9375 47.507812 4.628906 55.757812 12.460937 3.898438 3.699219 4.640625 9.632813 1.824219 14.203125l-.300781.492188c-3.398438 5.492187-10.648438 7.019531-16.03125 3.457031-17.652344-11.667969-42.175782-11.675781-67.578125 6.488281-100.808594 72.117188-192.277344 21.210938-179.183594-33.203125zm0 0" fill="#a6e0ec"/><path d="m281.433594 163.546875c-.933594-3.007813-2.609375-5.804687-5.003906-8.078125-.371094-.351562-.761719-.714844-1.183594-1.085938-4.179688-3.726562-10.445313-8.128906-19.097656-11.214843-10.425782-3.742188-24.289063-5.59375-42.105469-2.085938-11.335938 2.234375-21.140625 8.460938-29.25 14.253907-27.808594 19.902343-57.234375 31.597656-85.101563 33.84375-54.6875 4.402343-89.933594-27.828126-82.394531-59.175782 4.039063-16.820312 20.921875-27.15625 37.734375-23.105468 19.308594 4.640624 24.160156 30.171874 9.582031 39.09375-11.527343 7.070312-25.03125-1.121094-22.214843-12.832032.421874-1.734375 1.363281-3.214844 2.617187-4.320312 3.226563 3.910156 8.921875 4.964844 13.371094 2.238281 4.882812-2.988281 6.417969-9.375 3.429687-14.246094-5.914062-9.664062-29.523437-5.957031-34.035156 12.820313-3.539062 14.6875 5.546875 29.503906 20.222656 33.03125 17.351563 4.171875 34.855469-6.542969 39.027344-23.898438 4.980469-20.71875-7.761719-41.53125-28.484375-46.515625-33.300781-8.007812-64.777344 21.84375-55.9375 58.578125-9.011719 38.253906 26.796875 77.910156 87.617187 77.921875 29.816407 0 65.484376-10.015625 103.316407-37.09375 13.234375-9.472656 26.695312-13.871093 39.007812-13.0625 7.167969.460938 13.945313 2.6875 20.050781 6.726563 1.140626.753906 2.324219 1.375 3.546876 1.847656 1.214843-.484375 2.40625-1.09375 3.539062-1.847656 6.105469-4.039063 12.882812-6.265625 20.058594-6.726563 2.699218-4.660156 3.199218-10.144531 1.6875-15.066406zm-20.542969 9.253906c-1.554687-1.03125-3.136719-1.964843-4.742187-2.816406-3.105469-1.65625-6.304688-2.96875-9.542969-3.972656-5.144531-1.59375-10.425781-2.382813-15.75-2.464844-15.746094-.25-31.878907 5.753906-46.0625 15.898437-27.808594 19.902344-57.234375 31.601563-85.101563 33.84375-31.046875 2.5-65.613281-7.628906-78.867187-32.699218 18.234375 16.761718 44.320312 24.058594 69.402343 24.058594 29.816407 0 65.484376-10.015626 103.316407-37.082032 6.796875-4.859375 14.886719-10.054687 23.398437-11.726562 7.597656-1.496094 14.265625-1.875 20.101563-1.457032 7.777343.542969 14.074219 2.488282 19.105469 5.023438 3.902343 1.976562 7.046874 4.292969 9.542968 6.605469l.390625.363281c3.339844 3.175781-1.050781 9.152344-5.191406 6.425781zm0 0" fill="#7cd2e3"/><path d="m304.4375 130.894531c-16.480469 9.375-27.105469 28.101563-33.972656 48.382813-10.898438 32.179687-12.28125 68.230468-12.460938 76.910156-.058594 2.578125-3.949218 2.578125-4.011718 0-.289063-14.144531-3.796876-101.039062-46.433594-125.292969-1.433594-.808593-1.433594-2.855469 0-3.667969 42.636718-24.25 46.144531-111.144531 46.433594-125.289062.0625-2.578125 3.953124-2.585938 4.011718 0 .171875 8.179688 1.414063 40.679688 10.675782 71.335938 6.757812 22.355468 17.785156 43.726562 35.757812 53.953124 1.433594.8125 1.433594 2.859376 0 3.667969zm0 0" fill="#2cb3cd"/><path d="m304.4375 130.894531c-16.480469 9.375-27.105469 28.101563-33.972656 48.382813-10.597656-15.46875-16.800782-34.1875-16.800782-54.355469 0-19.007813 5.503907-36.730469 15.015626-51.648437 6.757812 22.355468 17.785156 43.726562 35.757812 53.953124 1.433594.8125 1.433594 2.859376 0 3.667969zm0 0" fill="#44bfd7"/></svg>