<svg height="511pt" viewBox="-1 1 511 511.99899" width="511pt" xmlns="http://www.w3.org/2000/svg"><g fill="#c0694e"><path d="m405.121094 255.800781c-32.566406-15-64.722656 13.953125-53.503906 44.335938 8.921874 24.167969 42.734374 26.183593 52.730468 4.480469 2.375-5.148438 2.945313-10.808594 1.710938-16.246094-1.515625-11.59375-17.257813-13.941406-22.125-3.378906-2.648438 5.746093-.214844 12.519531 5.421875 15.308593-5.46875 7.035157-19.53125 5.421875-23.527344-5.410156-6.714844-18.195313 13.082031-34.488281 32.957031-25.332031 17.5 8.0625 21.492188 32.113281 10.089844 47.507812-21.1875 28.605469-68.027344 5.847656-65.460938-29.09375 1.523438-20.742187 17.65625-33.484375 29.523438-72.816406 1.207031-4.003906-1.058594-8.230469-5.0625-9.441406-4.003906-1.210938-8.230469 1.058594-9.4375 5.0625-11.65625 38.625-28.265625 50.660156-30.128906 76.085937-3.667969 49.886719 62.394531 80.183594 92.738281 39.222657 9.730469-13.140626 12.035156-30.488282 6.15625-46.410157-3.933594-10.648437-11.773437-19.125-22.082031-23.875zm0 0"/><path d="m302.03125 135.566406c-39.074219 12.605469-51.511719 28.984375-72.242188 30.90625-34.65625 3.199219-58.75-43.003906-30.339843-64.894531 15.210937-11.71875 39.316406-8.121094 47.695312 9.183594 5.460938 11.285156 2.917969 26.6875-9.148437 32.527343-14.378906 6.96875-29.367188-4.355468-24.65625-17.898437.640625-1.84375 1.769531-3.421875 3.25-4.617187 2.890625 5.582031 9.710937 7.886718 15.40625 5.128906 10.46875-5.066406 7.828125-20.792969-3.832032-22.058594-12.292968-2.519531-24.898437 4.394531-29.132812 16.570312-5.429688 15.617188 2.816406 32.652344 18.433594 38.085938 30.390625 10.570312 59.074218-21.773438 43.3125-54.339844-12.863282-26.574218-48.367188-31.695312-70.574219-14.582031-40.484375 31.195313-8.742187 96.597656 40.980469 91.976563 25.382812-2.351563 37.125-19.191407 75.496094-31.570313 3.980468-1.285156 6.167968-5.554687 4.882812-9.535156s-5.558594-6.164063-9.53125-4.882813zm0 0"/><path d="m501.203125 154.320312-118.046875-140.269531c-7.515625-8.929687-18.515625-14.050781-30.1875-14.050781h-344.894531c-4.183594 0-7.574219 3.390625-7.574219 7.574219 0 4.183593 3.390625 7.574219 7.574219 7.574219h344.894531c7.1875 0 13.96875 3.15625 18.597656 8.65625l118.046875 140.269531c3.683594 4.375 5.710938 9.933593 5.710938 15.652343v324.699219c0 4.183594 3.390625 7.574219 7.574219 7.574219 4.183593 0 7.574218-3.390625 7.574218-7.574219v-324.699219c0-9.28125-3.289062-18.304687-9.269531-25.40625zm0 0"/><path d="m345.347656 64.078125c-7.519531-9.015625-18.5625-14.1875-30.300781-14.1875h-266.554687c-4.183594 0-7.574219 3.390625-7.574219 7.574219s3.390625 7.574218 7.574219 7.574218h266.554687c7.230469 0 14.035156 3.1875 18.667969 8.738282l106.074218 127.175781c3.640626 4.363281 5.644532 9.890625 5.644532 15.570313v247.484374c0 4.183594 3.390625 7.574219 7.574218 7.574219 4.183594 0 7.574219-3.390625 7.574219-7.574219v-247.484374c0-9.21875-3.253906-18.195313-9.15625-25.273438zm0 0"/></g><path d="m477.28125 79.472656c-4.554688 14.574219-4.382812 24.003906-4.382812 24.003906-2.957032 27.023438-15.238282 43.191407-29.710938 52.828126 28.5 17.992187 31.914062 32.0625 37.941406 53.238281 1.414063 4.945312-4.191406 9.007812-8.402344 6.046875-28.761718-20.175782-71.757812-12.289063-96.417968-4.421875-.941406.300781-1.847656.605469-2.738282.898437-8.320312 2.808594-17.511718.242188-23.207031-6.453125l-40.632812-47.746093c.816406 1.121093-10.636719-10.410157-3.171875-24.558594 11.351562-21.488282 31.183594-66.367188 19.671875-99.5-1.820313-5.230469 4.191406-9.613282 8.550781-6.199219 13.019531 10.21875 28.652344 25.78125 37.464844 46.453125 11.828125-13.007812 29.871094-22.84375 57.410156-21.410156 0 0 25.53125 4.605468 60.8125-11.289063 2.445312-1.101562 4.789062 1.65625 3.3125 3.886719-8.472656 12.816406-13.511719 24.632812-16.5 34.222656zm0 0" fill="#ffb52d"/><path d="m472.726562 215.589844c-28.761718-20.175782-71.757812-12.289063-96.417968-4.421875-10.382813-14.269531-16.492188-31.832031-16.492188-50.824219 0-47.808594 38.757813-86.554688 86.5625-86.554688 10.886719 0 21.308594 2.007813 30.902344 5.683594-4.554688 14.574219-4.382812 24.003906-4.382812 24.003906-2.957032 27.023438-15.238282 43.191407-29.710938 52.828126 28.5 17.992187 31.914062 32.0625 37.941406 53.238281 1.414063 4.945312-4.191406 9.007812-8.402344 6.046875zm0 0" fill="#ffc14f"/></svg>