<svg height="511pt" viewBox="0 -1 511.99975 511" width="511pt" xmlns="http://www.w3.org/2000/svg"><path d="m291.1875 256.136719c-16.144531 7.621093-24.566406 19.203125-28.957031 29.742187-4.039063 9.703125-4.675781 18.527344-4.777344 22.605469-.039063 1.554687-2.867187 1.554687-2.90625 0-.210937-8.519531-2.757813-37.730469-33.730469-52.347656-1.03125-.484375-1.03125-1.71875 0-2.203125 30.972656-14.617188 33.519532-43.828125 33.730469-52.347656.039063-1.554688 2.867187-1.554688 2.90625 0 .09375 3.816406.65625 11.773437 4.03125 20.71875 4.160156 11.035156 12.597656 23.554687 29.703125 31.628906 1.027344.484375 1.027344 1.71875 0 2.203125zm0 0" fill="#2cb3cd"/><g fill="#44bfd7"><path d="m18.105469 176.925781c14.742187 13.875 35.398437 18.671875 54.910156 13.980469 27.429687-6.597656 44.382813-34.28125 37.785156-61.710938-5.472656-22.757812-28.4375-36.820312-51.195312-31.347656-19.015625 4.574219-30.765625 23.765625-26.195313 42.785156 3.652344 15.1875 18.488282 25.15625 34.09375 22.46875 14.066406-1.1875 18.253906-19.621093 6.386719-26.886718-8.007813-4.90625-18.691406-1.066406-21.5 8.191406-9.363281-8.738281-4.835937-28.082031 10.757813-31.832031 14.632812-3.519531 29.40625 5.523437 32.929687 20.164062 4.652344 19.355469-7.246094 38.789063-26.601563 43.445313-32.070312 7.710937-58.839843-18.367188-53.492187-48.496094 4.128906-23.277344 29.382813-47.789062 59.828125-41.910156 12.378906 2.394531 23.652344 9.570312 33.992188 16.96875 93.632812 66.988281 194.117187 70.308594 292.394531 0 10.335937-7.398438 21.613281-14.574219 33.992187-16.96875 29.75-5.746094 55.570313 17.902344 59.828125 41.910156 5.347657 30.152344-21.445312 56.203125-53.492187 48.496094-19.355469-4.65625-31.253906-24.085938-26.601563-43.445313 3.519531-14.640625 18.296875-23.683593 32.929688-20.164062 15.625 3.757812 20.0625 23.054687 10.8125 31.777343-2.796875-9.273437-13.492188-13.132812-21.515625-8.21875-11.34375 6.945313-8.117188 24.101563 4.777344 26.65625 7.644531 1.734376 15.515624.449219 22.207031-3.652343 23.90625-14.640625 17.066406-54.121094-12.742188-61.289063-22.75-5.472656-45.722656 8.589844-51.191406 31.347656-6.597656 27.433594 10.355469 55.113282 37.785156 61.710938 42.449219 10.210938 79.210938-24.898438 71.941407-65.867188-5.789063-32.632812-39.71875-61.460937-77.613282-54.128906-27.535156 5.324219-37.46875 21.867188-76.957031 42.257813 45.402344-53.019531 1.730469-125.1875-58.054687-110.8125-27.496094 6.613281-44.402344 34.210937-37.789063 61.710937 5.472656 22.757813 28.4375 36.816406 51.195313 31.347656 19.019531-4.574218 30.769531-23.765624 26.195312-42.78125-5.761719-23.972656-36.523438-29.269531-44.855469-15.664062-4.195312 6.851562-2.039062 15.808594 4.808594 20.003906 7.863281 4.8125 18.351563 1.214844 21.378906-7.78125 5.742188 5.699219 5.773438 15.394532 1.515625 22.347656-10.433594 17.039063-40.117187 11.417969-45.511718-11.011718-4.652344-19.359375 7.242187-38.789063 26.601562-43.445313 25.152344-6.046875 50.539062 9.496094 56.589844 34.648438 10.160156 42.257812-32.066406 86.296875-102.484375 87.28125-70.703125-1.03125-112.496094-45.191407-102.378907-87.28125 9.328126-38.785157 60.625-48.265625 78.890626-18.4375 5.023437 8.207031 6.550781 17.878906 4.304687 27.234375-5.40625 22.46875-35.097656 28.027344-45.515625 11.011718-4.261719-6.964843-4.214844-16.648437 1.507812-22.339843 3.003907 9 13.496094 12.644531 21.386719 7.816406 11.773438-7.210937 7.753907-25.191406-5.859375-26.839844-7.179687-1.257812-14.46875.117188-20.734375 3.953125-6.808593 4.167969-11.585937 10.742188-13.453125 18.503906-4.574218 19.015626 7.175782 38.207032 26.195313 42.78125 22.75 5.46875 45.722656-8.589843 51.195312-31.347656 6.609375-27.492187-10.289062-55.097656-37.789062-61.710937-33.261719-8-66.851563 12.5625-74.851563 45.835937-5.558594 23.113282.660156 46.132813 16.796875 64.976563-38.011719-19.625-49.9375-37.035157-76.957031-42.257813-59.132812-11.445312-105.78125 63.464844-60.582031 106.015625zm0 0"/><path d="m493.894531 333.148438c-14.402343-13.558594-34.925781-18.785157-54.910156-13.980469-27.429687 6.59375-44.378906 34.277343-37.785156 61.707031 5.472656 22.757812 28.4375 36.820312 51.195312 31.347656 29.8125-7.167968 36.648438-46.648437 12.742188-61.285156-6.695313-4.101562-14.566407-5.386719-22.210938-3.652344-12.898437 2.558594-16.109375 19.714844-4.773437 26.65625 8.027344 4.917969 18.71875 1.046875 21.511718-8.21875 9.3125 8.777344 4.722657 28.042969-10.808593 31.777344-14.640625 3.519531-29.410157-5.527344-32.929688-20.164062-2.25-9.355469-.722656-19.023438 4.304688-27.230469 13.035156-21.289063 44.785156-23.347657 63.285156-5.929688 34.03125 32.035157-2.886719 88.710938-47.324219 80.121094-12.378906-2.394531-23.65625-9.570313-33.992187-16.96875-96.617188-69.121094-196.96875-68.269531-292.394531 0-10.339844 7.398437-21.613282 14.574219-33.992188 16.96875-44.722656 8.636719-81.117188-48.3125-47.324219-80.121094 18.46875-17.386719 50.222657-15.40625 63.285157 5.929688 5.023437 8.207031 6.554687 17.875 4.304687 27.230469-3.519531 14.636718-18.296875 23.683593-32.929687 20.164062-15.667969-3.765625-20.070313-23.140625-10.757813-31.832031 2.816406 9.277343 13.511719 13.085937 21.503906 8.191406 6.851563-4.195313 9.003907-13.152344 4.808594-20.003906-8.316406-13.582031-39.445313-8.726563-45.292969 15.589843-4.570312 19.015626 7.179688 38.207032 26.199219 42.78125 22.75 5.464844 45.722656-8.59375 51.191406-31.347656 6.597657-27.429687-10.351562-55.113281-37.785156-61.710937-42.574219-10.234375-79.195313 24.980469-71.941406 65.867187 5.789062 32.632813 39.695312 61.46875 77.613281 54.128906 27.535156-5.324218 37.46875-21.867187 76.957031-42.253906-45.359375 52.964844-2.117187 125.277344 58.054688 110.808594 27.496093-6.613281 44.402343-34.210938 37.789062-61.710938-5.472656-22.757812-28.4375-36.816406-51.195312-31.347656-29.808594 7.167969-36.648438 46.648438-12.742188 61.285156 9.738281 5.960938 25.464844 6.808594 31.402344-2.882812 4.195313-6.851562 2.042969-15.808594-4.808594-20-7.882812-4.828125-18.382812-1.195312-21.390625 7.8125-5.710937-5.679688-5.777344-15.359375-1.503906-22.339844 10.433594-17.039062 40.117188-11.421875 45.511719 11.011719 2.25 9.355469.722656 19.027344-4.300781 27.234375-18.296876 29.878906-69.585938 20.242188-78.890626-18.4375-5.964843-24.8125 5.648438-49.847656 31.066407-66.972656 39.621093-26.691406 102.574219-27.050782 142.730469 0 25.417968 17.125 37.03125 42.160156 31.066406 66.972656-6.050782 25.152344-31.433594 40.695312-56.589844 34.648438-19.359375-4.65625-31.257812-24.085938-26.601562-43.445313 5.402343-22.476563 35.09375-28.027344 45.511718-11.011719 4.265625 6.96875 4.214844 16.660156-1.515625 22.347656-3.023437-8.980468-13.503906-12.601562-21.378906-7.78125-11.882813 7.277344-7.65625 25.769532 6.457031 26.894532 15.019532 2.324218 29.882813-7.125 33.589844-22.554688 4.574219-19.015625-7.175781-38.210937-26.195312-42.78125-22.753907-5.472656-45.722657 8.589844-51.195313 31.347656-6.609375 27.492188 10.289063 55.097657 37.789063 61.707032 33.34375 8.023437 66.871093-12.636719 74.851562-45.832032 5.558594-23.113281-.660156-46.132812-16.796875-64.976562 38.011719 19.625 49.9375 37.035156 76.957031 42.257812 59.128906 11.433594 105.773438-63.472656 60.578125-106.015624zm0 0"/><path d="m387.429688 135.640625c-2.375-3.441406-7.089844-4.308594-10.535157-1.9375-10.1875 7.027344-20.832031 13.15625-31.636719 18.214844-3.789062 1.773437-5.421874 6.28125-3.648437 10.066406 1.769531 3.785156 6.277344 5.425781 10.070313 3.648437 11.5625-5.414062 22.9375-11.960937 33.8125-19.460937 3.445312-2.371094 4.308593-7.089844 1.9375-10.53125zm0 0"/><path d="m322.429688 176.878906c4-1.21875 6.253906-5.449218 5.039062-9.449218-1.21875-4-5.453125-6.257813-9.449219-5.039063-19.339843 5.886719-39.691406 8.871094-60.484375 8.871094-71.351562 0-126.828125-35.125-127.660156-35.660157-3.511719-2.273437-8.199219-1.269531-10.472656 2.242188-2.269532 3.511719-1.265625 8.199219 2.246094 10.472656 2.402343 1.554688 59.722656 38.089844 135.886718 38.089844 22.289063 0 44.125-3.203125 64.894532-9.527344zm0 0"/><path d="m164.839844 340.761719c-14.9375 6.160156-29.53125 14.121093-43.378906 23.667969-3.441407 2.375-4.308594 7.089843-1.9375 10.53125 2.367187 3.433593 7.078124 4.316406 10.535156 1.9375 12.960937-8.941407 26.605468-16.386719 40.554687-22.136719 3.863281-1.59375 5.707031-6.019531 4.113281-9.886719-1.59375-3.863281-6.015624-5.707031-9.886718-4.113281zm0 0"/><path d="m198.308594 345.601562c16.457031-4.15625 33.652344-6.261718 51.109375-6.261718 71.351562 0 126.828125 35.125 127.660156 35.660156 1.273437.824219 2.699219 1.214844 4.109375 1.214844 7.5 0 10.453125-9.828125 4.121094-13.929688-2.402344-1.554687-59.726563-38.089844-135.890625-38.089844-18.707031 0-37.152344 2.261719-54.820313 6.722657-4.054687 1.023437-6.511718 5.140625-5.488281 9.195312 1.027344 4.058594 5.148437 6.515625 9.199219 5.488281zm0 0"/><path d="m291.1875 256.136719c-16.144531 7.621093-24.566406 19.203125-28.957031 29.742187-8.027344-8.347656-12.964844-19.699218-12.964844-32.1875 0-12.105468 4.636719-23.128906 12.21875-31.386718 4.160156 11.035156 12.597656 23.554687 29.703125 31.628906 1.027344.484375 1.027344 1.71875 0 2.203125zm0 0"/></g></svg>