<svg height="511pt" viewBox="-53 1 511 511.99999" width="511pt" xmlns="http://www.w3.org/2000/svg"><path d="m287.65625 278.125h-135.878906c-75.171875 0-136.328125-61.15625-136.328125-136.328125v-34.0625c0-80.304687 95.730469-122.457031 155.007812-68.753906-2.214843 41.742187-19.15625 77.046875-45.695312 94.886719-44.894531 30.175781-94.5-8.367188-78.675781-51.214844 10.328124-27.972656 49.109374-30.371094 59.902343-6.941406 2.964844 6.433593 3.246094 13.640624.789063 20.289062-5.070313 13.726562-22.988282 16.859375-31.074219 7.730469 8.550781-2.433594 12.59375-11.796875 9.015625-19.5625-5.960938-12.941407-25.203125-9.871094-26.945312 4.207031-2.925782 14.210938 4.910156 28.304688 18.488281 33.320312 17.9375 6.621094 37.917969-2.585937 44.539062-20.515624 7.941407-21.507813-3.035156-45.339844-24.542969-53.285157-25.914062-9.570312-54.628906 3.660157-64.199218 29.578125-21.007813 56.894532 44.378906 106.882813 101.039062 68.800782 27.199219-18.28125 45.578125-51.886719 50.933594-91.972657 10.6875 15.117188 16.972656 33.554688 16.972656 53.429688 0 4.128906 3.347656 7.476562 7.476563 7.476562 4.125 0 7.472656-3.347656 7.472656-7.476562 0-29.96875-12.308594-57.117188-32.125-76.664063-.335937-.402344-.710937-.769531-1.121094-1.09375-68.222656-65.375-182.207031-16.742187-182.207031 77.761719v34.0625c0 83.414063 67.863281 151.277344 151.277344 151.277344.6875 0 101.179687 0 102.050781.007812 100.796875.78125 134.074219 129.515625 69.976563 159.046875-35.265626 16.25-73.402344-17.25-61.625-49.15625 3.242187-8.777344 9.707031-15.765625 18.203124-19.679687 13.289063-6.121094 29.082032-.289063 35.199219 12.996093 6.125 13.292969-4.332031 28.179688-16.503906 27.441407 4.316406-7.753907.578125-17.242188-7.460937-20.210938-13.328126-4.921875-24.859376 10.765625-16.078126 22.027344 7.96875 12.097656 23.46875 16.550781 36.636719 10.492187 17.363281-8.007812 24.980469-28.644531 16.984375-46.003906-9.566406-20.773437-34.253906-29.886718-55.03125-20.320312-25.085937 11.550781-36.039062 41.214844-24.480468 66.304687 14.046874 30.492188 50.183593 43.609375 80.410156 29.6875 60.507812-27.875 53.027344-125.179687-11.089844-167.707031 40.960938 13.246094 70.671875 51.746094 70.671875 97.0625 0 56.238281-45.75 101.988281-101.988281 101.988281-32.347656 0-58.664063-26.316406-58.664063-58.664062v-26.949219c0-4.128906-3.347656-7.472656-7.472656-7.472656-4.128906 0-7.476563 3.34375-7.476563 7.472656v26.949219c0 40.589843 33.023438 73.613281 73.613282 73.613281 64.480468 0 116.9375-52.457031 116.9375-116.9375s-52.457032-116.9375-116.933594-116.9375zm0 0" fill="#6a61b4"/><path d="m290.191406 131.417969c-8.640625 5.105469-20.878906 10.503906-34.511718 10.945312 4.085937 8.210938 5.816406 18.515625 1.832031 30.945313-.636719 2.011718-1.433594 4.085937-2.390625 6.21875 0 0-8.234375 13.414062-7.027344 36.875.089844 1.613281-1.984375 2.339844-2.921875 1.003906-13.542969-19.183594-28.3125-24.636719-28.3125-24.636719-14.628906-7.632812-21.058594-18.136719-23.3125-28.441406-16.453125 12.136719-25.09375 12.464844-38.398437 11.199219-3.109376-.289063-4.164063-4.351563-1.5625-6.078125 18.425781-12.257813 23.058593-41.347657 23.789062-56.765625.246094-5.332032 3.714844-9.957032 8.757812-11.703125l22.195313-7.683594 13.753906-4.761719c-.707031.167969 8.273438-3.679687 14.582031 3.628906 9.644532 11.148438 30.644532 32.257813 51.910157 33.046876 3.359375.128906 4.515625 4.496093 1.617187 6.207031zm0 0" fill="#aba6d5"/><path d="m290.191406 131.417969c-8.640625 5.105469-20.878906 10.503906-34.511718 10.945312 4.085937 8.210938 5.816406 18.515625 1.832031 30.945313-29.539063-4.644532-52.144531-30.230469-52.144531-61.074219 0-6.609375 1.039062-12.964844 2.960937-18.9375l13.753906-4.761719c-.707031.167969 8.273438-3.679687 14.582031 3.628906 9.644532 11.148438 30.644532 32.257813 51.910157 33.046876 3.359375.128906 4.515625 4.496093 1.617187 6.207031zm0 0" fill="#c1bde0"/></svg>