<svg height="512.00187pt" viewBox="0 0 512.00187 512.00187" width="512.00187pt" xmlns="http://www.w3.org/2000/svg"><path d="m345.945312 37.222656c-6.265624-26.042968-32.542968-42.128906-58.578124-35.871094-21.644532 5.199219-35.019532 27.042969-29.820313 48.699219 4.359375 18.128907 22.65625 29.332031 40.785156 24.972657 24.703125-5.941407 29.699219-39.328126 8.726563-50.351563-6.375-3.34375-18.445313-5.136719-23.199219 2.625-3.152344 5.152344-1.535156 11.886719 3.617187 15.039063 4.871094 2.984374 11.152344 1.695312 14.492188-2.8125 6.015625 5.578124 3.054688 18.269531-7.1875 20.734374-9.988281 2.40625-20.066406-3.769531-22.46875-13.757812-3.246094-13.507812 5.101562-27.136719 18.601562-30.378906 17.902344-4.308594 35.960938 6.753906 40.265626 24.652344 8.050781 33.492187-27.78125 62.628906-75.183594 63.296874-.011719 0-.027344 0-.039063 0-28.503906-.414062-53.46875-10.898437-66.804687-28.054687-23.523438-30.257813.378906-67.492187 31.9375-59.894531 13.5 3.242187 21.84375 16.871094 18.601562 30.378906-2.402344 9.988281-12.484375 16.164062-22.46875 13.757812-10.3125-2.480468-13.152344-15.195312-7.199218-20.722656 3.332031 4.523438 9.625 5.820313 14.503906 2.832032 5.152344-3.152344 6.769531-9.886719 3.617187-15.039063-4.519531-7.382813-15.925781-6.46875-23.179687-2.667969-20.960938 10.964844-16.046875 44.410156 8.707031 50.363282 18.125 4.359374 36.425781-6.84375 40.785156-24.976563 5.203125-21.652344-8.175781-43.496094-29.816406-48.695313-26.035156-6.261718-52.316406 9.828126-58.582031 35.871094-4.003906 16.660156-.0625 33.75 11.105468 48.113282 34.101563 43.871093 121.480469 46.570312 157.679688 0 11.164062-14.363282 15.105469-31.449219 11.101562-48.113282zm0 0" fill="#fdbcbc"/><path d="m291.722656 169.675781c-14.785156 5.050781-23.1875 16.238281-27.964844 27.324219-5.386718 12.496094-6.167968 24.867188-6.277343 28.1875-.042969 1.144531-2.917969 1.144531-2.957031 0-.214844-6.265625-2.796876-44.769531-34.242188-55.511719-1.054688-.367187-1.054688-1.265625 0-1.632812 31.445312-10.742188 34.027344-49.246094 34.242188-55.511719.039062-1.144531 2.914062-1.144531 2.957031 0 .109375 3.226562.847656 15.042969 5.859375 27.203125 4.699218 11.410156 13.152344 23.117187 28.382812 28.308594 1.050782.367187 1.050782 1.265625 0 1.632812zm0 0" fill="#fc7979"/><path d="m291.722656 169.675781c-14.785156 5.050781-23.1875 16.238281-27.964844 27.324219-5.246093-8.414062-8.261718-18.335938-8.261718-28.964844 0-10.347656 2.863281-20.039062 7.84375-28.300781 4.699218 11.410156 13.152344 23.117187 28.382812 28.308594 1.050782.367187 1.050782 1.265625 0 1.632812zm0 0" fill="#fd9a9a"/><path d="m166.054688 474.78125c6.265624 26.039062 32.542968 42.125 58.582031 35.867188 21.640625-5.199219 35.019531-27.042969 29.820312-48.699219-4.363281-18.128907-22.660156-29.328125-40.789062-24.972657-24.699219 5.941407-29.699219 39.328126-8.726563 50.351563 6.375 3.34375 18.449219 5.136719 23.199219-2.625 3.15625-5.148437 1.535156-11.882813-3.617187-15.039063-4.871094-2.980468-11.152344-1.691406-14.488282 2.8125-6.019531-5.574218-3.058594-18.269531 7.183594-20.734374 9.988281-2.402344 20.066406 3.773437 22.46875 13.757812 3.246094 13.511719-5.097656 27.140625-18.601562 30.382812-17.898438 4.308594-35.960938-6.757812-40.261719-24.652343-8.054688-33.496094 27.78125-62.628907 75.183593-63.300781h.035157c28.503906.417968 53.472656 10.898437 66.808593 28.054687 23.519532 30.257813-.378906 67.496094-31.9375 59.898437-13.5-3.242187-21.847656-16.871093-18.601562-30.378906 2.402344-9.988281 12.480469-16.164062 22.46875-13.761718 10.3125 2.480468 13.148438 15.195312 7.199219 20.722656-3.332031-4.519532-9.625-5.820313-14.503907-2.832032-5.152343 3.15625-6.773437 9.886719-3.617187 15.039063 4.519531 7.382813 15.921875 6.46875 23.175781 2.667969 20.960938-10.964844 16.050782-44.40625-8.707031-50.363282-18.125-4.355468-36.421875 6.84375-40.785156 24.976563-5.199219 21.652344 8.175781 43.5 29.816406 48.695313 26.039063 6.261718 52.320313-9.824219 58.582031-35.867188 4.007813-16.664062.0625-33.75-11.101562-48.117188-34.101563-43.867187-121.480469-46.570312-157.679688 0-11.164062 14.367188-15.109375 31.453126-11.105468 48.117188zm0 0" fill="#fdbcbc"/><path d="m220.28125 342.328125c14.78125-5.054687 23.183594-16.242187 27.964844-27.328125 5.386718-12.492188 6.164062-24.867188 6.277344-28.1875.039062-1.144531 2.914062-1.144531 2.957031 0 .210937 6.269531 2.792969 44.773438 34.242187 55.515625 1.050782.363281 1.050782 1.265625 0 1.628906-31.449218 10.742188-34.03125 49.25-34.242187 55.515625-.042969 1.144532-2.917969 1.144532-2.957031 0-.113282-3.230468-.851563-15.046875-5.863282-27.207031-4.699218-11.410156-13.152344-23.113281-28.378906-28.308594-1.054688-.363281-1.054688-1.265625 0-1.628906zm0 0" fill="#fc7979"/><path d="m220.28125 342.328125c14.78125-5.054687 23.183594-16.242187 27.964844-27.328125 5.242187 8.414062 8.261718 18.335938 8.261718 28.96875 0 10.347656-2.867187 20.035156-7.847656 28.296875-4.699218-11.410156-13.152344-23.113281-28.378906-28.308594-1.054688-.363281-1.054688-1.265625 0-1.628906zm0 0" fill="#fd9a9a"/><path d="m474.78125 345.945312c26.039062-6.265624 42.125-32.542968 35.867188-58.578124-5.199219-21.644532-27.042969-35.019532-48.699219-29.820313-18.128907 4.359375-29.328125 22.65625-24.972657 40.785156 5.941407 24.703125 39.328126 29.699219 50.351563 8.726563 3.34375-6.375 5.136719-18.445313-2.625-23.199219-5.148437-3.152344-11.882813-1.535156-15.039063 3.617187-2.980468 4.871094-1.691406 11.152344 2.8125 14.492188-5.574218 6.015625-18.269531 3.054688-20.734374-7.1875-2.402344-9.988281 3.773437-20.066406 13.757812-22.46875 13.511719-3.246094 27.140625 5.101562 30.382812 18.601562 4.308594 17.902344-6.757812 35.960938-24.652343 40.265626-33.496094 8.050781-62.628907-27.78125-63.300781-75.183594 0-.011719 0-.027344 0-.039063.417968-28.503906 10.898437-53.46875 28.054687-66.804687 30.257813-23.523438 67.496094.378906 59.898437 31.9375-3.242187 13.5-16.871093 21.84375-30.378906 18.601562-9.988281-2.402344-16.164062-12.484375-13.761718-22.46875 2.480468-10.3125 15.195312-13.152344 20.722656-7.199218-4.519532 3.332031-5.820313 9.625-2.832032 14.503906 3.15625 5.152344 9.886719 6.769531 15.039063 3.617187 7.382813-4.519531 6.46875-15.925781 2.667969-23.179687-10.964844-20.960938-44.40625-16.046875-50.363282 8.707031-4.355468 18.125 6.84375 36.425781 24.976563 40.785156 21.652344 5.203125 43.5-8.175781 48.695313-29.816406 6.261718-26.035156-9.824219-52.316406-35.867188-58.582031-16.664062-4.003906-33.75-.0625-48.117188 11.105468-43.867187 34.101563-46.570312 121.480469 0 157.679688 14.367188 11.164062 31.453126 15.105469 48.117188 11.101562zm0 0" fill="#fdbcbc"/><path d="m342.328125 291.722656c-5.054687-14.785156-16.242187-23.1875-27.328125-27.964844-12.492188-5.386718-24.867188-6.167968-28.1875-6.277343-1.144531-.042969-1.144531-2.917969 0-2.957031 6.269531-.214844 44.773438-2.796876 55.515625-34.242188.363281-1.054688 1.265625-1.054688 1.628906 0 10.742188 31.445312 49.25 34.027344 55.515625 34.242188 1.144532.039062 1.144532 2.914062 0 2.957031-3.230468.109375-15.046875.847656-27.207031 5.859375-11.410156 4.699218-23.113281 13.152344-28.308594 28.382812-.363281 1.050782-1.265625 1.050782-1.628906 0zm0 0" fill="#fc7979"/><path d="m342.328125 291.722656c-5.054687-14.785156-16.242187-23.1875-27.328125-27.964844 8.414062-5.246093 18.335938-8.261718 28.96875-8.261718 10.347656 0 20.035156 2.863281 28.296875 7.84375-11.410156 4.699218-23.113281 13.152344-28.308594 28.382812-.363281 1.050782-1.265625 1.050782-1.628906 0zm0 0" fill="#fd9a9a"/><path d="m37.222656 166.054688c-26.042968 6.265624-42.128906 32.542968-35.871094 58.582031 5.199219 21.640625 27.042969 35.019531 48.699219 29.820312 18.128907-4.363281 29.332031-22.660156 24.972657-40.789062-5.941407-24.699219-39.328126-29.699219-50.351563-8.726563-3.34375 6.375-5.136719 18.449219 2.625 23.199219 5.152344 3.15625 11.886719 1.535156 15.039063-3.617187 2.984374-4.871094 1.695312-11.152344-2.8125-14.488282 5.578124-6.019531 18.269531-3.058594 20.734374 7.183594 2.40625 9.988281-3.769531 20.066406-13.757812 22.46875-13.507812 3.246094-27.136719-5.097656-30.378906-18.601562-4.308594-17.898438 6.753906-35.960938 24.652344-40.261719 33.492187-8.054688 62.628906 27.78125 63.296874 75.183593v.035157c-.414062 28.503906-10.898437 53.472656-28.054687 66.808593-30.257813 23.519532-67.492187-.378906-59.894531-31.9375 3.242187-13.5 16.871094-21.847656 30.378906-18.601562 9.988281 2.402344 16.164062 12.480469 13.757812 22.46875-2.480468 10.3125-15.195312 13.148438-20.722656 7.199219 4.523438-3.332031 5.820313-9.625 2.832032-14.503907-3.152344-5.152343-9.886719-6.773437-15.039063-3.617187-7.382813 4.519531-6.46875 15.921875-2.667969 23.175781 10.964844 20.960938 44.410156 16.050782 50.363282-8.707031 4.359374-18.125-6.84375-36.421875-24.976563-40.785156-21.652344-5.199219-43.496094 8.175781-48.695313 29.816406-6.261718 26.039063 9.828126 52.320313 35.871094 58.582031 16.660156 4.007813 33.75.0625 48.113282-11.101562 43.871093-34.101563 46.570312-121.480469 0-157.679688-14.363282-11.164062-31.449219-15.109375-48.113282-11.105468zm0 0" fill="#fdbcbc"/><path d="m169.675781 220.28125c5.050781 14.78125 16.238281 23.183594 27.324219 27.964844 12.496094 5.386718 24.867188 6.164062 28.1875 6.277344 1.144531.039062 1.144531 2.914062 0 2.957031-6.265625.210937-44.769531 2.792969-55.511719 34.242187-.367187 1.050782-1.265625 1.050782-1.632812 0-10.742188-31.449218-49.246094-34.03125-55.511719-34.242187-1.144531-.042969-1.144531-2.917969 0-2.957031 3.226562-.113282 15.042969-.851563 27.203125-5.863282 11.410156-4.699218 23.117187-13.152344 28.308594-28.378906.367187-1.054688 1.265625-1.054688 1.632812 0zm0 0" fill="#fc7979"/><path d="m169.675781 220.28125c5.050781 14.78125 16.238281 23.183594 27.324219 27.964844-8.414062 5.242187-18.335938 8.261718-28.964844 8.261718-10.347656 0-20.039062-2.867187-28.300781-7.847656 11.410156-4.699218 23.117187-13.152344 28.308594-28.378906.367187-1.054688 1.265625-1.054688 1.632812 0zm0 0" fill="#fd9a9a"/></svg>