<svg height="511pt" viewBox="1 -1 511.9972 511" width="511pt" xmlns="http://www.w3.org/2000/svg"><path d="m470.476562 251c39.898438-16.460938 48.867188-64.558594 21.667969-93.195312-27.957031-29.457032-77.898437-11.265626-78.855469 25.753906-.273437 10.5 3.558594 20.46875 10.785157 28.078125 20.203125 21.265625 56.472656 7.054687 55.398437-20.246094-.160156-3.921875-1.164062-7.71875-2.863281-11.1875-.847656-6.238281-6.101563-11.125-12.601563-11.292969-7.214843-.1875-13.214843 5.511719-13.402343 12.726563-.183594 7.203125 5.492187 13.195312 12.691406 13.402343-2.285156 10.710938-18.429687 15.371094-27.683594 5.632813-4.296875-4.523437-6.574219-10.457031-6.410156-16.699219.589844-22.851562 33.113281-34.472656 51.398437-15.210937 15.570313 16.398437 14.898438 42.402343-1.496093 57.976562-29.964844 28.449219-82.304688 9.863281-112.175781-40.261719-16.777344-30.046874-20.875-62.519531-10.957032-86.890624 17.53125-43.09375 71.753906-41.214844 83.167969-2.632813 4.886719 16.5-4.570313 33.902344-21.074219 38.789063-18.960937 5.609374-35.738281-13.984376-27.679687-28.8125 3.339843-6.144532 10.667969-10.285157 17.328125-8.136719-3.441406 6.34375-1.09375 14.273437 5.246094 17.71875 6.34375 3.445312 14.28125 1.101562 17.726562-5.242188 3.082031-5.671875 1.519531-12.609375-3.378906-16.480469-12.367188-18.597656-39.855469-15.800781-50.90625 4.542969-13.007813 23.9375 7.25 53.296875 35.050781 53.292969 28.238281 0 52.023437-29.542969 42.953125-60.1875-11.699219-39.554688-61.097656-55.089844-95.007812-24.960938 5.710937-42.875-31.539063-74.574218-69.867188-65.367187-39.449219 9.472656-48.71875 61.820313-17.121094 81.167969 8.953125 5.484375 19.503906 7.152344 29.703125 4.699218 28.640625-6.890624 34.253907-45.441406 10.171875-58.097656-3.480468-1.824218-7.273437-2.855468-11.125-3.117187-5.828125-2.382813-12.6875-.277344-16.082031 5.265625-3.769531 6.15625-1.832031 14.203125 4.324219 17.972656 6.144531 3.761719 14.171875 1.839844 17.949218-4.289062 5.199219 4.683593 5.300782 13.09375 1.632813 19.085937-8.808594 14.378906-34.15625 9.703125-38.789063-9.5625-4.027343-16.773437 6.273438-33.617187 23.054688-37.648437 39.003906-9.390626 67.949219 36.492187 39.300781 73.34375-34.914062 44.917968-126.335937 45.269531-161.527343 0-28.832032-37.09375.75-82.621094 39.308593-73.34375 8.105469 1.945312 14.964844 6.9375 19.320313 14.046874 4.351562 7.109376 5.679687 15.492188 3.730468 23.601563-1.460937 6.066406-5.199218 11.207031-10.523437 14.46875-5.328125 3.261719-11.601563 4.257813-17.671875 2.796875-13.179688-3.171875-16.953125-19.574219-8.976562-26.777344 3.769531 6.152344 11.8125 8.082032 17.96875 4.316406 6.15625-3.769531 8.089843-11.816406 4.320312-17.972656-3.371094-5.507812-10.160156-7.625-15.960938-5.316406-12.496093.792969-22.640624 9.621094-25.464843 21.386719-7.191407 29.902343 26.28125 52.183593 54.097656 35.140625 8.953125-5.480469 15.234375-14.121094 17.6875-24.324219 6.070313-25.277344-9.542969-50.777344-34.808594-56.84375-40.105469-9.648437-78.257812 25.367187-69.121093 69.796875-34.179688-26.308594-80.328126-10.101562-91.542969 27.824219-7.398438 24.976562 6.835937 51.171875 31.824219 58.570312 32.484374 9.601563 61-24.398437 46.179687-51.675781-11.082031-20.390625-38.46875-23.0625-50.839844-4.640625-4.976562 3.855469-6.585937 10.847656-3.480469 16.558594 3.445313 6.34375 11.382813 8.691406 17.726563 5.242187 6.332031-3.4375 8.679687-11.351562 5.261719-17.691406 10.234375-3.320312 22.570312 8.121094 18.71875 21.15625-3.65625 12.359375-16.691406 19.441406-29.050782 15.785156-16.542968-4.898437-25.980468-22.238281-21.078124-38.789062 11.328124-38.292969 65.515624-40.753906 83.171874 2.632812 9.921876 24.390625 5.8125 56.894532-10.996093 86.957032 0 .003906-.003907.003906-.003907.007812-29.875 50.0625-82.234374 68.578125-112.136718 40.191406-25.28125-24.011718-10.023438-66.90625 20.332031-67.6875 25.300781-.707031 38.238281 25.742188 23.160156 41.621094-9.390625 9.882812-25.4375 4.851562-27.679687-5.613281 7.210937-.191407 12.90625-6.191407 12.722656-13.402344-.1875-7.21875-6.191406-12.917969-13.40625-12.730469-6.453125.167969-11.679688 4.988282-12.582031 11.164063-10.0625 20.292969 6.566406 42.390625 29.386719 41.816406 30.894531-.800781 46.363281-42.371094 21.664062-65.828125-18.898438-17.933594-48.699219-17.171875-66.632812 1.722656-28.476563 29.980469-17.050782 80.5 25.855468 94.769532-39.746094 16.417968-48.945312 64.4375-21.648437 93.179687 27.882812 29.375 77.894531 11.457031 78.859375-25.753906.269531-10.496094-3.558594-20.46875-10.785156-28.074219-20.363282-21.4375-56.476563-6.871094-55.398438 20.242188.160156 3.921874 1.160156 7.71875 2.863281 11.1875.847657 6.242187 6.101563 11.128906 12.597657 11.296874 7.214843.1875 13.21875-5.515624 13.402343-12.730468.1875-7.203125-5.492187-13.191406-12.6875-13.398438 2.292969-10.769531 18.464844-15.339844 27.679688-5.636718 14.976562 15.765624 2.386719 42.296874-23.160157 41.621093-30.390624-.785156-45.574218-43.710937-20.332031-67.6875 29.90625-28.394531 82.246094-9.953125 112.171875 40.257813h.003906c16.777344 30.046875 20.875 62.523437 10.957032 86.894531-17.546875 43.132813-71.769532 41.175781-83.167969 2.632813-2.367187-7.992188-1.480469-16.429688 2.503906-23.757813 3.980469-7.324219 10.578125-12.664063 18.574219-15.027344 12.359375-3.65625 25.394531 3.421875 29.046875 15.78125 3.804687 12.871094-8.304687 24.523438-18.699219 21.164063 3.441406-6.339844 1.09375-14.273438-5.246094-17.71875-6.34375-3.445313-14.28125-1.097656-17.726562 5.246094-3.082031 5.671874-1.519531 12.605468 3.378906 16.476562 12.5625 18.890625 40.03125 15.472656 50.90625-4.542969 14.835938-27.300781-13.726562-61.265625-46.179687-51.671875-12.074219 3.574219-22.03125 11.632813-28.042969 22.691406-6.011719 11.0625-7.355469 23.804688-3.78125 35.875 11.816406 39.945313 61.382812 54.839844 95.007812 24.960938-4.960937 37.257812 22.65625 66.957031 56.5625 66.953125 50.210938 0 65.4375-61.3125 30.429688-82.753906-8.953125-5.480469-19.503906-7.148438-29.707031-4.695313-28.546875 6.867188-34.304688 45.410156-10.167969 58.097656 3.476562 1.820313 7.265625 2.851563 11.121094 3.113282 5.828125 2.386718 12.6875.28125 16.082031-5.261719 3.769531-6.15625 1.835937-14.203125-4.324219-17.972656-6.144531-3.765625-14.171875-1.839844-17.949218 4.289062-8.015626-7.226562-4.195313-23.625 8.960937-26.789062 12.554687-3.019531 25.175781 4.703125 28.195313 17.261719 4.027343 16.773437-6.269532 33.621093-23.054688 37.652343-39.039062 9.382813-67.914062-36.539062-39.300781-73.347656 27.015625-34.753906 80.476562-33.886719 80.804687-33.953125 56.066406.804688 100.863282 35.476562 90.878906 77.015625-5.289062 21.984375-27.476562 35.578125-49.460937 30.28125-16.734375-4.015625-27.074219-20.90625-23.054687-37.644531 4.632812-19.25 29.992187-23.925782 38.792968-9.566406 3.644532 5.953124 3.582032 14.375-1.617187 19.074218-3.769531-6.148437-11.8125-8.082031-17.96875-4.3125-6.15625 3.769532-8.089844 11.816406-4.320313 17.972656 3.371094 5.503907 10.15625 7.621094 15.960938 5.3125 12.496094-.789062 22.640625-9.621093 25.464844-21.386718 7.214843-29.984375-26.328126-52.144532-54.097657-35.140625-34.835937 21.332031-20.089843 82.753906 30.425781 82.753906 35.699219 0 63.75-32.796875 55.8125-71.382813 33.816407 26.03125 80.179688 10.609376 91.546876-27.824218 7.375-24.914063-6.898438-51.1875-31.824219-58.570313-32.496094-9.601562-61 24.394531-46.179688 51.675781 11.078125 20.394532 38.464844 23.0625 50.835938 4.640626 4.980469-3.855469 6.585937-10.847657 3.480469-16.558594-3.445313-6.34375-11.382813-8.691406-17.722657-5.242188-6.332031 3.441406-8.683593 11.355469-5.261719 17.691406-10.417968 3.378907-22.527343-8.273437-18.71875-21.15625 3.652344-12.359374 16.679688-19.441406 29.046876-15.785156 16.507812 4.886719 25.964843 22.289063 21.078124 38.789063-6.414062 21.683593-29.269531 34.101562-50.957031 27.691406-39.894531-11.804687-49.488281-66.714844-21.21875-117.28125.09375-.105469 25.734375-46.855469 69.769531-52.933594 16.542969-2.285156 31.191407 2.121094 42.371094 12.734375 25.28125 24.011719 10.023438 66.90625-20.328125 67.6875-8.339843.203125-16.257812-2.832031-22.304687-8.570312-9.351563-8.878906-9.734375-23.703125-.859375-33.050782 9.371093-9.867187 25.4375-4.851562 27.679687 5.613282-7.210937.191406-12.90625 6.191406-12.71875 13.402344.183594 7.21875 6.1875 12.917968 13.402344 12.730468 6.453125-.167968 11.679688-4.988281 12.582031-11.167968 5.589844-11.273438 2.945313-24.460938-5.789062-32.746094-13.203125-12.542969-34.152344-12-46.699219 1.207031-14.917969 15.710937-14.273438 40.628906 1.441406 55.554687 18.875 17.917969 48.699219 17.171876 66.628906-1.722656 28.410157-29.90625 17.15625-80.457031-25.875-94.753906zm-128.941406 146.65625c-44.9375-38.367188-124.449218-36.136719-165.941406 2.960938 10.695312-57.75-30.601562-125.75-85.535156-142.230469 55.476562-19.652344 93.570312-89.488281 80.40625-145.191407 45.117187 38.523438 124.613281 35.980469 165.941406-2.960937-4.785156 25.832031 1.015625 56.042969 16.636719 84.023437.019531.039063.050781.070313.070312.109376.035157.0625.0625.128906.101563.191406 17.335937 29.121094 42.363281 49.996094 68.726562 57.90625-55.410156 19.625-93.589844 89.417968-80.40625 145.191406zm0 0" fill="#c1bde0"/><path d="m253.433594 258.851562s1.691406 7.582032.28125 18.105469c-2.390625 17.84375-13.644532 44.167969-57.09375 56.375-2.085938.597657-4.253906 1.136719-6.488282 1.65625-8.199218 1.90625-15.167968-4.90625-13.441406-13.128906 5.1875-24.882813 22.152344-69.390625 76.742188-63.007813zm0 0" fill="#8078bf"/><path d="m335.390625 189.238281c-.453125 2.140625-.992187 4.445313-1.636719 6.847657-5.886718 22.039062-20.597656 52.582031-57.074218 56.371093-5.503907.589844-11.492188.554688-18.035157-.214843 0 0-12.984375-58.457032 63.277344-76.132813 8.210937-1.894531 15.183594 4.894531 13.46875 13.128906zm0 0" fill="#8078bf"/><path d="m253.714844 276.957031c-2.390625 17.84375-13.644532 44.167969-57.09375 56.375 5.898437-22.007812 20.605468-52.574219 57.09375-56.375zm0 0" fill="#958fca"/><path d="m333.753906 196.085938c-5.886718 22.039062-20.597656 52.582031-57.074218 56.371093 2.390624-17.84375 13.648437-44.167969 57.074218-56.371093zm0 0" fill="#958fca"/><path d="m252.949219 234.90625c.574219 5.492188.550781 11.496094-.214844 18.039062 0 0-58.460937 12.980469-76.144531-63.289062-1.894532-8.210938 4.90625-15.171875 13.140625-13.457031 2.140625.453125 4.429687.984375 6.832031 1.625 22.019531 5.886719 52.585938 20.59375 56.386719 57.082031zm0 0" fill="#8078bf"/><path d="m333.808594 314.957031c.597656 2.085938 1.140625 4.25 1.660156 6.484375 1.90625 8.199219-4.894531 15.183594-13.128906 13.46875-24.882813-5.210937-69.390625-22.175781-62.996094-76.753906 0 0 7.582031-1.691406 18.105469-.285156 17.84375 2.390625 44.167969 13.648437 56.359375 57.085937zm0 0" fill="#8078bf"/><path d="m252.949219 234.90625c-17.855469-2.378906-44.191407-13.644531-56.386719-57.082031 22.019531 5.886719 52.585938 20.59375 56.386719 57.082031zm0 0" fill="#958fca"/><path d="m333.808594 314.957031c-22.027344-5.898437-52.570313-20.609375-56.359375-57.085937 17.84375 2.390625 44.167969 13.648437 56.359375 57.085937zm0 0" fill="#958fca"/><path d="m310.632812 300.738281-43.785156-43.789062 43.09375-43.09375c2.988282-2.988281 2.988282-7.832031 0-10.816407-2.984375-2.988281-7.828125-2.988281-10.816406 0l-43.789062 43.785157-43.09375-43.09375c-2.984376-2.988281-7.828126-2.988281-10.816407 0-2.988281 2.984375-2.988281 7.828125 0 10.816406l43.789063 43.789063-43.097656 43.09375c-2.988282 2.984374-2.988282 7.828124 0 10.816406 1.492187 1.496094 3.453124 2.242187 5.40625 2.242187 1.957031 0 3.917968-.75 5.410156-2.242187l43.785156-43.789063 43.097656 43.097657c1.492188 1.492187 3.449219 2.238281 5.40625 2.238281 1.957032 0 3.914063-.746094 5.410156-2.238281 2.988282-2.988282 2.988282-7.832032 0-10.816407zm0 0" fill="#51489a"/><path d="m278.464844 233.125c8.300781 8.300781 11.027344 20.054688 8.210937 30.632812-1.386719 5.199219-4.128906 10.128907-8.210937 14.214844-12.386719 12.382813-32.476563 12.394532-44.859375.011719-12.382813-12.386719-12.382813-32.484375 0-44.871094 4.082031-4.082031 9.011719-6.824219 14.222656-8.199219 10.570313-2.832031 22.332031-.089843 30.636719 8.210938zm0 0" fill="#aba6d5"/><path d="m278.464844 233.125c8.300781 8.300781 11.027344 20.054688 8.210937 30.632812-10.582031 2.820313-22.335937.089844-30.636719-8.210937-8.300781-8.300781-11.042968-20.066406-8.210937-30.632813 10.570313-2.832031 22.332031-.089843 30.636719 8.210938zm0 0" fill="#c1bde0"/></svg>