<svg height="511pt" viewBox="-1 0 511 511.99902" width="511pt" xmlns="http://www.w3.org/2000/svg"><path d="m248.457031 72.328125s1.472657 6.597656.246094 15.761719c-2.082031 15.539062-11.886719 38.460937-49.714844 49.089844-1.820312.519531-3.703125.988281-5.648437 1.441406-7.140625 1.660156-13.210938-4.269532-11.707032-11.429688 4.515626-21.667968 19.289063-60.421875 66.824219-54.863281zm0 0" fill="#44bfd7"/><path d="m319.816406 11.710938c-.390625 1.867187-.863281 3.871093-1.421875 5.960937-5.128906 19.191406-17.933593 45.789063-49.695312 49.085937-4.792969.511719-10.007813.484376-15.707031-.183593 0 0-11.304688-50.90625 55.097656-66.296875 7.152344-1.648438 13.222656 4.261718 11.726562 11.433594zm0 0" fill="#44bfd7"/><path d="m248.703125 88.089844c-2.082031 15.539062-11.886719 38.460937-49.714844 49.085937 5.132813-19.160156 17.941407-45.773437 49.714844-49.085937zm0 0" fill="#60c8dd"/><path d="m318.394531 17.671875c-5.128906 19.191406-17.933593 45.785156-49.695312 49.085937 2.082031-15.535156 11.882812-38.460937 49.695312-49.085937zm0 0" fill="#60c8dd"/><path d="m248.035156 51.476562c.5 4.78125.480469 10.007813-.1875 15.703126 0 0-50.902344 11.304687-66.304687-55.105469-1.648438-7.148438 4.273437-13.210938 11.441406-11.71875 1.867187.394531 3.859375.855469 5.953125 1.417969 19.171875 5.125 45.789062 17.929687 49.097656 49.703124zm0 0" fill="#44bfd7"/><path d="m318.445312 121.179688c.519532 1.816406.988282 3.703124 1.441407 5.644531 1.660156 7.140625-4.261719 13.222656-11.429688 11.726562-21.667969-4.535156-60.421875-19.308593-54.855469-66.832031 0 0 6.601563-1.472656 15.765626-.246094 15.535156 2.082032 38.460937 11.882813 49.078124 49.707032zm0 0" fill="#44bfd7"/><path d="m248.035156 51.476562c-15.546875-2.074218-38.480468-11.882812-49.097656-49.707031 19.171875 5.128907 45.789062 17.933594 49.097656 49.707031zm0 0" fill="#60c8dd"/><path d="m318.445312 121.179688c-19.183593-5.136719-45.777343-17.945313-49.078124-49.707032 15.535156 2.082032 38.460937 11.882813 49.078124 49.707032zm0 0" fill="#60c8dd"/><path d="m298.261719 108.796875-38.128907-38.128906 37.527344-37.523438c2.601563-2.601562 2.601563-6.820312 0-9.417969-2.601562-2.601562-6.816406-2.601562-9.417968 0l-38.128907 38.128907-37.523437-37.527344c-2.601563-2.601563-6.816406-2.601563-9.417969 0s-2.601563 6.816406 0 9.417969l38.125 38.128906-37.523437 37.523438c-2.601563 2.601562-2.601563 6.820312 0 9.417968 1.300781 1.300782 3.003906 1.953125 4.707031 1.953125 1.707031 0 3.410156-.652343 4.710937-1.953125l38.128906-38.125 37.523438 37.523438c1.300781 1.300781 3.003906 1.953125 4.710938 1.953125 1.703124 0 3.40625-.652344 4.707031-1.953125 2.601562-2.601563 2.601562-6.816406 0-9.417969zm0 0" fill="#def4f8"/><path d="m270.25 49.925781c7.230469 7.226563 9.605469 17.460938 7.152344 26.675781-1.210938 4.527344-3.597656 8.816407-7.152344 12.375-10.785156 10.78125-28.273438 10.792969-39.058594.007813s-10.785156-28.285156 0-39.070313c3.554688-3.554687 7.847656-5.941406 12.382813-7.140624 9.203125-2.464844 19.449219-.078126 26.675781 7.152343zm0 0" fill="#269ab1"/><path d="m270.25 49.925781c7.230469 7.226563 9.605469 17.460938 7.152344 26.675781-9.214844 2.453126-19.449219.078126-26.675782-7.152343-7.230468-7.226563-9.617187-17.472657-7.148437-26.675781 9.199219-2.464844 19.445313-.078126 26.671875 7.152343zm0 0" fill="#2cb3cd"/><path d="m93.160156 170.21875s6.453125 2.023438 13.773438 7.671875c12.414062 9.570313 27.367187 29.519531 17.652344 67.597656-.457032 1.832031-.992188 3.703125-1.574219 5.613281-2.132813 7.011719-10.304688 9.300782-15.753907 4.421876-16.503906-14.746094-42.679687-46.917969-14.097656-85.304688zm0 0" fill="#44bfd7"/><path d="m76.34375 78.109375c1.421875 1.273437 2.917969 2.683594 4.449219 4.214844 14.058593 14.035156 30.6875 38.425781 17.664062 67.582031-1.953125 4.40625-4.585937 8.90625-8.011719 13.507812 0 0-49.738281-15.664062-29.863281-80.863281 2.144531-7.015625 10.300781-9.316406 15.761719-4.441406zm0 0" fill="#44bfd7"/><path d="m106.933594 177.890625c12.414062 9.570313 27.367187 29.519531 17.652344 67.597656-14.023438-14.03125-30.671876-38.429687-17.652344-67.597656zm0 0" fill="#60c8dd"/><path d="m80.796875 82.324219c14.054687 14.035156 30.683594 38.425781 17.660156 67.582031-12.414062-9.570312-27.363281-29.523438-17.660156-67.582031zm0 0" fill="#60c8dd"/><path d="m74.890625 160.160156c4.394531 1.960938 8.90625 4.589844 13.507813 8.015625 0 0-15.664063 49.734375-80.875 29.867188-7.019532-2.148438-9.304688-10.308594-4.425782-15.769531 1.269532-1.421876 2.667969-2.914063 4.199219-4.449219 14.023437-14.039063 38.425781-30.683594 67.59375-17.664063zm0 0" fill="#44bfd7"/><path d="m170.457031 134.035156c1.835938.457032 3.703125.992188 5.613281 1.574219 7.015626 2.132813 9.316407 10.300781 4.441407 15.761719-14.765625 16.496094-46.933594 42.671875-85.308594 14.089844 0 0 2.027344-6.453126 7.671875-13.777344 9.570312-12.414063 29.519531-27.363282 67.582031-17.648438zm0 0" fill="#44bfd7"/><path d="m74.890625 160.160156c-9.566406 12.429688-29.53125 27.382813-67.59375 17.667969 14.023437-14.042969 38.425781-30.6875 67.59375-17.667969zm0 0" fill="#60c8dd"/><path d="m170.457031 134.035156c-14.035156 14.042969-38.425781 30.671875-67.582031 17.648438 9.570312-12.414063 29.519531-27.363282 67.582031-17.648438zm0 0" fill="#60c8dd"/><path d="m149.644531 145.320312-52.082031 13.957032-13.734375-51.261719c-.953125-3.550781-4.605469-5.660156-8.15625-4.707031-3.554687.949218-5.664063 4.601562-4.710937 8.15625l13.957031 52.082031-51.261719 13.738281c-3.550781.949219-5.660156 4.601563-4.707031 8.15625.953125 3.550782 4.601562 5.660156 8.15625 4.707032l52.082031-13.957032 13.734375 51.261719c.953125 3.554687 4.605469 5.660156 8.160156 4.710937 1.773438-.476562 3.191407-1.628906 4.042969-3.105468.851562-1.472656 1.140625-3.277344.664062-5.050782l-13.957031-52.085937 51.261719-13.734375c1.777344-.476562 3.191406-1.625 4.042969-3.101562.855469-1.476563 1.140625-3.277344.667969-5.054688-.953126-3.554688-4.605469-5.660156-8.160157-4.710938zm0 0" fill="#def4f8"/><path d="m84.65625 140.144531c9.875-2.644531 19.925781.414063 26.675781 7.144531 3.316407 3.3125 5.839844 7.523438 7.140625 12.378907 3.949219 14.730469-4.789062 29.886719-19.519531 33.832031-14.730469 3.949219-29.886719-4.804688-33.835937-19.535156-1.300782-4.855469-1.222657-9.765625.007812-14.296875 2.46875-9.199219 9.65625-16.878907 19.53125-19.523438zm0 0" fill="#269ab1"/><path d="m84.65625 140.144531c9.875-2.644531 19.925781.414063 26.675781 7.144531-2.480469 9.207032-9.65625 16.882813-19.53125 19.527344-9.875 2.644532-19.9375-.410156-26.675781-7.144531 2.46875-9.203125 9.65625-16.882813 19.53125-19.527344zm0 0" fill="#2cb3cd"/><path d="m99.960938 353.527344s4.980468-4.578125 13.53125-8.09375c14.496093-5.964844 39.246093-8.941406 67.367187 18.511718 1.359375 1.3125 2.710937 2.707032 4.074219 4.167969 5.007812 5.351563 2.90625 13.574219-4.046875 15.855469-21.023438 6.917969-61.96875 13.503906-80.925781-30.441406zm0 0" fill="#44bfd7"/><path d="m11.785156 322.035156c1.8125-.59375 3.78125-1.1875 5.875-1.75 19.183594-5.15625 48.621094-7.359375 67.359375 18.496094 2.839844 3.894531 5.421875 8.425781 7.691407 13.691406 0 0-38.433594 35.242188-84.960938-14.566406-5.003906-5.367188-2.921875-13.578125 4.035156-15.871094zm0 0" fill="#44bfd7"/><path d="m113.492188 345.433594c14.496093-5.964844 39.246093-8.941406 67.367187 18.511718-19.160156 5.132813-48.617187 7.347657-67.367187-18.511718zm0 0" fill="#60c8dd"/><path d="m17.660156 320.289062c19.183594-5.15625 48.621094-7.363281 67.359375 18.492188-14.496093 5.964844-39.25 8.9375-67.359375-18.492188zm0 0" fill="#60c8dd"/><path d="m82.117188 364.316406c3.890624-2.824218 8.425781-5.417968 13.691406-7.6875 0 0 35.242187 38.429688-14.570313 84.972656-5.367187 5.003907-13.578125 2.90625-15.867187-4.046874-.59375-1.8125-1.191406-3.769532-1.753906-5.863282-5.144532-19.167968-7.359376-48.621094 18.5-67.375zm0 0" fill="#44bfd7"/><path d="m107.277344 268.492188c1.3125-1.359376 2.707031-2.710938 4.167968-4.074219 5.351563-5.007813 13.578126-2.921875 15.871094 4.035156 6.902344 21.03125 13.488282 61.980469-30.453125 80.921875 0 0-4.578125-4.980469-8.09375-13.53125-5.96875-14.496094-8.941406-39.246094 18.507813-67.351562zm0 0" fill="#44bfd7"/><path d="m82.117188 364.316406c5.976562 14.503906 8.949218 39.269532-18.496094 67.375-5.148438-19.167968-7.363282-48.621094 18.496094-67.375zm0 0" fill="#60c8dd"/><path d="m107.277344 268.492188c5.140625 19.179687 7.347656 48.613281-18.507813 67.351562-5.96875-14.496094-8.941406-39.246094 18.507813-67.351562zm0 0" fill="#60c8dd"/><path d="m106.644531 292.160156-13.957031 52.082032-51.261719-13.734376c-3.550781-.953124-7.203125 1.15625-8.15625 4.707032-.953125 3.554687 1.15625 7.207031 4.710938 8.15625l52.082031 13.957031-13.734375 51.261719c-.953125 3.550781 1.15625 7.203125 4.707031 8.15625 3.554688.953125 7.207032-1.15625 8.15625-4.710938l13.957032-52.082031 51.261718 13.734375c3.550782.953125 7.203125-1.15625 8.15625-4.707031.476563-1.777344.1875-3.578125-.664062-5.054688-.851563-1.476562-2.269532-2.625-4.046875-3.101562l-52.082031-13.957031 13.734374-51.261719c.476563-1.777344.1875-3.578125-.664062-5.054688-.851562-1.472656-2.265625-2.625-4.042969-3.101562-3.554687-.953125-7.207031 1.15625-8.15625 4.710937zm0 0" fill="#def4f8"/><path d="m69.664062 345.855469c2.648438-9.875 10.320313-17.050781 19.527344-19.53125 4.523438-1.21875 9.433594-1.296875 14.292969.007812 14.730469 3.945313 23.484375 19.089844 19.535156 33.820313-3.945312 14.730468-19.101562 23.480468-33.832031 19.535156-4.859375-1.300781-9.070312-3.824219-12.378906-7.15625-6.734375-6.738281-9.789063-16.800781-7.144532-26.675781zm0 0" fill="#269ab1"/><path d="m69.664062 345.855469c2.648438-9.875 10.320313-17.050781 19.527344-19.53125 6.730469 6.75 9.789063 16.800781 7.144532 26.675781-2.644532 9.875-10.324219 17.0625-19.527344 19.53125-6.734375-6.738281-9.789063-16.800781-7.144532-26.675781zm0 0" fill="#2cb3cd"/><path d="m262.53125 439.671875s-1.472656-6.601563-.246094-15.761719c2.085938-15.539062 11.886719-38.460937 49.71875-49.089844 1.816406-.519531 3.703125-.992187 5.644532-1.441406 7.140624-1.660156 13.210937 4.269532 11.707031 11.429688-4.515625 21.667968-19.289063 60.421875-66.824219 54.863281zm0 0" fill="#44bfd7"/><path d="m191.171875 500.289062c.390625-1.867187.863281-3.871093 1.421875-5.960937 5.128906-19.191406 17.933594-45.789063 49.699219-49.089844 4.792969-.507812 10.007812-.480469 15.703125.1875 0 0 11.304687 50.902344-55.097656 66.292969-7.152344 1.652344-13.222657-4.261719-11.726563-11.429688zm0 0" fill="#44bfd7"/><path d="m262.285156 423.910156c2.085938-15.539062 11.886719-38.460937 49.71875-49.089844-5.136718 19.164063-17.945312 45.777344-49.71875 49.089844zm0 0" fill="#60c8dd"/><path d="m192.59375 494.328125c5.128906-19.191406 17.933594-45.789063 49.699219-49.089844-2.085938 15.539063-11.886719 38.460938-49.699219 49.089844zm0 0" fill="#60c8dd"/><path d="m262.953125 460.523438c-.5-4.785157-.480469-10.007813.1875-15.707032 0 0 50.902344-11.304687 66.304687 55.109375 1.648438 7.148438-4.273437 13.210938-11.441406 11.714844-1.867187-.390625-3.859375-.855469-5.953125-1.414063-19.171875-5.125-45.785156-17.933593-49.097656-49.703124zm0 0" fill="#44bfd7"/><path d="m192.546875 390.820312c-.523437-1.816406-.992187-3.703124-1.445313-5.648437-1.660156-7.140625 4.261719-13.21875 11.433594-11.726563 21.664063 4.539063 60.417969 19.308594 54.851563 66.835938 0 0-6.601563 1.472656-15.765625.246094-15.535156-2.082032-38.457032-11.886719-49.074219-49.707032zm0 0" fill="#44bfd7"/><path d="m262.953125 460.523438c15.550781 2.070312 38.480469 11.882812 49.097656 49.703124-19.171875-5.125-45.785156-17.933593-49.097656-49.703124zm0 0" fill="#60c8dd"/><path d="m192.546875 390.820312c19.179687 5.136719 45.777344 17.945313 49.074219 49.707032-15.535156-2.082032-38.457032-11.886719-49.074219-49.707032zm0 0" fill="#60c8dd"/><path d="m212.726562 403.203125 38.128907 38.128906-37.527344 37.523438c-2.601563 2.601562-2.601563 6.816406 0 9.417969 2.601563 2.601562 6.816406 2.601562 9.417969 0l38.128906-38.128907 37.527344 37.527344c2.597656 2.601563 6.816406 2.601563 9.417968 0 2.597657-2.601563 2.597657-6.816406 0-9.417969l-38.128906-38.128906 37.523438-37.523438c2.601562-2.601562 2.601562-6.820312 0-9.417968-1.300782-1.300782-3.003906-1.953125-4.707032-1.953125-1.703124 0-3.410156.652343-4.710937 1.953125l-38.128906 38.125-37.523438-37.523438c-1.300781-1.300781-3.003906-1.953125-4.710937-1.953125-1.703125 0-3.40625.652344-4.707032 1.953125-2.601562 2.601563-2.601562 6.816406 0 9.417969zm0 0" fill="#def4f8"/><path d="m240.738281 462.074219c-7.226562-7.230469-9.605469-17.464844-7.148437-26.675781 1.207031-4.527344 3.59375-8.820313 7.148437-12.375 10.785157-10.785157 28.277344-10.792969 39.058594-.007813 10.785156 10.78125 10.785156 28.285156 0 39.066406-3.554687 3.558594-7.847656 5.941407-12.382813 7.140625-9.203124 2.464844-19.445312.078125-26.675781-7.148437zm0 0" fill="#269ab1"/><path d="m240.738281 462.074219c-7.226562-7.230469-9.605469-17.464844-7.148437-26.675781 9.210937-2.453126 19.445312-.078126 26.671875 7.148437 7.230469 7.230469 9.617187 17.472656 7.152343 26.675781-9.203124 2.464844-19.445312.078125-26.675781-7.148437zm0 0" fill="#2cb3cd"/><path d="m418.105469 341.882812s-6.453125-2.023437-13.773438-7.667968c-12.414062-9.570313-27.367187-29.523438-17.652343-67.597656.457031-1.835938.992187-3.703126 1.574218-5.613282 2.132813-7.011718 10.304688-9.304687 15.753906-4.421875 16.503907 14.746094 42.679688 46.914063 14.097657 85.300781zm0 0" fill="#44bfd7"/><path d="m434.921875 433.992188c-1.421875-1.273438-2.917969-2.683594-4.453125-4.214844-14.054688-14.035156-30.683594-38.421875-17.660156-67.578125 1.953125-4.40625 4.585937-8.910157 8.011718-13.507813 0 0 49.738282 15.660156 29.863282 80.863282-2.144532 7.015624-10.300782 9.316406-15.761719 4.4375zm0 0" fill="#44bfd7"/><path d="m404.332031 334.214844c-12.414062-9.570313-27.367187-29.523438-17.652343-67.597656 14.027343 14.027343 30.671874 38.425781 17.652343 67.597656zm0 0" fill="#60c8dd"/><path d="m430.46875 429.777344c-14.054688-14.035156-30.683594-38.421875-17.660156-67.578125 12.414062 9.570312 27.363281 29.519531 17.660156 67.578125zm0 0" fill="#60c8dd"/><path d="m436.375 351.941406c-4.394531-1.957031-8.910156-4.585937-13.507812-8.011718 0 0 15.664062-49.738282 80.878906-29.867188 7.015625 2.144531 9.300781 10.304688 4.425781 15.765625-1.273437 1.421875-2.671875 2.917969-4.203125 4.449219-14.027344 14.039062-38.425781 30.6875-67.59375 17.664062zm0 0" fill="#44bfd7"/><path d="m340.804688 378.070312c-1.832032-.460937-3.703126-.996093-5.609376-1.574218-7.015624-2.132813-9.320312-10.300782-4.441406-15.765625 14.761719-16.492188 46.933594-42.671875 85.304688-14.085938 0 0-2.023438 6.453125-7.667969 13.773438-9.570313 12.414062-29.523437 27.367187-67.585937 17.652343zm0 0" fill="#44bfd7"/><path d="m436.375 351.941406c9.566406-12.425781 29.53125-27.378906 67.59375-17.664062-14.027344 14.039062-38.425781 30.6875-67.59375 17.664062zm0 0" fill="#60c8dd"/><path d="m340.804688 378.070312c14.039062-14.042968 38.429687-30.675781 67.585937-17.652343-9.570313 12.414062-29.523437 27.367187-67.585937 17.652343zm0 0" fill="#60c8dd"/><path d="m361.617188 366.78125 52.085937-13.953125 13.734375 51.257813c.953125 3.554687 4.601562 5.664062 8.15625 4.710937s5.660156-4.605469 4.710938-8.15625l-13.957032-52.085937 51.261719-13.734376c3.550781-.949218 5.660156-4.601562 4.707031-8.15625-.953125-3.550781-4.601562-5.660156-8.15625-4.707031l-52.085937 13.953125-13.734375-51.257812c-.949219-3.554688-4.601563-5.664063-8.15625-4.710938-1.777344.476563-3.191406 1.625-4.042969 3.101563-.851563 1.476562-1.140625 3.277343-.664063 5.054687l13.953126 52.082032-51.257813 13.734374c-1.777344.476563-3.191406 1.628907-4.042969 3.105469-.855468 1.476563-1.144531 3.277344-.667968 5.050781.953124 3.554688 4.605468 5.664063 8.15625 4.710938zm0 0" fill="#def4f8"/><path d="m426.609375 371.957031c-9.875 2.648438-19.925781-.410156-26.675781-7.144531-3.316406-3.308594-5.839844-7.523438-7.140625-12.378906-3.949219-14.730469 4.789062-29.882813 19.519531-33.832032 14.730469-3.945312 29.886719 4.804688 33.835938 19.535157 1.300781 4.855469 1.222656 9.765625-.007813 14.296875-2.46875 9.203125-9.65625 16.878906-19.53125 19.523437zm0 0" fill="#269ab1"/><path d="m426.609375 371.957031c-9.875 2.648438-19.925781-.410156-26.675781-7.144531 2.480468-9.207031 9.65625-16.878906 19.53125-19.527344 9.871094-2.644531 19.9375.410156 26.675781 7.148438-2.46875 9.203125-9.65625 16.878906-19.53125 19.523437zm0 0" fill="#2cb3cd"/><path d="m411.203125 157.734375s-4.976563 4.578125-13.527344 8.097656c-14.496093 5.964844-39.25 8.9375-67.367187-18.511719-1.359375-1.3125-2.710938-2.710937-4.074219-4.167968-5.007813-5.355469-2.90625-13.578125 4.046875-15.855469 21.019531-6.921875 61.96875-13.507813 80.921875 30.4375zm0 0" fill="#44bfd7"/><path d="m499.382812 189.226562c-1.8125.59375-3.785156 1.1875-5.875 1.75-19.183593 5.15625-48.621093 7.359376-67.359374-18.496093-2.839844-3.894531-5.421876-8.425781-7.691407-13.691407 0 0 38.433594-35.242187 84.960938 14.566407 5.003906 5.367187 2.917969 13.582031-4.035157 15.871093zm0 0" fill="#44bfd7"/><path d="m397.675781 165.832031c-14.496093 5.964844-39.25 8.9375-67.367187-18.511719 19.160156-5.132812 48.613281-7.351562 67.367187 18.511719zm0 0" fill="#60c8dd"/><path d="m493.507812 190.976562c-19.183593 5.15625-48.621093 7.359376-67.359374-18.496093 14.496093-5.964844 39.25-8.9375 67.359374 18.496093zm0 0" fill="#60c8dd"/><path d="m429.050781 146.945312c-3.890625 2.824219-8.425781 5.417969-13.695312 7.6875 0 0-35.238281-38.429687 14.574219-84.972656 5.367187-5.003906 13.578124-2.90625 15.867187 4.050782.59375 1.8125 1.191406 3.769531 1.753906 5.859374 5.144531 19.167969 7.359375 48.621094-18.5 67.375zm0 0" fill="#44bfd7"/><path d="m403.890625 242.769531c-1.3125 1.359375-2.710937 2.710938-4.167969 4.074219-5.351562 5.007812-13.578125 2.921875-15.871094-4.035156-6.902343-21.03125-13.488281-61.980469 30.453126-80.921875 0 0 4.578124 4.980469 8.09375 13.53125 5.964843 14.496093 8.941406 39.25-18.507813 67.351562zm0 0" fill="#44bfd7"/><path d="m429.050781 146.945312c-5.980469-14.5-8.949219-39.265624 18.496094-67.371093 5.148437 19.164062 7.363281 48.617187-18.496094 67.371093zm0 0" fill="#60c8dd"/><path d="m403.890625 242.769531c-5.140625-19.175781-7.347656-48.613281 18.507813-67.351562 5.964843 14.496093 8.941406 39.25-18.507813 67.351562zm0 0" fill="#60c8dd"/><path d="m404.523438 219.105469 13.957031-52.085938 51.261719 13.734375c3.550781.953125 7.203124-1.15625 8.15625-4.707031.949218-3.550781-1.15625-7.203125-4.710938-8.15625l-52.082031-13.957031 13.734375-51.257813c.953125-3.554687-1.15625-7.207031-4.707032-8.160156-3.554687-.949219-7.207031 1.160156-8.160156 4.710937l-13.953125 52.082032-51.261719-13.734375c-3.550781-.953125-7.203124 1.15625-8.15625 4.710937-.476562 1.773438-.1875 3.574219.664063 5.050782.851563 1.476562 2.269531 2.628906 4.046875 3.101562l52.082031 13.957031-13.734375 51.261719c-.476562 1.773438-.1875 3.578125.664063 5.050781.851562 1.476563 2.265625 2.628907 4.042969 3.105469 3.554687.953125 7.203124-1.15625 8.15625-4.707031zm0 0" fill="#def4f8"/><path d="m441.503906 165.40625c-2.648437 9.875-10.320312 17.050781-19.527344 19.53125-4.523437 1.21875-9.4375 1.296875-14.292968-.003906-14.730469-3.949219-23.484375-19.089844-19.535156-33.824219 3.945312-14.730469 19.101562-23.480469 33.832031-19.53125 4.859375 1.300781 9.070312 3.824219 12.378906 7.152344 6.734375 6.738281 9.789063 16.804687 7.144531 26.675781zm0 0" fill="#269ab1"/><path d="m441.503906 165.40625c-2.648437 9.875-10.320312 17.050781-19.527344 19.53125-6.734374-6.75-9.792968-16.800781-7.144531-26.675781 2.644531-9.875 10.324219-17.0625 19.527344-19.53125 6.734375 6.738281 9.789063 16.804687 7.144531 26.675781zm0 0" fill="#2cb3cd"/></svg>