<svg height="511pt" viewBox="-39 0 511 511.99926" width="511pt" xmlns="http://www.w3.org/2000/svg"><path d="m165.921875 9.179688c-5.113281 2.875-10.9375 6.457031-17.347656 10.886718-33.417969 23.070313-82.570313 68.976563-127.324219 156.78125-4.417969 8.664063-8.792969 17.734375-13.101562 27.226563-19.4375-106.347657 48.46875-192.070313 154.753906-204.0390628 5.324218-.6015622 7.683594 6.5117188 3.019531 9.1445318zm0 0" fill="#2cb3cd"/><path d="m148.574219 20.066406c-33.417969 23.070313-82.570313 68.976563-127.324219 156.78125 2.367188-76.507812 52.144531-136.730468 127.324219-156.78125zm0 0" fill="#60c8dd"/><path d="m203.738281 181.847656c-17.386719 18.171875-75.785156 63.90625-195.589843 22.226563 7.683593-4.5 16.164062-8.664063 25.214843-12.441407 47.164063-19.691406 109.855469-28.949218 156.394531-21.203124 3.878907.644531 7.632813 1.398437 11.265626 2.285156 4.121093 1.011718 5.640624 6.074218 2.714843 9.132812zm0 0" fill="#2cb3cd"/><path d="m189.757812 170.429688c-23.132812 18.304687-72.191406 42.671874-156.394531 21.203124 47.164063-19.691406 109.855469-28.949218 156.394531-21.203124zm0 0" fill="#60c8dd"/><path d="m425.308594 496.695312h-57.050782c15.085938-9.457031 31.824219-24.203124 42.539063-46.511718 1.691406-3.519532.628906-7.875-2.667969-9.964844-3.953125-2.507812-9.078125-.949219-11.035156 3.144531-18.425781 38.578125-59.308594 51.554688-65.539062 53.332031-21.582032-.058593-23.734376.136719-33.414063-.199218 9.851563-3.714844 19.882813-9.074219 29.390625-16.722656 3.042969-2.453126 3.96875-6.847657 1.886719-10.15625-2.492188-3.964844-7.785157-4.757813-11.3125-1.90625-33.117188 26.78125-75.410157 21.03125-82.046875 19.917968-20.089844-5.128906-39.347656-12.355468-57.542969-21.410156 19.550781 3.054688 39.023437 2.296875 57.941406-2.628906 3.796875-.988282 6.472657-4.59375 5.945313-8.480469-.632813-4.644531-5.140625-7.558594-9.535156-6.402344-60.496094 15.898438-113.292969-21.410156-113.996094-21.917969-.023438-.011718-.042969-.023437-.066406-.039062-62.320313-53.148438-102.136719-131.929688-102.96875-219.867188-.007813-.671874.152343-1.34375.472656-1.933593 7.101562-13.183594 11.664062-10.914063 123.5625-80.726563 28.273437-17.636718 41.730468-43.34375 47.234375-57.097656 18.359375-45.859375 74.136719-57.347656 112.109375-31.84375 28.058594 18.847656 35.554687 57.003906 16.710937 85.066406-14.640625 21.792969-44.125 27.59375-65.929687 12.949219-16.695313-11.214844-21.15625-33.921875-9.941406-50.617187 11.785156-17.546876 37.820312-15.113282 45.402343.570312-12.796875-2.515625-24.132812 8.761719-21.609375 21.605469 3.3125 16.859375 26.15625 20.433593 34.316406 5.074219 9.15625-16.089844 4.59375-36.882813-11.207031-47.492188-19.664062-13.210938-46.402343-7.957031-59.609375 11.707031-15.917968 23.703125-9.585937 55.9375 14.113282 71.859375 28.753906 19.3125 67.859374 11.632813 87.171874-17.121094 23.550782-35.066406 14.183594-82.753906-20.882812-106.304687-27.277344-18.320313-62.703125-20.980469-92.453125-6.945313-19.132813 9.03125-34.191406 25.296876-42.398437 45.804688-4.8125 12.015625-16.550782 34.46875-41.128907 49.800781-30.476562 19.011719-87.746093 53.714844-110.953125 67.753907-11.050781 6.679687-20.316406 19.511718-20.316406 25.078124 0 170.183594 137.722656 307.929688 307.929688 307.929688h117.199218c4.304688 0 7.777344-3.554688 7.648438-7.886719-.125-4.1875-3.777344-7.417969-7.96875-7.417969zm0 0" fill="#9bcf1b"/></svg>