<svg height="512pt" viewBox="-32 0 512 512.00083" width="512pt" xmlns="http://www.w3.org/2000/svg"><path d="m326.253906 76.902344c-1.800781-21.496094-20.65625-37.449219-42.160156-35.644532-27.730469 2.316407-40.527344 37.113282-20.191406 54.308594 17.671875 14.941406 43.828125 2.851563 41.980468-19.214844-.359374-4.285156-4.113281-7.457031-8.40625-7.113281-4.285156.359375-7.46875 4.125-7.109374 8.410157.375 4.515624-2.988282 8.496093-7.503907 8.875-11.847656.949218-17.886719-13.421876-9.183593-23.710938 10.9375-12.933594 35.394531-4.460938 37.054687 15.386719 1.441406 17.191406-11.375 32.34375-28.5625 33.785156-22.550781 1.875-42.441406-14.929687-44.332031-37.484375-.121094-1.449219-.113282 2.121094-.097656-13.175781 0-4.300781-3.484376-7.785157-7.785157-7.785157-4.296875 0-7.785156 3.484376-7.785156 7.785157.023437 8.566406 2.789063 26.847656-14.476563 41.332031-8.402343 7.046875-19.042968 10.410156-29.964843 9.445312-17.226563-1.507812-29.941407-16.664062-28.433594-33.890624 1.125-12.890626 12.53125-22.46875 25.425781-21.332032 9.457032.828125 16.476563 9.195313 15.648438 18.652344-.902344 10.308594-13.519532 14.511719-18.8125 8.203125-1.410156-1.683594-2.082032-3.8125-1.890625-6 .375-4.28125-2.792969-8.058594-7.078125-8.433594-15.167969-1.308593-10.09375 30.808594 13.1875 32.847657 25.808594 2.257812 40.066406-28.328126 22.5625-49.191407-19.835938-23.644531-61.625-9.566406-64.554688 23.894531-2.300781 26.285157 17.75 50.984376 47.625 50.984376 20.742188 0 38.910156-11.300782 48.683594-27.835938 10.933594 18.328125 31.46875 29.335938 53.378906 27.503906 25.742188-2.15625 44.933594-24.855468 42.78125-50.601562zm0 0" fill="#fc7979"/><path d="m242.761719 60.734375c-3.144531 4.640625-7.296875 9.445313-12.683594 14.398437 0 0-43.058594-33.53125-3.105469-73.796874 1.652344-1.660157 4.289063-1.796876 6.0625-.28125 1.472656 1.257812 3.320313 2.96875 5.285156 5.097656 9.363282 10.203125 21.125 30 4.441407 54.582031zm0 0" fill="#fd9a9a"/><path d="m242.761719 60.734375c-8.8125-10.609375-19.949219-30.851563-4.441407-54.582031 9.363282 10.203125 21.125 30 4.441407 54.582031zm0 0" fill="#fdbcbc"/><path d="m120.507812 79.125c-19.519531-9.191406-42.761718-.835938-51.953124 18.6875-11.855469 25.171875 11.878906 53.65625 36.941406 44.640625 21.777344-7.832031 24.382812-36.527344 4.347656-45.960937-3.890625-1.835938-8.511719-.167969-10.359375 3.726562-1.832031 3.886719-.164063 8.527344 3.722656 10.359375 4.101563 1.929687 5.863281 6.835937 3.933594 10.933594-5.097656 10.734375-20.5625 8.777343-25.121094-3.902344-5.730469-15.9375 13.832031-32.882813 31.855469-24.394531 15.601562 7.347656 22.320312 26.019531 14.972656 41.628906-9.652344 20.464844-34.148437 29.289062-54.625 19.648438-1.320312-.621094 1.777344 1.15625-11.460937-6.503907-3.722657-2.152343-8.484375-.875-10.632813 2.847657-2.152344 3.722656-.875 8.484374 2.847656 10.636718 7.429688 4.261719 24.640626 11.007813 28.554688 33.203125 1.902344 10.796875-.507812 21.695313-6.804688 30.671875-9.917968 14.164063-29.402343 17.597656-43.566406 7.679688-10.597656-7.421875-13.191406-22.089844-5.761718-32.683594 5.449218-7.777344 16.203124-9.675781 23.980468-4.226562 8.476563 5.933593 5.808594 18.960937-2.304687 20.394531-2.164063.378906-4.34375-.101563-6.140625-1.363281-3.523438-2.464844-8.375-1.609376-10.84375 1.910156-8.71875 12.484375 21.636718 24.148437 35.042968 5.007812 14.859376-21.222656-4.5-48.867187-31.320312-44.136718-30.394531 5.355468-39.101562 48.585937-11.585938 67.855468 21.613282 15.132813 53.027344 10.117188 67.964844-15.753906 10.375-17.964844 9.667969-39.347656.238282-56.078125 21.335937-.308594 41.140624-12.585937 50.507812-32.476563 11.003906-23.375.941406-51.34375-22.429688-62.351562zm0 0" fill="#fc7979"/><path d="m64.757812 143.34375c2.449219 5.046875 4.535157 11.042969 6.128907 18.1875 0 0-50.566407 20.523438-65.460938-34.210938-.613281-2.261718.585938-4.613281 2.789063-5.390624 1.824218-.648438 4.230468-1.394532 7.054687-2.027344 13.519531-3.007813 36.542969-3.292969 49.488281 23.441406zm0 0" fill="#fd9a9a"/><path d="m64.757812 143.34375c-13.59375 2.328125-36.691406 1.855469-49.488281-23.441406 13.519531-3.007813 36.542969-3.292969 49.488281 23.441406zm0 0" fill="#fdbcbc"/><path d="m19.152344 256.910156c-17.714844 12.308594-22.105469 36.613282-9.792969 54.335938 15.875 22.851562 52.40625 16.539062 57.132813-9.671875 4.101562-22.773438-19.445313-39.378907-37.632813-26.746094-3.53125 2.453125-4.398437 7.289063-1.953125 10.835937 2.449219 3.53125 7.304688 4.40625 10.835938 1.953126 3.71875-2.585938 8.851562-1.660157 11.433593 2.058593 6.746094 9.785157-2.675781 22.199219-15.9375 19.808594-16.667969-3.003906-21.5625-28.421875-5.203125-39.785156 14.167969-9.839844 33.699219-6.320313 43.539063 7.847656 12.898437 18.589844 8.292969 44.21875-10.296875 57.132813-1.195313.832031 1.894531-.960938-11.363282 6.671874-3.722656 2.148438-5 6.910157-2.847656 10.632813 2.148438 3.722656 6.910156 5 10.632813 2.851563 7.40625-4.304688 21.855469-15.835938 43.035156-8.128907 10.300781 3.753907 18.535156 11.289063 23.160156 21.230469 7.308594 15.671875.539063 34.261719-15.132812 41.570312-11.726563 5.46875-25.726563.378907-31.1875-11.355468-4.011719-8.605469-.273438-18.867188 8.332031-22.878906 9.375-4.371094 19.324219 4.453124 16.507812 12.191406-.75 2.0625-2.261718 3.710937-4.25 4.636718-3.898437 1.816407-5.582031 6.449219-3.765624 10.347657 6.449218 13.792969 31.726562-6.664063 21.851562-27.84375-10.945312-23.480469-44.566406-20.535157-53.882812 5.054687-10.554688 29.003906 22.53125 58.152344 52.972656 43.960938 23.914062-11.148438 35.277344-40.863282 20.339844-66.734375-10.375-17.96875-29.242188-28.050781-48.449219-28.246094 10.40625-18.632813 9.671875-41.921875-2.871094-59.976563-14.734375-21.21875-43.988281-26.492187-65.207031-11.753906zm0 0" fill="#fc7979"/><path d="m46.894531 337.300781c5.589844.402344 11.828125 1.59375 18.8125 3.785157 0 0-7.507812 54.054687-62.359375 39.585937-2.261718-.597656-3.699218-2.816406-3.2734372-5.109375.3515622-1.90625.9101562-4.363281 1.7734372-7.125 4.15625-13.210938 15.417969-33.292969 45.046875-31.136719zm0 0" fill="#fd9a9a"/><path d="m46.894531 337.300781c-4.78125 12.9375-16.742187 32.703125-45.046875 31.136719 4.15625-13.210938 15.417969-33.292969 45.046875-31.136719zm0 0" fill="#fdbcbc"/><path d="m122.980469 435.097656c1.796875 21.496094 20.65625 37.449219 42.160156 35.648438 27.726563-2.320313 40.523437-37.117188 20.1875-54.3125-17.671875-14.941406-43.828125-2.851563-41.980469 19.21875.359375 4.285156 4.113282 7.453125 8.410156 7.109375 4.28125-.359375 7.464844-4.125 7.109376-8.410157-.378907-4.515624 2.988281-8.496093 7.5-8.871093 11.847656-.953125 17.886718 13.417969 9.1875 23.707031-10.9375 12.933594-35.398438 4.460938-37.058594-15.386719-1.4375-17.191406 11.375-32.34375 28.5625-33.785156 22.550781-1.871094 42.445312 14.929687 44.332031 37.484375.121094 1.449219.113281-2.121094.097656 13.175781 0 4.300781 3.484375 7.785157 7.785157 7.785157 4.300781 0 7.785156-3.484376 7.785156-7.785157-.023438-8.566406-2.789063-26.84375 14.480468-41.332031 8.398438-7.046875 19.039063-10.40625 29.960938-9.445312 17.226562 1.507812 29.945312 16.667968 28.4375 33.890624-1.128906 12.890626-12.535156 22.46875-25.425781 21.332032-9.460938-.828125-16.480469-9.195313-15.652344-18.652344.902344-10.308594 13.519531-14.511719 18.816406-8.203125 1.410157 1.683594 2.078125 3.8125 1.890625 6-.375 4.28125 2.789063 8.058594 7.074219 8.433594 15.171875 1.3125 10.09375-30.808594-13.1875-32.847657-25.808594-2.257812-40.066406 28.328126-22.5625 49.191407 19.839844 23.644531 61.628906 9.566406 64.554687-23.894531 2.304688-26.285157-17.75-50.980469-47.621093-50.980469-20.746094 0-38.914063 11.300781-48.683594 27.832031-10.933594-18.324219-31.472656-29.335938-53.378906-27.5-25.742188 2.15625-44.9375 24.851562-42.78125 50.597656zm0 0" fill="#fc7979"/><path d="m206.46875 451.265625c3.144531-4.640625 7.296875-9.445313 12.6875-14.398437 0 0 43.058594 33.53125 3.101562 73.796874-1.648437 1.660157-4.285156 1.796876-6.0625.28125-1.472656-1.257812-3.320312-2.96875-5.28125-5.097656-9.363281-10.203125-21.125-30-4.445312-54.582031zm0 0" fill="#fd9a9a"/><path d="m206.46875 451.265625c8.8125 10.609375 19.953125 30.851563 4.445312 54.582031-9.363281-10.203125-21.125-30-4.445312-54.582031zm0 0" fill="#fdbcbc"/><path d="m328.566406 433.078125c19.515625 9.191406 42.761719.835937 51.953125-18.691406 11.855469-25.171875-11.882812-53.652344-36.941406-44.640625-21.777344 7.835937-24.382813 36.53125-4.347656 45.964844 3.890625 1.832031 8.511719.167968 10.359375-3.726563 1.832031-3.890625.164062-8.527344-3.722656-10.359375-4.101563-1.929688-5.867188-6.835938-3.9375-10.933594 5.101562-10.734375 20.566406-8.78125 25.125 3.898438 5.730468 15.9375-13.832032 32.886718-31.855469 24.398437-15.605469-7.347656-22.320313-26.023437-14.972657-41.628906 9.652344-20.464844 34.148438-29.292969 54.625-19.648437 1.320313.621093-1.777343-1.15625 11.460938 6.503906 3.722656 2.148437 8.484375.875 10.632812-2.851563 2.152344-3.722656.875-8.484375-2.847656-10.632812-7.429687-4.261719-24.640625-11.007813-28.554687-33.203125-1.902344-10.800782.503906-21.695313 6.800781-30.675782 9.921875-14.160156 29.40625-17.59375 43.570312-7.679687 10.597657 7.425781 13.191407 22.09375 5.761719 32.6875-5.449219 7.777344-16.203125 9.671875-23.980469 4.226563-8.476562-5.9375-5.808593-18.964844 2.304688-20.394532 2.160156-.382812 4.339844.101563 6.140625 1.363282 3.519531 2.464843 8.375 1.609374 10.84375-1.914063 8.71875-12.480469-21.636719-24.144531-35.042969-5.003906-14.859375 21.222656 4.5 48.863281 31.320313 44.136719 30.394531-5.359376 39.097656-48.589844 11.582031-67.855469-21.609375-15.136719-53.023438-10.117188-67.960938 15.753906-10.375 17.964844-9.667968 39.347656-.238281 56.078125-21.339843.304688-41.140625 12.585938-50.507812 32.476562-11.003907 23.375-.941407 51.34375 22.429687 62.351563zm0 0" fill="#fc7979"/><path d="m384.3125 368.859375c-2.445312-5.046875-4.53125-11.042969-6.125-18.1875 0 0 50.566406-20.523437 65.460938 34.210937.613281 2.261719-.589844 4.613282-2.789063 5.390626-1.824219.648437-4.230469 1.394531-7.054687 2.027343-13.519532 3.007813-36.542969 3.292969-49.492188-23.441406zm0 0" fill="#fd9a9a"/><path d="m384.3125 368.859375c13.597656-2.328125 36.695312-1.855469 49.492188 23.441406-13.519532 3.007813-36.542969 3.292969-49.492188-23.441406zm0 0" fill="#fdbcbc"/><path d="m429.929688 255.015625c17.71875-12.308594 22.105468-36.613281 9.792968-54.335937-15.871094-22.851563-52.40625-16.539063-57.128906 9.671874-4.105469 22.773438 19.441406 39.378907 37.632812 26.746094 3.53125-2.453125 4.398438-7.289062 1.953126-10.835937-2.453126-3.53125-7.304688-4.40625-10.835938-1.953125-3.722656 2.585937-8.851562 1.660156-11.4375-2.058594-6.746094-9.785156 2.679688-22.199219 15.941406-19.808594 16.667969 3.003906 21.5625 28.421875 5.203125 39.785156-14.167969 9.839844-33.699219 6.320313-43.539062-7.847656-12.898438-18.589844-8.296875-44.21875 10.296875-57.132812 1.195312-.832032-1.894532.960937 11.359375-6.671875 3.726562-2.148438 5-6.910157 2.851562-10.632813-2.152343-3.722656-6.914062-5-10.636719-2.851562-7.402343 4.304687-21.855468 15.835937-43.03125 8.128906-10.304687-3.753906-18.535156-11.289062-23.164062-21.230469-7.304688-15.671875-.535156-34.261719 15.132812-41.570312 11.730469-5.46875 25.726563-.378907 31.1875 11.355469 4.011719 8.605468.277344 18.867187-8.328124 22.878906-9.378907 4.371094-19.324219-4.453125-16.507813-12.191406.75-2.0625 2.257813-3.710938 4.246094-4.636719 3.898437-1.816407 5.585937-6.449219 3.769531-10.347657-6.449219-13.792968-31.730469 6.664063-21.855469 27.847657 10.949219 23.476562 44.566407 20.53125 53.882813-5.058594 10.558594-29.003906-22.527344-58.152344-52.972656-43.960937-23.910157 11.148437-35.273438 40.863281-20.335938 66.738281 10.371094 17.964843 29.242188 28.046875 48.449219 28.242187-10.40625 18.632813-9.671875 41.921875 2.871093 59.980469 14.734376 21.214844 43.984376 26.488281 65.203126 11.75zm0 0" fill="#fc7979"/><path d="m402.1875 174.625c-5.589844-.402344-11.828125-1.59375-18.8125-3.785156 0 0 7.511719-54.054688 62.359375-39.585938 2.265625.597656 3.699219 2.816406 3.273437 5.109375-.351562 1.90625-.910156 4.363281-1.769531 7.125-4.15625 13.210938-15.421875 33.292969-45.050781 31.136719zm0 0" fill="#fd9a9a"/><path d="m402.1875 174.625c4.78125-12.9375 16.742188-32.703125 45.046875-31.136719-4.152344 13.210938-15.417969 33.292969-45.046875 31.136719zm0 0" fill="#fdbcbc"/></svg>