<svg height="512.00312pt" viewBox="0 0 512.00312 512.00312" width="512.00312pt" xmlns="http://www.w3.org/2000/svg"><path d="m229.777344 72.589844c-.734375 3.226562-1.707032 6.617187-2.945313 10.160156 0 0-.019531 0-.050781.011719-.445312.082031-3.472656.640625-8 .847656-11.382812.546875-32.148438-1.085937-44.28125-17.976563-2.886719-4.019531-5.285156-8.898437-6.957031-14.820312-2.421875-8.609375-3.296875-19.421875-1.882813-32.972656.019532-.257813.050782-.527344.082032-.796875.289062-2.667969 1.65625-4.953125 3.597656-6.492188 2.046875-1.621093 4.753906-2.417969 7.546875-1.984375.453125.074219.910156.144532 1.382812.226563 8.808594 1.480469 21.335938 4.664062 32.035157 11.445312 4.722656 2.996094 9.09375 6.6875 12.609374 11.253907 7.339844 9.46875 11.050782 22.691406 6.863282 41.097656zm0 0" fill="#ffa90b"/><path d="m226.832031 82.75s-.019531 0-.050781.011719c-20.941406-21.042969-45.511719-55.09375-57.441406-72.210938 2.046875-1.621093 4.753906-2.417969 7.546875-1.984375 21.582031 3.347656 69.820312 17.28125 49.945312 74.183594zm0 0" fill="#ffc14f"/><path d="m347.808594 131.582031c-19.101563 9.269531-42.945313 8.816407-59.464844 2.53125-24.578125-9.105469-48.953125-29.273437-69.5625-50.503906-6.296875-6.480469-12.238281-13.054687-17.730469-19.441406l-26.550781 1.464843c-2.886719-4.019531-5.285156-8.898437-6.957031-14.820312.691406-.25 1.445312-.402344 2.222656-.445312l19.039063-1.054688c-11.175782-14.066406-19.339844-25.832031-23.144532-31.472656.019532-.257813.050782-.527344.082032-.796875.289062-2.667969 1.65625-4.953125 3.597656-6.492188 2.046875-1.621093 4.753906-2.417969 7.546875-1.984375.453125.074219.910156.144532 1.382812.226563 3.703125 5.457031 12.601563 18.234375 24.777344 33.367187l7.257813-21.921875c4.722656 2.996094 9.09375 6.6875 12.609374 11.253907l-8.164062 24.664062c4.722656 5.4375 9.753906 10.976562 15.027344 16.433594 19.328125 20.003906 41.863281 38.804687 63.992187 47 13.71875 4.953125 32.445313 5.242187 47.269531-1.953125 3.855469-1.871094 8.484376-.269531 10.355469 3.585937 1.871094 3.847656.269531 8.488282-3.585937 10.359375zm0 0" fill="#c97e67"/><path d="m141.585938 110.277344c.976562 3.15625 1.832031 6.578125 2.527343 10.269531 0 0-.015625.011719-.039062.035156-.339844.292969-2.6875 2.292969-6.503907 4.734375-9.582031 6.164063-28.382812 15.132813-47.335937 6.574219-4.507813-2.039063-9.023437-5.066406-13.433594-9.359375-6.402343-6.246094-12.566406-15.171875-18.117187-27.613281-.109375-.234375-.21875-.484375-.324219-.730469-1.085937-2.457031-1.042969-5.117188-.132813-7.421875.960938-2.429687 2.910157-4.472656 5.542969-5.492187.429688-.164063.859375-.328126 1.3125-.496094 8.367188-3.121094 20.808594-6.628906 33.460938-6.105469 5.589843.234375 11.222656 1.242187 16.550781 3.441406 11.089844 4.53125 20.914062 14.125 26.492188 32.164063zm0 0" fill="#ffa90b"/><path d="m144.113281 120.546875s-.015625.011719-.039062.035156c-28.65625-7.753906-66.960938-24.957031-85.847657-33.816406.960938-2.429687 2.910157-4.472656 5.542969-5.492187 20.363281-7.890626 69.109375-19.941407 80.34375 39.273437zm0 0" fill="#ffc14f"/><path d="m273.300781 102.347656c-11.90625 17.578125-32.785156 29.109375-50.234375 31.925782-25.839844 4.402343-57.03125-.875-85.496094-8.957032-8.691406-2.464844-17.125-5.1875-25.074218-7.972656l-22.261719 14.546875c-4.507813-2.039063-9.023437-5.066406-13.433594-9.359375.472657-.558594 1.050781-1.070312 1.703125-1.496094l15.960938-10.429687c-16.714844-6.597657-29.664063-12.703125-35.78125-15.6875-.113282-.234375-.21875-.484375-.328125-.730469-1.082031-2.457031-1.042969-5.117188-.128907-7.421875.960938-2.429687 2.910157-4.472656 5.542969-5.492187.429688-.164063.859375-.328126 1.3125-.496094 5.933594 2.875 20.027344 9.492187 38.140625 16.507812l-4.679687-22.613281c5.589843.234375 11.222656 1.242187 16.550781 3.441406l5.257812 25.441407c6.8125 2.347656 13.941407 4.628906 21.234376 6.71875 26.738281 7.65625 55.65625 12.675781 78.917968 8.707031 14.355469-2.570313 30.722656-11.683594 39.960938-25.324219 2.402344-3.550781 7.214844-4.476562 10.761718-2.074219 3.542969 2.394531 4.476563 7.214844 2.074219 10.765625zm0 0" fill="#c97e67"/><path d="m84.050781 187.007812c2.425781 2.246094 4.875 4.78125 7.328125 7.628907 0 0-.011718.019531-.019531.050781-.148437.425781-1.179687 3.328125-3.265625 7.351562-5.214844 10.128907-17.011719 27.296876-37.707031 29.363282-4.925781.484375-10.347657.121094-16.316407-1.386719-8.664062-2.210937-18.46875-6.855469-29.496093-14.859375-.210938-.148438-.429688-.308594-.644531-.46875-2.167969-1.585938-3.460938-3.910156-3.824219-6.359375-.382813-2.585937.28125-5.328125 2.054687-7.527344.289063-.359375.578125-.71875.886719-1.089843 5.683594-6.886719 14.703125-16.144532 25.925781-22.019532 4.957032-2.589844 10.339844-4.53125 16.054688-5.289062 11.871094-1.621094 25.175781 1.773437 39.023437 14.605468zm0 0" fill="#ffa90b"/><path d="m91.378906 194.636719s-.011718.019531-.019531.050781c-28.695313 7.613281-70.464844 11.867188-91.253906 13.640625-.382813-2.585937.28125-5.328125 2.054687-7.527344 13.691406-17.015625 49.878906-51.828125 89.21875-6.164062zm0 0" fill="#ffc14f"/><path d="m194.15625 114.28125c-1.523438 21.179688-13.839844 41.605469-27.539062 52.765625-20.179688 16.734375-49.828126 27.761719-78.523438 34.992187-8.757812 2.210938-17.421875 4.074219-25.699219 5.632813l-12.007812 23.730469c-4.921875.484375-10.347657.121094-16.3125-1.386719.128906-.726563.375-1.457031.726562-2.148437l8.605469-17.015626c-17.769531 2.644532-32.039062 3.832032-38.828125 4.304688-.214844-.148438-.429687-.308594-.648437-.46875-2.164063-1.585938-3.460938-3.910156-3.824219-6.359375-.382813-2.585937.28125-5.328125 2.054687-7.527344.289063-.359375.578125-.71875.886719-1.089843 6.578125-.472657 22.09375-1.792969 41.285156-4.773438l-15.359375-17.242188c4.960938-2.59375 10.339844-4.535156 16.054688-5.292968l17.277344 19.402344c7.070312-1.371094 14.382812-2.960938 21.746093-4.796876 26.984375-6.742187 54.535157-16.855468 72.699219-31.921874 11.144531-9.402344 20.761719-25.480469 21.941406-41.910157.308594-4.277343 4.011719-7.484375 8.285156-7.179687 4.269532.304687 7.484376 4.011718 7.179688 8.285156zm0 0" fill="#c97e67"/><path d="m72.589844 282.226562c3.226562.730469 6.617187 1.703126 10.160156 2.945313 0 0 0 .019531.011719.050781.082031.445313.640625 3.472656.847656 8 .546875 11.378906-1.085937 32.144532-17.976563 44.28125-4.019531 2.882813-8.898437 5.28125-14.820312 6.957032-8.609375 2.417968-19.421875 3.296874-32.972656 1.878906-.257813-.019532-.527344-.050782-.796875-.082032-2.667969-.289062-4.953125-1.652343-6.492188-3.597656-1.621093-2.042968-2.417969-4.753906-1.984375-7.542968.074219-.457032.144532-.910157.226563-1.386719 1.480469-8.804688 4.664062-21.332031 11.445312-32.03125 2.996094-4.722657 6.6875-9.097657 11.253907-12.609375 9.46875-7.339844 22.691406-11.050782 41.097656-6.863282zm0 0" fill="#ffa90b"/><path d="m82.75 285.171875s0 .019531.011719.050781c-21.042969 20.941406-55.09375 45.511719-72.210938 57.4375-1.621093-2.042968-2.417969-4.753906-1.984375-7.542968 3.347656-21.582032 17.28125-69.824219 74.183594-49.945313zm0 0" fill="#ffc14f"/><path d="m131.582031 164.191406c9.269531 19.101563 8.816407 42.949219 2.53125 59.46875-9.105469 24.578125-29.273437 48.953125-50.503906 69.5625-6.480469 6.292969-13.054687 12.238282-19.441406 17.726563l1.464843 26.554687c-4.019531 2.882813-8.898437 5.28125-14.820312 6.957032-.25-.691407-.402344-1.449219-.445312-2.222657l-1.054688-19.039062c-14.066406 11.171875-25.832031 19.339843-31.472656 23.140625-.257813-.019532-.527344-.050782-.796875-.082032-2.667969-.289062-4.953125-1.652343-6.492188-3.597656-1.621093-2.042968-2.417969-4.753906-1.984375-7.542968.074219-.457032.144532-.910157.226563-1.386719 5.457031-3.699219 18.234375-12.597657 33.367187-24.777344l-21.921875-7.253906c2.996094-4.722657 6.6875-9.097657 11.253907-12.609375l24.664062 8.164062c5.4375-4.722656 10.976562-9.757812 16.433594-15.027344 20.003906-19.332031 38.804687-41.863281 47-63.996093 4.953125-13.714844 5.242187-32.445313-1.953125-47.265625-1.871094-3.855469-.269531-8.488282 3.585937-10.359375 3.847656-1.871094 8.488282-.269531 10.359375 3.585937zm0 0" fill="#c97e67"/><path d="m110.277344 370.417969c3.15625-.976563 6.578125-1.832031 10.269531-2.53125 0 0 .011719.019531.035156.039062.292969.34375 2.292969 2.6875 4.734375 6.503907 6.164063 9.582031 15.132813 28.382812 6.574219 47.335937-2.039063 4.507813-5.066406 9.023437-9.359375 13.4375-6.246094 6.398437-15.171875 12.566406-27.613281 18.113281-.234375.113282-.484375.21875-.730469.328125-2.457031 1.082031-5.117188 1.042969-7.421875.128907-2.429687-.960938-4.472656-2.90625-5.492187-5.542969-.164063-.429688-.328126-.859375-.496094-1.3125-3.121094-8.363281-6.628906-20.804688-6.105469-33.460938.234375-5.589843 1.242187-11.222656 3.441406-16.550781 4.53125-11.085938 14.125-20.910156 32.164063-26.488281zm0 0" fill="#ffa90b"/><path d="m120.546875 367.886719s.011719.019531.035156.039062c-7.753906 28.660157-24.957031 66.960938-33.816406 85.851563-2.429687-.960938-4.472656-2.910156-5.492187-5.542969-7.890626-20.367187-19.941407-69.109375 39.273437-80.347656zm0 0" fill="#ffc14f"/><path d="m102.347656 238.703125c17.578125 11.90625 29.109375 32.785156 31.925782 50.230469 4.402343 25.839844-.875 57.03125-8.957032 85.5-2.464844 8.691406-5.1875 17.125-7.972656 25.070312l14.546875 22.265625c-2.039063 4.507813-5.066406 9.023438-9.359375 13.433594-.558594-.476563-1.070312-1.050781-1.496094-1.703125l-10.429687-15.960938c-6.597657 16.710938-12.703125 29.664063-15.6875 35.78125-.234375.109376-.480469.21875-.730469.324219-2.453125 1.085938-5.113281 1.042969-7.421875.132813-2.429687-.960938-4.472656-2.910156-5.492187-5.542969-.164063-.429687-.328126-.859375-.496094-1.3125 2.878906-5.933594 9.492187-20.03125 16.507812-38.140625l-22.613281 4.675781c.234375-5.589843 1.242187-11.21875 3.441406-16.546875l25.441407-5.261718c2.347656-6.808594 4.628906-13.9375 6.71875-21.230469 7.65625-26.742188 12.675781-55.65625 8.707031-78.921875-2.570313-14.355469-11.683594-30.71875-25.324219-39.957032-3.550781-2.40625-4.476562-7.214843-2.074219-10.761718 2.394531-3.546875 7.214844-4.476563 10.765625-2.074219zm0 0" fill="#c97e67"/><path d="m187.007812 427.949219c2.246094-2.425781 4.78125-4.875 7.628907-7.324219 0 0 .019531.011719.050781.015625.425781.152344 3.328125 1.183594 7.351562 3.269531 10.128907 5.214844 27.296876 17.011719 29.363282 37.707032.484375 4.921874.121094 10.347656-1.386719 16.3125-2.210937 8.667968-6.855469 18.46875-14.859375 29.496093-.148438.214844-.308594.429688-.46875.648438-1.585938 2.164062-3.910156 3.460937-6.359375 3.824219-2.585937.382812-5.328125-.28125-7.527344-2.054688-.359375-.289062-.71875-.578125-1.089843-.886719-6.886719-5.683593-16.144532-14.707031-22.019532-25.925781-2.589844-4.960938-4.53125-10.339844-5.289062-16.054688-1.621094-11.871093 1.773437-25.175781 14.605468-39.027343zm0 0" fill="#ffa90b"/><path d="m194.636719 420.625s.019531.011719.050781.015625c7.613281 28.699219 11.867188 70.46875 13.640625 91.257813-2.585937.382812-5.328125-.28125-7.527344-2.054688-17.015625-13.691406-51.828125-49.878906-6.164062-89.21875zm0 0" fill="#ffc14f"/><path d="m114.28125 317.847656c21.179688 1.523438 41.605469 13.839844 52.765625 27.539063 16.734375 20.175781 27.761719 49.828125 34.992187 78.519531 2.210938 8.761719 4.074219 17.425781 5.632813 25.703125l23.730469 12.003906c.484375 4.925781.121094 10.351563-1.386719 16.316407-.726563-.132813-1.457031-.375-2.148437-.726563l-17.015626-8.605469c2.644532 17.769532 3.832032 32.039063 4.304688 38.828125-.148438.214844-.308594.429688-.46875.648438-1.585938 2.164062-3.910156 3.460937-6.359375 3.824219-2.585937.382812-5.328125-.28125-7.527344-2.054688-.359375-.289062-.71875-.578125-1.089843-.890625-.472657-6.574219-1.792969-22.089844-4.773438-41.28125l-17.246094 15.355469c-2.589844-4.957032-4.53125-10.339844-5.292968-16.050782l19.402343-17.277343c-1.371093-7.070313-2.960937-14.382813-4.796875-21.746094-6.738281-26.988281-16.851562-54.539063-31.917968-72.699219-9.40625-11.148437-25.480469-20.761718-41.914063-21.945312-4.273437-.304688-7.484375-4.007813-7.175781-8.28125.304687-4.269532 4.011718-7.488282 8.285156-7.179688zm0 0" fill="#c97e67"/><path d="m282.226562 439.410156c.730469-3.222656 1.703126-6.613281 2.945313-10.160156 0 0 .019531 0 .050781-.011719.445313-.082031 3.472656-.640625 8-.847656 11.378906-.546875 32.144532 1.085937 44.28125 17.976563 2.882813 4.019531 5.28125 8.898437 6.957032 14.824218 2.417968 8.609375 3.296874 19.421875 1.878906 32.972656-.019532.257813-.050782.527344-.082032.796876-.289062 2.664062-1.652343 4.949218-3.597656 6.488281-2.042968 1.625-4.753906 2.421875-7.542968 1.984375-.457032-.070313-.910157-.144532-1.386719-.226563-8.804688-1.476562-21.332031-4.660156-32.03125-11.441406-4.722657-2.996094-9.097657-6.6875-12.609375-11.257813-7.339844-9.46875-11.050782-22.6875-6.863282-41.097656zm0 0" fill="#ffa90b"/><path d="m285.171875 429.25s.019531 0 .050781-.011719c20.941406 21.046875 45.511719 55.09375 57.4375 72.210938-2.042968 1.625-4.753906 2.421875-7.542968 1.984375-21.582032-3.347656-69.824219-17.28125-49.945313-74.183594zm0 0" fill="#ffc14f"/><path d="m164.191406 380.421875c19.101563-9.273437 42.949219-8.816406 59.46875-2.535156 24.578125 9.109375 48.953125 29.273437 69.5625 50.503906 6.292969 6.484375 12.238282 13.058594 17.726563 19.445313l26.554687-1.46875c2.882813 4.019531 5.28125 8.898437 6.957032 14.824218-.691407.246094-1.449219.402344-2.222657.441406l-19.039062 1.054688c11.171875 14.070312 19.339843 25.832031 23.140625 31.476562-.019532.257813-.050782.527344-.082032.796876-.289062 2.664062-1.652343 4.949218-3.597656 6.488281-2.042968 1.625-4.753906 2.421875-7.542968 1.984375-.457032-.070313-.910157-.144532-1.386719-.226563-3.699219-5.457031-12.597657-18.234375-24.777344-33.367187l-7.253906 21.925781c-4.722657-2.996094-9.097657-6.6875-12.609375-11.257813l8.164062-24.660156c-4.722656-5.4375-9.757812-10.980468-15.027344-16.4375-19.332031-20-41.863281-38.800781-63.996093-47-13.714844-4.949218-32.445313-5.238281-47.265625 1.953125-3.855469 1.871094-8.488282.269531-10.359375-3.585937-1.871094-3.84375-.269531-8.484375 3.585937-10.355469zm0 0" fill="#c97e67"/><path d="m370.417969 401.726562c-.976563-3.160156-1.832031-6.582031-2.53125-10.269531 0 0 .019531-.011719.039062-.035156.34375-.292969 2.6875-2.292969 6.503907-4.734375 9.582031-6.164062 28.382812-15.132812 47.335937-6.574219 4.507813 2.039063 9.023437 5.066407 13.4375 9.359375 6.398437 6.246094 12.566406 15.171875 18.113281 27.613282.113282.234374.21875.480468.328125.730468 1.082031 2.453125 1.042969 5.117188.128907 7.421875-.960938 2.429688-2.90625 4.472657-5.542969 5.492188-.429688.164062-.859375.328125-1.3125.496093-8.363281 3.121094-20.804688 6.628907-33.460938 6.105469-5.589843-.234375-11.222656-1.242187-16.550781-3.441406-11.085938-4.535156-20.910156-14.128906-26.488281-32.164063zm0 0" fill="#ffa90b"/><path d="m367.886719 391.457031s.019531-.011719.039062-.035156c28.660157 7.753906 66.960938 24.957031 85.851563 33.816406-.960938 2.425781-2.910156 4.472657-5.542969 5.492188-20.367187 7.890625-69.109375 19.941406-80.347656-39.273438zm0 0" fill="#ffc14f"/><path d="m238.703125 409.65625c11.90625-17.578125 32.785156-29.109375 50.230469-31.925781 25.839844-4.402344 57.03125.875 85.5 8.957031 8.691406 2.464844 17.125 5.183594 25.070312 7.972656l22.265625-14.546875c4.507813 2.039063 9.023438 5.066407 13.433594 9.355469-.476563.5625-1.050781 1.074219-1.703125 1.496094l-15.960938 10.433594c16.710938 6.597656 29.664063 12.699218 35.78125 15.6875.109376.234374.21875.480468.324219.730468 1.085938 2.453125 1.042969 5.113282.132813 7.421875-.960938 2.425781-2.910156 4.472657-5.542969 5.492188-.429687.164062-.859375.328125-1.3125.496093-5.933594-2.878906-20.03125-9.492187-38.140625-16.511718l4.675781 22.617187c-5.589843-.234375-11.21875-1.242187-16.546875-3.445312l-5.261718-25.441407c-6.808594-2.34375-13.9375-4.625-21.230469-6.71875-26.742188-7.65625-55.65625-12.671874-78.921875-8.707031-14.355469 2.574219-30.71875 11.6875-39.957032 25.328125-2.40625 3.546875-7.214843 4.476563-10.761718 2.074219-3.546875-2.398437-4.476563-7.21875-2.074219-10.765625zm0 0" fill="#c97e67"/><path d="m427.949219 324.996094c-2.425781-2.25-4.875-4.785156-7.324219-7.632813 0 0 .011719-.015625.015625-.046875.152344-.425781 1.183594-3.328125 3.269531-7.355468 5.214844-10.128907 17.011719-27.296876 37.707032-29.359376 4.921874-.488281 10.347656-.125 16.3125 1.386719 8.667968 2.210938 18.46875 6.855469 29.496093 14.855469.214844.148438.429688.308594.648438.472656 2.164062 1.582032 3.460937 3.90625 3.824219 6.359375.382812 2.585938-.28125 5.328125-2.054688 7.527344-.289062.355469-.578125.714844-.886719 1.085937-5.683593 6.886719-14.707031 16.144532-25.925781 22.019532-4.960938 2.59375-10.339844 4.535156-16.054688 5.292968-11.871093 1.621094-25.175781-1.773437-39.027343-14.605468zm0 0" fill="#ffa90b"/><path d="m420.625 317.363281s.011719-.015625.015625-.046875c28.699219-7.617187 70.46875-11.867187 91.257813-13.640625.382812 2.585938-.28125 5.328125-2.054688 7.527344-13.691406 17.015625-49.878906 51.828125-89.21875 6.160156zm0 0" fill="#ffc14f"/><path d="m317.847656 397.71875c1.523438-21.175781 13.839844-41.601562 27.539063-52.765625 20.175781-16.730469 49.828125-27.757813 78.519531-34.992187 8.761719-2.210938 17.425781-4.070313 25.703125-5.628907l12.003906-23.730469c4.925781-.488281 10.351563-.125 16.316407 1.386719-.132813.722657-.375 1.453125-.726563 2.148438l-8.605469 17.015625c17.769532-2.644532 32.039063-3.832032 38.828125-4.304688.214844.144532.429688.308594.648438.46875 2.164062 1.585938 3.460937 3.90625 3.824219 6.359375.382812 2.585938-.28125 5.328125-2.054688 7.527344-.289062.359375-.578125.714844-.890625 1.085937-6.574219.476563-22.089844 1.796876-41.28125 4.777344l15.355469 17.246094c-4.957032 2.589844-10.339844 4.53125-16.050782 5.289062l-17.277343-19.402343c-7.070313 1.375-14.382813 2.964843-21.746094 4.800781-26.988281 6.738281-54.539063 16.851562-72.699219 31.917969-11.148437 9.402343-20.761718 25.480469-21.945312 41.914062-.304688 4.273438-4.007813 7.484375-8.28125 7.175781-4.269532-.304687-7.488282-4.011718-7.179688-8.289062zm0 0" fill="#c97e67"/><path d="m439.410156 229.777344c-3.222656-.734375-6.613281-1.707032-10.160156-2.945313 0 0 0-.019531-.011719-.050781-.082031-.445312-.640625-3.472656-.847656-8-.546875-11.382812 1.085937-32.148438 17.976563-44.28125 4.019531-2.886719 8.898437-5.285156 14.824218-6.957031 8.609375-2.421875 19.421875-3.296875 32.972656-1.882813.257813.019532.527344.050782.796876.082032 2.664062.289062 4.949218 1.65625 6.488281 3.597656 1.625 2.046875 2.421875 4.753906 1.984375 7.546875-.070313.453125-.144532.910156-.226563 1.382812-1.476562 8.808594-4.660156 21.335938-11.441406 32.035157-2.996094 4.722656-6.6875 9.09375-11.257813 12.609374-9.46875 7.339844-22.6875 11.050782-41.097656 6.863282zm0 0" fill="#ffa90b"/><path d="m429.25 226.832031s0-.019531-.011719-.050781c21.046875-20.941406 55.09375-45.511719 72.210938-57.441406 1.625 2.046875 2.421875 4.753906 1.984375 7.546875-3.347656 21.582031-17.28125 69.820312-74.183594 49.945312zm0 0" fill="#ffc14f"/><path d="m380.421875 347.808594c-9.273437-19.101563-8.816406-42.945313-2.535156-59.464844 9.109375-24.578125 29.273437-48.953125 50.503906-69.5625 6.484375-6.296875 13.058594-12.238281 19.445313-17.730469l-1.46875-26.550781c4.019531-2.886719 8.898437-5.285156 14.824218-6.957031.246094.691406.402344 1.445312.441406 2.222656l1.054688 19.039063c14.070312-11.175782 25.832031-19.339844 31.476562-23.144532.257813.019532.527344.050782.796876.082032 2.664062.289062 4.949218 1.65625 6.488281 3.597656 1.625 2.046875 2.421875 4.753906 1.984375 7.546875-.070313.453125-.144532.910156-.226563 1.382812-5.457031 3.703125-18.234375 12.601563-33.367187 24.777344l21.925781 7.257813c-2.996094 4.722656-6.6875 9.09375-11.257813 12.609374l-24.660156-8.164062c-5.4375 4.722656-10.980468 9.753906-16.4375 15.027344-20 19.328125-38.800781 41.863281-47 63.992187-4.949218 13.71875-5.238281 32.445313 1.953125 47.269531 1.871094 3.855469.269531 8.484376-3.585937 10.355469-3.84375 1.871094-8.484375.269531-10.355469-3.585937zm0 0" fill="#c97e67"/><path d="m401.726562 141.585938c-3.160156.976562-6.582031 1.832031-10.269531 2.527343 0 0-.011719-.015625-.035156-.039062-.292969-.339844-2.292969-2.6875-4.734375-6.503907-6.164062-9.582031-15.132812-28.382812-6.574219-47.335937 2.039063-4.507813 5.066407-9.023437 9.359375-13.433594 6.246094-6.402343 15.171875-12.566406 27.613282-18.117187.234374-.109375.480468-.21875.730468-.324219 2.453125-1.085937 5.117188-1.042969 7.421875-.132813 2.429688.960938 4.472657 2.910157 5.492188 5.542969.164062.429688.328125.859375.496093 1.3125 3.121094 8.367188 6.628907 20.808594 6.105469 33.460938-.234375 5.589843-1.242187 11.222656-3.441406 16.550781-4.535156 11.089844-14.128906 20.914062-32.164063 26.492188zm0 0" fill="#ffa90b"/><path d="m391.457031 144.113281s-.011719-.015625-.035156-.039062c7.753906-28.65625 24.957031-66.960938 33.816406-85.847657 2.425781.960938 4.472657 2.910157 5.492188 5.542969 7.890625 20.363281 19.941406 69.109375-39.273438 80.34375zm0 0" fill="#ffc14f"/><path d="m409.65625 273.300781c-17.578125-11.90625-29.109375-32.785156-31.925781-50.234375-4.402344-25.839844.875-57.03125 8.957031-85.496094 2.464844-8.691406 5.183594-17.125 7.972656-25.074218l-14.546875-22.261719c2.039063-4.507813 5.066407-9.023437 9.355469-13.433594.5625.472657 1.074219 1.050781 1.496094 1.703125l10.433594 15.960938c6.597656-16.710938 12.699218-29.664063 15.6875-35.78125.234374-.109375.480468-.21875.730468-.324219 2.453125-1.085937 5.113282-1.042969 7.421875-.132813 2.425781.960938 4.472657 2.910157 5.492188 5.542969.164062.429688.328125.859375.496093 1.3125-2.878906 5.933594-9.492187 20.03125-16.511718 38.140625l22.617187-4.679687c-.234375 5.589843-1.242187 11.222656-3.445312 16.550781l-25.4375 5.261719c-2.347657 6.808593-4.628907 13.9375-6.71875 21.230469-7.65625 26.742187-12.675781 55.65625-8.707031 78.921874 2.570312 14.351563 11.683593 30.71875 25.324218 39.957032 3.550782 2.402344 4.476563 7.214844 2.074219 10.761718-2.398437 3.542969-7.21875 4.476563-10.765625 2.074219zm0 0" fill="#c97e67"/><path d="m324.996094 84.050781c-2.25 2.425781-4.785156 4.875-7.632813 7.328125 0 0-.015625-.011718-.046875-.019531-.425781-.148437-3.328125-1.179687-7.355468-3.265625-10.128907-5.214844-27.296876-17.011719-29.359376-37.707031-.488281-4.925781-.125-10.347657 1.386719-16.316407 2.210938-8.664062 6.855469-18.46875 14.855469-29.496093.148438-.210938.308594-.429688.472656-.644531 1.582032-2.167969 3.90625-3.460938 6.359375-3.824219 2.585938-.382813 5.328125.28125 7.527344 2.054687.355469.289063.714844.578125 1.085937.886719 6.886719 5.683594 16.144532 14.703125 22.019532 25.925781 2.59375 4.957032 4.535156 10.339844 5.292968 16.054688 1.621094 11.871094-1.773437 25.175781-14.605468 39.023437zm0 0" fill="#ffa90b"/><path d="m317.363281 91.378906s-.015625-.011718-.046875-.019531c-7.617187-28.695313-11.867187-70.464844-13.640625-91.253906 2.585938-.382813 5.328125.28125 7.527344 2.054687 17.015625 13.691406 51.828125 49.878906 6.160156 89.21875zm0 0" fill="#ffc14f"/><path d="m397.71875 194.15625c-21.175781-1.523438-41.601562-13.839844-52.765625-27.539062-16.730469-20.179688-27.757813-49.828126-34.992187-78.523438-2.210938-8.757812-4.070313-17.421875-5.628907-25.699219l-23.730469-12.007812c-.488281-4.921875-.125-10.347657 1.386719-16.3125.722657.128906 1.453125.375 2.148438.726562l17.015625 8.605469c-2.644532-17.769531-3.832032-32.039062-4.304688-38.828125.144532-.214844.308594-.429687.46875-.648437 1.585938-2.164063 3.90625-3.460938 6.359375-3.824219 2.585938-.382813 5.328125.28125 7.527344 2.054687.359375.289063.714844.578125 1.085937.886719.476563 6.578125 1.796876 22.09375 4.777344 41.285156l17.246094-15.359375c2.589844 4.960938 4.53125 10.339844 5.289062 16.054688l-19.402343 17.277344c1.375 7.070312 2.964843 14.382812 4.800781 21.746093 6.738281 26.984375 16.851562 54.535157 31.917969 72.699219 9.402343 11.144531 25.480469 20.761719 41.914062 21.941406 4.273438.308594 7.484375 4.011719 7.175781 8.285156-.304687 4.269532-4.011718 7.484376-8.289062 7.179688zm0 0" fill="#c97e67"/></svg>