<svg height="511pt" viewBox="0 0 511 511.99793" width="511pt" xmlns="http://www.w3.org/2000/svg"><path d="m381.417969 340.613281-33.472657-33.46875c-29.097656-31.203125-21.519531-57.34375-18.5-64.621093 1.289063-3.125-4.667968 11.316406 12.605469-30.554688 8.457031-20.621094-7.179687-34.917969-7.234375-35.019531-9.359375-9.160157-23.167968-11.691407-35.171875-6.457031l-12.105469 5.28125-17.574218 7.28125c-7.273438 3.019531-33.410156 10.59375-64.609375-18.503907l-33.472657-33.472656c-27.601562-27.605469-74.238281-25.585937-97.460937 6.953125-23.28125 32.621094-40.40625 37.660156-65.753906 35.847656-4.199219-.300781-7.847657 2.859375-8.148438 7.054688-.300781 4.199218 2.859375 7.847656 7.058594 8.148437 29.601563 2.125 52.0625-4.09375 79.25-42.195312 17.738281-24.84375 53.328125-25.972657 74.277344-5.027344 43.347656 43.34375 31.675781 31.800781 33.75 33.742187 37.898437 35.421876 71.546875 25.4375 80.953125 21.535157 18.574218-7.597657 20.546875-8.578125 29.929687-12.671875 10.839844-4.726563 18.457031 3.464844 18.558594 3.515625 4.789063 4.789062 6.222656 11.933593 3.648437 18.203125-17.242187 41.792968-11.292968 27.378906-12.582031 30.496094-9.097656 21.925781-4.710937 54.292968 21.710938 81.148437l33.566406 33.566406c20.933594 20.933594 19.828125 56.519531-5.03125 74.273438-38.433594 27.425781-44.730469 49.828125-42.617187 79.253906.304687 4.242187 4.007812 7.363281 8.148437 7.054687 4.199219-.300781 7.359375-3.949218 7.058594-8.148437-1.804688-25.15625 3.308593-42.230469 36.269531-65.753906 32.546875-23.234375 34.546875-69.863281 6.949219-97.460938zm0 0" fill="#c1bde0"/><path d="m354.925781 410.703125c15.679688-11.183594 15.503907-33.515625 2.710938-46.308594l-34.039063-34.054687c-43.09375-45.984375-30.199218-88.699219-25.214844-100.703125l3.933594-9.496094c2.589844-6.257813-3.695312-12.558594-9.960937-9.960937l-9.507813 3.941406c-12.003906 4.980468-54.738281 17.875-100.734375-25.261719l-34.011719-34c-12.832031-12.832031-35.148437-12.925781-46.308593 2.707031-28.527344 39.976563-52.902344 53.113282-93.125 50.230469-4.1875-.300781-7.847657 2.855469-8.148438 7.054687-.300781 4.199219 2.855469 7.847657 7.058594 8.148438 45.347656 3.253906 75.246094-12.601562 106.625-56.578125 1.796875-2.515625 2.847656-3.1875 2.960937-3.257813 6.492188-3.921874 14.777344-2.90625 20.160157 2.476563 33.332031 33.332031 33.058593 33.125 34.3125 34.296875 46.136719 43.296875 90.394531 36.933594 110.175781 30.746094-6.191406 19.789062-12.542969 64.046875 30.746094 110.175781 1.917968 2.054687-8.058594-8.0625 34.296875 34.3125 5.382812 5.382813 6.402343 13.671875 2.480469 20.160156-.070313.113281-.746094 1.164063-3.261719 2.960938-43.972657 31.378906-59.835938 61.273437-56.578125 106.628906.289062 4.011719 3.632812 7.074219 7.59375 7.074219 4.445312 0 7.929687-3.761719 7.613281-8.167969-2.890625-40.230469 10.253906-64.597656 50.222656-93.125zm0 0" fill="#c1bde0"/><g fill="#fb5858"><path d="m261.617188 265.640625c0 8.152344-6.609376 14.761719-14.761719 14.761719-8.152344 0-14.761719-6.609375-14.761719-14.761719s6.609375-14.761719 14.761719-14.761719c8.152343 0 14.761719 6.609375 14.761719 14.761719zm0 0"/><path d="m142.730469 199.714844c0 8.152344-6.609375 14.761718-14.761719 14.761718s-14.761719-6.609374-14.761719-14.761718 6.609375-14.761719 14.761719-14.761719 14.761719 6.609375 14.761719 14.761719zm0 0"/><path d="m327.546875 384.53125c0 8.152344-6.609375 14.761719-14.761719 14.761719s-14.761718-6.609375-14.761718-14.761719 6.609374-14.761719 14.761718-14.761719 14.761719 6.609375 14.761719 14.761719zm0 0"/><path d="m353.289062 182.53125c-6.53125.25-13.402343-.269531-20.589843-1.660156 0 0-30.425781-99.441406 121.660156-131.308594 4.121094-.867188 7.8125 2.929688 7.382813 7.132812-.464844 4.652344-1.996094 11.933594-4.660157 20.675782-11.449219 37.742187-43.984375 103.015625-103.792969 105.160156zm0 0"/></g><path d="m353.289062 182.53125c.242188-28.941406 14.289063-80.097656 103.792969-105.15625-11.449219 37.738281-43.984375 103.011719-103.792969 105.15625zm0 0" fill="#fc7979"/><path d="m350.90625 167.695312c-5.183594 4.855469-11.21875 9.292969-18.210938 13.175782 0 0-85.609374-56.488282 10.410157-178.644532 2.613281-3.335937 7.863281-2.78125 10.253906.707032 3.730469 5.488281 9.09375 16.296875 13.9375 30.164062 13.171875 37.804688 22.402344 98.234375-16.390625 134.597656zm0 0" fill="#fd9a9a"/><path d="m350.90625 167.695312c-15.5-24.429687-27.054688-68.710937 16.390625-134.597656 13.171875 37.804688 22.402344 98.234375-16.390625 134.597656zm0 0" fill="#fdbcbc"/><path d="m509.859375 168.558594c-7.132813 5.636718-14.042969 10.652344-20.742187 15.09375-71.074219 47.246094-117.140626 30.226562-140.210938 13.226562-11.875-8.726562-17.664062-17.457031-17.664062-17.457031 43.484374-78.714844 155.445312-36.320313 177.882812-21.117187 3.496094 2.382812 4.0625 7.632812.734375 10.253906zm0 0" fill="#fd9a9a"/><path d="m489.117188 183.652344c-71.074219 47.246094-117.140626 30.226562-140.210938 13.226562 38.617188-39.960937 103.5-27.339844 140.210938-13.226562zm0 0" fill="#fdbcbc"/></svg>