<svg height="511pt" viewBox="0 0 511.99968 511" width="511pt" xmlns="http://www.w3.org/2000/svg"><g fill="#60c8dd"><path d="m242.738281 78.375c-103.171875-39.484375-177.675781-25.488281-234.910156-28.4375-4.324219 0-7.828125 3.5-7.828125 7.824219s3.503906 7.828125 7.828125 7.828125c68.800781.910156 96.148437-2.550782 144.144531 4.824218-44.972656 5.617188-77.679687 26.40625-95.234375 50.667969-35.523437 49.09375-4.210937 100.570313 38.796875 100.570313 10.328125 0 20.433594-3.035156 29.226563-8.890625 31.496093-20.976563 22.75-69.730469-11.117188-76.519531-9.609375-1.929688-19.390625.003906-27.546875 5.433593-14.191406 9.449219-18.046875 28.683594-8.597656 42.871094 14.191406 21.308594 47.316406 9.488281 38.640625-3.539063-2.394531-3.597656-7.25-4.574218-10.851563-2.175781-4.882812 3.253907-11.507812 1.925781-14.761718-2.960937-4.664063-7.003906-2.761719-16.5 4.246094-21.167969 9.652343-6.425781 22.738281-3.804687 29.171874 5.851563 8.632813 12.964843 5.109376 30.542968-7.859374 39.175781-17.144532 11.417969-40.261719 6.785156-51.683594-10.363281-21.289063-31.96875 5.078125-81.761719 66.734375-98.910157 52.390625-14.570312 103.421875 2.371094 107.113281 2.941407 9.417969 2.804687 14.746094-11.101563 4.488281-15.023438zm0 0"/><path d="m7.828125 26.535156h81.039063c93.09375 0 184.550781 31.828125 257.535156 89.621094 1.4375 1.136719 3.152344 1.691406 4.851562 1.691406 7.417969 0 10.640625-9.390625 4.863282-13.964844-75.734376-59.972656-170.644532-93-267.25-93h-81.039063c-4.324219 0-7.828125 3.503907-7.828125 7.828126 0 4.324218 3.503906 7.824218 7.828125 7.824218zm0 0"/><path d="m408.023438 155.789062c-2.683594-3.386718-7.605469-3.960937-10.996094-1.277343-3.386719 2.683593-3.960938 7.605469-1.277344 10.992187 57.792969 72.984375 89.621094 164.445313 89.621094 257.539063v81.035156c0 4.324219 3.503906 7.828125 7.824218 7.828125 4.324219 0 7.828126-3.503906 7.828126-7.828125v-81.035156c0-96.609375-33.027344-191.519531-93-267.253907zm0 0"/><path d="m418.507812 273.660156c.59375 3.851563 17.496094 54.765625 2.9375 107.109375-7.386718 26.578125-21.523437 48.496094-39.796874 61.71875-34.78125 25.171875-69.59375 8.269531-74.996094-18.675781-6.027344-30.0625 22.882812-50.371094 44.699218-35.847656 9.65625 6.429687 12.28125 19.519531 5.847657 29.171875-4.664063 7.007812-14.15625 8.910156-21.164063 4.246093-4.886718-3.253906-6.214844-9.878906-2.960937-14.761718 2.394531-3.597656 1.421875-8.457032-2.175781-10.851563-12.988282-8.652343-24.832032 24.460938-3.542969 38.640625 14.191406 9.449219 33.421875 5.59375 42.871093-8.597656 11.242188-16.875 6.679688-39.632812-10.199218-50.875-20.195313-13.445312-47.429688-7.996094-60.882813 12.210938-7.835937 11.765624-10.621093 25.878906-7.839843 39.742187 7.664062 38.234375 55.332031 60.257813 99.519531 28.28125 24.257812-17.554687 45.046875-50.257813 50.664062-95.234375 7.375 47.988281 3.917969 75.140625 4.828125 144.144531 0 4.324219 3.503906 7.824219 7.828125 7.824219 4.320313 0 7.824219-3.5 7.824219-7.824219-2.960938-57.433593 11.027344-131.796875-28.4375-234.910156-3.929688-10.285156-17.824219-4.898437-15.023438 4.488281zm0 0"/></g><path d="m376.929688 141.429688s8.222656 5.222656 16.304687 15.804687c13.703125 17.945313 27.066406 51.269531-.640625 100.621094-1.320312 2.382812-2.761719 4.78125-4.28125 7.222656-5.582031 8.960937-17.804688 9.101563-23.566406.28125-17.460938-26.667969-41.886719-81.179687 12.183594-123.929687zm0 0" fill="#44bfd7"/><path d="m387.871094 7.019531c1.503906 2.300781 3.0625 4.820313 4.621094 7.523438 14.324218 24.765625 28.367187 64.894531-.617188 100.601562-4.363281 5.402344-9.703125 10.683594-16.183594 15.804688 0 0-63.355468-40.332031-11.402344-123.628907 5.597657-8.960937 17.800782-9.121093 23.582032-.300781zm0 0" fill="#44bfd7"/><path d="m393.234375 157.234375c13.703125 17.945313 27.066406 51.269531-.640625 100.621094-14.28125-24.746094-28.347656-64.894531.640625-100.621094zm0 0" fill="#60c8dd"/><path d="m392.492188 14.542969c14.324218 24.765625 28.367187 64.894531-.617188 100.601562-13.703125-17.945312-27.066406-51.273437.617188-100.601562zm0 0" fill="#60c8dd"/><path d="m355.265625 120.625c5.382813 4.359375 10.679687 9.703125 15.804687 16.183594 0 0-40.332031 63.355468-123.648437 11.402344-8.964844-5.601563-9.105469-17.804688-.28125-23.585938 2.300781-1.5 4.800781-3.058594 7.5-4.621094 24.746094-14.300781 64.894531-28.363281 100.625.621094zm0 0" fill="#44bfd7"/><path d="m497.957031 119.90625c2.378907 1.320312 4.78125 2.757812 7.222657 4.28125 8.960937 5.578125 9.121093 17.800781.300781 23.582031-26.6875 17.445313-81.199219 41.871094-123.929688-12.199219 0 0 5.222657-8.222656 15.804688-16.304687 17.941406-13.703125 51.269531-27.066406 100.601562.640625zm0 0" fill="#44bfd7"/><path d="m355.265625 120.625c-17.945313 13.722656-51.292969 27.085938-100.625-.621094 24.746094-14.300781 64.894531-28.363281 100.625.621094zm0 0" fill="#60c8dd"/><path d="m497.957031 119.90625c-24.765625 14.300781-64.894531 28.34375-100.601562-.640625 17.941406-13.703125 51.269531-27.066406 100.601562.640625zm0 0" fill="#60c8dd"/><path d="m464.796875 127.847656h-77.660156v-76.433594c0-5.296874-4.296875-9.589843-9.59375-9.589843s-9.589844 4.292969-9.589844 9.589843v77.660157h-76.433594c-5.296875 0-9.589843 4.296875-9.589843 9.59375s4.292968 9.589843 9.589843 9.589843h77.660157v76.433594c0 5.296875 4.296874 9.589844 9.59375 9.589844 2.648437 0 5.046874-1.074219 6.78125-2.808594 1.734374-1.734375 2.808593-4.132812 2.808593-6.78125v-77.660156h76.433594c2.648437 0 5.046875-1.074219 6.78125-2.808594 1.734375-1.738281 2.808594-4.132812 2.808594-6.78125 0-5.296875-4.292969-9.59375-9.589844-9.59375zm0 0" fill="#def4f8"/><path d="m376.308594 96.421875c14.726562 0 27.566406 8 34.449218 19.882813 3.382813 5.84375 5.320313 12.644531 5.320313 19.886718 0 21.964844-17.800781 39.789063-39.769531 39.789063-21.964844 0-39.789063-17.828125-39.789063-39.789063 0-7.242187 1.941407-14.042968 5.34375-19.886718 6.859375-11.882813 19.722657-19.882813 34.445313-19.882813zm0 0" fill="#269ab1"/><path d="m376.308594 96.421875c14.726562 0 27.566406 8 34.449218 19.882813-6.882812 11.882812-19.722656 19.886718-34.449218 19.886718-14.722656 0-27.585938-8.003906-34.445313-19.886718 6.859375-11.882813 19.722657-19.882813 34.445313-19.882813zm0 0" fill="#2cb3cd"/></svg>